M48
; DRILL file {KiCad (5.1.6-0-10_14)} date Friday, June 12, 2020 at 01:27:31 PM
; FORMAT={-:-/ absolute / inch / decimal}
; #@! TF.CreationDate,2020-06-12T13:27:31+08:00
; #@! TF.GenerationSoftware,Kicad,Pcbnew,(5.1.6-0-10_14)
; #@! TF.FileFunction,Plated,1,2,PTH
FMAT,2
INCH
T1C0.0157
T2C0.0197
T3C0.0300
T4C0.0315
T5C0.0354
T6C0.0394
T7C0.0866
T8C0.1260
%
G90
G05
T1
X3.89Y-2.49
X4.04Y-2.49
X5.19Y-4.12
X5.44Y-4.12
X5.4599Y-3.3619
X5.99Y-3.74
X6.1Y-1.74
X6.24Y-3.74
X6.56Y-1.38
X6.56Y-1.51
X7.2699Y-2.7146
X7.57Y-3.79
T2
X5.811Y-3.4646
X5.8387Y-3.3978
X5.8387Y-3.5314
X5.9055Y-3.3701
X5.9055Y-3.5591
X5.9723Y-3.3978
X5.9723Y-3.5314
X6.0Y-3.4646
T3
X7.5591Y-1.5453
X7.5591Y-1.6437
X7.5591Y-1.7421
X7.5591Y-1.8406
X7.5591Y-1.939
X7.5591Y-2.0374
X7.6378Y-1.4961
X7.6378Y-1.5945
X7.6378Y-1.6929
X7.6378Y-1.7913
X7.6378Y-1.8898
X7.6378Y-1.9882
X7.6378Y-2.0866
X4.0551Y-3.3465
X4.0551Y-3.4449
X4.0551Y-3.5433
X4.0551Y-3.6417
X4.0551Y-3.7402
X4.0551Y-3.8386
X4.0551Y-3.937
X4.1339Y-3.3957
X4.1339Y-3.4941
X4.1339Y-3.5925
X4.1339Y-3.6909
X4.1339Y-3.7894
X4.1339Y-3.8878
X7.6772Y-3.3957
X7.6772Y-3.4941
X7.6772Y-3.5925
X7.6772Y-3.6909
X7.6772Y-3.7894
X7.6772Y-3.8878
X7.7559Y-3.3465
X7.7559Y-3.4449
X7.7559Y-3.5433
X7.7559Y-3.6417
X7.7559Y-3.7402
X7.7559Y-3.8386
X7.7559Y-3.937
X4.1732Y-1.4961
X4.1732Y-1.5945
X4.1732Y-1.6929
X4.1732Y-1.7913
X4.1732Y-1.8898
X4.1732Y-1.9882
X4.1732Y-2.0866
X4.252Y-1.5453
X4.252Y-1.6437
X4.252Y-1.7421
X4.252Y-1.8406
X4.252Y-1.939
X4.252Y-2.0374
T4
X6.4961Y-3.8913
X6.4961Y-4.2913
X6.1024Y-3.8913
X6.1024Y-4.2913
X5.7087Y-3.8913
X5.7087Y-4.2913
X5.315Y-3.8913
X5.315Y-4.2913
T5
X5.315Y-4.4626
X5.315Y-4.5626
X6.4961Y-4.4626
X6.4961Y-4.5626
X6.1024Y-4.4626
X6.1024Y-4.5626
X5.7087Y-4.4626
X5.7087Y-4.5626
T6
X6.9685Y-4.3701
X7.0685Y-4.3701
X7.1685Y-4.3701
X7.2685Y-4.3701
X7.3685Y-4.3701
X7.4685Y-4.3701
X7.5685Y-4.3701
X7.6685Y-4.3701
X7.7685Y-4.3701
X7.8685Y-4.3701
X5.2657Y-2.5742
X5.2657Y-3.1732
X5.3657Y-2.5742
X5.3657Y-3.1732
X5.4657Y-2.5742
X5.4657Y-2.6742
X5.4657Y-2.8732
X5.4657Y-2.9732
X5.4657Y-3.0732
X5.4657Y-3.1732
X5.5657Y-2.5742
X5.5657Y-3.1732
X5.6657Y-2.5742
X5.6657Y-3.1732
X5.7657Y-2.5742
X5.7657Y-3.1732
X5.8657Y-2.5742
X5.8657Y-3.1732
X5.9657Y-2.5742
X5.9657Y-3.1732
X6.0657Y-2.5742
X6.0657Y-3.1732
X6.1657Y-2.5742
X6.1657Y-3.1732
X6.2657Y-2.5742
X6.2657Y-3.1732
X6.3657Y-2.5742
X6.3657Y-3.1732
X6.5657Y-2.5742
X6.5657Y-3.1732
X6.6657Y-2.5742
X6.6657Y-3.1732
X6.7657Y-2.5742
X6.7657Y-3.1732
X6.8657Y-2.5742
X6.8657Y-3.1732
X6.9657Y-2.5742
X6.9657Y-3.1732
X7.0657Y-2.5742
X7.0657Y-3.1732
X3.9425Y-4.3701
X4.0425Y-4.3701
X4.1425Y-4.3701
X4.2425Y-4.3701
X4.3425Y-4.3701
X4.4425Y-4.3701
X4.5425Y-4.3701
X4.6425Y-4.3701
X4.7425Y-4.3701
X4.8425Y-4.3701
T7
X5.1545Y-2.5982
X5.1545Y-3.1492
T8
X5.9055Y-3.4646
T0
M30
