G04 #@! TF.GenerationSoftware,KiCad,Pcbnew,(5.1.6-0-10_14)*
G04 #@! TF.CreationDate,2020-06-12T13:27:27+08:00*
G04 #@! TF.ProjectId,Kinesis,4b696e65-7369-4732-9e6b-696361645f70,rev?*
G04 #@! TF.SameCoordinates,Original*
G04 #@! TF.FileFunction,Soldermask,Top*
G04 #@! TF.FilePolarity,Negative*
%FSLAX46Y46*%
G04 Gerber Fmt 4.6, Leading zero omitted, Abs format (unit mm)*
G04 Created by KiCad (PCBNEW (5.1.6-0-10_14)) date 2020-06-12 13:27:27*
%MOMM*%
%LPD*%
G01*
G04 APERTURE LIST*
%ADD10C,0.100000*%
G04 APERTURE END LIST*
D10*
G36*
X165277395Y-114975546D02*
G01*
X165450466Y-115047234D01*
X165450467Y-115047235D01*
X165606227Y-115151310D01*
X165738690Y-115283773D01*
X165738691Y-115283775D01*
X165842766Y-115439534D01*
X165914454Y-115612605D01*
X165951000Y-115796333D01*
X165951000Y-115983667D01*
X165914454Y-116167395D01*
X165842766Y-116340466D01*
X165842765Y-116340467D01*
X165738690Y-116496227D01*
X165606227Y-116628690D01*
X165527818Y-116681081D01*
X165450466Y-116732766D01*
X165277395Y-116804454D01*
X165093667Y-116841000D01*
X164906333Y-116841000D01*
X164722605Y-116804454D01*
X164549534Y-116732766D01*
X164472182Y-116681081D01*
X164393773Y-116628690D01*
X164261310Y-116496227D01*
X164157235Y-116340467D01*
X164157234Y-116340466D01*
X164085546Y-116167395D01*
X164049000Y-115983667D01*
X164049000Y-115796333D01*
X164085546Y-115612605D01*
X164157234Y-115439534D01*
X164261309Y-115283775D01*
X164261310Y-115283773D01*
X164393773Y-115151310D01*
X164549533Y-115047235D01*
X164549534Y-115047234D01*
X164722605Y-114975546D01*
X164906333Y-114939000D01*
X165093667Y-114939000D01*
X165277395Y-114975546D01*
G37*
G36*
X155277395Y-114975546D02*
G01*
X155450466Y-115047234D01*
X155450467Y-115047235D01*
X155606227Y-115151310D01*
X155738690Y-115283773D01*
X155738691Y-115283775D01*
X155842766Y-115439534D01*
X155914454Y-115612605D01*
X155951000Y-115796333D01*
X155951000Y-115983667D01*
X155914454Y-116167395D01*
X155842766Y-116340466D01*
X155842765Y-116340467D01*
X155738690Y-116496227D01*
X155606227Y-116628690D01*
X155527818Y-116681081D01*
X155450466Y-116732766D01*
X155277395Y-116804454D01*
X155093667Y-116841000D01*
X154906333Y-116841000D01*
X154722605Y-116804454D01*
X154549534Y-116732766D01*
X154472182Y-116681081D01*
X154393773Y-116628690D01*
X154261310Y-116496227D01*
X154157235Y-116340467D01*
X154157234Y-116340466D01*
X154085546Y-116167395D01*
X154049000Y-115983667D01*
X154049000Y-115796333D01*
X154085546Y-115612605D01*
X154157234Y-115439534D01*
X154261309Y-115283775D01*
X154261310Y-115283773D01*
X154393773Y-115151310D01*
X154549533Y-115047235D01*
X154549534Y-115047234D01*
X154722605Y-114975546D01*
X154906333Y-114939000D01*
X155093667Y-114939000D01*
X155277395Y-114975546D01*
G37*
G36*
X145277395Y-114975546D02*
G01*
X145450466Y-115047234D01*
X145450467Y-115047235D01*
X145606227Y-115151310D01*
X145738690Y-115283773D01*
X145738691Y-115283775D01*
X145842766Y-115439534D01*
X145914454Y-115612605D01*
X145951000Y-115796333D01*
X145951000Y-115983667D01*
X145914454Y-116167395D01*
X145842766Y-116340466D01*
X145842765Y-116340467D01*
X145738690Y-116496227D01*
X145606227Y-116628690D01*
X145527818Y-116681081D01*
X145450466Y-116732766D01*
X145277395Y-116804454D01*
X145093667Y-116841000D01*
X144906333Y-116841000D01*
X144722605Y-116804454D01*
X144549534Y-116732766D01*
X144472182Y-116681081D01*
X144393773Y-116628690D01*
X144261310Y-116496227D01*
X144157235Y-116340467D01*
X144157234Y-116340466D01*
X144085546Y-116167395D01*
X144049000Y-115983667D01*
X144049000Y-115796333D01*
X144085546Y-115612605D01*
X144157234Y-115439534D01*
X144261309Y-115283775D01*
X144261310Y-115283773D01*
X144393773Y-115151310D01*
X144549533Y-115047235D01*
X144549534Y-115047234D01*
X144722605Y-114975546D01*
X144906333Y-114939000D01*
X145093667Y-114939000D01*
X145277395Y-114975546D01*
G37*
G36*
X135277395Y-114975546D02*
G01*
X135450466Y-115047234D01*
X135450467Y-115047235D01*
X135606227Y-115151310D01*
X135738690Y-115283773D01*
X135738691Y-115283775D01*
X135842766Y-115439534D01*
X135914454Y-115612605D01*
X135951000Y-115796333D01*
X135951000Y-115983667D01*
X135914454Y-116167395D01*
X135842766Y-116340466D01*
X135842765Y-116340467D01*
X135738690Y-116496227D01*
X135606227Y-116628690D01*
X135527818Y-116681081D01*
X135450466Y-116732766D01*
X135277395Y-116804454D01*
X135093667Y-116841000D01*
X134906333Y-116841000D01*
X134722605Y-116804454D01*
X134549534Y-116732766D01*
X134472182Y-116681081D01*
X134393773Y-116628690D01*
X134261310Y-116496227D01*
X134157235Y-116340467D01*
X134157234Y-116340466D01*
X134085546Y-116167395D01*
X134049000Y-115983667D01*
X134049000Y-115796333D01*
X134085546Y-115612605D01*
X134157234Y-115439534D01*
X134261309Y-115283775D01*
X134261310Y-115283773D01*
X134393773Y-115151310D01*
X134549533Y-115047235D01*
X134549534Y-115047234D01*
X134722605Y-114975546D01*
X134906333Y-114939000D01*
X135093667Y-114939000D01*
X135277395Y-114975546D01*
G37*
G36*
X165951000Y-114301000D02*
G01*
X164049000Y-114301000D01*
X164049000Y-112399000D01*
X165951000Y-112399000D01*
X165951000Y-114301000D01*
G37*
G36*
X155951000Y-114301000D02*
G01*
X154049000Y-114301000D01*
X154049000Y-112399000D01*
X155951000Y-112399000D01*
X155951000Y-114301000D01*
G37*
G36*
X145951000Y-114301000D02*
G01*
X144049000Y-114301000D01*
X144049000Y-112399000D01*
X145951000Y-112399000D01*
X145951000Y-114301000D01*
G37*
G36*
X135951000Y-114301000D02*
G01*
X134049000Y-114301000D01*
X134049000Y-112399000D01*
X135951000Y-112399000D01*
X135951000Y-114301000D01*
G37*
G36*
X179653512Y-110103927D02*
G01*
X179802812Y-110133624D01*
X179966784Y-110201544D01*
X180114354Y-110300147D01*
X180239853Y-110425646D01*
X180338456Y-110573216D01*
X180406376Y-110737188D01*
X180441000Y-110911259D01*
X180441000Y-111088741D01*
X180406376Y-111262812D01*
X180338456Y-111426784D01*
X180239853Y-111574354D01*
X180114354Y-111699853D01*
X179966784Y-111798456D01*
X179802812Y-111866376D01*
X179653512Y-111896073D01*
X179628742Y-111901000D01*
X179451258Y-111901000D01*
X179426488Y-111896073D01*
X179277188Y-111866376D01*
X179113216Y-111798456D01*
X178965646Y-111699853D01*
X178840147Y-111574354D01*
X178741544Y-111426784D01*
X178673624Y-111262812D01*
X178639000Y-111088741D01*
X178639000Y-110911259D01*
X178673624Y-110737188D01*
X178741544Y-110573216D01*
X178840147Y-110425646D01*
X178965646Y-110300147D01*
X179113216Y-110201544D01*
X179277188Y-110133624D01*
X179426488Y-110103927D01*
X179451258Y-110099000D01*
X179628742Y-110099000D01*
X179653512Y-110103927D01*
G37*
G36*
X177901000Y-111901000D02*
G01*
X176099000Y-111901000D01*
X176099000Y-110099000D01*
X177901000Y-110099000D01*
X177901000Y-111901000D01*
G37*
G36*
X123901000Y-111901000D02*
G01*
X122099000Y-111901000D01*
X122099000Y-110099000D01*
X123901000Y-110099000D01*
X123901000Y-111901000D01*
G37*
G36*
X120573512Y-110103927D02*
G01*
X120722812Y-110133624D01*
X120886784Y-110201544D01*
X121034354Y-110300147D01*
X121159853Y-110425646D01*
X121258456Y-110573216D01*
X121326376Y-110737188D01*
X121361000Y-110911259D01*
X121361000Y-111088741D01*
X121326376Y-111262812D01*
X121258456Y-111426784D01*
X121159853Y-111574354D01*
X121034354Y-111699853D01*
X120886784Y-111798456D01*
X120722812Y-111866376D01*
X120573512Y-111896073D01*
X120548742Y-111901000D01*
X120371258Y-111901000D01*
X120346488Y-111896073D01*
X120197188Y-111866376D01*
X120033216Y-111798456D01*
X119885646Y-111699853D01*
X119760147Y-111574354D01*
X119661544Y-111426784D01*
X119593624Y-111262812D01*
X119559000Y-111088741D01*
X119559000Y-110911259D01*
X119593624Y-110737188D01*
X119661544Y-110573216D01*
X119760147Y-110425646D01*
X119885646Y-110300147D01*
X120033216Y-110201544D01*
X120197188Y-110133624D01*
X120346488Y-110103927D01*
X120371258Y-110099000D01*
X120548742Y-110099000D01*
X120573512Y-110103927D01*
G37*
G36*
X118033512Y-110103927D02*
G01*
X118182812Y-110133624D01*
X118346784Y-110201544D01*
X118494354Y-110300147D01*
X118619853Y-110425646D01*
X118718456Y-110573216D01*
X118786376Y-110737188D01*
X118821000Y-110911259D01*
X118821000Y-111088741D01*
X118786376Y-111262812D01*
X118718456Y-111426784D01*
X118619853Y-111574354D01*
X118494354Y-111699853D01*
X118346784Y-111798456D01*
X118182812Y-111866376D01*
X118033512Y-111896073D01*
X118008742Y-111901000D01*
X117831258Y-111901000D01*
X117806488Y-111896073D01*
X117657188Y-111866376D01*
X117493216Y-111798456D01*
X117345646Y-111699853D01*
X117220147Y-111574354D01*
X117121544Y-111426784D01*
X117053624Y-111262812D01*
X117019000Y-111088741D01*
X117019000Y-110911259D01*
X117053624Y-110737188D01*
X117121544Y-110573216D01*
X117220147Y-110425646D01*
X117345646Y-110300147D01*
X117493216Y-110201544D01*
X117657188Y-110133624D01*
X117806488Y-110103927D01*
X117831258Y-110099000D01*
X118008742Y-110099000D01*
X118033512Y-110103927D01*
G37*
G36*
X115493512Y-110103927D02*
G01*
X115642812Y-110133624D01*
X115806784Y-110201544D01*
X115954354Y-110300147D01*
X116079853Y-110425646D01*
X116178456Y-110573216D01*
X116246376Y-110737188D01*
X116281000Y-110911259D01*
X116281000Y-111088741D01*
X116246376Y-111262812D01*
X116178456Y-111426784D01*
X116079853Y-111574354D01*
X115954354Y-111699853D01*
X115806784Y-111798456D01*
X115642812Y-111866376D01*
X115493512Y-111896073D01*
X115468742Y-111901000D01*
X115291258Y-111901000D01*
X115266488Y-111896073D01*
X115117188Y-111866376D01*
X114953216Y-111798456D01*
X114805646Y-111699853D01*
X114680147Y-111574354D01*
X114581544Y-111426784D01*
X114513624Y-111262812D01*
X114479000Y-111088741D01*
X114479000Y-110911259D01*
X114513624Y-110737188D01*
X114581544Y-110573216D01*
X114680147Y-110425646D01*
X114805646Y-110300147D01*
X114953216Y-110201544D01*
X115117188Y-110133624D01*
X115266488Y-110103927D01*
X115291258Y-110099000D01*
X115468742Y-110099000D01*
X115493512Y-110103927D01*
G37*
G36*
X112953512Y-110103927D02*
G01*
X113102812Y-110133624D01*
X113266784Y-110201544D01*
X113414354Y-110300147D01*
X113539853Y-110425646D01*
X113638456Y-110573216D01*
X113706376Y-110737188D01*
X113741000Y-110911259D01*
X113741000Y-111088741D01*
X113706376Y-111262812D01*
X113638456Y-111426784D01*
X113539853Y-111574354D01*
X113414354Y-111699853D01*
X113266784Y-111798456D01*
X113102812Y-111866376D01*
X112953512Y-111896073D01*
X112928742Y-111901000D01*
X112751258Y-111901000D01*
X112726488Y-111896073D01*
X112577188Y-111866376D01*
X112413216Y-111798456D01*
X112265646Y-111699853D01*
X112140147Y-111574354D01*
X112041544Y-111426784D01*
X111973624Y-111262812D01*
X111939000Y-111088741D01*
X111939000Y-110911259D01*
X111973624Y-110737188D01*
X112041544Y-110573216D01*
X112140147Y-110425646D01*
X112265646Y-110300147D01*
X112413216Y-110201544D01*
X112577188Y-110133624D01*
X112726488Y-110103927D01*
X112751258Y-110099000D01*
X112928742Y-110099000D01*
X112953512Y-110103927D01*
G37*
G36*
X110413512Y-110103927D02*
G01*
X110562812Y-110133624D01*
X110726784Y-110201544D01*
X110874354Y-110300147D01*
X110999853Y-110425646D01*
X111098456Y-110573216D01*
X111166376Y-110737188D01*
X111201000Y-110911259D01*
X111201000Y-111088741D01*
X111166376Y-111262812D01*
X111098456Y-111426784D01*
X110999853Y-111574354D01*
X110874354Y-111699853D01*
X110726784Y-111798456D01*
X110562812Y-111866376D01*
X110413512Y-111896073D01*
X110388742Y-111901000D01*
X110211258Y-111901000D01*
X110186488Y-111896073D01*
X110037188Y-111866376D01*
X109873216Y-111798456D01*
X109725646Y-111699853D01*
X109600147Y-111574354D01*
X109501544Y-111426784D01*
X109433624Y-111262812D01*
X109399000Y-111088741D01*
X109399000Y-110911259D01*
X109433624Y-110737188D01*
X109501544Y-110573216D01*
X109600147Y-110425646D01*
X109725646Y-110300147D01*
X109873216Y-110201544D01*
X110037188Y-110133624D01*
X110186488Y-110103927D01*
X110211258Y-110099000D01*
X110388742Y-110099000D01*
X110413512Y-110103927D01*
G37*
G36*
X107873512Y-110103927D02*
G01*
X108022812Y-110133624D01*
X108186784Y-110201544D01*
X108334354Y-110300147D01*
X108459853Y-110425646D01*
X108558456Y-110573216D01*
X108626376Y-110737188D01*
X108661000Y-110911259D01*
X108661000Y-111088741D01*
X108626376Y-111262812D01*
X108558456Y-111426784D01*
X108459853Y-111574354D01*
X108334354Y-111699853D01*
X108186784Y-111798456D01*
X108022812Y-111866376D01*
X107873512Y-111896073D01*
X107848742Y-111901000D01*
X107671258Y-111901000D01*
X107646488Y-111896073D01*
X107497188Y-111866376D01*
X107333216Y-111798456D01*
X107185646Y-111699853D01*
X107060147Y-111574354D01*
X106961544Y-111426784D01*
X106893624Y-111262812D01*
X106859000Y-111088741D01*
X106859000Y-110911259D01*
X106893624Y-110737188D01*
X106961544Y-110573216D01*
X107060147Y-110425646D01*
X107185646Y-110300147D01*
X107333216Y-110201544D01*
X107497188Y-110133624D01*
X107646488Y-110103927D01*
X107671258Y-110099000D01*
X107848742Y-110099000D01*
X107873512Y-110103927D01*
G37*
G36*
X105333512Y-110103927D02*
G01*
X105482812Y-110133624D01*
X105646784Y-110201544D01*
X105794354Y-110300147D01*
X105919853Y-110425646D01*
X106018456Y-110573216D01*
X106086376Y-110737188D01*
X106121000Y-110911259D01*
X106121000Y-111088741D01*
X106086376Y-111262812D01*
X106018456Y-111426784D01*
X105919853Y-111574354D01*
X105794354Y-111699853D01*
X105646784Y-111798456D01*
X105482812Y-111866376D01*
X105333512Y-111896073D01*
X105308742Y-111901000D01*
X105131258Y-111901000D01*
X105106488Y-111896073D01*
X104957188Y-111866376D01*
X104793216Y-111798456D01*
X104645646Y-111699853D01*
X104520147Y-111574354D01*
X104421544Y-111426784D01*
X104353624Y-111262812D01*
X104319000Y-111088741D01*
X104319000Y-110911259D01*
X104353624Y-110737188D01*
X104421544Y-110573216D01*
X104520147Y-110425646D01*
X104645646Y-110300147D01*
X104793216Y-110201544D01*
X104957188Y-110133624D01*
X105106488Y-110103927D01*
X105131258Y-110099000D01*
X105308742Y-110099000D01*
X105333512Y-110103927D01*
G37*
G36*
X102793512Y-110103927D02*
G01*
X102942812Y-110133624D01*
X103106784Y-110201544D01*
X103254354Y-110300147D01*
X103379853Y-110425646D01*
X103478456Y-110573216D01*
X103546376Y-110737188D01*
X103581000Y-110911259D01*
X103581000Y-111088741D01*
X103546376Y-111262812D01*
X103478456Y-111426784D01*
X103379853Y-111574354D01*
X103254354Y-111699853D01*
X103106784Y-111798456D01*
X102942812Y-111866376D01*
X102793512Y-111896073D01*
X102768742Y-111901000D01*
X102591258Y-111901000D01*
X102566488Y-111896073D01*
X102417188Y-111866376D01*
X102253216Y-111798456D01*
X102105646Y-111699853D01*
X101980147Y-111574354D01*
X101881544Y-111426784D01*
X101813624Y-111262812D01*
X101779000Y-111088741D01*
X101779000Y-110911259D01*
X101813624Y-110737188D01*
X101881544Y-110573216D01*
X101980147Y-110425646D01*
X102105646Y-110300147D01*
X102253216Y-110201544D01*
X102417188Y-110133624D01*
X102566488Y-110103927D01*
X102591258Y-110099000D01*
X102768742Y-110099000D01*
X102793512Y-110103927D01*
G37*
G36*
X100253512Y-110103927D02*
G01*
X100402812Y-110133624D01*
X100566784Y-110201544D01*
X100714354Y-110300147D01*
X100839853Y-110425646D01*
X100938456Y-110573216D01*
X101006376Y-110737188D01*
X101041000Y-110911259D01*
X101041000Y-111088741D01*
X101006376Y-111262812D01*
X100938456Y-111426784D01*
X100839853Y-111574354D01*
X100714354Y-111699853D01*
X100566784Y-111798456D01*
X100402812Y-111866376D01*
X100253512Y-111896073D01*
X100228742Y-111901000D01*
X100051258Y-111901000D01*
X100026488Y-111896073D01*
X99877188Y-111866376D01*
X99713216Y-111798456D01*
X99565646Y-111699853D01*
X99440147Y-111574354D01*
X99341544Y-111426784D01*
X99273624Y-111262812D01*
X99239000Y-111088741D01*
X99239000Y-110911259D01*
X99273624Y-110737188D01*
X99341544Y-110573216D01*
X99440147Y-110425646D01*
X99565646Y-110300147D01*
X99713216Y-110201544D01*
X99877188Y-110133624D01*
X100026488Y-110103927D01*
X100051258Y-110099000D01*
X100228742Y-110099000D01*
X100253512Y-110103927D01*
G37*
G36*
X187273512Y-110103927D02*
G01*
X187422812Y-110133624D01*
X187586784Y-110201544D01*
X187734354Y-110300147D01*
X187859853Y-110425646D01*
X187958456Y-110573216D01*
X188026376Y-110737188D01*
X188061000Y-110911259D01*
X188061000Y-111088741D01*
X188026376Y-111262812D01*
X187958456Y-111426784D01*
X187859853Y-111574354D01*
X187734354Y-111699853D01*
X187586784Y-111798456D01*
X187422812Y-111866376D01*
X187273512Y-111896073D01*
X187248742Y-111901000D01*
X187071258Y-111901000D01*
X187046488Y-111896073D01*
X186897188Y-111866376D01*
X186733216Y-111798456D01*
X186585646Y-111699853D01*
X186460147Y-111574354D01*
X186361544Y-111426784D01*
X186293624Y-111262812D01*
X186259000Y-111088741D01*
X186259000Y-110911259D01*
X186293624Y-110737188D01*
X186361544Y-110573216D01*
X186460147Y-110425646D01*
X186585646Y-110300147D01*
X186733216Y-110201544D01*
X186897188Y-110133624D01*
X187046488Y-110103927D01*
X187071258Y-110099000D01*
X187248742Y-110099000D01*
X187273512Y-110103927D01*
G37*
G36*
X194893512Y-110103927D02*
G01*
X195042812Y-110133624D01*
X195206784Y-110201544D01*
X195354354Y-110300147D01*
X195479853Y-110425646D01*
X195578456Y-110573216D01*
X195646376Y-110737188D01*
X195681000Y-110911259D01*
X195681000Y-111088741D01*
X195646376Y-111262812D01*
X195578456Y-111426784D01*
X195479853Y-111574354D01*
X195354354Y-111699853D01*
X195206784Y-111798456D01*
X195042812Y-111866376D01*
X194893512Y-111896073D01*
X194868742Y-111901000D01*
X194691258Y-111901000D01*
X194666488Y-111896073D01*
X194517188Y-111866376D01*
X194353216Y-111798456D01*
X194205646Y-111699853D01*
X194080147Y-111574354D01*
X193981544Y-111426784D01*
X193913624Y-111262812D01*
X193879000Y-111088741D01*
X193879000Y-110911259D01*
X193913624Y-110737188D01*
X193981544Y-110573216D01*
X194080147Y-110425646D01*
X194205646Y-110300147D01*
X194353216Y-110201544D01*
X194517188Y-110133624D01*
X194666488Y-110103927D01*
X194691258Y-110099000D01*
X194868742Y-110099000D01*
X194893512Y-110103927D01*
G37*
G36*
X192353512Y-110103927D02*
G01*
X192502812Y-110133624D01*
X192666784Y-110201544D01*
X192814354Y-110300147D01*
X192939853Y-110425646D01*
X193038456Y-110573216D01*
X193106376Y-110737188D01*
X193141000Y-110911259D01*
X193141000Y-111088741D01*
X193106376Y-111262812D01*
X193038456Y-111426784D01*
X192939853Y-111574354D01*
X192814354Y-111699853D01*
X192666784Y-111798456D01*
X192502812Y-111866376D01*
X192353512Y-111896073D01*
X192328742Y-111901000D01*
X192151258Y-111901000D01*
X192126488Y-111896073D01*
X191977188Y-111866376D01*
X191813216Y-111798456D01*
X191665646Y-111699853D01*
X191540147Y-111574354D01*
X191441544Y-111426784D01*
X191373624Y-111262812D01*
X191339000Y-111088741D01*
X191339000Y-110911259D01*
X191373624Y-110737188D01*
X191441544Y-110573216D01*
X191540147Y-110425646D01*
X191665646Y-110300147D01*
X191813216Y-110201544D01*
X191977188Y-110133624D01*
X192126488Y-110103927D01*
X192151258Y-110099000D01*
X192328742Y-110099000D01*
X192353512Y-110103927D01*
G37*
G36*
X189813512Y-110103927D02*
G01*
X189962812Y-110133624D01*
X190126784Y-110201544D01*
X190274354Y-110300147D01*
X190399853Y-110425646D01*
X190498456Y-110573216D01*
X190566376Y-110737188D01*
X190601000Y-110911259D01*
X190601000Y-111088741D01*
X190566376Y-111262812D01*
X190498456Y-111426784D01*
X190399853Y-111574354D01*
X190274354Y-111699853D01*
X190126784Y-111798456D01*
X189962812Y-111866376D01*
X189813512Y-111896073D01*
X189788742Y-111901000D01*
X189611258Y-111901000D01*
X189586488Y-111896073D01*
X189437188Y-111866376D01*
X189273216Y-111798456D01*
X189125646Y-111699853D01*
X189000147Y-111574354D01*
X188901544Y-111426784D01*
X188833624Y-111262812D01*
X188799000Y-111088741D01*
X188799000Y-110911259D01*
X188833624Y-110737188D01*
X188901544Y-110573216D01*
X189000147Y-110425646D01*
X189125646Y-110300147D01*
X189273216Y-110201544D01*
X189437188Y-110133624D01*
X189586488Y-110103927D01*
X189611258Y-110099000D01*
X189788742Y-110099000D01*
X189813512Y-110103927D01*
G37*
G36*
X184733512Y-110103927D02*
G01*
X184882812Y-110133624D01*
X185046784Y-110201544D01*
X185194354Y-110300147D01*
X185319853Y-110425646D01*
X185418456Y-110573216D01*
X185486376Y-110737188D01*
X185521000Y-110911259D01*
X185521000Y-111088741D01*
X185486376Y-111262812D01*
X185418456Y-111426784D01*
X185319853Y-111574354D01*
X185194354Y-111699853D01*
X185046784Y-111798456D01*
X184882812Y-111866376D01*
X184733512Y-111896073D01*
X184708742Y-111901000D01*
X184531258Y-111901000D01*
X184506488Y-111896073D01*
X184357188Y-111866376D01*
X184193216Y-111798456D01*
X184045646Y-111699853D01*
X183920147Y-111574354D01*
X183821544Y-111426784D01*
X183753624Y-111262812D01*
X183719000Y-111088741D01*
X183719000Y-110911259D01*
X183753624Y-110737188D01*
X183821544Y-110573216D01*
X183920147Y-110425646D01*
X184045646Y-110300147D01*
X184193216Y-110201544D01*
X184357188Y-110133624D01*
X184506488Y-110103927D01*
X184531258Y-110099000D01*
X184708742Y-110099000D01*
X184733512Y-110103927D01*
G37*
G36*
X182193512Y-110103927D02*
G01*
X182342812Y-110133624D01*
X182506784Y-110201544D01*
X182654354Y-110300147D01*
X182779853Y-110425646D01*
X182878456Y-110573216D01*
X182946376Y-110737188D01*
X182981000Y-110911259D01*
X182981000Y-111088741D01*
X182946376Y-111262812D01*
X182878456Y-111426784D01*
X182779853Y-111574354D01*
X182654354Y-111699853D01*
X182506784Y-111798456D01*
X182342812Y-111866376D01*
X182193512Y-111896073D01*
X182168742Y-111901000D01*
X181991258Y-111901000D01*
X181966488Y-111896073D01*
X181817188Y-111866376D01*
X181653216Y-111798456D01*
X181505646Y-111699853D01*
X181380147Y-111574354D01*
X181281544Y-111426784D01*
X181213624Y-111262812D01*
X181179000Y-111088741D01*
X181179000Y-110911259D01*
X181213624Y-110737188D01*
X181281544Y-110573216D01*
X181380147Y-110425646D01*
X181505646Y-110300147D01*
X181653216Y-110201544D01*
X181817188Y-110133624D01*
X181966488Y-110103927D01*
X181991258Y-110099000D01*
X182168742Y-110099000D01*
X182193512Y-110103927D01*
G37*
G36*
X197433512Y-110103927D02*
G01*
X197582812Y-110133624D01*
X197746784Y-110201544D01*
X197894354Y-110300147D01*
X198019853Y-110425646D01*
X198118456Y-110573216D01*
X198186376Y-110737188D01*
X198221000Y-110911259D01*
X198221000Y-111088741D01*
X198186376Y-111262812D01*
X198118456Y-111426784D01*
X198019853Y-111574354D01*
X197894354Y-111699853D01*
X197746784Y-111798456D01*
X197582812Y-111866376D01*
X197433512Y-111896073D01*
X197408742Y-111901000D01*
X197231258Y-111901000D01*
X197206488Y-111896073D01*
X197057188Y-111866376D01*
X196893216Y-111798456D01*
X196745646Y-111699853D01*
X196620147Y-111574354D01*
X196521544Y-111426784D01*
X196453624Y-111262812D01*
X196419000Y-111088741D01*
X196419000Y-110911259D01*
X196453624Y-110737188D01*
X196521544Y-110573216D01*
X196620147Y-110425646D01*
X196745646Y-110300147D01*
X196893216Y-110201544D01*
X197057188Y-110133624D01*
X197206488Y-110103927D01*
X197231258Y-110099000D01*
X197408742Y-110099000D01*
X197433512Y-110103927D01*
G37*
G36*
X199973512Y-110103927D02*
G01*
X200122812Y-110133624D01*
X200286784Y-110201544D01*
X200434354Y-110300147D01*
X200559853Y-110425646D01*
X200658456Y-110573216D01*
X200726376Y-110737188D01*
X200761000Y-110911259D01*
X200761000Y-111088741D01*
X200726376Y-111262812D01*
X200658456Y-111426784D01*
X200559853Y-111574354D01*
X200434354Y-111699853D01*
X200286784Y-111798456D01*
X200122812Y-111866376D01*
X199973512Y-111896073D01*
X199948742Y-111901000D01*
X199771258Y-111901000D01*
X199746488Y-111896073D01*
X199597188Y-111866376D01*
X199433216Y-111798456D01*
X199285646Y-111699853D01*
X199160147Y-111574354D01*
X199061544Y-111426784D01*
X198993624Y-111262812D01*
X198959000Y-111088741D01*
X198959000Y-110911259D01*
X198993624Y-110737188D01*
X199061544Y-110573216D01*
X199160147Y-110425646D01*
X199285646Y-110300147D01*
X199433216Y-110201544D01*
X199597188Y-110133624D01*
X199746488Y-110103927D01*
X199771258Y-110099000D01*
X199948742Y-110099000D01*
X199973512Y-110103927D01*
G37*
G36*
X135248228Y-108181703D02*
G01*
X135403100Y-108245853D01*
X135542481Y-108338985D01*
X135661015Y-108457519D01*
X135754147Y-108596900D01*
X135818297Y-108751772D01*
X135851000Y-108916184D01*
X135851000Y-109083816D01*
X135818297Y-109248228D01*
X135754147Y-109403100D01*
X135661015Y-109542481D01*
X135542481Y-109661015D01*
X135403100Y-109754147D01*
X135248228Y-109818297D01*
X135083816Y-109851000D01*
X134916184Y-109851000D01*
X134751772Y-109818297D01*
X134596900Y-109754147D01*
X134457519Y-109661015D01*
X134338985Y-109542481D01*
X134245853Y-109403100D01*
X134181703Y-109248228D01*
X134149000Y-109083816D01*
X134149000Y-108916184D01*
X134181703Y-108751772D01*
X134245853Y-108596900D01*
X134338985Y-108457519D01*
X134457519Y-108338985D01*
X134596900Y-108245853D01*
X134751772Y-108181703D01*
X134916184Y-108149000D01*
X135083816Y-108149000D01*
X135248228Y-108181703D01*
G37*
G36*
X145248228Y-108181703D02*
G01*
X145403100Y-108245853D01*
X145542481Y-108338985D01*
X145661015Y-108457519D01*
X145754147Y-108596900D01*
X145818297Y-108751772D01*
X145851000Y-108916184D01*
X145851000Y-109083816D01*
X145818297Y-109248228D01*
X145754147Y-109403100D01*
X145661015Y-109542481D01*
X145542481Y-109661015D01*
X145403100Y-109754147D01*
X145248228Y-109818297D01*
X145083816Y-109851000D01*
X144916184Y-109851000D01*
X144751772Y-109818297D01*
X144596900Y-109754147D01*
X144457519Y-109661015D01*
X144338985Y-109542481D01*
X144245853Y-109403100D01*
X144181703Y-109248228D01*
X144149000Y-109083816D01*
X144149000Y-108916184D01*
X144181703Y-108751772D01*
X144245853Y-108596900D01*
X144338985Y-108457519D01*
X144457519Y-108338985D01*
X144596900Y-108245853D01*
X144751772Y-108181703D01*
X144916184Y-108149000D01*
X145083816Y-108149000D01*
X145248228Y-108181703D01*
G37*
G36*
X155248228Y-108181703D02*
G01*
X155403100Y-108245853D01*
X155542481Y-108338985D01*
X155661015Y-108457519D01*
X155754147Y-108596900D01*
X155818297Y-108751772D01*
X155851000Y-108916184D01*
X155851000Y-109083816D01*
X155818297Y-109248228D01*
X155754147Y-109403100D01*
X155661015Y-109542481D01*
X155542481Y-109661015D01*
X155403100Y-109754147D01*
X155248228Y-109818297D01*
X155083816Y-109851000D01*
X154916184Y-109851000D01*
X154751772Y-109818297D01*
X154596900Y-109754147D01*
X154457519Y-109661015D01*
X154338985Y-109542481D01*
X154245853Y-109403100D01*
X154181703Y-109248228D01*
X154149000Y-109083816D01*
X154149000Y-108916184D01*
X154181703Y-108751772D01*
X154245853Y-108596900D01*
X154338985Y-108457519D01*
X154457519Y-108338985D01*
X154596900Y-108245853D01*
X154751772Y-108181703D01*
X154916184Y-108149000D01*
X155083816Y-108149000D01*
X155248228Y-108181703D01*
G37*
G36*
X165248228Y-108181703D02*
G01*
X165403100Y-108245853D01*
X165542481Y-108338985D01*
X165661015Y-108457519D01*
X165754147Y-108596900D01*
X165818297Y-108751772D01*
X165851000Y-108916184D01*
X165851000Y-109083816D01*
X165818297Y-109248228D01*
X165754147Y-109403100D01*
X165661015Y-109542481D01*
X165542481Y-109661015D01*
X165403100Y-109754147D01*
X165248228Y-109818297D01*
X165083816Y-109851000D01*
X164916184Y-109851000D01*
X164751772Y-109818297D01*
X164596900Y-109754147D01*
X164457519Y-109661015D01*
X164338985Y-109542481D01*
X164245853Y-109403100D01*
X164181703Y-109248228D01*
X164149000Y-109083816D01*
X164149000Y-108916184D01*
X164181703Y-108751772D01*
X164245853Y-108596900D01*
X164338985Y-108457519D01*
X164457519Y-108338985D01*
X164596900Y-108245853D01*
X164751772Y-108181703D01*
X164916184Y-108149000D01*
X165083816Y-108149000D01*
X165248228Y-108181703D01*
G37*
G36*
X197237142Y-99218242D02*
G01*
X197385101Y-99279529D01*
X197518255Y-99368499D01*
X197631501Y-99481745D01*
X197720471Y-99614899D01*
X197781758Y-99762858D01*
X197813000Y-99919925D01*
X197813000Y-100080075D01*
X197781758Y-100237142D01*
X197720471Y-100385101D01*
X197631501Y-100518255D01*
X197518255Y-100631501D01*
X197385101Y-100720471D01*
X197237142Y-100781758D01*
X197080075Y-100813000D01*
X196919925Y-100813000D01*
X196762858Y-100781758D01*
X196614899Y-100720471D01*
X196481745Y-100631501D01*
X196368499Y-100518255D01*
X196279529Y-100385101D01*
X196218242Y-100237142D01*
X196187000Y-100080075D01*
X196187000Y-99919925D01*
X196218242Y-99762858D01*
X196279529Y-99614899D01*
X196368499Y-99481745D01*
X196481745Y-99368499D01*
X196614899Y-99279529D01*
X196762858Y-99218242D01*
X196919925Y-99187000D01*
X197080075Y-99187000D01*
X197237142Y-99218242D01*
G37*
G36*
X103813000Y-100813000D02*
G01*
X102187000Y-100813000D01*
X102187000Y-99187000D01*
X103813000Y-99187000D01*
X103813000Y-100813000D01*
G37*
G36*
X165248228Y-98021703D02*
G01*
X165403100Y-98085853D01*
X165542481Y-98178985D01*
X165661015Y-98297519D01*
X165754147Y-98436900D01*
X165818297Y-98591772D01*
X165851000Y-98756184D01*
X165851000Y-98923816D01*
X165818297Y-99088228D01*
X165754147Y-99243100D01*
X165661015Y-99382481D01*
X165542481Y-99501015D01*
X165403100Y-99594147D01*
X165248228Y-99658297D01*
X165083816Y-99691000D01*
X164916184Y-99691000D01*
X164751772Y-99658297D01*
X164596900Y-99594147D01*
X164457519Y-99501015D01*
X164338985Y-99382481D01*
X164245853Y-99243100D01*
X164181703Y-99088228D01*
X164149000Y-98923816D01*
X164149000Y-98756184D01*
X164181703Y-98591772D01*
X164245853Y-98436900D01*
X164338985Y-98297519D01*
X164457519Y-98178985D01*
X164596900Y-98085853D01*
X164751772Y-98021703D01*
X164916184Y-97989000D01*
X165083816Y-97989000D01*
X165248228Y-98021703D01*
G37*
G36*
X135248228Y-98021703D02*
G01*
X135403100Y-98085853D01*
X135542481Y-98178985D01*
X135661015Y-98297519D01*
X135754147Y-98436900D01*
X135818297Y-98591772D01*
X135851000Y-98756184D01*
X135851000Y-98923816D01*
X135818297Y-99088228D01*
X135754147Y-99243100D01*
X135661015Y-99382481D01*
X135542481Y-99501015D01*
X135403100Y-99594147D01*
X135248228Y-99658297D01*
X135083816Y-99691000D01*
X134916184Y-99691000D01*
X134751772Y-99658297D01*
X134596900Y-99594147D01*
X134457519Y-99501015D01*
X134338985Y-99382481D01*
X134245853Y-99243100D01*
X134181703Y-99088228D01*
X134149000Y-98923816D01*
X134149000Y-98756184D01*
X134181703Y-98591772D01*
X134245853Y-98436900D01*
X134338985Y-98297519D01*
X134457519Y-98178985D01*
X134596900Y-98085853D01*
X134751772Y-98021703D01*
X134916184Y-97989000D01*
X135083816Y-97989000D01*
X135248228Y-98021703D01*
G37*
G36*
X145248228Y-98021703D02*
G01*
X145403100Y-98085853D01*
X145542481Y-98178985D01*
X145661015Y-98297519D01*
X145754147Y-98436900D01*
X145818297Y-98591772D01*
X145851000Y-98756184D01*
X145851000Y-98923816D01*
X145818297Y-99088228D01*
X145754147Y-99243100D01*
X145661015Y-99382481D01*
X145542481Y-99501015D01*
X145403100Y-99594147D01*
X145248228Y-99658297D01*
X145083816Y-99691000D01*
X144916184Y-99691000D01*
X144751772Y-99658297D01*
X144596900Y-99594147D01*
X144457519Y-99501015D01*
X144338985Y-99382481D01*
X144245853Y-99243100D01*
X144181703Y-99088228D01*
X144149000Y-98923816D01*
X144149000Y-98756184D01*
X144181703Y-98591772D01*
X144245853Y-98436900D01*
X144338985Y-98297519D01*
X144457519Y-98178985D01*
X144596900Y-98085853D01*
X144751772Y-98021703D01*
X144916184Y-97989000D01*
X145083816Y-97989000D01*
X145248228Y-98021703D01*
G37*
G36*
X155248228Y-98021703D02*
G01*
X155403100Y-98085853D01*
X155542481Y-98178985D01*
X155661015Y-98297519D01*
X155754147Y-98436900D01*
X155818297Y-98591772D01*
X155851000Y-98756184D01*
X155851000Y-98923816D01*
X155818297Y-99088228D01*
X155754147Y-99243100D01*
X155661015Y-99382481D01*
X155542481Y-99501015D01*
X155403100Y-99594147D01*
X155248228Y-99658297D01*
X155083816Y-99691000D01*
X154916184Y-99691000D01*
X154751772Y-99658297D01*
X154596900Y-99594147D01*
X154457519Y-99501015D01*
X154338985Y-99382481D01*
X154245853Y-99243100D01*
X154181703Y-99088228D01*
X154149000Y-98923816D01*
X154149000Y-98756184D01*
X154181703Y-98591772D01*
X154245853Y-98436900D01*
X154338985Y-98297519D01*
X154457519Y-98178985D01*
X154596900Y-98085853D01*
X154751772Y-98021703D01*
X154916184Y-97989000D01*
X155083816Y-97989000D01*
X155248228Y-98021703D01*
G37*
G36*
X195237142Y-97968242D02*
G01*
X195385101Y-98029529D01*
X195518255Y-98118499D01*
X195631501Y-98231745D01*
X195720471Y-98364899D01*
X195781758Y-98512858D01*
X195813000Y-98669925D01*
X195813000Y-98830075D01*
X195781758Y-98987142D01*
X195720471Y-99135101D01*
X195631501Y-99268255D01*
X195518255Y-99381501D01*
X195385101Y-99470471D01*
X195237142Y-99531758D01*
X195080075Y-99563000D01*
X194919925Y-99563000D01*
X194762858Y-99531758D01*
X194614899Y-99470471D01*
X194481745Y-99381501D01*
X194368499Y-99268255D01*
X194279529Y-99135101D01*
X194218242Y-98987142D01*
X194187000Y-98830075D01*
X194187000Y-98669925D01*
X194218242Y-98512858D01*
X194279529Y-98364899D01*
X194368499Y-98231745D01*
X194481745Y-98118499D01*
X194614899Y-98029529D01*
X194762858Y-97968242D01*
X194919925Y-97937000D01*
X195080075Y-97937000D01*
X195237142Y-97968242D01*
G37*
G36*
X105237142Y-97968242D02*
G01*
X105385101Y-98029529D01*
X105518255Y-98118499D01*
X105631501Y-98231745D01*
X105720471Y-98364899D01*
X105781758Y-98512858D01*
X105813000Y-98669925D01*
X105813000Y-98830075D01*
X105781758Y-98987142D01*
X105720471Y-99135101D01*
X105631501Y-99268255D01*
X105518255Y-99381501D01*
X105385101Y-99470471D01*
X105237142Y-99531758D01*
X105080075Y-99563000D01*
X104919925Y-99563000D01*
X104762858Y-99531758D01*
X104614899Y-99470471D01*
X104481745Y-99381501D01*
X104368499Y-99268255D01*
X104279529Y-99135101D01*
X104218242Y-98987142D01*
X104187000Y-98830075D01*
X104187000Y-98669925D01*
X104218242Y-98512858D01*
X104279529Y-98364899D01*
X104368499Y-98231745D01*
X104481745Y-98118499D01*
X104614899Y-98029529D01*
X104762858Y-97968242D01*
X104919925Y-97937000D01*
X105080075Y-97937000D01*
X105237142Y-97968242D01*
G37*
G36*
X197237142Y-96718242D02*
G01*
X197385101Y-96779529D01*
X197518255Y-96868499D01*
X197631501Y-96981745D01*
X197720471Y-97114899D01*
X197781758Y-97262858D01*
X197813000Y-97419925D01*
X197813000Y-97580075D01*
X197781758Y-97737142D01*
X197720471Y-97885101D01*
X197631501Y-98018255D01*
X197518255Y-98131501D01*
X197385101Y-98220471D01*
X197237142Y-98281758D01*
X197080075Y-98313000D01*
X196919925Y-98313000D01*
X196762858Y-98281758D01*
X196614899Y-98220471D01*
X196481745Y-98131501D01*
X196368499Y-98018255D01*
X196279529Y-97885101D01*
X196218242Y-97737142D01*
X196187000Y-97580075D01*
X196187000Y-97419925D01*
X196218242Y-97262858D01*
X196279529Y-97114899D01*
X196368499Y-96981745D01*
X196481745Y-96868499D01*
X196614899Y-96779529D01*
X196762858Y-96718242D01*
X196919925Y-96687000D01*
X197080075Y-96687000D01*
X197237142Y-96718242D01*
G37*
G36*
X103237142Y-96718242D02*
G01*
X103385101Y-96779529D01*
X103518255Y-96868499D01*
X103631501Y-96981745D01*
X103720471Y-97114899D01*
X103781758Y-97262858D01*
X103813000Y-97419925D01*
X103813000Y-97580075D01*
X103781758Y-97737142D01*
X103720471Y-97885101D01*
X103631501Y-98018255D01*
X103518255Y-98131501D01*
X103385101Y-98220471D01*
X103237142Y-98281758D01*
X103080075Y-98313000D01*
X102919925Y-98313000D01*
X102762858Y-98281758D01*
X102614899Y-98220471D01*
X102481745Y-98131501D01*
X102368499Y-98018255D01*
X102279529Y-97885101D01*
X102218242Y-97737142D01*
X102187000Y-97580075D01*
X102187000Y-97419925D01*
X102218242Y-97262858D01*
X102279529Y-97114899D01*
X102368499Y-96981745D01*
X102481745Y-96868499D01*
X102614899Y-96779529D01*
X102762858Y-96718242D01*
X102919925Y-96687000D01*
X103080075Y-96687000D01*
X103237142Y-96718242D01*
G37*
G36*
X195237142Y-95468242D02*
G01*
X195385101Y-95529529D01*
X195518255Y-95618499D01*
X195631501Y-95731745D01*
X195720471Y-95864899D01*
X195781758Y-96012858D01*
X195813000Y-96169925D01*
X195813000Y-96330075D01*
X195781758Y-96487142D01*
X195720471Y-96635101D01*
X195631501Y-96768255D01*
X195518255Y-96881501D01*
X195385101Y-96970471D01*
X195237142Y-97031758D01*
X195080075Y-97063000D01*
X194919925Y-97063000D01*
X194762858Y-97031758D01*
X194614899Y-96970471D01*
X194481745Y-96881501D01*
X194368499Y-96768255D01*
X194279529Y-96635101D01*
X194218242Y-96487142D01*
X194187000Y-96330075D01*
X194187000Y-96169925D01*
X194218242Y-96012858D01*
X194279529Y-95864899D01*
X194368499Y-95731745D01*
X194481745Y-95618499D01*
X194614899Y-95529529D01*
X194762858Y-95468242D01*
X194919925Y-95437000D01*
X195080075Y-95437000D01*
X195237142Y-95468242D01*
G37*
G36*
X105237142Y-95468242D02*
G01*
X105385101Y-95529529D01*
X105518255Y-95618499D01*
X105631501Y-95731745D01*
X105720471Y-95864899D01*
X105781758Y-96012858D01*
X105813000Y-96169925D01*
X105813000Y-96330075D01*
X105781758Y-96487142D01*
X105720471Y-96635101D01*
X105631501Y-96768255D01*
X105518255Y-96881501D01*
X105385101Y-96970471D01*
X105237142Y-97031758D01*
X105080075Y-97063000D01*
X104919925Y-97063000D01*
X104762858Y-97031758D01*
X104614899Y-96970471D01*
X104481745Y-96881501D01*
X104368499Y-96768255D01*
X104279529Y-96635101D01*
X104218242Y-96487142D01*
X104187000Y-96330075D01*
X104187000Y-96169925D01*
X104218242Y-96012858D01*
X104279529Y-95864899D01*
X104368499Y-95731745D01*
X104481745Y-95618499D01*
X104614899Y-95529529D01*
X104762858Y-95468242D01*
X104919925Y-95437000D01*
X105080075Y-95437000D01*
X105237142Y-95468242D01*
G37*
G36*
X197237142Y-94218242D02*
G01*
X197385101Y-94279529D01*
X197518255Y-94368499D01*
X197631501Y-94481745D01*
X197720471Y-94614899D01*
X197781758Y-94762858D01*
X197813000Y-94919925D01*
X197813000Y-95080075D01*
X197781758Y-95237142D01*
X197720471Y-95385101D01*
X197631501Y-95518255D01*
X197518255Y-95631501D01*
X197385101Y-95720471D01*
X197237142Y-95781758D01*
X197080075Y-95813000D01*
X196919925Y-95813000D01*
X196762858Y-95781758D01*
X196614899Y-95720471D01*
X196481745Y-95631501D01*
X196368499Y-95518255D01*
X196279529Y-95385101D01*
X196218242Y-95237142D01*
X196187000Y-95080075D01*
X196187000Y-94919925D01*
X196218242Y-94762858D01*
X196279529Y-94614899D01*
X196368499Y-94481745D01*
X196481745Y-94368499D01*
X196614899Y-94279529D01*
X196762858Y-94218242D01*
X196919925Y-94187000D01*
X197080075Y-94187000D01*
X197237142Y-94218242D01*
G37*
G36*
X103237142Y-94218242D02*
G01*
X103385101Y-94279529D01*
X103518255Y-94368499D01*
X103631501Y-94481745D01*
X103720471Y-94614899D01*
X103781758Y-94762858D01*
X103813000Y-94919925D01*
X103813000Y-95080075D01*
X103781758Y-95237142D01*
X103720471Y-95385101D01*
X103631501Y-95518255D01*
X103518255Y-95631501D01*
X103385101Y-95720471D01*
X103237142Y-95781758D01*
X103080075Y-95813000D01*
X102919925Y-95813000D01*
X102762858Y-95781758D01*
X102614899Y-95720471D01*
X102481745Y-95631501D01*
X102368499Y-95518255D01*
X102279529Y-95385101D01*
X102218242Y-95237142D01*
X102187000Y-95080075D01*
X102187000Y-94919925D01*
X102218242Y-94762858D01*
X102279529Y-94614899D01*
X102368499Y-94481745D01*
X102481745Y-94368499D01*
X102614899Y-94279529D01*
X102762858Y-94218242D01*
X102919925Y-94187000D01*
X103080075Y-94187000D01*
X103237142Y-94218242D01*
G37*
G36*
X195237142Y-92968242D02*
G01*
X195385101Y-93029529D01*
X195518255Y-93118499D01*
X195631501Y-93231745D01*
X195720471Y-93364899D01*
X195781758Y-93512858D01*
X195813000Y-93669925D01*
X195813000Y-93830075D01*
X195781758Y-93987142D01*
X195720471Y-94135101D01*
X195631501Y-94268255D01*
X195518255Y-94381501D01*
X195385101Y-94470471D01*
X195237142Y-94531758D01*
X195080075Y-94563000D01*
X194919925Y-94563000D01*
X194762858Y-94531758D01*
X194614899Y-94470471D01*
X194481745Y-94381501D01*
X194368499Y-94268255D01*
X194279529Y-94135101D01*
X194218242Y-93987142D01*
X194187000Y-93830075D01*
X194187000Y-93669925D01*
X194218242Y-93512858D01*
X194279529Y-93364899D01*
X194368499Y-93231745D01*
X194481745Y-93118499D01*
X194614899Y-93029529D01*
X194762858Y-92968242D01*
X194919925Y-92937000D01*
X195080075Y-92937000D01*
X195237142Y-92968242D01*
G37*
G36*
X105237142Y-92968242D02*
G01*
X105385101Y-93029529D01*
X105518255Y-93118499D01*
X105631501Y-93231745D01*
X105720471Y-93364899D01*
X105781758Y-93512858D01*
X105813000Y-93669925D01*
X105813000Y-93830075D01*
X105781758Y-93987142D01*
X105720471Y-94135101D01*
X105631501Y-94268255D01*
X105518255Y-94381501D01*
X105385101Y-94470471D01*
X105237142Y-94531758D01*
X105080075Y-94563000D01*
X104919925Y-94563000D01*
X104762858Y-94531758D01*
X104614899Y-94470471D01*
X104481745Y-94381501D01*
X104368499Y-94268255D01*
X104279529Y-94135101D01*
X104218242Y-93987142D01*
X104187000Y-93830075D01*
X104187000Y-93669925D01*
X104218242Y-93512858D01*
X104279529Y-93364899D01*
X104368499Y-93231745D01*
X104481745Y-93118499D01*
X104614899Y-93029529D01*
X104762858Y-92968242D01*
X104919925Y-92937000D01*
X105080075Y-92937000D01*
X105237142Y-92968242D01*
G37*
G36*
X103237142Y-91718242D02*
G01*
X103385101Y-91779529D01*
X103518255Y-91868499D01*
X103631501Y-91981745D01*
X103720471Y-92114899D01*
X103781758Y-92262858D01*
X103813000Y-92419925D01*
X103813000Y-92580075D01*
X103781758Y-92737142D01*
X103720471Y-92885101D01*
X103631501Y-93018255D01*
X103518255Y-93131501D01*
X103385101Y-93220471D01*
X103237142Y-93281758D01*
X103080075Y-93313000D01*
X102919925Y-93313000D01*
X102762858Y-93281758D01*
X102614899Y-93220471D01*
X102481745Y-93131501D01*
X102368499Y-93018255D01*
X102279529Y-92885101D01*
X102218242Y-92737142D01*
X102187000Y-92580075D01*
X102187000Y-92419925D01*
X102218242Y-92262858D01*
X102279529Y-92114899D01*
X102368499Y-91981745D01*
X102481745Y-91868499D01*
X102614899Y-91779529D01*
X102762858Y-91718242D01*
X102919925Y-91687000D01*
X103080075Y-91687000D01*
X103237142Y-91718242D01*
G37*
G36*
X197237142Y-91718242D02*
G01*
X197385101Y-91779529D01*
X197518255Y-91868499D01*
X197631501Y-91981745D01*
X197720471Y-92114899D01*
X197781758Y-92262858D01*
X197813000Y-92419925D01*
X197813000Y-92580075D01*
X197781758Y-92737142D01*
X197720471Y-92885101D01*
X197631501Y-93018255D01*
X197518255Y-93131501D01*
X197385101Y-93220471D01*
X197237142Y-93281758D01*
X197080075Y-93313000D01*
X196919925Y-93313000D01*
X196762858Y-93281758D01*
X196614899Y-93220471D01*
X196481745Y-93131501D01*
X196368499Y-93018255D01*
X196279529Y-92885101D01*
X196218242Y-92737142D01*
X196187000Y-92580075D01*
X196187000Y-92419925D01*
X196218242Y-92262858D01*
X196279529Y-92114899D01*
X196368499Y-91981745D01*
X196481745Y-91868499D01*
X196614899Y-91779529D01*
X196762858Y-91718242D01*
X196919925Y-91687000D01*
X197080075Y-91687000D01*
X197237142Y-91718242D01*
G37*
G36*
X105237142Y-90468242D02*
G01*
X105385101Y-90529529D01*
X105518255Y-90618499D01*
X105631501Y-90731745D01*
X105720471Y-90864899D01*
X105781758Y-91012858D01*
X105813000Y-91169925D01*
X105813000Y-91330075D01*
X105781758Y-91487142D01*
X105720471Y-91635101D01*
X105631501Y-91768255D01*
X105518255Y-91881501D01*
X105385101Y-91970471D01*
X105237142Y-92031758D01*
X105080075Y-92063000D01*
X104919925Y-92063000D01*
X104762858Y-92031758D01*
X104614899Y-91970471D01*
X104481745Y-91881501D01*
X104368499Y-91768255D01*
X104279529Y-91635101D01*
X104218242Y-91487142D01*
X104187000Y-91330075D01*
X104187000Y-91169925D01*
X104218242Y-91012858D01*
X104279529Y-90864899D01*
X104368499Y-90731745D01*
X104481745Y-90618499D01*
X104614899Y-90529529D01*
X104762858Y-90468242D01*
X104919925Y-90437000D01*
X105080075Y-90437000D01*
X105237142Y-90468242D01*
G37*
G36*
X195237142Y-90468242D02*
G01*
X195385101Y-90529529D01*
X195518255Y-90618499D01*
X195631501Y-90731745D01*
X195720471Y-90864899D01*
X195781758Y-91012858D01*
X195813000Y-91169925D01*
X195813000Y-91330075D01*
X195781758Y-91487142D01*
X195720471Y-91635101D01*
X195631501Y-91768255D01*
X195518255Y-91881501D01*
X195385101Y-91970471D01*
X195237142Y-92031758D01*
X195080075Y-92063000D01*
X194919925Y-92063000D01*
X194762858Y-92031758D01*
X194614899Y-91970471D01*
X194481745Y-91881501D01*
X194368499Y-91768255D01*
X194279529Y-91635101D01*
X194218242Y-91487142D01*
X194187000Y-91330075D01*
X194187000Y-91169925D01*
X194218242Y-91012858D01*
X194279529Y-90864899D01*
X194368499Y-90731745D01*
X194481745Y-90618499D01*
X194614899Y-90529529D01*
X194762858Y-90468242D01*
X194919925Y-90437000D01*
X195080075Y-90437000D01*
X195237142Y-90468242D01*
G37*
G36*
X150634239Y-84811467D02*
G01*
X150948282Y-84873934D01*
X151539926Y-85119001D01*
X151938172Y-85385101D01*
X152062602Y-85468242D01*
X152072392Y-85474784D01*
X152525216Y-85927608D01*
X152880999Y-86460074D01*
X153117798Y-87031758D01*
X153126066Y-87051719D01*
X153251000Y-87679803D01*
X153251000Y-88320197D01*
X153212677Y-88512857D01*
X153126066Y-88948282D01*
X152880999Y-89539926D01*
X152633265Y-89910685D01*
X152525217Y-90072391D01*
X152072391Y-90525217D01*
X152062910Y-90531552D01*
X151539926Y-90880999D01*
X150948282Y-91126066D01*
X150634239Y-91188533D01*
X150320197Y-91251000D01*
X149679803Y-91251000D01*
X149365761Y-91188533D01*
X149051718Y-91126066D01*
X148460074Y-90880999D01*
X147937090Y-90531552D01*
X147927609Y-90525217D01*
X147474783Y-90072391D01*
X147366735Y-89910685D01*
X147119001Y-89539926D01*
X146873934Y-88948282D01*
X146787323Y-88512857D01*
X146749000Y-88320197D01*
X146749000Y-87679803D01*
X146873934Y-87051719D01*
X146882202Y-87031758D01*
X147119001Y-86460074D01*
X147474784Y-85927608D01*
X147927608Y-85474784D01*
X147937399Y-85468242D01*
X148061828Y-85385101D01*
X148460074Y-85119001D01*
X149051718Y-84873934D01*
X149365761Y-84811467D01*
X149679803Y-84749000D01*
X150320197Y-84749000D01*
X150634239Y-84811467D01*
G37*
G36*
X197237142Y-89218242D02*
G01*
X197385101Y-89279529D01*
X197518255Y-89368499D01*
X197631501Y-89481745D01*
X197720471Y-89614899D01*
X197781758Y-89762858D01*
X197813000Y-89919925D01*
X197813000Y-90080075D01*
X197781758Y-90237142D01*
X197720471Y-90385101D01*
X197631501Y-90518255D01*
X197518255Y-90631501D01*
X197385101Y-90720471D01*
X197237142Y-90781758D01*
X197080075Y-90813000D01*
X196919925Y-90813000D01*
X196762858Y-90781758D01*
X196614899Y-90720471D01*
X196481745Y-90631501D01*
X196368499Y-90518255D01*
X196279529Y-90385101D01*
X196218242Y-90237142D01*
X196187000Y-90080075D01*
X196187000Y-89919925D01*
X196218242Y-89762858D01*
X196279529Y-89614899D01*
X196368499Y-89481745D01*
X196481745Y-89368499D01*
X196614899Y-89279529D01*
X196762858Y-89218242D01*
X196919925Y-89187000D01*
X197080075Y-89187000D01*
X197237142Y-89218242D01*
G37*
G36*
X103237142Y-89218242D02*
G01*
X103385101Y-89279529D01*
X103518255Y-89368499D01*
X103631501Y-89481745D01*
X103720471Y-89614899D01*
X103781758Y-89762858D01*
X103813000Y-89919925D01*
X103813000Y-90080075D01*
X103781758Y-90237142D01*
X103720471Y-90385101D01*
X103631501Y-90518255D01*
X103518255Y-90631501D01*
X103385101Y-90720471D01*
X103237142Y-90781758D01*
X103080075Y-90813000D01*
X102919925Y-90813000D01*
X102762858Y-90781758D01*
X102614899Y-90720471D01*
X102481745Y-90631501D01*
X102368499Y-90518255D01*
X102279529Y-90385101D01*
X102218242Y-90237142D01*
X102187000Y-90080075D01*
X102187000Y-89919925D01*
X102218242Y-89762858D01*
X102279529Y-89614899D01*
X102368499Y-89481745D01*
X102481745Y-89368499D01*
X102614899Y-89279529D01*
X102762858Y-89218242D01*
X102919925Y-89187000D01*
X103080075Y-89187000D01*
X103237142Y-89218242D01*
G37*
G36*
X195237142Y-87968242D02*
G01*
X195385101Y-88029529D01*
X195518255Y-88118499D01*
X195631501Y-88231745D01*
X195720471Y-88364899D01*
X195781758Y-88512858D01*
X195813000Y-88669925D01*
X195813000Y-88830075D01*
X195781758Y-88987142D01*
X195720471Y-89135101D01*
X195631501Y-89268255D01*
X195518255Y-89381501D01*
X195385101Y-89470471D01*
X195237142Y-89531758D01*
X195080075Y-89563000D01*
X194919925Y-89563000D01*
X194762858Y-89531758D01*
X194614899Y-89470471D01*
X194481745Y-89381501D01*
X194368499Y-89268255D01*
X194279529Y-89135101D01*
X194218242Y-88987142D01*
X194187000Y-88830075D01*
X194187000Y-88669925D01*
X194218242Y-88512858D01*
X194279529Y-88364899D01*
X194368499Y-88231745D01*
X194481745Y-88118499D01*
X194614899Y-88029529D01*
X194762858Y-87968242D01*
X194919925Y-87937000D01*
X195080075Y-87937000D01*
X195237142Y-87968242D01*
G37*
G36*
X105237142Y-87968242D02*
G01*
X105385101Y-88029529D01*
X105518255Y-88118499D01*
X105631501Y-88231745D01*
X105720471Y-88364899D01*
X105781758Y-88512858D01*
X105813000Y-88669925D01*
X105813000Y-88830075D01*
X105781758Y-88987142D01*
X105720471Y-89135101D01*
X105631501Y-89268255D01*
X105518255Y-89381501D01*
X105385101Y-89470471D01*
X105237142Y-89531758D01*
X105080075Y-89563000D01*
X104919925Y-89563000D01*
X104762858Y-89531758D01*
X104614899Y-89470471D01*
X104481745Y-89381501D01*
X104368499Y-89268255D01*
X104279529Y-89135101D01*
X104218242Y-88987142D01*
X104187000Y-88830075D01*
X104187000Y-88669925D01*
X104218242Y-88512858D01*
X104279529Y-88364899D01*
X104368499Y-88231745D01*
X104481745Y-88118499D01*
X104614899Y-88029529D01*
X104762858Y-87968242D01*
X104919925Y-87937000D01*
X105080075Y-87937000D01*
X105237142Y-87968242D01*
G37*
G36*
X197237142Y-86718242D02*
G01*
X197385101Y-86779529D01*
X197518255Y-86868499D01*
X197631501Y-86981745D01*
X197720471Y-87114899D01*
X197781758Y-87262858D01*
X197813000Y-87419925D01*
X197813000Y-87580075D01*
X197781758Y-87737142D01*
X197720471Y-87885101D01*
X197631501Y-88018255D01*
X197518255Y-88131501D01*
X197385101Y-88220471D01*
X197237142Y-88281758D01*
X197080075Y-88313000D01*
X196919925Y-88313000D01*
X196762858Y-88281758D01*
X196614899Y-88220471D01*
X196481745Y-88131501D01*
X196368499Y-88018255D01*
X196279529Y-87885101D01*
X196218242Y-87737142D01*
X196187000Y-87580075D01*
X196187000Y-87419925D01*
X196218242Y-87262858D01*
X196279529Y-87114899D01*
X196368499Y-86981745D01*
X196481745Y-86868499D01*
X196614899Y-86779529D01*
X196762858Y-86718242D01*
X196919925Y-86687000D01*
X197080075Y-86687000D01*
X197237142Y-86718242D01*
G37*
G36*
X103237142Y-86718242D02*
G01*
X103385101Y-86779529D01*
X103518255Y-86868499D01*
X103631501Y-86981745D01*
X103720471Y-87114899D01*
X103781758Y-87262858D01*
X103813000Y-87419925D01*
X103813000Y-87580075D01*
X103781758Y-87737142D01*
X103720471Y-87885101D01*
X103631501Y-88018255D01*
X103518255Y-88131501D01*
X103385101Y-88220471D01*
X103237142Y-88281758D01*
X103080075Y-88313000D01*
X102919925Y-88313000D01*
X102762858Y-88281758D01*
X102614899Y-88220471D01*
X102481745Y-88131501D01*
X102368499Y-88018255D01*
X102279529Y-87885101D01*
X102218242Y-87737142D01*
X102187000Y-87580075D01*
X102187000Y-87419925D01*
X102218242Y-87262858D01*
X102279529Y-87114899D01*
X102368499Y-86981745D01*
X102481745Y-86868499D01*
X102614899Y-86779529D01*
X102762858Y-86718242D01*
X102919925Y-86687000D01*
X103080075Y-86687000D01*
X103237142Y-86718242D01*
G37*
G36*
X195237142Y-85468242D02*
G01*
X195385101Y-85529529D01*
X195518255Y-85618499D01*
X195631501Y-85731745D01*
X195720471Y-85864899D01*
X195781758Y-86012858D01*
X195813000Y-86169925D01*
X195813000Y-86330075D01*
X195781758Y-86487142D01*
X195720471Y-86635101D01*
X195631501Y-86768255D01*
X195518255Y-86881501D01*
X195385101Y-86970471D01*
X195237142Y-87031758D01*
X195080075Y-87063000D01*
X194919925Y-87063000D01*
X194762858Y-87031758D01*
X194614899Y-86970471D01*
X194481745Y-86881501D01*
X194368499Y-86768255D01*
X194279529Y-86635101D01*
X194218242Y-86487142D01*
X194187000Y-86330075D01*
X194187000Y-86169925D01*
X194218242Y-86012858D01*
X194279529Y-85864899D01*
X194368499Y-85731745D01*
X194481745Y-85618499D01*
X194614899Y-85529529D01*
X194762858Y-85468242D01*
X194919925Y-85437000D01*
X195080075Y-85437000D01*
X195237142Y-85468242D01*
G37*
G36*
X105237142Y-85468242D02*
G01*
X105385101Y-85529529D01*
X105518255Y-85618499D01*
X105631501Y-85731745D01*
X105720471Y-85864899D01*
X105781758Y-86012858D01*
X105813000Y-86169925D01*
X105813000Y-86330075D01*
X105781758Y-86487142D01*
X105720471Y-86635101D01*
X105631501Y-86768255D01*
X105518255Y-86881501D01*
X105385101Y-86970471D01*
X105237142Y-87031758D01*
X105080075Y-87063000D01*
X104919925Y-87063000D01*
X104762858Y-87031758D01*
X104614899Y-86970471D01*
X104481745Y-86881501D01*
X104368499Y-86768255D01*
X104279529Y-86635101D01*
X104218242Y-86487142D01*
X104187000Y-86330075D01*
X104187000Y-86169925D01*
X104218242Y-86012858D01*
X104279529Y-85864899D01*
X104368499Y-85731745D01*
X104481745Y-85618499D01*
X104614899Y-85529529D01*
X104762858Y-85468242D01*
X104919925Y-85437000D01*
X105080075Y-85437000D01*
X105237142Y-85468242D01*
G37*
G36*
X197813000Y-85813000D02*
G01*
X196187000Y-85813000D01*
X196187000Y-84187000D01*
X197813000Y-84187000D01*
X197813000Y-85813000D01*
G37*
G36*
X103237142Y-84218242D02*
G01*
X103385101Y-84279529D01*
X103518255Y-84368499D01*
X103631501Y-84481745D01*
X103720471Y-84614899D01*
X103781758Y-84762858D01*
X103813000Y-84919925D01*
X103813000Y-85080075D01*
X103781758Y-85237142D01*
X103720471Y-85385101D01*
X103631501Y-85518255D01*
X103518255Y-85631501D01*
X103385101Y-85720471D01*
X103237142Y-85781758D01*
X103080075Y-85813000D01*
X102919925Y-85813000D01*
X102762858Y-85781758D01*
X102614899Y-85720471D01*
X102481745Y-85631501D01*
X102368499Y-85518255D01*
X102279529Y-85385101D01*
X102218242Y-85237142D01*
X102187000Y-85080075D01*
X102187000Y-84919925D01*
X102218242Y-84762858D01*
X102279529Y-84614899D01*
X102368499Y-84481745D01*
X102481745Y-84368499D01*
X102614899Y-84279529D01*
X102762858Y-84218242D01*
X102919925Y-84187000D01*
X103080075Y-84187000D01*
X103237142Y-84218242D01*
G37*
G36*
X166883512Y-79703927D02*
G01*
X167032812Y-79733624D01*
X167196784Y-79801544D01*
X167344354Y-79900147D01*
X167469853Y-80025646D01*
X167568456Y-80173216D01*
X167636376Y-80337188D01*
X167671000Y-80511259D01*
X167671000Y-80688741D01*
X167636376Y-80862812D01*
X167568456Y-81026784D01*
X167469853Y-81174354D01*
X167344354Y-81299853D01*
X167196784Y-81398456D01*
X167032812Y-81466376D01*
X166883512Y-81496073D01*
X166858742Y-81501000D01*
X166681258Y-81501000D01*
X166656488Y-81496073D01*
X166507188Y-81466376D01*
X166343216Y-81398456D01*
X166195646Y-81299853D01*
X166070147Y-81174354D01*
X165971544Y-81026784D01*
X165903624Y-80862812D01*
X165869000Y-80688741D01*
X165869000Y-80511259D01*
X165903624Y-80337188D01*
X165971544Y-80173216D01*
X166070147Y-80025646D01*
X166195646Y-79900147D01*
X166343216Y-79801544D01*
X166507188Y-79733624D01*
X166656488Y-79703927D01*
X166681258Y-79699000D01*
X166858742Y-79699000D01*
X166883512Y-79703927D01*
G37*
G36*
X179583512Y-79703927D02*
G01*
X179732812Y-79733624D01*
X179896784Y-79801544D01*
X180044354Y-79900147D01*
X180169853Y-80025646D01*
X180268456Y-80173216D01*
X180336376Y-80337188D01*
X180371000Y-80511259D01*
X180371000Y-80688741D01*
X180336376Y-80862812D01*
X180268456Y-81026784D01*
X180169853Y-81174354D01*
X180044354Y-81299853D01*
X179896784Y-81398456D01*
X179732812Y-81466376D01*
X179583512Y-81496073D01*
X179558742Y-81501000D01*
X179381258Y-81501000D01*
X179356488Y-81496073D01*
X179207188Y-81466376D01*
X179043216Y-81398456D01*
X178895646Y-81299853D01*
X178770147Y-81174354D01*
X178671544Y-81026784D01*
X178603624Y-80862812D01*
X178569000Y-80688741D01*
X178569000Y-80511259D01*
X178603624Y-80337188D01*
X178671544Y-80173216D01*
X178770147Y-80025646D01*
X178895646Y-79900147D01*
X179043216Y-79801544D01*
X179207188Y-79733624D01*
X179356488Y-79703927D01*
X179381258Y-79699000D01*
X179558742Y-79699000D01*
X179583512Y-79703927D01*
G37*
G36*
X177043512Y-79703927D02*
G01*
X177192812Y-79733624D01*
X177356784Y-79801544D01*
X177504354Y-79900147D01*
X177629853Y-80025646D01*
X177728456Y-80173216D01*
X177796376Y-80337188D01*
X177831000Y-80511259D01*
X177831000Y-80688741D01*
X177796376Y-80862812D01*
X177728456Y-81026784D01*
X177629853Y-81174354D01*
X177504354Y-81299853D01*
X177356784Y-81398456D01*
X177192812Y-81466376D01*
X177043512Y-81496073D01*
X177018742Y-81501000D01*
X176841258Y-81501000D01*
X176816488Y-81496073D01*
X176667188Y-81466376D01*
X176503216Y-81398456D01*
X176355646Y-81299853D01*
X176230147Y-81174354D01*
X176131544Y-81026784D01*
X176063624Y-80862812D01*
X176029000Y-80688741D01*
X176029000Y-80511259D01*
X176063624Y-80337188D01*
X176131544Y-80173216D01*
X176230147Y-80025646D01*
X176355646Y-79900147D01*
X176503216Y-79801544D01*
X176667188Y-79733624D01*
X176816488Y-79703927D01*
X176841258Y-79699000D01*
X177018742Y-79699000D01*
X177043512Y-79703927D01*
G37*
G36*
X174503512Y-79703927D02*
G01*
X174652812Y-79733624D01*
X174816784Y-79801544D01*
X174964354Y-79900147D01*
X175089853Y-80025646D01*
X175188456Y-80173216D01*
X175256376Y-80337188D01*
X175291000Y-80511259D01*
X175291000Y-80688741D01*
X175256376Y-80862812D01*
X175188456Y-81026784D01*
X175089853Y-81174354D01*
X174964354Y-81299853D01*
X174816784Y-81398456D01*
X174652812Y-81466376D01*
X174503512Y-81496073D01*
X174478742Y-81501000D01*
X174301258Y-81501000D01*
X174276488Y-81496073D01*
X174127188Y-81466376D01*
X173963216Y-81398456D01*
X173815646Y-81299853D01*
X173690147Y-81174354D01*
X173591544Y-81026784D01*
X173523624Y-80862812D01*
X173489000Y-80688741D01*
X173489000Y-80511259D01*
X173523624Y-80337188D01*
X173591544Y-80173216D01*
X173690147Y-80025646D01*
X173815646Y-79900147D01*
X173963216Y-79801544D01*
X174127188Y-79733624D01*
X174276488Y-79703927D01*
X174301258Y-79699000D01*
X174478742Y-79699000D01*
X174503512Y-79703927D01*
G37*
G36*
X171963512Y-79703927D02*
G01*
X172112812Y-79733624D01*
X172276784Y-79801544D01*
X172424354Y-79900147D01*
X172549853Y-80025646D01*
X172648456Y-80173216D01*
X172716376Y-80337188D01*
X172751000Y-80511259D01*
X172751000Y-80688741D01*
X172716376Y-80862812D01*
X172648456Y-81026784D01*
X172549853Y-81174354D01*
X172424354Y-81299853D01*
X172276784Y-81398456D01*
X172112812Y-81466376D01*
X171963512Y-81496073D01*
X171938742Y-81501000D01*
X171761258Y-81501000D01*
X171736488Y-81496073D01*
X171587188Y-81466376D01*
X171423216Y-81398456D01*
X171275646Y-81299853D01*
X171150147Y-81174354D01*
X171051544Y-81026784D01*
X170983624Y-80862812D01*
X170949000Y-80688741D01*
X170949000Y-80511259D01*
X170983624Y-80337188D01*
X171051544Y-80173216D01*
X171150147Y-80025646D01*
X171275646Y-79900147D01*
X171423216Y-79801544D01*
X171587188Y-79733624D01*
X171736488Y-79703927D01*
X171761258Y-79699000D01*
X171938742Y-79699000D01*
X171963512Y-79703927D01*
G37*
G36*
X169423512Y-79703927D02*
G01*
X169572812Y-79733624D01*
X169736784Y-79801544D01*
X169884354Y-79900147D01*
X170009853Y-80025646D01*
X170108456Y-80173216D01*
X170176376Y-80337188D01*
X170211000Y-80511259D01*
X170211000Y-80688741D01*
X170176376Y-80862812D01*
X170108456Y-81026784D01*
X170009853Y-81174354D01*
X169884354Y-81299853D01*
X169736784Y-81398456D01*
X169572812Y-81466376D01*
X169423512Y-81496073D01*
X169398742Y-81501000D01*
X169221258Y-81501000D01*
X169196488Y-81496073D01*
X169047188Y-81466376D01*
X168883216Y-81398456D01*
X168735646Y-81299853D01*
X168610147Y-81174354D01*
X168511544Y-81026784D01*
X168443624Y-80862812D01*
X168409000Y-80688741D01*
X168409000Y-80511259D01*
X168443624Y-80337188D01*
X168511544Y-80173216D01*
X168610147Y-80025646D01*
X168735646Y-79900147D01*
X168883216Y-79801544D01*
X169047188Y-79733624D01*
X169196488Y-79703927D01*
X169221258Y-79699000D01*
X169398742Y-79699000D01*
X169423512Y-79703927D01*
G37*
G36*
X161803512Y-79703927D02*
G01*
X161952812Y-79733624D01*
X162116784Y-79801544D01*
X162264354Y-79900147D01*
X162389853Y-80025646D01*
X162488456Y-80173216D01*
X162556376Y-80337188D01*
X162591000Y-80511259D01*
X162591000Y-80688741D01*
X162556376Y-80862812D01*
X162488456Y-81026784D01*
X162389853Y-81174354D01*
X162264354Y-81299853D01*
X162116784Y-81398456D01*
X161952812Y-81466376D01*
X161803512Y-81496073D01*
X161778742Y-81501000D01*
X161601258Y-81501000D01*
X161576488Y-81496073D01*
X161427188Y-81466376D01*
X161263216Y-81398456D01*
X161115646Y-81299853D01*
X160990147Y-81174354D01*
X160891544Y-81026784D01*
X160823624Y-80862812D01*
X160789000Y-80688741D01*
X160789000Y-80511259D01*
X160823624Y-80337188D01*
X160891544Y-80173216D01*
X160990147Y-80025646D01*
X161115646Y-79900147D01*
X161263216Y-79801544D01*
X161427188Y-79733624D01*
X161576488Y-79703927D01*
X161601258Y-79699000D01*
X161778742Y-79699000D01*
X161803512Y-79703927D01*
G37*
G36*
X159263512Y-79703927D02*
G01*
X159412812Y-79733624D01*
X159576784Y-79801544D01*
X159724354Y-79900147D01*
X159849853Y-80025646D01*
X159948456Y-80173216D01*
X160016376Y-80337188D01*
X160051000Y-80511259D01*
X160051000Y-80688741D01*
X160016376Y-80862812D01*
X159948456Y-81026784D01*
X159849853Y-81174354D01*
X159724354Y-81299853D01*
X159576784Y-81398456D01*
X159412812Y-81466376D01*
X159263512Y-81496073D01*
X159238742Y-81501000D01*
X159061258Y-81501000D01*
X159036488Y-81496073D01*
X158887188Y-81466376D01*
X158723216Y-81398456D01*
X158575646Y-81299853D01*
X158450147Y-81174354D01*
X158351544Y-81026784D01*
X158283624Y-80862812D01*
X158249000Y-80688741D01*
X158249000Y-80511259D01*
X158283624Y-80337188D01*
X158351544Y-80173216D01*
X158450147Y-80025646D01*
X158575646Y-79900147D01*
X158723216Y-79801544D01*
X158887188Y-79733624D01*
X159036488Y-79703927D01*
X159061258Y-79699000D01*
X159238742Y-79699000D01*
X159263512Y-79703927D01*
G37*
G36*
X156723512Y-79703927D02*
G01*
X156872812Y-79733624D01*
X157036784Y-79801544D01*
X157184354Y-79900147D01*
X157309853Y-80025646D01*
X157408456Y-80173216D01*
X157476376Y-80337188D01*
X157511000Y-80511259D01*
X157511000Y-80688741D01*
X157476376Y-80862812D01*
X157408456Y-81026784D01*
X157309853Y-81174354D01*
X157184354Y-81299853D01*
X157036784Y-81398456D01*
X156872812Y-81466376D01*
X156723512Y-81496073D01*
X156698742Y-81501000D01*
X156521258Y-81501000D01*
X156496488Y-81496073D01*
X156347188Y-81466376D01*
X156183216Y-81398456D01*
X156035646Y-81299853D01*
X155910147Y-81174354D01*
X155811544Y-81026784D01*
X155743624Y-80862812D01*
X155709000Y-80688741D01*
X155709000Y-80511259D01*
X155743624Y-80337188D01*
X155811544Y-80173216D01*
X155910147Y-80025646D01*
X156035646Y-79900147D01*
X156183216Y-79801544D01*
X156347188Y-79733624D01*
X156496488Y-79703927D01*
X156521258Y-79699000D01*
X156698742Y-79699000D01*
X156723512Y-79703927D01*
G37*
G36*
X154183512Y-79703927D02*
G01*
X154332812Y-79733624D01*
X154496784Y-79801544D01*
X154644354Y-79900147D01*
X154769853Y-80025646D01*
X154868456Y-80173216D01*
X154936376Y-80337188D01*
X154971000Y-80511259D01*
X154971000Y-80688741D01*
X154936376Y-80862812D01*
X154868456Y-81026784D01*
X154769853Y-81174354D01*
X154644354Y-81299853D01*
X154496784Y-81398456D01*
X154332812Y-81466376D01*
X154183512Y-81496073D01*
X154158742Y-81501000D01*
X153981258Y-81501000D01*
X153956488Y-81496073D01*
X153807188Y-81466376D01*
X153643216Y-81398456D01*
X153495646Y-81299853D01*
X153370147Y-81174354D01*
X153271544Y-81026784D01*
X153203624Y-80862812D01*
X153169000Y-80688741D01*
X153169000Y-80511259D01*
X153203624Y-80337188D01*
X153271544Y-80173216D01*
X153370147Y-80025646D01*
X153495646Y-79900147D01*
X153643216Y-79801544D01*
X153807188Y-79733624D01*
X153956488Y-79703927D01*
X153981258Y-79699000D01*
X154158742Y-79699000D01*
X154183512Y-79703927D01*
G37*
G36*
X151643512Y-79703927D02*
G01*
X151792812Y-79733624D01*
X151956784Y-79801544D01*
X152104354Y-79900147D01*
X152229853Y-80025646D01*
X152328456Y-80173216D01*
X152396376Y-80337188D01*
X152431000Y-80511259D01*
X152431000Y-80688741D01*
X152396376Y-80862812D01*
X152328456Y-81026784D01*
X152229853Y-81174354D01*
X152104354Y-81299853D01*
X151956784Y-81398456D01*
X151792812Y-81466376D01*
X151643512Y-81496073D01*
X151618742Y-81501000D01*
X151441258Y-81501000D01*
X151416488Y-81496073D01*
X151267188Y-81466376D01*
X151103216Y-81398456D01*
X150955646Y-81299853D01*
X150830147Y-81174354D01*
X150731544Y-81026784D01*
X150663624Y-80862812D01*
X150629000Y-80688741D01*
X150629000Y-80511259D01*
X150663624Y-80337188D01*
X150731544Y-80173216D01*
X150830147Y-80025646D01*
X150955646Y-79900147D01*
X151103216Y-79801544D01*
X151267188Y-79733624D01*
X151416488Y-79703927D01*
X151441258Y-79699000D01*
X151618742Y-79699000D01*
X151643512Y-79703927D01*
G37*
G36*
X149103512Y-79703927D02*
G01*
X149252812Y-79733624D01*
X149416784Y-79801544D01*
X149564354Y-79900147D01*
X149689853Y-80025646D01*
X149788456Y-80173216D01*
X149856376Y-80337188D01*
X149891000Y-80511259D01*
X149891000Y-80688741D01*
X149856376Y-80862812D01*
X149788456Y-81026784D01*
X149689853Y-81174354D01*
X149564354Y-81299853D01*
X149416784Y-81398456D01*
X149252812Y-81466376D01*
X149103512Y-81496073D01*
X149078742Y-81501000D01*
X148901258Y-81501000D01*
X148876488Y-81496073D01*
X148727188Y-81466376D01*
X148563216Y-81398456D01*
X148415646Y-81299853D01*
X148290147Y-81174354D01*
X148191544Y-81026784D01*
X148123624Y-80862812D01*
X148089000Y-80688741D01*
X148089000Y-80511259D01*
X148123624Y-80337188D01*
X148191544Y-80173216D01*
X148290147Y-80025646D01*
X148415646Y-79900147D01*
X148563216Y-79801544D01*
X148727188Y-79733624D01*
X148876488Y-79703927D01*
X148901258Y-79699000D01*
X149078742Y-79699000D01*
X149103512Y-79703927D01*
G37*
G36*
X146563512Y-79703927D02*
G01*
X146712812Y-79733624D01*
X146876784Y-79801544D01*
X147024354Y-79900147D01*
X147149853Y-80025646D01*
X147248456Y-80173216D01*
X147316376Y-80337188D01*
X147351000Y-80511259D01*
X147351000Y-80688741D01*
X147316376Y-80862812D01*
X147248456Y-81026784D01*
X147149853Y-81174354D01*
X147024354Y-81299853D01*
X146876784Y-81398456D01*
X146712812Y-81466376D01*
X146563512Y-81496073D01*
X146538742Y-81501000D01*
X146361258Y-81501000D01*
X146336488Y-81496073D01*
X146187188Y-81466376D01*
X146023216Y-81398456D01*
X145875646Y-81299853D01*
X145750147Y-81174354D01*
X145651544Y-81026784D01*
X145583624Y-80862812D01*
X145549000Y-80688741D01*
X145549000Y-80511259D01*
X145583624Y-80337188D01*
X145651544Y-80173216D01*
X145750147Y-80025646D01*
X145875646Y-79900147D01*
X146023216Y-79801544D01*
X146187188Y-79733624D01*
X146336488Y-79703927D01*
X146361258Y-79699000D01*
X146538742Y-79699000D01*
X146563512Y-79703927D01*
G37*
G36*
X144023512Y-79703927D02*
G01*
X144172812Y-79733624D01*
X144336784Y-79801544D01*
X144484354Y-79900147D01*
X144609853Y-80025646D01*
X144708456Y-80173216D01*
X144776376Y-80337188D01*
X144811000Y-80511259D01*
X144811000Y-80688741D01*
X144776376Y-80862812D01*
X144708456Y-81026784D01*
X144609853Y-81174354D01*
X144484354Y-81299853D01*
X144336784Y-81398456D01*
X144172812Y-81466376D01*
X144023512Y-81496073D01*
X143998742Y-81501000D01*
X143821258Y-81501000D01*
X143796488Y-81496073D01*
X143647188Y-81466376D01*
X143483216Y-81398456D01*
X143335646Y-81299853D01*
X143210147Y-81174354D01*
X143111544Y-81026784D01*
X143043624Y-80862812D01*
X143009000Y-80688741D01*
X143009000Y-80511259D01*
X143043624Y-80337188D01*
X143111544Y-80173216D01*
X143210147Y-80025646D01*
X143335646Y-79900147D01*
X143483216Y-79801544D01*
X143647188Y-79733624D01*
X143796488Y-79703927D01*
X143821258Y-79699000D01*
X143998742Y-79699000D01*
X144023512Y-79703927D01*
G37*
G36*
X141483512Y-79703927D02*
G01*
X141632812Y-79733624D01*
X141796784Y-79801544D01*
X141944354Y-79900147D01*
X142069853Y-80025646D01*
X142168456Y-80173216D01*
X142236376Y-80337188D01*
X142271000Y-80511259D01*
X142271000Y-80688741D01*
X142236376Y-80862812D01*
X142168456Y-81026784D01*
X142069853Y-81174354D01*
X141944354Y-81299853D01*
X141796784Y-81398456D01*
X141632812Y-81466376D01*
X141483512Y-81496073D01*
X141458742Y-81501000D01*
X141281258Y-81501000D01*
X141256488Y-81496073D01*
X141107188Y-81466376D01*
X140943216Y-81398456D01*
X140795646Y-81299853D01*
X140670147Y-81174354D01*
X140571544Y-81026784D01*
X140503624Y-80862812D01*
X140469000Y-80688741D01*
X140469000Y-80511259D01*
X140503624Y-80337188D01*
X140571544Y-80173216D01*
X140670147Y-80025646D01*
X140795646Y-79900147D01*
X140943216Y-79801544D01*
X141107188Y-79733624D01*
X141256488Y-79703927D01*
X141281258Y-79699000D01*
X141458742Y-79699000D01*
X141483512Y-79703927D01*
G37*
G36*
X138943512Y-79703927D02*
G01*
X139092812Y-79733624D01*
X139256784Y-79801544D01*
X139404354Y-79900147D01*
X139529853Y-80025646D01*
X139628456Y-80173216D01*
X139696376Y-80337188D01*
X139731000Y-80511259D01*
X139731000Y-80688741D01*
X139696376Y-80862812D01*
X139628456Y-81026784D01*
X139529853Y-81174354D01*
X139404354Y-81299853D01*
X139256784Y-81398456D01*
X139092812Y-81466376D01*
X138943512Y-81496073D01*
X138918742Y-81501000D01*
X138741258Y-81501000D01*
X138716488Y-81496073D01*
X138567188Y-81466376D01*
X138403216Y-81398456D01*
X138255646Y-81299853D01*
X138130147Y-81174354D01*
X138031544Y-81026784D01*
X137963624Y-80862812D01*
X137929000Y-80688741D01*
X137929000Y-80511259D01*
X137963624Y-80337188D01*
X138031544Y-80173216D01*
X138130147Y-80025646D01*
X138255646Y-79900147D01*
X138403216Y-79801544D01*
X138567188Y-79733624D01*
X138716488Y-79703927D01*
X138741258Y-79699000D01*
X138918742Y-79699000D01*
X138943512Y-79703927D01*
G37*
G36*
X133863512Y-79703927D02*
G01*
X134012812Y-79733624D01*
X134176784Y-79801544D01*
X134324354Y-79900147D01*
X134449853Y-80025646D01*
X134548456Y-80173216D01*
X134616376Y-80337188D01*
X134651000Y-80511259D01*
X134651000Y-80688741D01*
X134616376Y-80862812D01*
X134548456Y-81026784D01*
X134449853Y-81174354D01*
X134324354Y-81299853D01*
X134176784Y-81398456D01*
X134012812Y-81466376D01*
X133863512Y-81496073D01*
X133838742Y-81501000D01*
X133661258Y-81501000D01*
X133636488Y-81496073D01*
X133487188Y-81466376D01*
X133323216Y-81398456D01*
X133175646Y-81299853D01*
X133050147Y-81174354D01*
X132951544Y-81026784D01*
X132883624Y-80862812D01*
X132849000Y-80688741D01*
X132849000Y-80511259D01*
X132883624Y-80337188D01*
X132951544Y-80173216D01*
X133050147Y-80025646D01*
X133175646Y-79900147D01*
X133323216Y-79801544D01*
X133487188Y-79733624D01*
X133636488Y-79703927D01*
X133661258Y-79699000D01*
X133838742Y-79699000D01*
X133863512Y-79703927D01*
G37*
G36*
X136403512Y-79703927D02*
G01*
X136552812Y-79733624D01*
X136716784Y-79801544D01*
X136864354Y-79900147D01*
X136989853Y-80025646D01*
X137088456Y-80173216D01*
X137156376Y-80337188D01*
X137191000Y-80511259D01*
X137191000Y-80688741D01*
X137156376Y-80862812D01*
X137088456Y-81026784D01*
X136989853Y-81174354D01*
X136864354Y-81299853D01*
X136716784Y-81398456D01*
X136552812Y-81466376D01*
X136403512Y-81496073D01*
X136378742Y-81501000D01*
X136201258Y-81501000D01*
X136176488Y-81496073D01*
X136027188Y-81466376D01*
X135863216Y-81398456D01*
X135715646Y-81299853D01*
X135590147Y-81174354D01*
X135491544Y-81026784D01*
X135423624Y-80862812D01*
X135389000Y-80688741D01*
X135389000Y-80511259D01*
X135423624Y-80337188D01*
X135491544Y-80173216D01*
X135590147Y-80025646D01*
X135715646Y-79900147D01*
X135863216Y-79801544D01*
X136027188Y-79733624D01*
X136176488Y-79703927D01*
X136201258Y-79699000D01*
X136378742Y-79699000D01*
X136403512Y-79703927D01*
G37*
G36*
X131134365Y-78858456D02*
G01*
X131260934Y-78883632D01*
X131470403Y-78970397D01*
X131658920Y-79096360D01*
X131819240Y-79256680D01*
X131945203Y-79445197D01*
X132031968Y-79654666D01*
X132076200Y-79877036D01*
X132076200Y-80103764D01*
X132031968Y-80326134D01*
X131945203Y-80535603D01*
X131819240Y-80724120D01*
X131658920Y-80884440D01*
X131470403Y-81010403D01*
X131260934Y-81097168D01*
X131149749Y-81119284D01*
X131038565Y-81141400D01*
X130811835Y-81141400D01*
X130700651Y-81119284D01*
X130589466Y-81097168D01*
X130379997Y-81010403D01*
X130191480Y-80884440D01*
X130031160Y-80724120D01*
X129905197Y-80535603D01*
X129818432Y-80326134D01*
X129774200Y-80103764D01*
X129774200Y-79877036D01*
X129818432Y-79654666D01*
X129905197Y-79445197D01*
X130031160Y-79256680D01*
X130191480Y-79096360D01*
X130379997Y-78970397D01*
X130589466Y-78883632D01*
X130716035Y-78858456D01*
X130811835Y-78839400D01*
X131038565Y-78839400D01*
X131134365Y-78858456D01*
G37*
G36*
X138943512Y-77163927D02*
G01*
X139092812Y-77193624D01*
X139256784Y-77261544D01*
X139404354Y-77360147D01*
X139529853Y-77485646D01*
X139628456Y-77633216D01*
X139696376Y-77797188D01*
X139731000Y-77971259D01*
X139731000Y-78148741D01*
X139696376Y-78322812D01*
X139628456Y-78486784D01*
X139529853Y-78634354D01*
X139404354Y-78759853D01*
X139256784Y-78858456D01*
X139092812Y-78926376D01*
X138943512Y-78956073D01*
X138918742Y-78961000D01*
X138741258Y-78961000D01*
X138716488Y-78956073D01*
X138567188Y-78926376D01*
X138403216Y-78858456D01*
X138255646Y-78759853D01*
X138130147Y-78634354D01*
X138031544Y-78486784D01*
X137963624Y-78322812D01*
X137929000Y-78148741D01*
X137929000Y-77971259D01*
X137963624Y-77797188D01*
X138031544Y-77633216D01*
X138130147Y-77485646D01*
X138255646Y-77360147D01*
X138403216Y-77261544D01*
X138567188Y-77193624D01*
X138716488Y-77163927D01*
X138741258Y-77159000D01*
X138918742Y-77159000D01*
X138943512Y-77163927D01*
G37*
G36*
X138943512Y-74623927D02*
G01*
X139092812Y-74653624D01*
X139256784Y-74721544D01*
X139404354Y-74820147D01*
X139529853Y-74945646D01*
X139628456Y-75093216D01*
X139696376Y-75257188D01*
X139731000Y-75431259D01*
X139731000Y-75608741D01*
X139696376Y-75782812D01*
X139628456Y-75946784D01*
X139529853Y-76094354D01*
X139404354Y-76219853D01*
X139256784Y-76318456D01*
X139092812Y-76386376D01*
X138943512Y-76416073D01*
X138918742Y-76421000D01*
X138741258Y-76421000D01*
X138716488Y-76416073D01*
X138567188Y-76386376D01*
X138403216Y-76318456D01*
X138255646Y-76219853D01*
X138130147Y-76094354D01*
X138031544Y-75946784D01*
X137963624Y-75782812D01*
X137929000Y-75608741D01*
X137929000Y-75431259D01*
X137963624Y-75257188D01*
X138031544Y-75093216D01*
X138130147Y-74945646D01*
X138255646Y-74820147D01*
X138403216Y-74721544D01*
X138567188Y-74653624D01*
X138716488Y-74623927D01*
X138741258Y-74619000D01*
X138918742Y-74619000D01*
X138943512Y-74623927D01*
G37*
G36*
X138943512Y-72083927D02*
G01*
X139092812Y-72113624D01*
X139256784Y-72181544D01*
X139404354Y-72280147D01*
X139529853Y-72405646D01*
X139628456Y-72553216D01*
X139696376Y-72717188D01*
X139731000Y-72891259D01*
X139731000Y-73068741D01*
X139696376Y-73242812D01*
X139628456Y-73406784D01*
X139529853Y-73554354D01*
X139404354Y-73679853D01*
X139256784Y-73778456D01*
X139092812Y-73846376D01*
X138943512Y-73876073D01*
X138918742Y-73881000D01*
X138741258Y-73881000D01*
X138716488Y-73876073D01*
X138567188Y-73846376D01*
X138403216Y-73778456D01*
X138255646Y-73679853D01*
X138130147Y-73554354D01*
X138031544Y-73406784D01*
X137963624Y-73242812D01*
X137929000Y-73068741D01*
X137929000Y-72891259D01*
X137963624Y-72717188D01*
X138031544Y-72553216D01*
X138130147Y-72405646D01*
X138255646Y-72280147D01*
X138403216Y-72181544D01*
X138567188Y-72113624D01*
X138716488Y-72083927D01*
X138741258Y-72079000D01*
X138918742Y-72079000D01*
X138943512Y-72083927D01*
G37*
G36*
X138943512Y-67028927D02*
G01*
X139092812Y-67058624D01*
X139256784Y-67126544D01*
X139404354Y-67225147D01*
X139529853Y-67350646D01*
X139628456Y-67498216D01*
X139696376Y-67662188D01*
X139731000Y-67836259D01*
X139731000Y-68013741D01*
X139696376Y-68187812D01*
X139628456Y-68351784D01*
X139529853Y-68499354D01*
X139404354Y-68624853D01*
X139256784Y-68723456D01*
X139092812Y-68791376D01*
X138943512Y-68821073D01*
X138918742Y-68826000D01*
X138741258Y-68826000D01*
X138716488Y-68821073D01*
X138567188Y-68791376D01*
X138403216Y-68723456D01*
X138255646Y-68624853D01*
X138130147Y-68499354D01*
X138031544Y-68351784D01*
X137963624Y-68187812D01*
X137929000Y-68013741D01*
X137929000Y-67836259D01*
X137963624Y-67662188D01*
X138031544Y-67498216D01*
X138130147Y-67350646D01*
X138255646Y-67225147D01*
X138403216Y-67126544D01*
X138567188Y-67058624D01*
X138716488Y-67028927D01*
X138741258Y-67024000D01*
X138918742Y-67024000D01*
X138943512Y-67028927D01*
G37*
G36*
X131149749Y-64866116D02*
G01*
X131260934Y-64888232D01*
X131470403Y-64974997D01*
X131658920Y-65100960D01*
X131819240Y-65261280D01*
X131945203Y-65449797D01*
X132031968Y-65659266D01*
X132076200Y-65881636D01*
X132076200Y-66108364D01*
X132031968Y-66330734D01*
X131945203Y-66540203D01*
X131819240Y-66728720D01*
X131658920Y-66889040D01*
X131470403Y-67015003D01*
X131470402Y-67015004D01*
X131470401Y-67015004D01*
X131409050Y-67040416D01*
X131260934Y-67101768D01*
X131149749Y-67123884D01*
X131038565Y-67146000D01*
X130811835Y-67146000D01*
X130700651Y-67123884D01*
X130589466Y-67101768D01*
X130441350Y-67040416D01*
X130379999Y-67015004D01*
X130379998Y-67015004D01*
X130379997Y-67015003D01*
X130191480Y-66889040D01*
X130031160Y-66728720D01*
X129905197Y-66540203D01*
X129818432Y-66330734D01*
X129774200Y-66108364D01*
X129774200Y-65881636D01*
X129818432Y-65659266D01*
X129905197Y-65449797D01*
X130031160Y-65261280D01*
X130191480Y-65100960D01*
X130379997Y-64974997D01*
X130589466Y-64888232D01*
X130700651Y-64866116D01*
X130811835Y-64844000D01*
X131038565Y-64844000D01*
X131149749Y-64866116D01*
G37*
G36*
X174503512Y-64488927D02*
G01*
X174652812Y-64518624D01*
X174816784Y-64586544D01*
X174964354Y-64685147D01*
X175089853Y-64810646D01*
X175188456Y-64958216D01*
X175256376Y-65122188D01*
X175291000Y-65296259D01*
X175291000Y-65473741D01*
X175256376Y-65647812D01*
X175188456Y-65811784D01*
X175089853Y-65959354D01*
X174964354Y-66084853D01*
X174816784Y-66183456D01*
X174652812Y-66251376D01*
X174503512Y-66281073D01*
X174478742Y-66286000D01*
X174301258Y-66286000D01*
X174276488Y-66281073D01*
X174127188Y-66251376D01*
X173963216Y-66183456D01*
X173815646Y-66084853D01*
X173690147Y-65959354D01*
X173591544Y-65811784D01*
X173523624Y-65647812D01*
X173489000Y-65473741D01*
X173489000Y-65296259D01*
X173523624Y-65122188D01*
X173591544Y-64958216D01*
X173690147Y-64810646D01*
X173815646Y-64685147D01*
X173963216Y-64586544D01*
X174127188Y-64518624D01*
X174276488Y-64488927D01*
X174301258Y-64484000D01*
X174478742Y-64484000D01*
X174503512Y-64488927D01*
G37*
G36*
X171963512Y-64488927D02*
G01*
X172112812Y-64518624D01*
X172276784Y-64586544D01*
X172424354Y-64685147D01*
X172549853Y-64810646D01*
X172648456Y-64958216D01*
X172716376Y-65122188D01*
X172751000Y-65296259D01*
X172751000Y-65473741D01*
X172716376Y-65647812D01*
X172648456Y-65811784D01*
X172549853Y-65959354D01*
X172424354Y-66084853D01*
X172276784Y-66183456D01*
X172112812Y-66251376D01*
X171963512Y-66281073D01*
X171938742Y-66286000D01*
X171761258Y-66286000D01*
X171736488Y-66281073D01*
X171587188Y-66251376D01*
X171423216Y-66183456D01*
X171275646Y-66084853D01*
X171150147Y-65959354D01*
X171051544Y-65811784D01*
X170983624Y-65647812D01*
X170949000Y-65473741D01*
X170949000Y-65296259D01*
X170983624Y-65122188D01*
X171051544Y-64958216D01*
X171150147Y-64810646D01*
X171275646Y-64685147D01*
X171423216Y-64586544D01*
X171587188Y-64518624D01*
X171736488Y-64488927D01*
X171761258Y-64484000D01*
X171938742Y-64484000D01*
X171963512Y-64488927D01*
G37*
G36*
X169423512Y-64488927D02*
G01*
X169572812Y-64518624D01*
X169736784Y-64586544D01*
X169884354Y-64685147D01*
X170009853Y-64810646D01*
X170108456Y-64958216D01*
X170176376Y-65122188D01*
X170211000Y-65296259D01*
X170211000Y-65473741D01*
X170176376Y-65647812D01*
X170108456Y-65811784D01*
X170009853Y-65959354D01*
X169884354Y-66084853D01*
X169736784Y-66183456D01*
X169572812Y-66251376D01*
X169423512Y-66281073D01*
X169398742Y-66286000D01*
X169221258Y-66286000D01*
X169196488Y-66281073D01*
X169047188Y-66251376D01*
X168883216Y-66183456D01*
X168735646Y-66084853D01*
X168610147Y-65959354D01*
X168511544Y-65811784D01*
X168443624Y-65647812D01*
X168409000Y-65473741D01*
X168409000Y-65296259D01*
X168443624Y-65122188D01*
X168511544Y-64958216D01*
X168610147Y-64810646D01*
X168735646Y-64685147D01*
X168883216Y-64586544D01*
X169047188Y-64518624D01*
X169196488Y-64488927D01*
X169221258Y-64484000D01*
X169398742Y-64484000D01*
X169423512Y-64488927D01*
G37*
G36*
X166883512Y-64488927D02*
G01*
X167032812Y-64518624D01*
X167196784Y-64586544D01*
X167344354Y-64685147D01*
X167469853Y-64810646D01*
X167568456Y-64958216D01*
X167636376Y-65122188D01*
X167671000Y-65296259D01*
X167671000Y-65473741D01*
X167636376Y-65647812D01*
X167568456Y-65811784D01*
X167469853Y-65959354D01*
X167344354Y-66084853D01*
X167196784Y-66183456D01*
X167032812Y-66251376D01*
X166883512Y-66281073D01*
X166858742Y-66286000D01*
X166681258Y-66286000D01*
X166656488Y-66281073D01*
X166507188Y-66251376D01*
X166343216Y-66183456D01*
X166195646Y-66084853D01*
X166070147Y-65959354D01*
X165971544Y-65811784D01*
X165903624Y-65647812D01*
X165869000Y-65473741D01*
X165869000Y-65296259D01*
X165903624Y-65122188D01*
X165971544Y-64958216D01*
X166070147Y-64810646D01*
X166195646Y-64685147D01*
X166343216Y-64586544D01*
X166507188Y-64518624D01*
X166656488Y-64488927D01*
X166681258Y-64484000D01*
X166858742Y-64484000D01*
X166883512Y-64488927D01*
G37*
G36*
X161803512Y-64488927D02*
G01*
X161952812Y-64518624D01*
X162116784Y-64586544D01*
X162264354Y-64685147D01*
X162389853Y-64810646D01*
X162488456Y-64958216D01*
X162556376Y-65122188D01*
X162591000Y-65296259D01*
X162591000Y-65473741D01*
X162556376Y-65647812D01*
X162488456Y-65811784D01*
X162389853Y-65959354D01*
X162264354Y-66084853D01*
X162116784Y-66183456D01*
X161952812Y-66251376D01*
X161803512Y-66281073D01*
X161778742Y-66286000D01*
X161601258Y-66286000D01*
X161576488Y-66281073D01*
X161427188Y-66251376D01*
X161263216Y-66183456D01*
X161115646Y-66084853D01*
X160990147Y-65959354D01*
X160891544Y-65811784D01*
X160823624Y-65647812D01*
X160789000Y-65473741D01*
X160789000Y-65296259D01*
X160823624Y-65122188D01*
X160891544Y-64958216D01*
X160990147Y-64810646D01*
X161115646Y-64685147D01*
X161263216Y-64586544D01*
X161427188Y-64518624D01*
X161576488Y-64488927D01*
X161601258Y-64484000D01*
X161778742Y-64484000D01*
X161803512Y-64488927D01*
G37*
G36*
X159263512Y-64488927D02*
G01*
X159412812Y-64518624D01*
X159576784Y-64586544D01*
X159724354Y-64685147D01*
X159849853Y-64810646D01*
X159948456Y-64958216D01*
X160016376Y-65122188D01*
X160051000Y-65296259D01*
X160051000Y-65473741D01*
X160016376Y-65647812D01*
X159948456Y-65811784D01*
X159849853Y-65959354D01*
X159724354Y-66084853D01*
X159576784Y-66183456D01*
X159412812Y-66251376D01*
X159263512Y-66281073D01*
X159238742Y-66286000D01*
X159061258Y-66286000D01*
X159036488Y-66281073D01*
X158887188Y-66251376D01*
X158723216Y-66183456D01*
X158575646Y-66084853D01*
X158450147Y-65959354D01*
X158351544Y-65811784D01*
X158283624Y-65647812D01*
X158249000Y-65473741D01*
X158249000Y-65296259D01*
X158283624Y-65122188D01*
X158351544Y-64958216D01*
X158450147Y-64810646D01*
X158575646Y-64685147D01*
X158723216Y-64586544D01*
X158887188Y-64518624D01*
X159036488Y-64488927D01*
X159061258Y-64484000D01*
X159238742Y-64484000D01*
X159263512Y-64488927D01*
G37*
G36*
X156723512Y-64488927D02*
G01*
X156872812Y-64518624D01*
X157036784Y-64586544D01*
X157184354Y-64685147D01*
X157309853Y-64810646D01*
X157408456Y-64958216D01*
X157476376Y-65122188D01*
X157511000Y-65296259D01*
X157511000Y-65473741D01*
X157476376Y-65647812D01*
X157408456Y-65811784D01*
X157309853Y-65959354D01*
X157184354Y-66084853D01*
X157036784Y-66183456D01*
X156872812Y-66251376D01*
X156723512Y-66281073D01*
X156698742Y-66286000D01*
X156521258Y-66286000D01*
X156496488Y-66281073D01*
X156347188Y-66251376D01*
X156183216Y-66183456D01*
X156035646Y-66084853D01*
X155910147Y-65959354D01*
X155811544Y-65811784D01*
X155743624Y-65647812D01*
X155709000Y-65473741D01*
X155709000Y-65296259D01*
X155743624Y-65122188D01*
X155811544Y-64958216D01*
X155910147Y-64810646D01*
X156035646Y-64685147D01*
X156183216Y-64586544D01*
X156347188Y-64518624D01*
X156496488Y-64488927D01*
X156521258Y-64484000D01*
X156698742Y-64484000D01*
X156723512Y-64488927D01*
G37*
G36*
X154183512Y-64488927D02*
G01*
X154332812Y-64518624D01*
X154496784Y-64586544D01*
X154644354Y-64685147D01*
X154769853Y-64810646D01*
X154868456Y-64958216D01*
X154936376Y-65122188D01*
X154971000Y-65296259D01*
X154971000Y-65473741D01*
X154936376Y-65647812D01*
X154868456Y-65811784D01*
X154769853Y-65959354D01*
X154644354Y-66084853D01*
X154496784Y-66183456D01*
X154332812Y-66251376D01*
X154183512Y-66281073D01*
X154158742Y-66286000D01*
X153981258Y-66286000D01*
X153956488Y-66281073D01*
X153807188Y-66251376D01*
X153643216Y-66183456D01*
X153495646Y-66084853D01*
X153370147Y-65959354D01*
X153271544Y-65811784D01*
X153203624Y-65647812D01*
X153169000Y-65473741D01*
X153169000Y-65296259D01*
X153203624Y-65122188D01*
X153271544Y-64958216D01*
X153370147Y-64810646D01*
X153495646Y-64685147D01*
X153643216Y-64586544D01*
X153807188Y-64518624D01*
X153956488Y-64488927D01*
X153981258Y-64484000D01*
X154158742Y-64484000D01*
X154183512Y-64488927D01*
G37*
G36*
X151643512Y-64488927D02*
G01*
X151792812Y-64518624D01*
X151956784Y-64586544D01*
X152104354Y-64685147D01*
X152229853Y-64810646D01*
X152328456Y-64958216D01*
X152396376Y-65122188D01*
X152431000Y-65296259D01*
X152431000Y-65473741D01*
X152396376Y-65647812D01*
X152328456Y-65811784D01*
X152229853Y-65959354D01*
X152104354Y-66084853D01*
X151956784Y-66183456D01*
X151792812Y-66251376D01*
X151643512Y-66281073D01*
X151618742Y-66286000D01*
X151441258Y-66286000D01*
X151416488Y-66281073D01*
X151267188Y-66251376D01*
X151103216Y-66183456D01*
X150955646Y-66084853D01*
X150830147Y-65959354D01*
X150731544Y-65811784D01*
X150663624Y-65647812D01*
X150629000Y-65473741D01*
X150629000Y-65296259D01*
X150663624Y-65122188D01*
X150731544Y-64958216D01*
X150830147Y-64810646D01*
X150955646Y-64685147D01*
X151103216Y-64586544D01*
X151267188Y-64518624D01*
X151416488Y-64488927D01*
X151441258Y-64484000D01*
X151618742Y-64484000D01*
X151643512Y-64488927D01*
G37*
G36*
X149103512Y-64488927D02*
G01*
X149252812Y-64518624D01*
X149416784Y-64586544D01*
X149564354Y-64685147D01*
X149689853Y-64810646D01*
X149788456Y-64958216D01*
X149856376Y-65122188D01*
X149891000Y-65296259D01*
X149891000Y-65473741D01*
X149856376Y-65647812D01*
X149788456Y-65811784D01*
X149689853Y-65959354D01*
X149564354Y-66084853D01*
X149416784Y-66183456D01*
X149252812Y-66251376D01*
X149103512Y-66281073D01*
X149078742Y-66286000D01*
X148901258Y-66286000D01*
X148876488Y-66281073D01*
X148727188Y-66251376D01*
X148563216Y-66183456D01*
X148415646Y-66084853D01*
X148290147Y-65959354D01*
X148191544Y-65811784D01*
X148123624Y-65647812D01*
X148089000Y-65473741D01*
X148089000Y-65296259D01*
X148123624Y-65122188D01*
X148191544Y-64958216D01*
X148290147Y-64810646D01*
X148415646Y-64685147D01*
X148563216Y-64586544D01*
X148727188Y-64518624D01*
X148876488Y-64488927D01*
X148901258Y-64484000D01*
X149078742Y-64484000D01*
X149103512Y-64488927D01*
G37*
G36*
X133863512Y-64488927D02*
G01*
X134012812Y-64518624D01*
X134176784Y-64586544D01*
X134324354Y-64685147D01*
X134449853Y-64810646D01*
X134548456Y-64958216D01*
X134616376Y-65122188D01*
X134651000Y-65296259D01*
X134651000Y-65473741D01*
X134616376Y-65647812D01*
X134548456Y-65811784D01*
X134449853Y-65959354D01*
X134324354Y-66084853D01*
X134176784Y-66183456D01*
X134012812Y-66251376D01*
X133863512Y-66281073D01*
X133838742Y-66286000D01*
X133661258Y-66286000D01*
X133636488Y-66281073D01*
X133487188Y-66251376D01*
X133323216Y-66183456D01*
X133175646Y-66084853D01*
X133050147Y-65959354D01*
X132951544Y-65811784D01*
X132883624Y-65647812D01*
X132849000Y-65473741D01*
X132849000Y-65296259D01*
X132883624Y-65122188D01*
X132951544Y-64958216D01*
X133050147Y-64810646D01*
X133175646Y-64685147D01*
X133323216Y-64586544D01*
X133487188Y-64518624D01*
X133636488Y-64488927D01*
X133661258Y-64484000D01*
X133838742Y-64484000D01*
X133863512Y-64488927D01*
G37*
G36*
X146563512Y-64488927D02*
G01*
X146712812Y-64518624D01*
X146876784Y-64586544D01*
X147024354Y-64685147D01*
X147149853Y-64810646D01*
X147248456Y-64958216D01*
X147316376Y-65122188D01*
X147351000Y-65296259D01*
X147351000Y-65473741D01*
X147316376Y-65647812D01*
X147248456Y-65811784D01*
X147149853Y-65959354D01*
X147024354Y-66084853D01*
X146876784Y-66183456D01*
X146712812Y-66251376D01*
X146563512Y-66281073D01*
X146538742Y-66286000D01*
X146361258Y-66286000D01*
X146336488Y-66281073D01*
X146187188Y-66251376D01*
X146023216Y-66183456D01*
X145875646Y-66084853D01*
X145750147Y-65959354D01*
X145651544Y-65811784D01*
X145583624Y-65647812D01*
X145549000Y-65473741D01*
X145549000Y-65296259D01*
X145583624Y-65122188D01*
X145651544Y-64958216D01*
X145750147Y-64810646D01*
X145875646Y-64685147D01*
X146023216Y-64586544D01*
X146187188Y-64518624D01*
X146336488Y-64488927D01*
X146361258Y-64484000D01*
X146538742Y-64484000D01*
X146563512Y-64488927D01*
G37*
G36*
X177043512Y-64488927D02*
G01*
X177192812Y-64518624D01*
X177356784Y-64586544D01*
X177504354Y-64685147D01*
X177629853Y-64810646D01*
X177728456Y-64958216D01*
X177796376Y-65122188D01*
X177831000Y-65296259D01*
X177831000Y-65473741D01*
X177796376Y-65647812D01*
X177728456Y-65811784D01*
X177629853Y-65959354D01*
X177504354Y-66084853D01*
X177356784Y-66183456D01*
X177192812Y-66251376D01*
X177043512Y-66281073D01*
X177018742Y-66286000D01*
X176841258Y-66286000D01*
X176816488Y-66281073D01*
X176667188Y-66251376D01*
X176503216Y-66183456D01*
X176355646Y-66084853D01*
X176230147Y-65959354D01*
X176131544Y-65811784D01*
X176063624Y-65647812D01*
X176029000Y-65473741D01*
X176029000Y-65296259D01*
X176063624Y-65122188D01*
X176131544Y-64958216D01*
X176230147Y-64810646D01*
X176355646Y-64685147D01*
X176503216Y-64586544D01*
X176667188Y-64518624D01*
X176816488Y-64488927D01*
X176841258Y-64484000D01*
X177018742Y-64484000D01*
X177043512Y-64488927D01*
G37*
G36*
X179583512Y-64488927D02*
G01*
X179732812Y-64518624D01*
X179896784Y-64586544D01*
X180044354Y-64685147D01*
X180169853Y-64810646D01*
X180268456Y-64958216D01*
X180336376Y-65122188D01*
X180371000Y-65296259D01*
X180371000Y-65473741D01*
X180336376Y-65647812D01*
X180268456Y-65811784D01*
X180169853Y-65959354D01*
X180044354Y-66084853D01*
X179896784Y-66183456D01*
X179732812Y-66251376D01*
X179583512Y-66281073D01*
X179558742Y-66286000D01*
X179381258Y-66286000D01*
X179356488Y-66281073D01*
X179207188Y-66251376D01*
X179043216Y-66183456D01*
X178895646Y-66084853D01*
X178770147Y-65959354D01*
X178671544Y-65811784D01*
X178603624Y-65647812D01*
X178569000Y-65473741D01*
X178569000Y-65296259D01*
X178603624Y-65122188D01*
X178671544Y-64958216D01*
X178770147Y-64810646D01*
X178895646Y-64685147D01*
X179043216Y-64586544D01*
X179207188Y-64518624D01*
X179356488Y-64488927D01*
X179381258Y-64484000D01*
X179558742Y-64484000D01*
X179583512Y-64488927D01*
G37*
G36*
X144023512Y-64488927D02*
G01*
X144172812Y-64518624D01*
X144336784Y-64586544D01*
X144484354Y-64685147D01*
X144609853Y-64810646D01*
X144708456Y-64958216D01*
X144776376Y-65122188D01*
X144811000Y-65296259D01*
X144811000Y-65473741D01*
X144776376Y-65647812D01*
X144708456Y-65811784D01*
X144609853Y-65959354D01*
X144484354Y-66084853D01*
X144336784Y-66183456D01*
X144172812Y-66251376D01*
X144023512Y-66281073D01*
X143998742Y-66286000D01*
X143821258Y-66286000D01*
X143796488Y-66281073D01*
X143647188Y-66251376D01*
X143483216Y-66183456D01*
X143335646Y-66084853D01*
X143210147Y-65959354D01*
X143111544Y-65811784D01*
X143043624Y-65647812D01*
X143009000Y-65473741D01*
X143009000Y-65296259D01*
X143043624Y-65122188D01*
X143111544Y-64958216D01*
X143210147Y-64810646D01*
X143335646Y-64685147D01*
X143483216Y-64586544D01*
X143647188Y-64518624D01*
X143796488Y-64488927D01*
X143821258Y-64484000D01*
X143998742Y-64484000D01*
X144023512Y-64488927D01*
G37*
G36*
X141483512Y-64488927D02*
G01*
X141632812Y-64518624D01*
X141796784Y-64586544D01*
X141944354Y-64685147D01*
X142069853Y-64810646D01*
X142168456Y-64958216D01*
X142236376Y-65122188D01*
X142271000Y-65296259D01*
X142271000Y-65473741D01*
X142236376Y-65647812D01*
X142168456Y-65811784D01*
X142069853Y-65959354D01*
X141944354Y-66084853D01*
X141796784Y-66183456D01*
X141632812Y-66251376D01*
X141483512Y-66281073D01*
X141458742Y-66286000D01*
X141281258Y-66286000D01*
X141256488Y-66281073D01*
X141107188Y-66251376D01*
X140943216Y-66183456D01*
X140795646Y-66084853D01*
X140670147Y-65959354D01*
X140571544Y-65811784D01*
X140503624Y-65647812D01*
X140469000Y-65473741D01*
X140469000Y-65296259D01*
X140503624Y-65122188D01*
X140571544Y-64958216D01*
X140670147Y-64810646D01*
X140795646Y-64685147D01*
X140943216Y-64586544D01*
X141107188Y-64518624D01*
X141256488Y-64488927D01*
X141281258Y-64484000D01*
X141458742Y-64484000D01*
X141483512Y-64488927D01*
G37*
G36*
X138943512Y-64488927D02*
G01*
X139092812Y-64518624D01*
X139256784Y-64586544D01*
X139404354Y-64685147D01*
X139529853Y-64810646D01*
X139628456Y-64958216D01*
X139696376Y-65122188D01*
X139731000Y-65296259D01*
X139731000Y-65473741D01*
X139696376Y-65647812D01*
X139628456Y-65811784D01*
X139529853Y-65959354D01*
X139404354Y-66084853D01*
X139256784Y-66183456D01*
X139092812Y-66251376D01*
X138943512Y-66281073D01*
X138918742Y-66286000D01*
X138741258Y-66286000D01*
X138716488Y-66281073D01*
X138567188Y-66251376D01*
X138403216Y-66183456D01*
X138255646Y-66084853D01*
X138130147Y-65959354D01*
X138031544Y-65811784D01*
X137963624Y-65647812D01*
X137929000Y-65473741D01*
X137929000Y-65296259D01*
X137963624Y-65122188D01*
X138031544Y-64958216D01*
X138130147Y-64810646D01*
X138255646Y-64685147D01*
X138403216Y-64586544D01*
X138567188Y-64518624D01*
X138716488Y-64488927D01*
X138741258Y-64484000D01*
X138918742Y-64484000D01*
X138943512Y-64488927D01*
G37*
G36*
X136403512Y-64488927D02*
G01*
X136552812Y-64518624D01*
X136716784Y-64586544D01*
X136864354Y-64685147D01*
X136989853Y-64810646D01*
X137088456Y-64958216D01*
X137156376Y-65122188D01*
X137191000Y-65296259D01*
X137191000Y-65473741D01*
X137156376Y-65647812D01*
X137088456Y-65811784D01*
X136989853Y-65959354D01*
X136864354Y-66084853D01*
X136716784Y-66183456D01*
X136552812Y-66251376D01*
X136403512Y-66281073D01*
X136378742Y-66286000D01*
X136201258Y-66286000D01*
X136176488Y-66281073D01*
X136027188Y-66251376D01*
X135863216Y-66183456D01*
X135715646Y-66084853D01*
X135590147Y-65959354D01*
X135491544Y-65811784D01*
X135423624Y-65647812D01*
X135389000Y-65473741D01*
X135389000Y-65296259D01*
X135423624Y-65122188D01*
X135491544Y-64958216D01*
X135590147Y-64810646D01*
X135715646Y-64685147D01*
X135863216Y-64586544D01*
X136027188Y-64518624D01*
X136176488Y-64488927D01*
X136201258Y-64484000D01*
X136378742Y-64484000D01*
X136403512Y-64488927D01*
G37*
G36*
X106813000Y-53813000D02*
G01*
X105187000Y-53813000D01*
X105187000Y-52187000D01*
X106813000Y-52187000D01*
X106813000Y-53813000D01*
G37*
G36*
X194237142Y-52218242D02*
G01*
X194385101Y-52279529D01*
X194518255Y-52368499D01*
X194631501Y-52481745D01*
X194720471Y-52614899D01*
X194781758Y-52762858D01*
X194813000Y-52919925D01*
X194813000Y-53080075D01*
X194781758Y-53237142D01*
X194720471Y-53385101D01*
X194631501Y-53518255D01*
X194518255Y-53631501D01*
X194385101Y-53720471D01*
X194237142Y-53781758D01*
X194080075Y-53813000D01*
X193919925Y-53813000D01*
X193762858Y-53781758D01*
X193614899Y-53720471D01*
X193481745Y-53631501D01*
X193368499Y-53518255D01*
X193279529Y-53385101D01*
X193218242Y-53237142D01*
X193187000Y-53080075D01*
X193187000Y-52919925D01*
X193218242Y-52762858D01*
X193279529Y-52614899D01*
X193368499Y-52481745D01*
X193481745Y-52368499D01*
X193614899Y-52279529D01*
X193762858Y-52218242D01*
X193919925Y-52187000D01*
X194080075Y-52187000D01*
X194237142Y-52218242D01*
G37*
G36*
X108237142Y-50968242D02*
G01*
X108385101Y-51029529D01*
X108518255Y-51118499D01*
X108631501Y-51231745D01*
X108720471Y-51364899D01*
X108781758Y-51512858D01*
X108813000Y-51669925D01*
X108813000Y-51830075D01*
X108781758Y-51987142D01*
X108720471Y-52135101D01*
X108631501Y-52268255D01*
X108518255Y-52381501D01*
X108385101Y-52470471D01*
X108237142Y-52531758D01*
X108080075Y-52563000D01*
X107919925Y-52563000D01*
X107762858Y-52531758D01*
X107614899Y-52470471D01*
X107481745Y-52381501D01*
X107368499Y-52268255D01*
X107279529Y-52135101D01*
X107218242Y-51987142D01*
X107187000Y-51830075D01*
X107187000Y-51669925D01*
X107218242Y-51512858D01*
X107279529Y-51364899D01*
X107368499Y-51231745D01*
X107481745Y-51118499D01*
X107614899Y-51029529D01*
X107762858Y-50968242D01*
X107919925Y-50937000D01*
X108080075Y-50937000D01*
X108237142Y-50968242D01*
G37*
G36*
X192237142Y-50968242D02*
G01*
X192385101Y-51029529D01*
X192518255Y-51118499D01*
X192631501Y-51231745D01*
X192720471Y-51364899D01*
X192781758Y-51512858D01*
X192813000Y-51669925D01*
X192813000Y-51830075D01*
X192781758Y-51987142D01*
X192720471Y-52135101D01*
X192631501Y-52268255D01*
X192518255Y-52381501D01*
X192385101Y-52470471D01*
X192237142Y-52531758D01*
X192080075Y-52563000D01*
X191919925Y-52563000D01*
X191762858Y-52531758D01*
X191614899Y-52470471D01*
X191481745Y-52381501D01*
X191368499Y-52268255D01*
X191279529Y-52135101D01*
X191218242Y-51987142D01*
X191187000Y-51830075D01*
X191187000Y-51669925D01*
X191218242Y-51512858D01*
X191279529Y-51364899D01*
X191368499Y-51231745D01*
X191481745Y-51118499D01*
X191614899Y-51029529D01*
X191762858Y-50968242D01*
X191919925Y-50937000D01*
X192080075Y-50937000D01*
X192237142Y-50968242D01*
G37*
G36*
X194237142Y-49718242D02*
G01*
X194385101Y-49779529D01*
X194518255Y-49868499D01*
X194631501Y-49981745D01*
X194720471Y-50114899D01*
X194781758Y-50262858D01*
X194813000Y-50419925D01*
X194813000Y-50580075D01*
X194781758Y-50737142D01*
X194720471Y-50885101D01*
X194631501Y-51018255D01*
X194518255Y-51131501D01*
X194385101Y-51220471D01*
X194237142Y-51281758D01*
X194080075Y-51313000D01*
X193919925Y-51313000D01*
X193762858Y-51281758D01*
X193614899Y-51220471D01*
X193481745Y-51131501D01*
X193368499Y-51018255D01*
X193279529Y-50885101D01*
X193218242Y-50737142D01*
X193187000Y-50580075D01*
X193187000Y-50419925D01*
X193218242Y-50262858D01*
X193279529Y-50114899D01*
X193368499Y-49981745D01*
X193481745Y-49868499D01*
X193614899Y-49779529D01*
X193762858Y-49718242D01*
X193919925Y-49687000D01*
X194080075Y-49687000D01*
X194237142Y-49718242D01*
G37*
G36*
X106237142Y-49718242D02*
G01*
X106385101Y-49779529D01*
X106518255Y-49868499D01*
X106631501Y-49981745D01*
X106720471Y-50114899D01*
X106781758Y-50262858D01*
X106813000Y-50419925D01*
X106813000Y-50580075D01*
X106781758Y-50737142D01*
X106720471Y-50885101D01*
X106631501Y-51018255D01*
X106518255Y-51131501D01*
X106385101Y-51220471D01*
X106237142Y-51281758D01*
X106080075Y-51313000D01*
X105919925Y-51313000D01*
X105762858Y-51281758D01*
X105614899Y-51220471D01*
X105481745Y-51131501D01*
X105368499Y-51018255D01*
X105279529Y-50885101D01*
X105218242Y-50737142D01*
X105187000Y-50580075D01*
X105187000Y-50419925D01*
X105218242Y-50262858D01*
X105279529Y-50114899D01*
X105368499Y-49981745D01*
X105481745Y-49868499D01*
X105614899Y-49779529D01*
X105762858Y-49718242D01*
X105919925Y-49687000D01*
X106080075Y-49687000D01*
X106237142Y-49718242D01*
G37*
G36*
X108237142Y-48468242D02*
G01*
X108385101Y-48529529D01*
X108518255Y-48618499D01*
X108631501Y-48731745D01*
X108720471Y-48864899D01*
X108781758Y-49012858D01*
X108813000Y-49169925D01*
X108813000Y-49330075D01*
X108781758Y-49487142D01*
X108720471Y-49635101D01*
X108631501Y-49768255D01*
X108518255Y-49881501D01*
X108385101Y-49970471D01*
X108237142Y-50031758D01*
X108080075Y-50063000D01*
X107919925Y-50063000D01*
X107762858Y-50031758D01*
X107614899Y-49970471D01*
X107481745Y-49881501D01*
X107368499Y-49768255D01*
X107279529Y-49635101D01*
X107218242Y-49487142D01*
X107187000Y-49330075D01*
X107187000Y-49169925D01*
X107218242Y-49012858D01*
X107279529Y-48864899D01*
X107368499Y-48731745D01*
X107481745Y-48618499D01*
X107614899Y-48529529D01*
X107762858Y-48468242D01*
X107919925Y-48437000D01*
X108080075Y-48437000D01*
X108237142Y-48468242D01*
G37*
G36*
X192237142Y-48468242D02*
G01*
X192385101Y-48529529D01*
X192518255Y-48618499D01*
X192631501Y-48731745D01*
X192720471Y-48864899D01*
X192781758Y-49012858D01*
X192813000Y-49169925D01*
X192813000Y-49330075D01*
X192781758Y-49487142D01*
X192720471Y-49635101D01*
X192631501Y-49768255D01*
X192518255Y-49881501D01*
X192385101Y-49970471D01*
X192237142Y-50031758D01*
X192080075Y-50063000D01*
X191919925Y-50063000D01*
X191762858Y-50031758D01*
X191614899Y-49970471D01*
X191481745Y-49881501D01*
X191368499Y-49768255D01*
X191279529Y-49635101D01*
X191218242Y-49487142D01*
X191187000Y-49330075D01*
X191187000Y-49169925D01*
X191218242Y-49012858D01*
X191279529Y-48864899D01*
X191368499Y-48731745D01*
X191481745Y-48618499D01*
X191614899Y-48529529D01*
X191762858Y-48468242D01*
X191919925Y-48437000D01*
X192080075Y-48437000D01*
X192237142Y-48468242D01*
G37*
G36*
X194237142Y-47218242D02*
G01*
X194385101Y-47279529D01*
X194518255Y-47368499D01*
X194631501Y-47481745D01*
X194720471Y-47614899D01*
X194781758Y-47762858D01*
X194813000Y-47919925D01*
X194813000Y-48080075D01*
X194781758Y-48237142D01*
X194720471Y-48385101D01*
X194631501Y-48518255D01*
X194518255Y-48631501D01*
X194385101Y-48720471D01*
X194237142Y-48781758D01*
X194080075Y-48813000D01*
X193919925Y-48813000D01*
X193762858Y-48781758D01*
X193614899Y-48720471D01*
X193481745Y-48631501D01*
X193368499Y-48518255D01*
X193279529Y-48385101D01*
X193218242Y-48237142D01*
X193187000Y-48080075D01*
X193187000Y-47919925D01*
X193218242Y-47762858D01*
X193279529Y-47614899D01*
X193368499Y-47481745D01*
X193481745Y-47368499D01*
X193614899Y-47279529D01*
X193762858Y-47218242D01*
X193919925Y-47187000D01*
X194080075Y-47187000D01*
X194237142Y-47218242D01*
G37*
G36*
X106237142Y-47218242D02*
G01*
X106385101Y-47279529D01*
X106518255Y-47368499D01*
X106631501Y-47481745D01*
X106720471Y-47614899D01*
X106781758Y-47762858D01*
X106813000Y-47919925D01*
X106813000Y-48080075D01*
X106781758Y-48237142D01*
X106720471Y-48385101D01*
X106631501Y-48518255D01*
X106518255Y-48631501D01*
X106385101Y-48720471D01*
X106237142Y-48781758D01*
X106080075Y-48813000D01*
X105919925Y-48813000D01*
X105762858Y-48781758D01*
X105614899Y-48720471D01*
X105481745Y-48631501D01*
X105368499Y-48518255D01*
X105279529Y-48385101D01*
X105218242Y-48237142D01*
X105187000Y-48080075D01*
X105187000Y-47919925D01*
X105218242Y-47762858D01*
X105279529Y-47614899D01*
X105368499Y-47481745D01*
X105481745Y-47368499D01*
X105614899Y-47279529D01*
X105762858Y-47218242D01*
X105919925Y-47187000D01*
X106080075Y-47187000D01*
X106237142Y-47218242D01*
G37*
G36*
X108237142Y-45968242D02*
G01*
X108385101Y-46029529D01*
X108518255Y-46118499D01*
X108631501Y-46231745D01*
X108720471Y-46364899D01*
X108781758Y-46512858D01*
X108813000Y-46669925D01*
X108813000Y-46830075D01*
X108781758Y-46987142D01*
X108720471Y-47135101D01*
X108631501Y-47268255D01*
X108518255Y-47381501D01*
X108385101Y-47470471D01*
X108237142Y-47531758D01*
X108080075Y-47563000D01*
X107919925Y-47563000D01*
X107762858Y-47531758D01*
X107614899Y-47470471D01*
X107481745Y-47381501D01*
X107368499Y-47268255D01*
X107279529Y-47135101D01*
X107218242Y-46987142D01*
X107187000Y-46830075D01*
X107187000Y-46669925D01*
X107218242Y-46512858D01*
X107279529Y-46364899D01*
X107368499Y-46231745D01*
X107481745Y-46118499D01*
X107614899Y-46029529D01*
X107762858Y-45968242D01*
X107919925Y-45937000D01*
X108080075Y-45937000D01*
X108237142Y-45968242D01*
G37*
G36*
X192237142Y-45968242D02*
G01*
X192385101Y-46029529D01*
X192518255Y-46118499D01*
X192631501Y-46231745D01*
X192720471Y-46364899D01*
X192781758Y-46512858D01*
X192813000Y-46669925D01*
X192813000Y-46830075D01*
X192781758Y-46987142D01*
X192720471Y-47135101D01*
X192631501Y-47268255D01*
X192518255Y-47381501D01*
X192385101Y-47470471D01*
X192237142Y-47531758D01*
X192080075Y-47563000D01*
X191919925Y-47563000D01*
X191762858Y-47531758D01*
X191614899Y-47470471D01*
X191481745Y-47381501D01*
X191368499Y-47268255D01*
X191279529Y-47135101D01*
X191218242Y-46987142D01*
X191187000Y-46830075D01*
X191187000Y-46669925D01*
X191218242Y-46512858D01*
X191279529Y-46364899D01*
X191368499Y-46231745D01*
X191481745Y-46118499D01*
X191614899Y-46029529D01*
X191762858Y-45968242D01*
X191919925Y-45937000D01*
X192080075Y-45937000D01*
X192237142Y-45968242D01*
G37*
G36*
X106237142Y-44718242D02*
G01*
X106385101Y-44779529D01*
X106518255Y-44868499D01*
X106631501Y-44981745D01*
X106720471Y-45114899D01*
X106781758Y-45262858D01*
X106813000Y-45419925D01*
X106813000Y-45580075D01*
X106781758Y-45737142D01*
X106720471Y-45885101D01*
X106631501Y-46018255D01*
X106518255Y-46131501D01*
X106385101Y-46220471D01*
X106237142Y-46281758D01*
X106080075Y-46313000D01*
X105919925Y-46313000D01*
X105762858Y-46281758D01*
X105614899Y-46220471D01*
X105481745Y-46131501D01*
X105368499Y-46018255D01*
X105279529Y-45885101D01*
X105218242Y-45737142D01*
X105187000Y-45580075D01*
X105187000Y-45419925D01*
X105218242Y-45262858D01*
X105279529Y-45114899D01*
X105368499Y-44981745D01*
X105481745Y-44868499D01*
X105614899Y-44779529D01*
X105762858Y-44718242D01*
X105919925Y-44687000D01*
X106080075Y-44687000D01*
X106237142Y-44718242D01*
G37*
G36*
X194237142Y-44718242D02*
G01*
X194385101Y-44779529D01*
X194518255Y-44868499D01*
X194631501Y-44981745D01*
X194720471Y-45114899D01*
X194781758Y-45262858D01*
X194813000Y-45419925D01*
X194813000Y-45580075D01*
X194781758Y-45737142D01*
X194720471Y-45885101D01*
X194631501Y-46018255D01*
X194518255Y-46131501D01*
X194385101Y-46220471D01*
X194237142Y-46281758D01*
X194080075Y-46313000D01*
X193919925Y-46313000D01*
X193762858Y-46281758D01*
X193614899Y-46220471D01*
X193481745Y-46131501D01*
X193368499Y-46018255D01*
X193279529Y-45885101D01*
X193218242Y-45737142D01*
X193187000Y-45580075D01*
X193187000Y-45419925D01*
X193218242Y-45262858D01*
X193279529Y-45114899D01*
X193368499Y-44981745D01*
X193481745Y-44868499D01*
X193614899Y-44779529D01*
X193762858Y-44718242D01*
X193919925Y-44687000D01*
X194080075Y-44687000D01*
X194237142Y-44718242D01*
G37*
G36*
X108237142Y-43468242D02*
G01*
X108385101Y-43529529D01*
X108518255Y-43618499D01*
X108631501Y-43731745D01*
X108720471Y-43864899D01*
X108781758Y-44012858D01*
X108813000Y-44169925D01*
X108813000Y-44330075D01*
X108781758Y-44487142D01*
X108720471Y-44635101D01*
X108631501Y-44768255D01*
X108518255Y-44881501D01*
X108385101Y-44970471D01*
X108237142Y-45031758D01*
X108080075Y-45063000D01*
X107919925Y-45063000D01*
X107762858Y-45031758D01*
X107614899Y-44970471D01*
X107481745Y-44881501D01*
X107368499Y-44768255D01*
X107279529Y-44635101D01*
X107218242Y-44487142D01*
X107187000Y-44330075D01*
X107187000Y-44169925D01*
X107218242Y-44012858D01*
X107279529Y-43864899D01*
X107368499Y-43731745D01*
X107481745Y-43618499D01*
X107614899Y-43529529D01*
X107762858Y-43468242D01*
X107919925Y-43437000D01*
X108080075Y-43437000D01*
X108237142Y-43468242D01*
G37*
G36*
X192237142Y-43468242D02*
G01*
X192385101Y-43529529D01*
X192518255Y-43618499D01*
X192631501Y-43731745D01*
X192720471Y-43864899D01*
X192781758Y-44012858D01*
X192813000Y-44169925D01*
X192813000Y-44330075D01*
X192781758Y-44487142D01*
X192720471Y-44635101D01*
X192631501Y-44768255D01*
X192518255Y-44881501D01*
X192385101Y-44970471D01*
X192237142Y-45031758D01*
X192080075Y-45063000D01*
X191919925Y-45063000D01*
X191762858Y-45031758D01*
X191614899Y-44970471D01*
X191481745Y-44881501D01*
X191368499Y-44768255D01*
X191279529Y-44635101D01*
X191218242Y-44487142D01*
X191187000Y-44330075D01*
X191187000Y-44169925D01*
X191218242Y-44012858D01*
X191279529Y-43864899D01*
X191368499Y-43731745D01*
X191481745Y-43618499D01*
X191614899Y-43529529D01*
X191762858Y-43468242D01*
X191919925Y-43437000D01*
X192080075Y-43437000D01*
X192237142Y-43468242D01*
G37*
G36*
X194237142Y-42218242D02*
G01*
X194385101Y-42279529D01*
X194518255Y-42368499D01*
X194631501Y-42481745D01*
X194720471Y-42614899D01*
X194781758Y-42762858D01*
X194813000Y-42919925D01*
X194813000Y-43080075D01*
X194781758Y-43237142D01*
X194720471Y-43385101D01*
X194631501Y-43518255D01*
X194518255Y-43631501D01*
X194385101Y-43720471D01*
X194237142Y-43781758D01*
X194080075Y-43813000D01*
X193919925Y-43813000D01*
X193762858Y-43781758D01*
X193614899Y-43720471D01*
X193481745Y-43631501D01*
X193368499Y-43518255D01*
X193279529Y-43385101D01*
X193218242Y-43237142D01*
X193187000Y-43080075D01*
X193187000Y-42919925D01*
X193218242Y-42762858D01*
X193279529Y-42614899D01*
X193368499Y-42481745D01*
X193481745Y-42368499D01*
X193614899Y-42279529D01*
X193762858Y-42218242D01*
X193919925Y-42187000D01*
X194080075Y-42187000D01*
X194237142Y-42218242D01*
G37*
G36*
X106237142Y-42218242D02*
G01*
X106385101Y-42279529D01*
X106518255Y-42368499D01*
X106631501Y-42481745D01*
X106720471Y-42614899D01*
X106781758Y-42762858D01*
X106813000Y-42919925D01*
X106813000Y-43080075D01*
X106781758Y-43237142D01*
X106720471Y-43385101D01*
X106631501Y-43518255D01*
X106518255Y-43631501D01*
X106385101Y-43720471D01*
X106237142Y-43781758D01*
X106080075Y-43813000D01*
X105919925Y-43813000D01*
X105762858Y-43781758D01*
X105614899Y-43720471D01*
X105481745Y-43631501D01*
X105368499Y-43518255D01*
X105279529Y-43385101D01*
X105218242Y-43237142D01*
X105187000Y-43080075D01*
X105187000Y-42919925D01*
X105218242Y-42762858D01*
X105279529Y-42614899D01*
X105368499Y-42481745D01*
X105481745Y-42368499D01*
X105614899Y-42279529D01*
X105762858Y-42218242D01*
X105919925Y-42187000D01*
X106080075Y-42187000D01*
X106237142Y-42218242D01*
G37*
G36*
X108237142Y-40968242D02*
G01*
X108385101Y-41029529D01*
X108518255Y-41118499D01*
X108631501Y-41231745D01*
X108720471Y-41364899D01*
X108781758Y-41512858D01*
X108813000Y-41669925D01*
X108813000Y-41830075D01*
X108781758Y-41987142D01*
X108720471Y-42135101D01*
X108631501Y-42268255D01*
X108518255Y-42381501D01*
X108385101Y-42470471D01*
X108237142Y-42531758D01*
X108080075Y-42563000D01*
X107919925Y-42563000D01*
X107762858Y-42531758D01*
X107614899Y-42470471D01*
X107481745Y-42381501D01*
X107368499Y-42268255D01*
X107279529Y-42135101D01*
X107218242Y-41987142D01*
X107187000Y-41830075D01*
X107187000Y-41669925D01*
X107218242Y-41512858D01*
X107279529Y-41364899D01*
X107368499Y-41231745D01*
X107481745Y-41118499D01*
X107614899Y-41029529D01*
X107762858Y-40968242D01*
X107919925Y-40937000D01*
X108080075Y-40937000D01*
X108237142Y-40968242D01*
G37*
G36*
X192237142Y-40968242D02*
G01*
X192385101Y-41029529D01*
X192518255Y-41118499D01*
X192631501Y-41231745D01*
X192720471Y-41364899D01*
X192781758Y-41512858D01*
X192813000Y-41669925D01*
X192813000Y-41830075D01*
X192781758Y-41987142D01*
X192720471Y-42135101D01*
X192631501Y-42268255D01*
X192518255Y-42381501D01*
X192385101Y-42470471D01*
X192237142Y-42531758D01*
X192080075Y-42563000D01*
X191919925Y-42563000D01*
X191762858Y-42531758D01*
X191614899Y-42470471D01*
X191481745Y-42381501D01*
X191368499Y-42268255D01*
X191279529Y-42135101D01*
X191218242Y-41987142D01*
X191187000Y-41830075D01*
X191187000Y-41669925D01*
X191218242Y-41512858D01*
X191279529Y-41364899D01*
X191368499Y-41231745D01*
X191481745Y-41118499D01*
X191614899Y-41029529D01*
X191762858Y-40968242D01*
X191919925Y-40937000D01*
X192080075Y-40937000D01*
X192237142Y-40968242D01*
G37*
G36*
X106237142Y-39718242D02*
G01*
X106385101Y-39779529D01*
X106518255Y-39868499D01*
X106631501Y-39981745D01*
X106720471Y-40114899D01*
X106781758Y-40262858D01*
X106813000Y-40419925D01*
X106813000Y-40580075D01*
X106781758Y-40737142D01*
X106720471Y-40885101D01*
X106631501Y-41018255D01*
X106518255Y-41131501D01*
X106385101Y-41220471D01*
X106237142Y-41281758D01*
X106080075Y-41313000D01*
X105919925Y-41313000D01*
X105762858Y-41281758D01*
X105614899Y-41220471D01*
X105481745Y-41131501D01*
X105368499Y-41018255D01*
X105279529Y-40885101D01*
X105218242Y-40737142D01*
X105187000Y-40580075D01*
X105187000Y-40419925D01*
X105218242Y-40262858D01*
X105279529Y-40114899D01*
X105368499Y-39981745D01*
X105481745Y-39868499D01*
X105614899Y-39779529D01*
X105762858Y-39718242D01*
X105919925Y-39687000D01*
X106080075Y-39687000D01*
X106237142Y-39718242D01*
G37*
G36*
X194237142Y-39718242D02*
G01*
X194385101Y-39779529D01*
X194518255Y-39868499D01*
X194631501Y-39981745D01*
X194720471Y-40114899D01*
X194781758Y-40262858D01*
X194813000Y-40419925D01*
X194813000Y-40580075D01*
X194781758Y-40737142D01*
X194720471Y-40885101D01*
X194631501Y-41018255D01*
X194518255Y-41131501D01*
X194385101Y-41220471D01*
X194237142Y-41281758D01*
X194080075Y-41313000D01*
X193919925Y-41313000D01*
X193762858Y-41281758D01*
X193614899Y-41220471D01*
X193481745Y-41131501D01*
X193368499Y-41018255D01*
X193279529Y-40885101D01*
X193218242Y-40737142D01*
X193187000Y-40580075D01*
X193187000Y-40419925D01*
X193218242Y-40262858D01*
X193279529Y-40114899D01*
X193368499Y-39981745D01*
X193481745Y-39868499D01*
X193614899Y-39779529D01*
X193762858Y-39718242D01*
X193919925Y-39687000D01*
X194080075Y-39687000D01*
X194237142Y-39718242D01*
G37*
G36*
X192237142Y-38468242D02*
G01*
X192385101Y-38529529D01*
X192518255Y-38618499D01*
X192631501Y-38731745D01*
X192720471Y-38864899D01*
X192781758Y-39012858D01*
X192813000Y-39169925D01*
X192813000Y-39330075D01*
X192781758Y-39487142D01*
X192720471Y-39635101D01*
X192631501Y-39768255D01*
X192518255Y-39881501D01*
X192385101Y-39970471D01*
X192237142Y-40031758D01*
X192080075Y-40063000D01*
X191919925Y-40063000D01*
X191762858Y-40031758D01*
X191614899Y-39970471D01*
X191481745Y-39881501D01*
X191368499Y-39768255D01*
X191279529Y-39635101D01*
X191218242Y-39487142D01*
X191187000Y-39330075D01*
X191187000Y-39169925D01*
X191218242Y-39012858D01*
X191279529Y-38864899D01*
X191368499Y-38731745D01*
X191481745Y-38618499D01*
X191614899Y-38529529D01*
X191762858Y-38468242D01*
X191919925Y-38437000D01*
X192080075Y-38437000D01*
X192237142Y-38468242D01*
G37*
G36*
X108237142Y-38468242D02*
G01*
X108385101Y-38529529D01*
X108518255Y-38618499D01*
X108631501Y-38731745D01*
X108720471Y-38864899D01*
X108781758Y-39012858D01*
X108813000Y-39169925D01*
X108813000Y-39330075D01*
X108781758Y-39487142D01*
X108720471Y-39635101D01*
X108631501Y-39768255D01*
X108518255Y-39881501D01*
X108385101Y-39970471D01*
X108237142Y-40031758D01*
X108080075Y-40063000D01*
X107919925Y-40063000D01*
X107762858Y-40031758D01*
X107614899Y-39970471D01*
X107481745Y-39881501D01*
X107368499Y-39768255D01*
X107279529Y-39635101D01*
X107218242Y-39487142D01*
X107187000Y-39330075D01*
X107187000Y-39169925D01*
X107218242Y-39012858D01*
X107279529Y-38864899D01*
X107368499Y-38731745D01*
X107481745Y-38618499D01*
X107614899Y-38529529D01*
X107762858Y-38468242D01*
X107919925Y-38437000D01*
X108080075Y-38437000D01*
X108237142Y-38468242D01*
G37*
G36*
X106237142Y-37218242D02*
G01*
X106385101Y-37279529D01*
X106518255Y-37368499D01*
X106631501Y-37481745D01*
X106720471Y-37614899D01*
X106781758Y-37762858D01*
X106813000Y-37919925D01*
X106813000Y-38080075D01*
X106781758Y-38237142D01*
X106720471Y-38385101D01*
X106631501Y-38518255D01*
X106518255Y-38631501D01*
X106385101Y-38720471D01*
X106237142Y-38781758D01*
X106080075Y-38813000D01*
X105919925Y-38813000D01*
X105762858Y-38781758D01*
X105614899Y-38720471D01*
X105481745Y-38631501D01*
X105368499Y-38518255D01*
X105279529Y-38385101D01*
X105218242Y-38237142D01*
X105187000Y-38080075D01*
X105187000Y-37919925D01*
X105218242Y-37762858D01*
X105279529Y-37614899D01*
X105368499Y-37481745D01*
X105481745Y-37368499D01*
X105614899Y-37279529D01*
X105762858Y-37218242D01*
X105919925Y-37187000D01*
X106080075Y-37187000D01*
X106237142Y-37218242D01*
G37*
G36*
X194813000Y-38813000D02*
G01*
X193187000Y-38813000D01*
X193187000Y-37187000D01*
X194813000Y-37187000D01*
X194813000Y-38813000D01*
G37*
M02*
