G04 #@! TF.GenerationSoftware,KiCad,Pcbnew,(5.1.6-0-10_14)*
G04 #@! TF.CreationDate,2020-06-11T15:58:30+08:00*
G04 #@! TF.ProjectId,Kinesis,4b696e65-7369-4732-9e6b-696361645f70,rev?*
G04 #@! TF.SameCoordinates,Original*
G04 #@! TF.FileFunction,Copper,L2,Bot*
G04 #@! TF.FilePolarity,Positive*
%FSLAX46Y46*%
G04 Gerber Fmt 4.6, Leading zero omitted, Abs format (unit mm)*
G04 Created by KiCad (PCBNEW (5.1.6-0-10_14)) date 2020-06-11 15:58:30*
%MOMM*%
%LPD*%
G01*
G04 APERTURE LIST*
G04 #@! TA.AperFunction,ComponentPad*
%ADD10C,0.800000*%
G04 #@! TD*
G04 #@! TA.AperFunction,ComponentPad*
%ADD11C,6.400000*%
G04 #@! TD*
G04 #@! TA.AperFunction,ComponentPad*
%ADD12C,1.700000*%
G04 #@! TD*
G04 #@! TA.AperFunction,ComponentPad*
%ADD13C,2.200000*%
G04 #@! TD*
G04 #@! TA.AperFunction,ComponentPad*
%ADD14R,1.524000X1.524000*%
G04 #@! TD*
G04 #@! TA.AperFunction,ComponentPad*
%ADD15C,1.524000*%
G04 #@! TD*
G04 #@! TA.AperFunction,ComponentPad*
%ADD16R,1.700000X1.700000*%
G04 #@! TD*
G04 #@! TA.AperFunction,ComponentPad*
%ADD17O,1.700000X1.700000*%
G04 #@! TD*
G04 #@! TA.AperFunction,ComponentPad*
%ADD18O,1.600000X1.600000*%
G04 #@! TD*
G04 #@! TA.AperFunction,ComponentPad*
%ADD19C,1.600000*%
G04 #@! TD*
G04 #@! TA.AperFunction,ComponentPad*
%ADD20C,1.800000*%
G04 #@! TD*
G04 #@! TA.AperFunction,ComponentPad*
%ADD21R,1.800000X1.800000*%
G04 #@! TD*
G04 #@! TA.AperFunction,ViaPad*
%ADD22C,1.200000*%
G04 #@! TD*
G04 #@! TA.AperFunction,ViaPad*
%ADD23C,0.800000*%
G04 #@! TD*
G04 #@! TA.AperFunction,Conductor*
%ADD24C,0.500000*%
G04 #@! TD*
G04 #@! TA.AperFunction,Conductor*
%ADD25C,0.250000*%
G04 #@! TD*
G04 #@! TA.AperFunction,Conductor*
%ADD26C,0.254000*%
G04 #@! TD*
G04 APERTURE END LIST*
D10*
X151697056Y-86302944D03*
X150000000Y-85600000D03*
X148302944Y-86302944D03*
X147600000Y-88000000D03*
X148302944Y-89697056D03*
X150000000Y-90400000D03*
X151697056Y-89697056D03*
X152400000Y-88000000D03*
D11*
X150000000Y-88000000D03*
D12*
X133750000Y-65385000D03*
X136290000Y-80600000D03*
D13*
X130925200Y-65995000D03*
X130925200Y-79990400D03*
D12*
X133750000Y-80600000D03*
X138830000Y-78060000D03*
X138830000Y-80600000D03*
X141370000Y-80600000D03*
X143910000Y-80600000D03*
X146450000Y-80600000D03*
X138830000Y-75520000D03*
X138830000Y-72980000D03*
X148990000Y-80600000D03*
X151530000Y-80600000D03*
X154070000Y-80600000D03*
X156610000Y-80600000D03*
X159150000Y-80600000D03*
X161690000Y-80600000D03*
X169310000Y-80600000D03*
X174390000Y-80600000D03*
X176930000Y-80600000D03*
X171850000Y-80600000D03*
X179470000Y-80600000D03*
X166770000Y-80600000D03*
X136290000Y-65385000D03*
X138830000Y-65385000D03*
X143910000Y-65385000D03*
X138830000Y-67925000D03*
X141370000Y-65385000D03*
X146450000Y-65385000D03*
X148990000Y-65385000D03*
X151530000Y-65385000D03*
X156610000Y-65385000D03*
X159150000Y-65385000D03*
X154070000Y-65385000D03*
X161690000Y-65385000D03*
X169310000Y-65385000D03*
X166770000Y-65385000D03*
X174390000Y-65385000D03*
X171850000Y-65385000D03*
X176930000Y-65385000D03*
X179470000Y-65385000D03*
D14*
X194000000Y-38000000D03*
D15*
X192000000Y-39250000D03*
X194000000Y-40500000D03*
X192000000Y-41750000D03*
X194000000Y-43000000D03*
X192000000Y-44250000D03*
X194000000Y-45500000D03*
X192000000Y-46750000D03*
X194000000Y-48000000D03*
X192000000Y-49250000D03*
X194000000Y-50500000D03*
X192000000Y-51750000D03*
X194000000Y-53000000D03*
D14*
X197000000Y-85000000D03*
D15*
X195000000Y-86250000D03*
X197000000Y-87500000D03*
X195000000Y-88750000D03*
X197000000Y-90000000D03*
X195000000Y-91250000D03*
X197000000Y-92500000D03*
X195000000Y-93750000D03*
X197000000Y-95000000D03*
X195000000Y-96250000D03*
X197000000Y-97500000D03*
X195000000Y-98750000D03*
X197000000Y-100000000D03*
D14*
X103000000Y-100000000D03*
D15*
X105000000Y-98750000D03*
X103000000Y-97500000D03*
X105000000Y-96250000D03*
X103000000Y-95000000D03*
X105000000Y-93750000D03*
X103000000Y-92500000D03*
X105000000Y-91250000D03*
X103000000Y-90000000D03*
X105000000Y-88750000D03*
X103000000Y-87500000D03*
X105000000Y-86250000D03*
X103000000Y-85000000D03*
D14*
X106000000Y-53000000D03*
D15*
X108000000Y-51750000D03*
X106000000Y-50500000D03*
X108000000Y-49250000D03*
X106000000Y-48000000D03*
X108000000Y-46750000D03*
X106000000Y-45500000D03*
X108000000Y-44250000D03*
X106000000Y-43000000D03*
X108000000Y-41750000D03*
X106000000Y-40500000D03*
X108000000Y-39250000D03*
X106000000Y-38000000D03*
D16*
X177000000Y-111000000D03*
D17*
X179540000Y-111000000D03*
X182080000Y-111000000D03*
X184620000Y-111000000D03*
X187160000Y-111000000D03*
X189700000Y-111000000D03*
X192240000Y-111000000D03*
X194780000Y-111000000D03*
X197320000Y-111000000D03*
X199860000Y-111000000D03*
D16*
X123000000Y-111000000D03*
D17*
X120460000Y-111000000D03*
X117920000Y-111000000D03*
X115380000Y-111000000D03*
X112840000Y-111000000D03*
X110300000Y-111000000D03*
X107760000Y-111000000D03*
X105220000Y-111000000D03*
X102680000Y-111000000D03*
X100140000Y-111000000D03*
D18*
X135000000Y-98840000D03*
D19*
X135000000Y-109000000D03*
X145000000Y-109000000D03*
D18*
X145000000Y-98840000D03*
X155000000Y-98840000D03*
D19*
X155000000Y-109000000D03*
D18*
X165000000Y-98840000D03*
D19*
X165000000Y-109000000D03*
D20*
X135000000Y-115890000D03*
D21*
X135000000Y-113350000D03*
X145000000Y-113350000D03*
D20*
X145000000Y-115890000D03*
X155000000Y-115890000D03*
D21*
X155000000Y-113350000D03*
D20*
X165000000Y-115890000D03*
D21*
X165000000Y-113350000D03*
D22*
X196500000Y-61500000D03*
X204500000Y-61500000D03*
D23*
X105000000Y-74500000D03*
X97000000Y-74500000D03*
X142750000Y-88750000D03*
X195500000Y-69000000D03*
X201500000Y-69000000D03*
X101000000Y-68500000D03*
X102999998Y-68500000D03*
X174500000Y-100000000D03*
X159000000Y-87500000D03*
X179448000Y-87500000D03*
X99000000Y-77500000D03*
X106000000Y-77500000D03*
X156500000Y-86500000D03*
X182080000Y-86499996D03*
X107500000Y-86500000D03*
X109500000Y-85500000D03*
X108500000Y-87500000D03*
X199500000Y-68000000D03*
X196500000Y-68000000D03*
X197500000Y-67000002D03*
X200500000Y-67000000D03*
X172250000Y-98750000D03*
X100000000Y-70500000D03*
X103000000Y-70500000D03*
X107000000Y-75500000D03*
X101912999Y-75412995D03*
X96000000Y-76500000D03*
X106500000Y-76500000D03*
X197500000Y-76500000D03*
X202500000Y-76500000D03*
X161750000Y-88750000D03*
D24*
X196500000Y-61500000D02*
X204500000Y-61500000D01*
D25*
X165000000Y-113350000D02*
X165000000Y-109000000D01*
X155000000Y-109000000D02*
X155000000Y-113350000D01*
X145000000Y-109000000D02*
X145000000Y-113350000D01*
X135000000Y-109000000D02*
X135000000Y-113350000D01*
X165000000Y-72235000D02*
X171850000Y-65385000D01*
X165000000Y-98840000D02*
X165000000Y-72235000D01*
X155695010Y-63759990D02*
X154070000Y-65385000D01*
X163500000Y-90340000D02*
X163500000Y-65455998D01*
X161803992Y-63759990D02*
X155695010Y-63759990D01*
X163500000Y-65455998D02*
X161803992Y-63759990D01*
X155000000Y-98840000D02*
X163500000Y-90340000D01*
X157785001Y-64209999D02*
X156610000Y-65385000D01*
X159714001Y-64209999D02*
X157785001Y-64209999D01*
X160325001Y-64820999D02*
X159714001Y-64209999D01*
X160325001Y-65949001D02*
X160325001Y-64820999D01*
X155245001Y-71029001D02*
X160325001Y-65949001D01*
X155245001Y-88594999D02*
X155245001Y-71029001D01*
X145000000Y-98840000D02*
X155245001Y-88594999D01*
X135145685Y-98840000D02*
X135000000Y-98840000D01*
X145225003Y-88760682D02*
X135145685Y-98840000D01*
X145225003Y-79309997D02*
X145225003Y-88760682D01*
X159150000Y-65385000D02*
X145225003Y-79309997D01*
X105000000Y-74500000D02*
X97000000Y-74500000D01*
X142734999Y-88734999D02*
X142750000Y-88750000D01*
X142734999Y-71640001D02*
X142734999Y-88734999D01*
X148990000Y-65385000D02*
X142734999Y-71640001D01*
X195500000Y-69000000D02*
X201500000Y-69000000D01*
X101000000Y-68500000D02*
X102999998Y-68500000D01*
X195087001Y-49412999D02*
X194000000Y-50500000D01*
X195087001Y-46587001D02*
X195087001Y-49412999D01*
X194000000Y-45500000D02*
X195087001Y-46587001D01*
X192761999Y-42511999D02*
X192000000Y-41750000D01*
X192761999Y-43370761D02*
X192761999Y-42511999D01*
X193238001Y-44738001D02*
X193238001Y-43846763D01*
X193238001Y-43846763D02*
X192761999Y-43370761D01*
X194000000Y-45500000D02*
X193238001Y-44738001D01*
X174500000Y-80710000D02*
X174390000Y-80600000D01*
X174500000Y-100000000D02*
X174500000Y-80710000D01*
X177000000Y-111000000D02*
X179540000Y-111000000D01*
X179540000Y-111000000D02*
X179540000Y-111130000D01*
X159000000Y-87500000D02*
X159000000Y-80750000D01*
X159000000Y-80750000D02*
X159150000Y-80600000D01*
X179540000Y-111000000D02*
X179540000Y-87592000D01*
X179540000Y-87592000D02*
X179448000Y-87500000D01*
X106000000Y-77500000D02*
X99000000Y-77500000D01*
X156500000Y-80710000D02*
X156610000Y-80600000D01*
X156500000Y-86500000D02*
X156500000Y-80710000D01*
X182080000Y-111000000D02*
X182080000Y-86499996D01*
X103000000Y-97500000D02*
X103761999Y-96738001D01*
X103761999Y-96738001D02*
X103761999Y-95846763D01*
X105195763Y-95162999D02*
X107500000Y-92858762D01*
X107500000Y-92858762D02*
X107500000Y-86500000D01*
X103761999Y-95846763D02*
X104445763Y-95162999D01*
X104445763Y-95162999D02*
X105195763Y-95162999D01*
X109500000Y-94250000D02*
X109500000Y-85500000D01*
X105000000Y-98750000D02*
X109500000Y-94250000D01*
X106920000Y-100000000D02*
X117920000Y-111000000D01*
X103000000Y-100000000D02*
X106920000Y-100000000D01*
X108500000Y-94358762D02*
X108500000Y-87500000D01*
X104804237Y-97337001D02*
X105521761Y-97337001D01*
X105521761Y-97337001D02*
X108500000Y-94358762D01*
X103000000Y-100000000D02*
X103000000Y-99141238D01*
X103000000Y-99141238D02*
X104804237Y-97337001D01*
X190912999Y-43162999D02*
X192000000Y-44250000D01*
X190912999Y-41228239D02*
X190912999Y-43162999D01*
X191641238Y-40500000D02*
X190912999Y-41228239D01*
X194000000Y-40500000D02*
X191641238Y-40500000D01*
X190912999Y-45337001D02*
X190912999Y-48162999D01*
X190912999Y-48162999D02*
X192000000Y-49250000D01*
X192000000Y-44250000D02*
X190912999Y-45337001D01*
X199500000Y-68000000D02*
X196500000Y-68000000D01*
X200499998Y-67000002D02*
X200500000Y-67000000D01*
X197500000Y-67000002D02*
X200499998Y-67000002D01*
X172250000Y-81000000D02*
X171850000Y-80600000D01*
X172250000Y-98750000D02*
X172250000Y-81000000D01*
X104912999Y-39087001D02*
X106000000Y-38000000D01*
X104912999Y-44412999D02*
X104912999Y-39087001D01*
X106000000Y-45500000D02*
X104912999Y-44412999D01*
X107238001Y-48488001D02*
X108000000Y-49250000D01*
X107238001Y-47629239D02*
X107238001Y-48488001D01*
X106761999Y-47153237D02*
X107238001Y-47629239D01*
X106761999Y-46261999D02*
X106761999Y-47153237D01*
X106000000Y-45500000D02*
X106761999Y-46261999D01*
X100000000Y-70500000D02*
X103000000Y-70500000D01*
X108000000Y-39250000D02*
X108000000Y-39000000D01*
X109087001Y-45662999D02*
X108000000Y-46750000D01*
X109087001Y-40087001D02*
X109087001Y-45662999D01*
X108000000Y-39000000D02*
X109087001Y-40087001D01*
X109087001Y-47837001D02*
X108000000Y-46750000D01*
X109087001Y-49771761D02*
X109087001Y-47837001D01*
X108358762Y-50500000D02*
X109087001Y-49771761D01*
X106000000Y-50500000D02*
X108358762Y-50500000D01*
X102000004Y-75500000D02*
X101912999Y-75412995D01*
X107000000Y-75500000D02*
X102000004Y-75500000D01*
X107250000Y-41750000D02*
X108000000Y-41750000D01*
X106000000Y-40500000D02*
X107250000Y-41750000D01*
X96000000Y-76500000D02*
X106500000Y-76500000D01*
X197500000Y-76500000D02*
X202500000Y-76500000D01*
X161750000Y-80660000D02*
X161690000Y-80600000D01*
X161750000Y-88750000D02*
X161750000Y-80660000D01*
X192500000Y-108720000D02*
X194780000Y-111000000D01*
X192500000Y-91250000D02*
X192500000Y-108720000D01*
X195000000Y-88750000D02*
X192500000Y-91250000D01*
D26*
G36*
X210241100Y-117343600D02*
G01*
X165501848Y-117343600D01*
X165727095Y-117250299D01*
X165978505Y-117082312D01*
X166192312Y-116868505D01*
X166360299Y-116617095D01*
X166476011Y-116337743D01*
X166535000Y-116041184D01*
X166535000Y-115738816D01*
X166476011Y-115442257D01*
X166360299Y-115162905D01*
X166192312Y-114911495D01*
X166125873Y-114845056D01*
X166144180Y-114839502D01*
X166254494Y-114780537D01*
X166351185Y-114701185D01*
X166430537Y-114604494D01*
X166489502Y-114494180D01*
X166525812Y-114374482D01*
X166538072Y-114250000D01*
X166538072Y-112450000D01*
X166525812Y-112325518D01*
X166489502Y-112205820D01*
X166430537Y-112095506D01*
X166351185Y-111998815D01*
X166254494Y-111919463D01*
X166144180Y-111860498D01*
X166024482Y-111824188D01*
X165900000Y-111811928D01*
X165760000Y-111811928D01*
X165760000Y-110218043D01*
X165861834Y-110150000D01*
X175511928Y-110150000D01*
X175511928Y-111850000D01*
X175524188Y-111974482D01*
X175560498Y-112094180D01*
X175619463Y-112204494D01*
X175698815Y-112301185D01*
X175795506Y-112380537D01*
X175905820Y-112439502D01*
X176025518Y-112475812D01*
X176150000Y-112488072D01*
X177850000Y-112488072D01*
X177974482Y-112475812D01*
X178094180Y-112439502D01*
X178204494Y-112380537D01*
X178301185Y-112301185D01*
X178380537Y-112204494D01*
X178439502Y-112094180D01*
X178461513Y-112021620D01*
X178593368Y-112153475D01*
X178836589Y-112315990D01*
X179106842Y-112427932D01*
X179393740Y-112485000D01*
X179686260Y-112485000D01*
X179973158Y-112427932D01*
X180243411Y-112315990D01*
X180486632Y-112153475D01*
X180693475Y-111946632D01*
X180810000Y-111772240D01*
X180926525Y-111946632D01*
X181133368Y-112153475D01*
X181376589Y-112315990D01*
X181646842Y-112427932D01*
X181933740Y-112485000D01*
X182226260Y-112485000D01*
X182513158Y-112427932D01*
X182783411Y-112315990D01*
X183026632Y-112153475D01*
X183233475Y-111946632D01*
X183350000Y-111772240D01*
X183466525Y-111946632D01*
X183673368Y-112153475D01*
X183916589Y-112315990D01*
X184186842Y-112427932D01*
X184473740Y-112485000D01*
X184766260Y-112485000D01*
X185053158Y-112427932D01*
X185323411Y-112315990D01*
X185566632Y-112153475D01*
X185773475Y-111946632D01*
X185890000Y-111772240D01*
X186006525Y-111946632D01*
X186213368Y-112153475D01*
X186456589Y-112315990D01*
X186726842Y-112427932D01*
X187013740Y-112485000D01*
X187306260Y-112485000D01*
X187593158Y-112427932D01*
X187863411Y-112315990D01*
X188106632Y-112153475D01*
X188313475Y-111946632D01*
X188430000Y-111772240D01*
X188546525Y-111946632D01*
X188753368Y-112153475D01*
X188996589Y-112315990D01*
X189266842Y-112427932D01*
X189553740Y-112485000D01*
X189846260Y-112485000D01*
X190133158Y-112427932D01*
X190403411Y-112315990D01*
X190646632Y-112153475D01*
X190853475Y-111946632D01*
X190975195Y-111764466D01*
X191044822Y-111881355D01*
X191239731Y-112097588D01*
X191473080Y-112271641D01*
X191735901Y-112396825D01*
X191883110Y-112441476D01*
X192113000Y-112320155D01*
X192113000Y-111127000D01*
X192093000Y-111127000D01*
X192093000Y-110873000D01*
X192113000Y-110873000D01*
X192113000Y-110853000D01*
X192367000Y-110853000D01*
X192367000Y-110873000D01*
X192387000Y-110873000D01*
X192387000Y-111127000D01*
X192367000Y-111127000D01*
X192367000Y-112320155D01*
X192596890Y-112441476D01*
X192744099Y-112396825D01*
X193006920Y-112271641D01*
X193240269Y-112097588D01*
X193435178Y-111881355D01*
X193504805Y-111764466D01*
X193626525Y-111946632D01*
X193833368Y-112153475D01*
X194076589Y-112315990D01*
X194346842Y-112427932D01*
X194633740Y-112485000D01*
X194926260Y-112485000D01*
X195213158Y-112427932D01*
X195483411Y-112315990D01*
X195726632Y-112153475D01*
X195933475Y-111946632D01*
X196050000Y-111772240D01*
X196166525Y-111946632D01*
X196373368Y-112153475D01*
X196616589Y-112315990D01*
X196886842Y-112427932D01*
X197173740Y-112485000D01*
X197466260Y-112485000D01*
X197753158Y-112427932D01*
X198023411Y-112315990D01*
X198266632Y-112153475D01*
X198473475Y-111946632D01*
X198590000Y-111772240D01*
X198706525Y-111946632D01*
X198913368Y-112153475D01*
X199156589Y-112315990D01*
X199426842Y-112427932D01*
X199713740Y-112485000D01*
X200006260Y-112485000D01*
X200293158Y-112427932D01*
X200563411Y-112315990D01*
X200806632Y-112153475D01*
X201013475Y-111946632D01*
X201175990Y-111703411D01*
X201287932Y-111433158D01*
X201345000Y-111146260D01*
X201345000Y-110853740D01*
X201287932Y-110566842D01*
X201175990Y-110296589D01*
X201013475Y-110053368D01*
X200806632Y-109846525D01*
X200563411Y-109684010D01*
X200293158Y-109572068D01*
X200006260Y-109515000D01*
X199713740Y-109515000D01*
X199426842Y-109572068D01*
X199156589Y-109684010D01*
X198913368Y-109846525D01*
X198706525Y-110053368D01*
X198590000Y-110227760D01*
X198473475Y-110053368D01*
X198266632Y-109846525D01*
X198023411Y-109684010D01*
X197753158Y-109572068D01*
X197466260Y-109515000D01*
X197173740Y-109515000D01*
X196886842Y-109572068D01*
X196616589Y-109684010D01*
X196373368Y-109846525D01*
X196166525Y-110053368D01*
X196050000Y-110227760D01*
X195933475Y-110053368D01*
X195726632Y-109846525D01*
X195483411Y-109684010D01*
X195213158Y-109572068D01*
X194926260Y-109515000D01*
X194633740Y-109515000D01*
X194413592Y-109558790D01*
X193260000Y-108405199D01*
X193260000Y-96322017D01*
X193598090Y-96322017D01*
X193639078Y-96594133D01*
X193732364Y-96853023D01*
X193794344Y-96968980D01*
X194034435Y-97035960D01*
X194820395Y-96250000D01*
X194034435Y-95464040D01*
X193794344Y-95531020D01*
X193677244Y-95780048D01*
X193610977Y-96047135D01*
X193598090Y-96322017D01*
X193260000Y-96322017D01*
X193260000Y-91564801D01*
X193603000Y-91221801D01*
X193603000Y-91387592D01*
X193656686Y-91657490D01*
X193761995Y-91911727D01*
X193914880Y-92140535D01*
X194109465Y-92335120D01*
X194338273Y-92488005D01*
X194367231Y-92500000D01*
X194338273Y-92511995D01*
X194109465Y-92664880D01*
X193914880Y-92859465D01*
X193761995Y-93088273D01*
X193656686Y-93342510D01*
X193603000Y-93612408D01*
X193603000Y-93887592D01*
X193656686Y-94157490D01*
X193761995Y-94411727D01*
X193914880Y-94640535D01*
X194109465Y-94835120D01*
X194338273Y-94988005D01*
X194365401Y-94999242D01*
X194281020Y-95044344D01*
X194214040Y-95284435D01*
X195000000Y-96070395D01*
X195014143Y-96056253D01*
X195193748Y-96235858D01*
X195179605Y-96250000D01*
X195193748Y-96264143D01*
X195014143Y-96443748D01*
X195000000Y-96429605D01*
X194214040Y-97215565D01*
X194281020Y-97455656D01*
X194371533Y-97498218D01*
X194338273Y-97511995D01*
X194109465Y-97664880D01*
X193914880Y-97859465D01*
X193761995Y-98088273D01*
X193656686Y-98342510D01*
X193603000Y-98612408D01*
X193603000Y-98887592D01*
X193656686Y-99157490D01*
X193761995Y-99411727D01*
X193914880Y-99640535D01*
X194109465Y-99835120D01*
X194338273Y-99988005D01*
X194592510Y-100093314D01*
X194862408Y-100147000D01*
X195137592Y-100147000D01*
X195407490Y-100093314D01*
X195603000Y-100012331D01*
X195603000Y-100137592D01*
X195656686Y-100407490D01*
X195761995Y-100661727D01*
X195914880Y-100890535D01*
X196109465Y-101085120D01*
X196338273Y-101238005D01*
X196592510Y-101343314D01*
X196862408Y-101397000D01*
X197137592Y-101397000D01*
X197407490Y-101343314D01*
X197661727Y-101238005D01*
X197890535Y-101085120D01*
X198085120Y-100890535D01*
X198238005Y-100661727D01*
X198343314Y-100407490D01*
X198397000Y-100137592D01*
X198397000Y-99862408D01*
X198343314Y-99592510D01*
X198238005Y-99338273D01*
X198085120Y-99109465D01*
X197890535Y-98914880D01*
X197661727Y-98761995D01*
X197632769Y-98750000D01*
X197661727Y-98738005D01*
X197890535Y-98585120D01*
X198085120Y-98390535D01*
X198238005Y-98161727D01*
X198343314Y-97907490D01*
X198397000Y-97637592D01*
X198397000Y-97362408D01*
X198343314Y-97092510D01*
X198238005Y-96838273D01*
X198085120Y-96609465D01*
X197890535Y-96414880D01*
X197661727Y-96261995D01*
X197632769Y-96250000D01*
X197661727Y-96238005D01*
X197890535Y-96085120D01*
X198085120Y-95890535D01*
X198238005Y-95661727D01*
X198343314Y-95407490D01*
X198397000Y-95137592D01*
X198397000Y-94862408D01*
X198343314Y-94592510D01*
X198238005Y-94338273D01*
X198085120Y-94109465D01*
X197890535Y-93914880D01*
X197661727Y-93761995D01*
X197632769Y-93750000D01*
X197661727Y-93738005D01*
X197890535Y-93585120D01*
X198085120Y-93390535D01*
X198238005Y-93161727D01*
X198343314Y-92907490D01*
X198397000Y-92637592D01*
X198397000Y-92362408D01*
X198343314Y-92092510D01*
X198238005Y-91838273D01*
X198085120Y-91609465D01*
X197890535Y-91414880D01*
X197661727Y-91261995D01*
X197632769Y-91250000D01*
X197661727Y-91238005D01*
X197890535Y-91085120D01*
X198085120Y-90890535D01*
X198238005Y-90661727D01*
X198343314Y-90407490D01*
X198397000Y-90137592D01*
X198397000Y-89862408D01*
X198343314Y-89592510D01*
X198238005Y-89338273D01*
X198085120Y-89109465D01*
X197890535Y-88914880D01*
X197661727Y-88761995D01*
X197632769Y-88750000D01*
X197661727Y-88738005D01*
X197890535Y-88585120D01*
X198085120Y-88390535D01*
X198238005Y-88161727D01*
X198343314Y-87907490D01*
X198397000Y-87637592D01*
X198397000Y-87362408D01*
X198343314Y-87092510D01*
X198238005Y-86838273D01*
X198085120Y-86609465D01*
X197890535Y-86414880D01*
X197854708Y-86390941D01*
X197886482Y-86387812D01*
X198006180Y-86351502D01*
X198116494Y-86292537D01*
X198213185Y-86213185D01*
X198292537Y-86116494D01*
X198351502Y-86006180D01*
X198387812Y-85886482D01*
X198400072Y-85762000D01*
X198400072Y-84238000D01*
X198387812Y-84113518D01*
X198351502Y-83993820D01*
X198292537Y-83883506D01*
X198213185Y-83786815D01*
X198116494Y-83707463D01*
X198006180Y-83648498D01*
X197886482Y-83612188D01*
X197762000Y-83599928D01*
X196238000Y-83599928D01*
X196113518Y-83612188D01*
X195993820Y-83648498D01*
X195883506Y-83707463D01*
X195786815Y-83786815D01*
X195707463Y-83883506D01*
X195648498Y-83993820D01*
X195612188Y-84113518D01*
X195599928Y-84238000D01*
X195599928Y-84986397D01*
X195407490Y-84906686D01*
X195137592Y-84853000D01*
X194862408Y-84853000D01*
X194592510Y-84906686D01*
X194338273Y-85011995D01*
X194109465Y-85164880D01*
X193914880Y-85359465D01*
X193761995Y-85588273D01*
X193656686Y-85842510D01*
X193603000Y-86112408D01*
X193603000Y-86387592D01*
X193656686Y-86657490D01*
X193761995Y-86911727D01*
X193914880Y-87140535D01*
X194109465Y-87335120D01*
X194338273Y-87488005D01*
X194367231Y-87500000D01*
X194338273Y-87511995D01*
X194109465Y-87664880D01*
X193914880Y-87859465D01*
X193761995Y-88088273D01*
X193656686Y-88342510D01*
X193603000Y-88612408D01*
X193603000Y-88887592D01*
X193633628Y-89041570D01*
X191989003Y-90686196D01*
X191959999Y-90709999D01*
X191915455Y-90764277D01*
X191865026Y-90825724D01*
X191810980Y-90926836D01*
X191794454Y-90957754D01*
X191750997Y-91101015D01*
X191740000Y-91212668D01*
X191740000Y-91212678D01*
X191736324Y-91250000D01*
X191740000Y-91287322D01*
X191740001Y-108682667D01*
X191736324Y-108720000D01*
X191740001Y-108757333D01*
X191749982Y-108858665D01*
X191750998Y-108868985D01*
X191794454Y-109012246D01*
X191865026Y-109144276D01*
X191936201Y-109231002D01*
X191960000Y-109260001D01*
X191988998Y-109283799D01*
X192220199Y-109515000D01*
X192112998Y-109515000D01*
X192112998Y-109679844D01*
X191883110Y-109558524D01*
X191735901Y-109603175D01*
X191473080Y-109728359D01*
X191239731Y-109902412D01*
X191044822Y-110118645D01*
X190975195Y-110235534D01*
X190853475Y-110053368D01*
X190646632Y-109846525D01*
X190403411Y-109684010D01*
X190133158Y-109572068D01*
X189846260Y-109515000D01*
X189553740Y-109515000D01*
X189266842Y-109572068D01*
X188996589Y-109684010D01*
X188753368Y-109846525D01*
X188546525Y-110053368D01*
X188430000Y-110227760D01*
X188313475Y-110053368D01*
X188106632Y-109846525D01*
X187863411Y-109684010D01*
X187593158Y-109572068D01*
X187306260Y-109515000D01*
X187013740Y-109515000D01*
X186726842Y-109572068D01*
X186456589Y-109684010D01*
X186213368Y-109846525D01*
X186006525Y-110053368D01*
X185890000Y-110227760D01*
X185773475Y-110053368D01*
X185566632Y-109846525D01*
X185323411Y-109684010D01*
X185053158Y-109572068D01*
X184766260Y-109515000D01*
X184473740Y-109515000D01*
X184186842Y-109572068D01*
X183916589Y-109684010D01*
X183673368Y-109846525D01*
X183466525Y-110053368D01*
X183350000Y-110227760D01*
X183233475Y-110053368D01*
X183026632Y-109846525D01*
X182840000Y-109721822D01*
X182840000Y-87203707D01*
X182883937Y-87159770D01*
X182997205Y-86990252D01*
X183075226Y-86801894D01*
X183115000Y-86601935D01*
X183115000Y-86398057D01*
X183075226Y-86198098D01*
X182997205Y-86009740D01*
X182883937Y-85840222D01*
X182739774Y-85696059D01*
X182570256Y-85582791D01*
X182381898Y-85504770D01*
X182181939Y-85464996D01*
X181978061Y-85464996D01*
X181778102Y-85504770D01*
X181589744Y-85582791D01*
X181420226Y-85696059D01*
X181276063Y-85840222D01*
X181162795Y-86009740D01*
X181084774Y-86198098D01*
X181045000Y-86398057D01*
X181045000Y-86601935D01*
X181084774Y-86801894D01*
X181162795Y-86990252D01*
X181276063Y-87159770D01*
X181320001Y-87203708D01*
X181320000Y-109721822D01*
X181133368Y-109846525D01*
X180926525Y-110053368D01*
X180810000Y-110227760D01*
X180693475Y-110053368D01*
X180486632Y-109846525D01*
X180300000Y-109721822D01*
X180300000Y-88087842D01*
X180365205Y-87990256D01*
X180443226Y-87801898D01*
X180483000Y-87601939D01*
X180483000Y-87398061D01*
X180443226Y-87198102D01*
X180365205Y-87009744D01*
X180251937Y-86840226D01*
X180107774Y-86696063D01*
X179938256Y-86582795D01*
X179749898Y-86504774D01*
X179549939Y-86465000D01*
X179346061Y-86465000D01*
X179146102Y-86504774D01*
X178957744Y-86582795D01*
X178788226Y-86696063D01*
X178644063Y-86840226D01*
X178530795Y-87009744D01*
X178452774Y-87198102D01*
X178413000Y-87398061D01*
X178413000Y-87601939D01*
X178452774Y-87801898D01*
X178530795Y-87990256D01*
X178644063Y-88159774D01*
X178780001Y-88295712D01*
X178780000Y-109721822D01*
X178593368Y-109846525D01*
X178461513Y-109978380D01*
X178439502Y-109905820D01*
X178380537Y-109795506D01*
X178301185Y-109698815D01*
X178204494Y-109619463D01*
X178094180Y-109560498D01*
X177974482Y-109524188D01*
X177850000Y-109511928D01*
X176150000Y-109511928D01*
X176025518Y-109524188D01*
X175905820Y-109560498D01*
X175795506Y-109619463D01*
X175698815Y-109698815D01*
X175619463Y-109795506D01*
X175560498Y-109905820D01*
X175524188Y-110025518D01*
X175511928Y-110150000D01*
X165861834Y-110150000D01*
X165914759Y-110114637D01*
X166114637Y-109914759D01*
X166271680Y-109679727D01*
X166379853Y-109418574D01*
X166435000Y-109141335D01*
X166435000Y-108858665D01*
X166379853Y-108581426D01*
X166271680Y-108320273D01*
X166114637Y-108085241D01*
X165914759Y-107885363D01*
X165679727Y-107728320D01*
X165418574Y-107620147D01*
X165141335Y-107565000D01*
X164858665Y-107565000D01*
X164581426Y-107620147D01*
X164320273Y-107728320D01*
X164085241Y-107885363D01*
X163885363Y-108085241D01*
X163728320Y-108320273D01*
X163620147Y-108581426D01*
X163565000Y-108858665D01*
X163565000Y-109141335D01*
X163620147Y-109418574D01*
X163728320Y-109679727D01*
X163885363Y-109914759D01*
X164085241Y-110114637D01*
X164240001Y-110218044D01*
X164240000Y-111811928D01*
X164100000Y-111811928D01*
X163975518Y-111824188D01*
X163855820Y-111860498D01*
X163745506Y-111919463D01*
X163648815Y-111998815D01*
X163569463Y-112095506D01*
X163510498Y-112205820D01*
X163474188Y-112325518D01*
X163461928Y-112450000D01*
X163461928Y-114250000D01*
X163474188Y-114374482D01*
X163510498Y-114494180D01*
X163569463Y-114604494D01*
X163648815Y-114701185D01*
X163745506Y-114780537D01*
X163855820Y-114839502D01*
X163874127Y-114845056D01*
X163807688Y-114911495D01*
X163639701Y-115162905D01*
X163523989Y-115442257D01*
X163465000Y-115738816D01*
X163465000Y-116041184D01*
X163523989Y-116337743D01*
X163639701Y-116617095D01*
X163807688Y-116868505D01*
X164021495Y-117082312D01*
X164272905Y-117250299D01*
X164498152Y-117343600D01*
X155501848Y-117343600D01*
X155727095Y-117250299D01*
X155978505Y-117082312D01*
X156192312Y-116868505D01*
X156360299Y-116617095D01*
X156476011Y-116337743D01*
X156535000Y-116041184D01*
X156535000Y-115738816D01*
X156476011Y-115442257D01*
X156360299Y-115162905D01*
X156192312Y-114911495D01*
X156125873Y-114845056D01*
X156144180Y-114839502D01*
X156254494Y-114780537D01*
X156351185Y-114701185D01*
X156430537Y-114604494D01*
X156489502Y-114494180D01*
X156525812Y-114374482D01*
X156538072Y-114250000D01*
X156538072Y-112450000D01*
X156525812Y-112325518D01*
X156489502Y-112205820D01*
X156430537Y-112095506D01*
X156351185Y-111998815D01*
X156254494Y-111919463D01*
X156144180Y-111860498D01*
X156024482Y-111824188D01*
X155900000Y-111811928D01*
X155760000Y-111811928D01*
X155760000Y-110218043D01*
X155914759Y-110114637D01*
X156114637Y-109914759D01*
X156271680Y-109679727D01*
X156379853Y-109418574D01*
X156435000Y-109141335D01*
X156435000Y-108858665D01*
X156379853Y-108581426D01*
X156271680Y-108320273D01*
X156114637Y-108085241D01*
X155914759Y-107885363D01*
X155679727Y-107728320D01*
X155418574Y-107620147D01*
X155141335Y-107565000D01*
X154858665Y-107565000D01*
X154581426Y-107620147D01*
X154320273Y-107728320D01*
X154085241Y-107885363D01*
X153885363Y-108085241D01*
X153728320Y-108320273D01*
X153620147Y-108581426D01*
X153565000Y-108858665D01*
X153565000Y-109141335D01*
X153620147Y-109418574D01*
X153728320Y-109679727D01*
X153885363Y-109914759D01*
X154085241Y-110114637D01*
X154240000Y-110218044D01*
X154240001Y-111811928D01*
X154100000Y-111811928D01*
X153975518Y-111824188D01*
X153855820Y-111860498D01*
X153745506Y-111919463D01*
X153648815Y-111998815D01*
X153569463Y-112095506D01*
X153510498Y-112205820D01*
X153474188Y-112325518D01*
X153461928Y-112450000D01*
X153461928Y-114250000D01*
X153474188Y-114374482D01*
X153510498Y-114494180D01*
X153569463Y-114604494D01*
X153648815Y-114701185D01*
X153745506Y-114780537D01*
X153855820Y-114839502D01*
X153874127Y-114845056D01*
X153807688Y-114911495D01*
X153639701Y-115162905D01*
X153523989Y-115442257D01*
X153465000Y-115738816D01*
X153465000Y-116041184D01*
X153523989Y-116337743D01*
X153639701Y-116617095D01*
X153807688Y-116868505D01*
X154021495Y-117082312D01*
X154272905Y-117250299D01*
X154498152Y-117343600D01*
X145501848Y-117343600D01*
X145727095Y-117250299D01*
X145978505Y-117082312D01*
X146192312Y-116868505D01*
X146360299Y-116617095D01*
X146476011Y-116337743D01*
X146535000Y-116041184D01*
X146535000Y-115738816D01*
X146476011Y-115442257D01*
X146360299Y-115162905D01*
X146192312Y-114911495D01*
X146125873Y-114845056D01*
X146144180Y-114839502D01*
X146254494Y-114780537D01*
X146351185Y-114701185D01*
X146430537Y-114604494D01*
X146489502Y-114494180D01*
X146525812Y-114374482D01*
X146538072Y-114250000D01*
X146538072Y-112450000D01*
X146525812Y-112325518D01*
X146489502Y-112205820D01*
X146430537Y-112095506D01*
X146351185Y-111998815D01*
X146254494Y-111919463D01*
X146144180Y-111860498D01*
X146024482Y-111824188D01*
X145900000Y-111811928D01*
X145760000Y-111811928D01*
X145760000Y-110218043D01*
X145914759Y-110114637D01*
X146114637Y-109914759D01*
X146271680Y-109679727D01*
X146379853Y-109418574D01*
X146435000Y-109141335D01*
X146435000Y-108858665D01*
X146379853Y-108581426D01*
X146271680Y-108320273D01*
X146114637Y-108085241D01*
X145914759Y-107885363D01*
X145679727Y-107728320D01*
X145418574Y-107620147D01*
X145141335Y-107565000D01*
X144858665Y-107565000D01*
X144581426Y-107620147D01*
X144320273Y-107728320D01*
X144085241Y-107885363D01*
X143885363Y-108085241D01*
X143728320Y-108320273D01*
X143620147Y-108581426D01*
X143565000Y-108858665D01*
X143565000Y-109141335D01*
X143620147Y-109418574D01*
X143728320Y-109679727D01*
X143885363Y-109914759D01*
X144085241Y-110114637D01*
X144240000Y-110218044D01*
X144240001Y-111811928D01*
X144100000Y-111811928D01*
X143975518Y-111824188D01*
X143855820Y-111860498D01*
X143745506Y-111919463D01*
X143648815Y-111998815D01*
X143569463Y-112095506D01*
X143510498Y-112205820D01*
X143474188Y-112325518D01*
X143461928Y-112450000D01*
X143461928Y-114250000D01*
X143474188Y-114374482D01*
X143510498Y-114494180D01*
X143569463Y-114604494D01*
X143648815Y-114701185D01*
X143745506Y-114780537D01*
X143855820Y-114839502D01*
X143874127Y-114845056D01*
X143807688Y-114911495D01*
X143639701Y-115162905D01*
X143523989Y-115442257D01*
X143465000Y-115738816D01*
X143465000Y-116041184D01*
X143523989Y-116337743D01*
X143639701Y-116617095D01*
X143807688Y-116868505D01*
X144021495Y-117082312D01*
X144272905Y-117250299D01*
X144498152Y-117343600D01*
X135501848Y-117343600D01*
X135727095Y-117250299D01*
X135978505Y-117082312D01*
X136192312Y-116868505D01*
X136360299Y-116617095D01*
X136476011Y-116337743D01*
X136535000Y-116041184D01*
X136535000Y-115738816D01*
X136476011Y-115442257D01*
X136360299Y-115162905D01*
X136192312Y-114911495D01*
X136125873Y-114845056D01*
X136144180Y-114839502D01*
X136254494Y-114780537D01*
X136351185Y-114701185D01*
X136430537Y-114604494D01*
X136489502Y-114494180D01*
X136525812Y-114374482D01*
X136538072Y-114250000D01*
X136538072Y-112450000D01*
X136525812Y-112325518D01*
X136489502Y-112205820D01*
X136430537Y-112095506D01*
X136351185Y-111998815D01*
X136254494Y-111919463D01*
X136144180Y-111860498D01*
X136024482Y-111824188D01*
X135900000Y-111811928D01*
X135760000Y-111811928D01*
X135760000Y-110218043D01*
X135914759Y-110114637D01*
X136114637Y-109914759D01*
X136271680Y-109679727D01*
X136379853Y-109418574D01*
X136435000Y-109141335D01*
X136435000Y-108858665D01*
X136379853Y-108581426D01*
X136271680Y-108320273D01*
X136114637Y-108085241D01*
X135914759Y-107885363D01*
X135679727Y-107728320D01*
X135418574Y-107620147D01*
X135141335Y-107565000D01*
X134858665Y-107565000D01*
X134581426Y-107620147D01*
X134320273Y-107728320D01*
X134085241Y-107885363D01*
X133885363Y-108085241D01*
X133728320Y-108320273D01*
X133620147Y-108581426D01*
X133565000Y-108858665D01*
X133565000Y-109141335D01*
X133620147Y-109418574D01*
X133728320Y-109679727D01*
X133885363Y-109914759D01*
X134085241Y-110114637D01*
X134240000Y-110218044D01*
X134240001Y-111811928D01*
X134100000Y-111811928D01*
X133975518Y-111824188D01*
X133855820Y-111860498D01*
X133745506Y-111919463D01*
X133648815Y-111998815D01*
X133569463Y-112095506D01*
X133510498Y-112205820D01*
X133474188Y-112325518D01*
X133461928Y-112450000D01*
X133461928Y-114250000D01*
X133474188Y-114374482D01*
X133510498Y-114494180D01*
X133569463Y-114604494D01*
X133648815Y-114701185D01*
X133745506Y-114780537D01*
X133855820Y-114839502D01*
X133874127Y-114845056D01*
X133807688Y-114911495D01*
X133639701Y-115162905D01*
X133523989Y-115442257D01*
X133465000Y-115738816D01*
X133465000Y-116041184D01*
X133523989Y-116337743D01*
X133639701Y-116617095D01*
X133807688Y-116868505D01*
X134021495Y-117082312D01*
X134272905Y-117250299D01*
X134498152Y-117343600D01*
X89561100Y-117343600D01*
X89561100Y-110853740D01*
X98655000Y-110853740D01*
X98655000Y-111146260D01*
X98712068Y-111433158D01*
X98824010Y-111703411D01*
X98986525Y-111946632D01*
X99193368Y-112153475D01*
X99436589Y-112315990D01*
X99706842Y-112427932D01*
X99993740Y-112485000D01*
X100286260Y-112485000D01*
X100573158Y-112427932D01*
X100843411Y-112315990D01*
X101086632Y-112153475D01*
X101293475Y-111946632D01*
X101410000Y-111772240D01*
X101526525Y-111946632D01*
X101733368Y-112153475D01*
X101976589Y-112315990D01*
X102246842Y-112427932D01*
X102533740Y-112485000D01*
X102826260Y-112485000D01*
X103113158Y-112427932D01*
X103383411Y-112315990D01*
X103626632Y-112153475D01*
X103833475Y-111946632D01*
X103950000Y-111772240D01*
X104066525Y-111946632D01*
X104273368Y-112153475D01*
X104516589Y-112315990D01*
X104786842Y-112427932D01*
X105073740Y-112485000D01*
X105366260Y-112485000D01*
X105653158Y-112427932D01*
X105923411Y-112315990D01*
X106166632Y-112153475D01*
X106373475Y-111946632D01*
X106490000Y-111772240D01*
X106606525Y-111946632D01*
X106813368Y-112153475D01*
X107056589Y-112315990D01*
X107326842Y-112427932D01*
X107613740Y-112485000D01*
X107906260Y-112485000D01*
X108193158Y-112427932D01*
X108463411Y-112315990D01*
X108706632Y-112153475D01*
X108913475Y-111946632D01*
X109030000Y-111772240D01*
X109146525Y-111946632D01*
X109353368Y-112153475D01*
X109596589Y-112315990D01*
X109866842Y-112427932D01*
X110153740Y-112485000D01*
X110446260Y-112485000D01*
X110733158Y-112427932D01*
X111003411Y-112315990D01*
X111246632Y-112153475D01*
X111453475Y-111946632D01*
X111570000Y-111772240D01*
X111686525Y-111946632D01*
X111893368Y-112153475D01*
X112136589Y-112315990D01*
X112406842Y-112427932D01*
X112693740Y-112485000D01*
X112986260Y-112485000D01*
X113273158Y-112427932D01*
X113543411Y-112315990D01*
X113786632Y-112153475D01*
X113993475Y-111946632D01*
X114110000Y-111772240D01*
X114226525Y-111946632D01*
X114433368Y-112153475D01*
X114676589Y-112315990D01*
X114946842Y-112427932D01*
X115233740Y-112485000D01*
X115526260Y-112485000D01*
X115813158Y-112427932D01*
X116083411Y-112315990D01*
X116326632Y-112153475D01*
X116533475Y-111946632D01*
X116650000Y-111772240D01*
X116766525Y-111946632D01*
X116973368Y-112153475D01*
X117216589Y-112315990D01*
X117486842Y-112427932D01*
X117773740Y-112485000D01*
X118066260Y-112485000D01*
X118353158Y-112427932D01*
X118623411Y-112315990D01*
X118866632Y-112153475D01*
X119073475Y-111946632D01*
X119195195Y-111764466D01*
X119264822Y-111881355D01*
X119459731Y-112097588D01*
X119693080Y-112271641D01*
X119955901Y-112396825D01*
X120103110Y-112441476D01*
X120333000Y-112320155D01*
X120333000Y-111127000D01*
X120313000Y-111127000D01*
X120313000Y-110873000D01*
X120333000Y-110873000D01*
X120333000Y-109679845D01*
X120587000Y-109679845D01*
X120587000Y-110873000D01*
X120607000Y-110873000D01*
X120607000Y-111127000D01*
X120587000Y-111127000D01*
X120587000Y-112320155D01*
X120816890Y-112441476D01*
X120964099Y-112396825D01*
X121226920Y-112271641D01*
X121460269Y-112097588D01*
X121536034Y-112013534D01*
X121560498Y-112094180D01*
X121619463Y-112204494D01*
X121698815Y-112301185D01*
X121795506Y-112380537D01*
X121905820Y-112439502D01*
X122025518Y-112475812D01*
X122150000Y-112488072D01*
X123850000Y-112488072D01*
X123974482Y-112475812D01*
X124094180Y-112439502D01*
X124204494Y-112380537D01*
X124301185Y-112301185D01*
X124380537Y-112204494D01*
X124439502Y-112094180D01*
X124475812Y-111974482D01*
X124488072Y-111850000D01*
X124488072Y-110150000D01*
X124475812Y-110025518D01*
X124439502Y-109905820D01*
X124380537Y-109795506D01*
X124301185Y-109698815D01*
X124204494Y-109619463D01*
X124094180Y-109560498D01*
X123974482Y-109524188D01*
X123850000Y-109511928D01*
X122150000Y-109511928D01*
X122025518Y-109524188D01*
X121905820Y-109560498D01*
X121795506Y-109619463D01*
X121698815Y-109698815D01*
X121619463Y-109795506D01*
X121560498Y-109905820D01*
X121536034Y-109986466D01*
X121460269Y-109902412D01*
X121226920Y-109728359D01*
X120964099Y-109603175D01*
X120816890Y-109558524D01*
X120587000Y-109679845D01*
X120333000Y-109679845D01*
X120103110Y-109558524D01*
X119955901Y-109603175D01*
X119693080Y-109728359D01*
X119459731Y-109902412D01*
X119264822Y-110118645D01*
X119195195Y-110235534D01*
X119073475Y-110053368D01*
X118866632Y-109846525D01*
X118623411Y-109684010D01*
X118353158Y-109572068D01*
X118066260Y-109515000D01*
X117773740Y-109515000D01*
X117553592Y-109558790D01*
X107483804Y-99489003D01*
X107460001Y-99459999D01*
X107344276Y-99365026D01*
X107212247Y-99294454D01*
X107068986Y-99250997D01*
X106957333Y-99240000D01*
X106957322Y-99240000D01*
X106920000Y-99236324D01*
X106882678Y-99240000D01*
X106309137Y-99240000D01*
X106343314Y-99157490D01*
X106397000Y-98887592D01*
X106397000Y-98698665D01*
X133565000Y-98698665D01*
X133565000Y-98981335D01*
X133620147Y-99258574D01*
X133728320Y-99519727D01*
X133885363Y-99754759D01*
X134085241Y-99954637D01*
X134320273Y-100111680D01*
X134581426Y-100219853D01*
X134858665Y-100275000D01*
X135141335Y-100275000D01*
X135418574Y-100219853D01*
X135679727Y-100111680D01*
X135914759Y-99954637D01*
X136114637Y-99754759D01*
X136271680Y-99519727D01*
X136379853Y-99258574D01*
X136435000Y-98981335D01*
X136435000Y-98698665D01*
X136422859Y-98637627D01*
X145736006Y-89324481D01*
X145765004Y-89300683D01*
X145859977Y-89184958D01*
X145930549Y-89052929D01*
X145974006Y-88909668D01*
X145985003Y-88798015D01*
X145985003Y-88798006D01*
X145988679Y-88760683D01*
X145985003Y-88723360D01*
X145985003Y-87975695D01*
X146146520Y-87975695D01*
X146215822Y-88727938D01*
X146430548Y-89452208D01*
X146782445Y-90120670D01*
X146809452Y-90161088D01*
X147299119Y-90521276D01*
X149820395Y-88000000D01*
X147299119Y-85478724D01*
X146809452Y-85838912D01*
X146449151Y-86502882D01*
X146225306Y-87224385D01*
X146146520Y-87975695D01*
X145985003Y-87975695D01*
X145985003Y-85299119D01*
X147478724Y-85299119D01*
X150000000Y-87820395D01*
X152521276Y-85299119D01*
X152161088Y-84809452D01*
X151497118Y-84449151D01*
X150775615Y-84225306D01*
X150024305Y-84146520D01*
X149272062Y-84215822D01*
X148547792Y-84430548D01*
X147879330Y-84782445D01*
X147838912Y-84809452D01*
X147478724Y-85299119D01*
X145985003Y-85299119D01*
X145985003Y-82014744D01*
X146016842Y-82027932D01*
X146303740Y-82085000D01*
X146596260Y-82085000D01*
X146883158Y-82027932D01*
X147153411Y-81915990D01*
X147396632Y-81753475D01*
X147603475Y-81546632D01*
X147720000Y-81372240D01*
X147836525Y-81546632D01*
X148043368Y-81753475D01*
X148286589Y-81915990D01*
X148556842Y-82027932D01*
X148843740Y-82085000D01*
X149136260Y-82085000D01*
X149423158Y-82027932D01*
X149693411Y-81915990D01*
X149936632Y-81753475D01*
X150143475Y-81546632D01*
X150260000Y-81372240D01*
X150376525Y-81546632D01*
X150583368Y-81753475D01*
X150826589Y-81915990D01*
X151096842Y-82027932D01*
X151383740Y-82085000D01*
X151676260Y-82085000D01*
X151963158Y-82027932D01*
X152233411Y-81915990D01*
X152476632Y-81753475D01*
X152683475Y-81546632D01*
X152800000Y-81372240D01*
X152916525Y-81546632D01*
X153123368Y-81753475D01*
X153366589Y-81915990D01*
X153636842Y-82027932D01*
X153923740Y-82085000D01*
X154216260Y-82085000D01*
X154485001Y-82031544D01*
X154485001Y-88280197D01*
X153678038Y-89087161D01*
X153774694Y-88775615D01*
X153853480Y-88024305D01*
X153784178Y-87272062D01*
X153569452Y-86547792D01*
X153217555Y-85879330D01*
X153190548Y-85838912D01*
X152700881Y-85478724D01*
X150179605Y-88000000D01*
X150193748Y-88014143D01*
X150014143Y-88193748D01*
X150000000Y-88179605D01*
X147478724Y-90700881D01*
X147838912Y-91190548D01*
X148502882Y-91550849D01*
X149224385Y-91774694D01*
X149975695Y-91853480D01*
X150727938Y-91784178D01*
X151087671Y-91677527D01*
X145323887Y-97441312D01*
X145141335Y-97405000D01*
X144858665Y-97405000D01*
X144581426Y-97460147D01*
X144320273Y-97568320D01*
X144085241Y-97725363D01*
X143885363Y-97925241D01*
X143728320Y-98160273D01*
X143620147Y-98421426D01*
X143565000Y-98698665D01*
X143565000Y-98981335D01*
X143620147Y-99258574D01*
X143728320Y-99519727D01*
X143885363Y-99754759D01*
X144085241Y-99954637D01*
X144320273Y-100111680D01*
X144581426Y-100219853D01*
X144858665Y-100275000D01*
X145141335Y-100275000D01*
X145418574Y-100219853D01*
X145679727Y-100111680D01*
X145914759Y-99954637D01*
X146114637Y-99754759D01*
X146271680Y-99519727D01*
X146379853Y-99258574D01*
X146435000Y-98981335D01*
X146435000Y-98698665D01*
X146398688Y-98516113D01*
X155756005Y-89158797D01*
X155785002Y-89135000D01*
X155879975Y-89019275D01*
X155950547Y-88887246D01*
X155994004Y-88743985D01*
X156005001Y-88632332D01*
X156005001Y-88632323D01*
X156008677Y-88595000D01*
X156005001Y-88557677D01*
X156005001Y-87414036D01*
X156009744Y-87417205D01*
X156198102Y-87495226D01*
X156398061Y-87535000D01*
X156601939Y-87535000D01*
X156801898Y-87495226D01*
X156990256Y-87417205D01*
X157159774Y-87303937D01*
X157303937Y-87159774D01*
X157417205Y-86990256D01*
X157495226Y-86801898D01*
X157535000Y-86601939D01*
X157535000Y-86398061D01*
X157495226Y-86198102D01*
X157417205Y-86009744D01*
X157303937Y-85840226D01*
X157260000Y-85796289D01*
X157260000Y-81938113D01*
X157313411Y-81915990D01*
X157556632Y-81753475D01*
X157763475Y-81546632D01*
X157880000Y-81372240D01*
X157996525Y-81546632D01*
X158203368Y-81753475D01*
X158240001Y-81777952D01*
X158240000Y-86796289D01*
X158196063Y-86840226D01*
X158082795Y-87009744D01*
X158004774Y-87198102D01*
X157965000Y-87398061D01*
X157965000Y-87601939D01*
X158004774Y-87801898D01*
X158082795Y-87990256D01*
X158196063Y-88159774D01*
X158340226Y-88303937D01*
X158509744Y-88417205D01*
X158698102Y-88495226D01*
X158898061Y-88535000D01*
X159101939Y-88535000D01*
X159301898Y-88495226D01*
X159490256Y-88417205D01*
X159659774Y-88303937D01*
X159803937Y-88159774D01*
X159917205Y-87990256D01*
X159995226Y-87801898D01*
X160035000Y-87601939D01*
X160035000Y-87398061D01*
X159995226Y-87198102D01*
X159917205Y-87009744D01*
X159803937Y-86840226D01*
X159760000Y-86796289D01*
X159760000Y-81954682D01*
X159853411Y-81915990D01*
X160096632Y-81753475D01*
X160303475Y-81546632D01*
X160420000Y-81372240D01*
X160536525Y-81546632D01*
X160743368Y-81753475D01*
X160986589Y-81915990D01*
X160990001Y-81917403D01*
X160990000Y-88046289D01*
X160946063Y-88090226D01*
X160832795Y-88259744D01*
X160754774Y-88448102D01*
X160715000Y-88648061D01*
X160715000Y-88851939D01*
X160754774Y-89051898D01*
X160832795Y-89240256D01*
X160946063Y-89409774D01*
X161090226Y-89553937D01*
X161259744Y-89667205D01*
X161448102Y-89745226D01*
X161648061Y-89785000D01*
X161851939Y-89785000D01*
X162051898Y-89745226D01*
X162240256Y-89667205D01*
X162409774Y-89553937D01*
X162553937Y-89409774D01*
X162667205Y-89240256D01*
X162740000Y-89064514D01*
X162740000Y-90025198D01*
X155323887Y-97441312D01*
X155141335Y-97405000D01*
X154858665Y-97405000D01*
X154581426Y-97460147D01*
X154320273Y-97568320D01*
X154085241Y-97725363D01*
X153885363Y-97925241D01*
X153728320Y-98160273D01*
X153620147Y-98421426D01*
X153565000Y-98698665D01*
X153565000Y-98981335D01*
X153620147Y-99258574D01*
X153728320Y-99519727D01*
X153885363Y-99754759D01*
X154085241Y-99954637D01*
X154320273Y-100111680D01*
X154581426Y-100219853D01*
X154858665Y-100275000D01*
X155141335Y-100275000D01*
X155418574Y-100219853D01*
X155679727Y-100111680D01*
X155914759Y-99954637D01*
X156114637Y-99754759D01*
X156271680Y-99519727D01*
X156379853Y-99258574D01*
X156435000Y-98981335D01*
X156435000Y-98698665D01*
X156398688Y-98516113D01*
X164011004Y-90903798D01*
X164040001Y-90880001D01*
X164134974Y-90764276D01*
X164205546Y-90632247D01*
X164240000Y-90518664D01*
X164240000Y-97621957D01*
X164085241Y-97725363D01*
X163885363Y-97925241D01*
X163728320Y-98160273D01*
X163620147Y-98421426D01*
X163565000Y-98698665D01*
X163565000Y-98981335D01*
X163620147Y-99258574D01*
X163728320Y-99519727D01*
X163885363Y-99754759D01*
X164085241Y-99954637D01*
X164320273Y-100111680D01*
X164581426Y-100219853D01*
X164858665Y-100275000D01*
X165141335Y-100275000D01*
X165418574Y-100219853D01*
X165679727Y-100111680D01*
X165914759Y-99954637D01*
X166114637Y-99754759D01*
X166271680Y-99519727D01*
X166379853Y-99258574D01*
X166435000Y-98981335D01*
X166435000Y-98698665D01*
X166379853Y-98421426D01*
X166271680Y-98160273D01*
X166114637Y-97925241D01*
X165914759Y-97725363D01*
X165760000Y-97621957D01*
X165760000Y-81690107D01*
X165823368Y-81753475D01*
X166066589Y-81915990D01*
X166336842Y-82027932D01*
X166623740Y-82085000D01*
X166916260Y-82085000D01*
X167203158Y-82027932D01*
X167473411Y-81915990D01*
X167716632Y-81753475D01*
X167923475Y-81546632D01*
X168040000Y-81372240D01*
X168156525Y-81546632D01*
X168363368Y-81753475D01*
X168606589Y-81915990D01*
X168876842Y-82027932D01*
X169163740Y-82085000D01*
X169456260Y-82085000D01*
X169743158Y-82027932D01*
X170013411Y-81915990D01*
X170256632Y-81753475D01*
X170463475Y-81546632D01*
X170580000Y-81372240D01*
X170696525Y-81546632D01*
X170903368Y-81753475D01*
X171146589Y-81915990D01*
X171416842Y-82027932D01*
X171490001Y-82042484D01*
X171490000Y-98046289D01*
X171446063Y-98090226D01*
X171332795Y-98259744D01*
X171254774Y-98448102D01*
X171215000Y-98648061D01*
X171215000Y-98851939D01*
X171254774Y-99051898D01*
X171332795Y-99240256D01*
X171446063Y-99409774D01*
X171590226Y-99553937D01*
X171759744Y-99667205D01*
X171948102Y-99745226D01*
X172148061Y-99785000D01*
X172351939Y-99785000D01*
X172551898Y-99745226D01*
X172740256Y-99667205D01*
X172909774Y-99553937D01*
X173053937Y-99409774D01*
X173167205Y-99240256D01*
X173245226Y-99051898D01*
X173285000Y-98851939D01*
X173285000Y-98648061D01*
X173245226Y-98448102D01*
X173167205Y-98259744D01*
X173053937Y-98090226D01*
X173010000Y-98046289D01*
X173010000Y-81536867D01*
X173120000Y-81372240D01*
X173236525Y-81546632D01*
X173443368Y-81753475D01*
X173686589Y-81915990D01*
X173740001Y-81938114D01*
X173740000Y-99296289D01*
X173696063Y-99340226D01*
X173582795Y-99509744D01*
X173504774Y-99698102D01*
X173465000Y-99898061D01*
X173465000Y-100101939D01*
X173504774Y-100301898D01*
X173582795Y-100490256D01*
X173696063Y-100659774D01*
X173840226Y-100803937D01*
X174009744Y-100917205D01*
X174198102Y-100995226D01*
X174398061Y-101035000D01*
X174601939Y-101035000D01*
X174801898Y-100995226D01*
X174990256Y-100917205D01*
X175159774Y-100803937D01*
X175303937Y-100659774D01*
X175417205Y-100490256D01*
X175495226Y-100301898D01*
X175535000Y-100101939D01*
X175535000Y-99898061D01*
X175495226Y-99698102D01*
X175417205Y-99509744D01*
X175303937Y-99340226D01*
X175260000Y-99296289D01*
X175260000Y-81804679D01*
X175336632Y-81753475D01*
X175543475Y-81546632D01*
X175660000Y-81372240D01*
X175776525Y-81546632D01*
X175983368Y-81753475D01*
X176226589Y-81915990D01*
X176496842Y-82027932D01*
X176783740Y-82085000D01*
X177076260Y-82085000D01*
X177363158Y-82027932D01*
X177633411Y-81915990D01*
X177876632Y-81753475D01*
X178083475Y-81546632D01*
X178200000Y-81372240D01*
X178316525Y-81546632D01*
X178523368Y-81753475D01*
X178766589Y-81915990D01*
X179036842Y-82027932D01*
X179323740Y-82085000D01*
X179616260Y-82085000D01*
X179903158Y-82027932D01*
X180173411Y-81915990D01*
X180416632Y-81753475D01*
X180623475Y-81546632D01*
X180785990Y-81303411D01*
X180897932Y-81033158D01*
X180955000Y-80746260D01*
X180955000Y-80453740D01*
X180897932Y-80166842D01*
X180785990Y-79896589D01*
X180623475Y-79653368D01*
X180475976Y-79505869D01*
X187241104Y-79505869D01*
X187241128Y-79512850D01*
X187244042Y-79541547D01*
X187243840Y-79570401D01*
X187244740Y-79579572D01*
X187265141Y-79773669D01*
X187277168Y-79832258D01*
X187288377Y-79891023D01*
X187291041Y-79899845D01*
X187348753Y-80086283D01*
X187371938Y-80141438D01*
X187394342Y-80196891D01*
X187398668Y-80205027D01*
X187491493Y-80376704D01*
X187524946Y-80426299D01*
X187557700Y-80476353D01*
X187563524Y-80483494D01*
X187687928Y-80633872D01*
X187730363Y-80676011D01*
X187772226Y-80718761D01*
X187779327Y-80724634D01*
X187930569Y-80847984D01*
X187980377Y-80881077D01*
X188029751Y-80914884D01*
X188037857Y-80919267D01*
X188210180Y-81010892D01*
X188265492Y-81033690D01*
X188320466Y-81057252D01*
X188329269Y-81059977D01*
X188516106Y-81116386D01*
X188574786Y-81128005D01*
X188633296Y-81140442D01*
X188642461Y-81141405D01*
X188836694Y-81160450D01*
X188836698Y-81160450D01*
X188868681Y-81163600D01*
X191433519Y-81163600D01*
X191461774Y-81160817D01*
X191467901Y-81160860D01*
X191477072Y-81159960D01*
X191671169Y-81139559D01*
X191729758Y-81127532D01*
X191788523Y-81116323D01*
X191797345Y-81113659D01*
X191983783Y-81055947D01*
X192038938Y-81032762D01*
X192094391Y-81010358D01*
X192102527Y-81006032D01*
X192274204Y-80913207D01*
X192323799Y-80879754D01*
X192373853Y-80847000D01*
X192380994Y-80841176D01*
X192531372Y-80716772D01*
X192573511Y-80674337D01*
X192616261Y-80632474D01*
X192622134Y-80625373D01*
X192745484Y-80474131D01*
X192778577Y-80424323D01*
X192812384Y-80374949D01*
X192816767Y-80366843D01*
X192908392Y-80194520D01*
X192931190Y-80139208D01*
X192954752Y-80084234D01*
X192957477Y-80075431D01*
X193013886Y-79888594D01*
X193025505Y-79829914D01*
X193037942Y-79771404D01*
X193038905Y-79762239D01*
X193057950Y-79568006D01*
X193057950Y-79539195D01*
X193061064Y-79510546D01*
X193061096Y-79501331D01*
X193061072Y-79494350D01*
X193058158Y-79465653D01*
X193058360Y-79436799D01*
X193057460Y-79427628D01*
X193037059Y-79233531D01*
X193025034Y-79174948D01*
X193013823Y-79116177D01*
X193011159Y-79107355D01*
X192953447Y-78920917D01*
X192930262Y-78865762D01*
X192907858Y-78810309D01*
X192903532Y-78802173D01*
X192810707Y-78630496D01*
X192777239Y-78580878D01*
X192744500Y-78530847D01*
X192738676Y-78523706D01*
X192614272Y-78373328D01*
X192571837Y-78331189D01*
X192529974Y-78288439D01*
X192522873Y-78282566D01*
X192371631Y-78159216D01*
X192321838Y-78126134D01*
X192272449Y-78092316D01*
X192264343Y-78087933D01*
X192092021Y-77996308D01*
X192036706Y-77973509D01*
X191981734Y-77949948D01*
X191972931Y-77947223D01*
X191786095Y-77890814D01*
X191727407Y-77879194D01*
X191668904Y-77866758D01*
X191659739Y-77865795D01*
X191465505Y-77846750D01*
X191465502Y-77846750D01*
X191433519Y-77843600D01*
X188868681Y-77843600D01*
X188840426Y-77846383D01*
X188834299Y-77846340D01*
X188825128Y-77847240D01*
X188631031Y-77867641D01*
X188572448Y-77879666D01*
X188513677Y-77890877D01*
X188504855Y-77893541D01*
X188318417Y-77951253D01*
X188263262Y-77974438D01*
X188207809Y-77996842D01*
X188199673Y-78001168D01*
X188027996Y-78093993D01*
X187978378Y-78127461D01*
X187928347Y-78160200D01*
X187921206Y-78166024D01*
X187770828Y-78290428D01*
X187728689Y-78332863D01*
X187685939Y-78374726D01*
X187680066Y-78381827D01*
X187556716Y-78533069D01*
X187523634Y-78582862D01*
X187489816Y-78632251D01*
X187485433Y-78640357D01*
X187393808Y-78812679D01*
X187371009Y-78867994D01*
X187347448Y-78922966D01*
X187344723Y-78931769D01*
X187288314Y-79118605D01*
X187276694Y-79177293D01*
X187264258Y-79235796D01*
X187263295Y-79244961D01*
X187244250Y-79439195D01*
X187244250Y-79468005D01*
X187241136Y-79496654D01*
X187241104Y-79505869D01*
X180475976Y-79505869D01*
X180416632Y-79446525D01*
X180173411Y-79284010D01*
X179903158Y-79172068D01*
X179616260Y-79115000D01*
X179323740Y-79115000D01*
X179036842Y-79172068D01*
X178766589Y-79284010D01*
X178523368Y-79446525D01*
X178316525Y-79653368D01*
X178200000Y-79827760D01*
X178083475Y-79653368D01*
X177876632Y-79446525D01*
X177633411Y-79284010D01*
X177363158Y-79172068D01*
X177076260Y-79115000D01*
X176783740Y-79115000D01*
X176496842Y-79172068D01*
X176226589Y-79284010D01*
X175983368Y-79446525D01*
X175776525Y-79653368D01*
X175660000Y-79827760D01*
X175543475Y-79653368D01*
X175336632Y-79446525D01*
X175093411Y-79284010D01*
X174823158Y-79172068D01*
X174536260Y-79115000D01*
X174243740Y-79115000D01*
X173956842Y-79172068D01*
X173686589Y-79284010D01*
X173443368Y-79446525D01*
X173236525Y-79653368D01*
X173120000Y-79827760D01*
X173003475Y-79653368D01*
X172796632Y-79446525D01*
X172553411Y-79284010D01*
X172283158Y-79172068D01*
X171996260Y-79115000D01*
X171703740Y-79115000D01*
X171416842Y-79172068D01*
X171146589Y-79284010D01*
X170903368Y-79446525D01*
X170696525Y-79653368D01*
X170580000Y-79827760D01*
X170463475Y-79653368D01*
X170256632Y-79446525D01*
X170013411Y-79284010D01*
X169743158Y-79172068D01*
X169456260Y-79115000D01*
X169163740Y-79115000D01*
X168876842Y-79172068D01*
X168606589Y-79284010D01*
X168363368Y-79446525D01*
X168156525Y-79653368D01*
X168040000Y-79827760D01*
X167923475Y-79653368D01*
X167716632Y-79446525D01*
X167473411Y-79284010D01*
X167203158Y-79172068D01*
X166916260Y-79115000D01*
X166623740Y-79115000D01*
X166336842Y-79172068D01*
X166066589Y-79284010D01*
X165823368Y-79446525D01*
X165760000Y-79509893D01*
X165760000Y-76398061D01*
X196465000Y-76398061D01*
X196465000Y-76601939D01*
X196504774Y-76801898D01*
X196582795Y-76990256D01*
X196696063Y-77159774D01*
X196840226Y-77303937D01*
X197009744Y-77417205D01*
X197198102Y-77495226D01*
X197398061Y-77535000D01*
X197601939Y-77535000D01*
X197801898Y-77495226D01*
X197990256Y-77417205D01*
X198159774Y-77303937D01*
X198203711Y-77260000D01*
X201796289Y-77260000D01*
X201840226Y-77303937D01*
X202009744Y-77417205D01*
X202198102Y-77495226D01*
X202398061Y-77535000D01*
X202601939Y-77535000D01*
X202801898Y-77495226D01*
X202990256Y-77417205D01*
X203159774Y-77303937D01*
X203303937Y-77159774D01*
X203417205Y-76990256D01*
X203495226Y-76801898D01*
X203535000Y-76601939D01*
X203535000Y-76398061D01*
X203495226Y-76198102D01*
X203417205Y-76009744D01*
X203303937Y-75840226D01*
X203159774Y-75696063D01*
X202990256Y-75582795D01*
X202801898Y-75504774D01*
X202601939Y-75465000D01*
X202398061Y-75465000D01*
X202198102Y-75504774D01*
X202009744Y-75582795D01*
X201840226Y-75696063D01*
X201796289Y-75740000D01*
X198203711Y-75740000D01*
X198159774Y-75696063D01*
X197990256Y-75582795D01*
X197801898Y-75504774D01*
X197601939Y-75465000D01*
X197398061Y-75465000D01*
X197198102Y-75504774D01*
X197009744Y-75582795D01*
X196840226Y-75696063D01*
X196696063Y-75840226D01*
X196582795Y-76009744D01*
X196504774Y-76198102D01*
X196465000Y-76398061D01*
X165760000Y-76398061D01*
X165760000Y-72549801D01*
X169411740Y-68898061D01*
X194465000Y-68898061D01*
X194465000Y-69101939D01*
X194504774Y-69301898D01*
X194582795Y-69490256D01*
X194696063Y-69659774D01*
X194840226Y-69803937D01*
X195009744Y-69917205D01*
X195198102Y-69995226D01*
X195398061Y-70035000D01*
X195601939Y-70035000D01*
X195801898Y-69995226D01*
X195990256Y-69917205D01*
X196159774Y-69803937D01*
X196203711Y-69760000D01*
X200796289Y-69760000D01*
X200840226Y-69803937D01*
X201009744Y-69917205D01*
X201198102Y-69995226D01*
X201398061Y-70035000D01*
X201601939Y-70035000D01*
X201801898Y-69995226D01*
X201990256Y-69917205D01*
X202159774Y-69803937D01*
X202303937Y-69659774D01*
X202417205Y-69490256D01*
X202495226Y-69301898D01*
X202535000Y-69101939D01*
X202535000Y-68898061D01*
X202495226Y-68698102D01*
X202417205Y-68509744D01*
X202303937Y-68340226D01*
X202159774Y-68196063D01*
X201990256Y-68082795D01*
X201801898Y-68004774D01*
X201601939Y-67965000D01*
X201398061Y-67965000D01*
X201198102Y-68004774D01*
X201009744Y-68082795D01*
X200840226Y-68196063D01*
X200796289Y-68240000D01*
X200507538Y-68240000D01*
X200535000Y-68101939D01*
X200535000Y-68035000D01*
X200601939Y-68035000D01*
X200801898Y-67995226D01*
X200990256Y-67917205D01*
X201159774Y-67803937D01*
X201303937Y-67659774D01*
X201417205Y-67490256D01*
X201495226Y-67301898D01*
X201535000Y-67101939D01*
X201535000Y-66898061D01*
X201495226Y-66698102D01*
X201417205Y-66509744D01*
X201303937Y-66340226D01*
X201159774Y-66196063D01*
X200990256Y-66082795D01*
X200801898Y-66004774D01*
X200601939Y-65965000D01*
X200398061Y-65965000D01*
X200198102Y-66004774D01*
X200009744Y-66082795D01*
X199840226Y-66196063D01*
X199796287Y-66240002D01*
X198203711Y-66240002D01*
X198159774Y-66196065D01*
X197990256Y-66082797D01*
X197801898Y-66004776D01*
X197601939Y-65965002D01*
X197398061Y-65965002D01*
X197198102Y-66004776D01*
X197009744Y-66082797D01*
X196840226Y-66196065D01*
X196696063Y-66340228D01*
X196582795Y-66509746D01*
X196504774Y-66698104D01*
X196465000Y-66898063D01*
X196465000Y-66965000D01*
X196398061Y-66965000D01*
X196198102Y-67004774D01*
X196009744Y-67082795D01*
X195840226Y-67196063D01*
X195696063Y-67340226D01*
X195582795Y-67509744D01*
X195504774Y-67698102D01*
X195465000Y-67898061D01*
X195465000Y-67965000D01*
X195398061Y-67965000D01*
X195198102Y-68004774D01*
X195009744Y-68082795D01*
X194840226Y-68196063D01*
X194696063Y-68340226D01*
X194582795Y-68509744D01*
X194504774Y-68698102D01*
X194465000Y-68898061D01*
X169411740Y-68898061D01*
X171483592Y-66826210D01*
X171703740Y-66870000D01*
X171996260Y-66870000D01*
X172283158Y-66812932D01*
X172553411Y-66700990D01*
X172796632Y-66538475D01*
X173003475Y-66331632D01*
X173120000Y-66157240D01*
X173236525Y-66331632D01*
X173443368Y-66538475D01*
X173686589Y-66700990D01*
X173956842Y-66812932D01*
X174243740Y-66870000D01*
X174536260Y-66870000D01*
X174823158Y-66812932D01*
X175093411Y-66700990D01*
X175336632Y-66538475D01*
X175543475Y-66331632D01*
X175660000Y-66157240D01*
X175776525Y-66331632D01*
X175983368Y-66538475D01*
X176226589Y-66700990D01*
X176496842Y-66812932D01*
X176783740Y-66870000D01*
X177076260Y-66870000D01*
X177363158Y-66812932D01*
X177633411Y-66700990D01*
X177876632Y-66538475D01*
X178083475Y-66331632D01*
X178200000Y-66157240D01*
X178316525Y-66331632D01*
X178523368Y-66538475D01*
X178766589Y-66700990D01*
X179036842Y-66812932D01*
X179323740Y-66870000D01*
X179616260Y-66870000D01*
X179903158Y-66812932D01*
X180173411Y-66700990D01*
X180416632Y-66538475D01*
X180623475Y-66331632D01*
X180785990Y-66088411D01*
X180897932Y-65818158D01*
X180955000Y-65531260D01*
X180955000Y-65238740D01*
X180897932Y-64951842D01*
X180785990Y-64681589D01*
X180623475Y-64438368D01*
X180416632Y-64231525D01*
X180173411Y-64069010D01*
X179903158Y-63957068D01*
X179616260Y-63900000D01*
X179323740Y-63900000D01*
X179036842Y-63957068D01*
X178766589Y-64069010D01*
X178523368Y-64231525D01*
X178316525Y-64438368D01*
X178200000Y-64612760D01*
X178083475Y-64438368D01*
X177876632Y-64231525D01*
X177633411Y-64069010D01*
X177363158Y-63957068D01*
X177076260Y-63900000D01*
X176783740Y-63900000D01*
X176496842Y-63957068D01*
X176226589Y-64069010D01*
X175983368Y-64231525D01*
X175776525Y-64438368D01*
X175660000Y-64612760D01*
X175543475Y-64438368D01*
X175336632Y-64231525D01*
X175093411Y-64069010D01*
X174823158Y-63957068D01*
X174536260Y-63900000D01*
X174243740Y-63900000D01*
X173956842Y-63957068D01*
X173686589Y-64069010D01*
X173443368Y-64231525D01*
X173236525Y-64438368D01*
X173120000Y-64612760D01*
X173003475Y-64438368D01*
X172796632Y-64231525D01*
X172553411Y-64069010D01*
X172283158Y-63957068D01*
X171996260Y-63900000D01*
X171703740Y-63900000D01*
X171416842Y-63957068D01*
X171146589Y-64069010D01*
X170903368Y-64231525D01*
X170696525Y-64438368D01*
X170580000Y-64612760D01*
X170463475Y-64438368D01*
X170256632Y-64231525D01*
X170013411Y-64069010D01*
X169743158Y-63957068D01*
X169456260Y-63900000D01*
X169163740Y-63900000D01*
X168876842Y-63957068D01*
X168606589Y-64069010D01*
X168363368Y-64231525D01*
X168156525Y-64438368D01*
X168040000Y-64612760D01*
X167923475Y-64438368D01*
X167716632Y-64231525D01*
X167473411Y-64069010D01*
X167203158Y-63957068D01*
X166916260Y-63900000D01*
X166623740Y-63900000D01*
X166336842Y-63957068D01*
X166066589Y-64069010D01*
X165823368Y-64231525D01*
X165616525Y-64438368D01*
X165454010Y-64681589D01*
X165342068Y-64951842D01*
X165285000Y-65238740D01*
X165285000Y-65531260D01*
X165342068Y-65818158D01*
X165454010Y-66088411D01*
X165616525Y-66331632D01*
X165823368Y-66538475D01*
X166066589Y-66700990D01*
X166336842Y-66812932D01*
X166623740Y-66870000D01*
X166916260Y-66870000D01*
X167203158Y-66812932D01*
X167473411Y-66700990D01*
X167716632Y-66538475D01*
X167923475Y-66331632D01*
X168040000Y-66157240D01*
X168156525Y-66331632D01*
X168363368Y-66538475D01*
X168606589Y-66700990D01*
X168876842Y-66812932D01*
X169163740Y-66870000D01*
X169290198Y-66870000D01*
X164488998Y-71671201D01*
X164460000Y-71694999D01*
X164436202Y-71723997D01*
X164436201Y-71723998D01*
X164365026Y-71810724D01*
X164294454Y-71942754D01*
X164260000Y-72056338D01*
X164260000Y-65493331D01*
X164263677Y-65455998D01*
X164249003Y-65307012D01*
X164205546Y-65163751D01*
X164134974Y-65031722D01*
X164063799Y-64944995D01*
X164040001Y-64915997D01*
X164011003Y-64892199D01*
X162367796Y-63248993D01*
X162343993Y-63219989D01*
X162228268Y-63125016D01*
X162096239Y-63054444D01*
X161952978Y-63010987D01*
X161841325Y-62999990D01*
X161841314Y-62999990D01*
X161803992Y-62996314D01*
X161766670Y-62999990D01*
X155732332Y-62999990D01*
X155695009Y-62996314D01*
X155657686Y-62999990D01*
X155657677Y-62999990D01*
X155546024Y-63010987D01*
X155402763Y-63054444D01*
X155270734Y-63125016D01*
X155155009Y-63219989D01*
X155131211Y-63248987D01*
X154436408Y-63943790D01*
X154216260Y-63900000D01*
X153923740Y-63900000D01*
X153636842Y-63957068D01*
X153366589Y-64069010D01*
X153123368Y-64231525D01*
X152916525Y-64438368D01*
X152800000Y-64612760D01*
X152683475Y-64438368D01*
X152476632Y-64231525D01*
X152233411Y-64069010D01*
X151963158Y-63957068D01*
X151676260Y-63900000D01*
X151383740Y-63900000D01*
X151096842Y-63957068D01*
X150826589Y-64069010D01*
X150583368Y-64231525D01*
X150376525Y-64438368D01*
X150260000Y-64612760D01*
X150143475Y-64438368D01*
X149936632Y-64231525D01*
X149693411Y-64069010D01*
X149423158Y-63957068D01*
X149136260Y-63900000D01*
X148843740Y-63900000D01*
X148556842Y-63957068D01*
X148286589Y-64069010D01*
X148043368Y-64231525D01*
X147836525Y-64438368D01*
X147720000Y-64612760D01*
X147603475Y-64438368D01*
X147396632Y-64231525D01*
X147153411Y-64069010D01*
X146883158Y-63957068D01*
X146596260Y-63900000D01*
X146303740Y-63900000D01*
X146016842Y-63957068D01*
X145746589Y-64069010D01*
X145503368Y-64231525D01*
X145296525Y-64438368D01*
X145180000Y-64612760D01*
X145063475Y-64438368D01*
X144856632Y-64231525D01*
X144613411Y-64069010D01*
X144343158Y-63957068D01*
X144056260Y-63900000D01*
X143763740Y-63900000D01*
X143476842Y-63957068D01*
X143206589Y-64069010D01*
X142963368Y-64231525D01*
X142756525Y-64438368D01*
X142640000Y-64612760D01*
X142523475Y-64438368D01*
X142316632Y-64231525D01*
X142073411Y-64069010D01*
X141803158Y-63957068D01*
X141516260Y-63900000D01*
X141223740Y-63900000D01*
X140936842Y-63957068D01*
X140666589Y-64069010D01*
X140423368Y-64231525D01*
X140216525Y-64438368D01*
X140100000Y-64612760D01*
X139983475Y-64438368D01*
X139776632Y-64231525D01*
X139533411Y-64069010D01*
X139263158Y-63957068D01*
X138976260Y-63900000D01*
X138683740Y-63900000D01*
X138396842Y-63957068D01*
X138126589Y-64069010D01*
X137883368Y-64231525D01*
X137676525Y-64438368D01*
X137560689Y-64611729D01*
X137318397Y-64536208D01*
X136469605Y-65385000D01*
X137318397Y-66233792D01*
X137560689Y-66158271D01*
X137676525Y-66331632D01*
X137883368Y-66538475D01*
X138057760Y-66655000D01*
X137883368Y-66771525D01*
X137676525Y-66978368D01*
X137514010Y-67221589D01*
X137402068Y-67491842D01*
X137345000Y-67778740D01*
X137345000Y-68071260D01*
X137402068Y-68358158D01*
X137514010Y-68628411D01*
X137676525Y-68871632D01*
X137883368Y-69078475D01*
X138126589Y-69240990D01*
X138396842Y-69352932D01*
X138683740Y-69410000D01*
X138976260Y-69410000D01*
X139263158Y-69352932D01*
X139533411Y-69240990D01*
X139776632Y-69078475D01*
X139983475Y-68871632D01*
X140145990Y-68628411D01*
X140257932Y-68358158D01*
X140315000Y-68071260D01*
X140315000Y-67778740D01*
X140257932Y-67491842D01*
X140145990Y-67221589D01*
X139983475Y-66978368D01*
X139776632Y-66771525D01*
X139602240Y-66655000D01*
X139776632Y-66538475D01*
X139983475Y-66331632D01*
X140100000Y-66157240D01*
X140216525Y-66331632D01*
X140423368Y-66538475D01*
X140666589Y-66700990D01*
X140936842Y-66812932D01*
X141223740Y-66870000D01*
X141516260Y-66870000D01*
X141803158Y-66812932D01*
X142073411Y-66700990D01*
X142316632Y-66538475D01*
X142523475Y-66331632D01*
X142640000Y-66157240D01*
X142756525Y-66331632D01*
X142963368Y-66538475D01*
X143206589Y-66700990D01*
X143476842Y-66812932D01*
X143763740Y-66870000D01*
X144056260Y-66870000D01*
X144343158Y-66812932D01*
X144613411Y-66700990D01*
X144856632Y-66538475D01*
X145063475Y-66331632D01*
X145180000Y-66157240D01*
X145296525Y-66331632D01*
X145503368Y-66538475D01*
X145746589Y-66700990D01*
X146016842Y-66812932D01*
X146303740Y-66870000D01*
X146430198Y-66870000D01*
X142224002Y-71076197D01*
X142194998Y-71100000D01*
X142166296Y-71134974D01*
X142100025Y-71215725D01*
X142043622Y-71321247D01*
X142029453Y-71347755D01*
X141985996Y-71491016D01*
X141974999Y-71602669D01*
X141974999Y-71602679D01*
X141971323Y-71640001D01*
X141974999Y-71677323D01*
X141974999Y-79243301D01*
X141877117Y-79196629D01*
X141593589Y-79124661D01*
X141301469Y-79109389D01*
X141011981Y-79151401D01*
X140736253Y-79249081D01*
X140598843Y-79322528D01*
X140521208Y-79571603D01*
X141370000Y-80420395D01*
X141384143Y-80406253D01*
X141563748Y-80585858D01*
X141549605Y-80600000D01*
X141563748Y-80614143D01*
X141384143Y-80793748D01*
X141370000Y-80779605D01*
X140521208Y-81628397D01*
X140598843Y-81877472D01*
X140862883Y-82003371D01*
X141146411Y-82075339D01*
X141438531Y-82090611D01*
X141728019Y-82048599D01*
X141975000Y-81961103D01*
X141975000Y-88061289D01*
X141946063Y-88090226D01*
X141832795Y-88259744D01*
X141754774Y-88448102D01*
X141715000Y-88648061D01*
X141715000Y-88851939D01*
X141754774Y-89051898D01*
X141832795Y-89240256D01*
X141946063Y-89409774D01*
X142090226Y-89553937D01*
X142259744Y-89667205D01*
X142448102Y-89745226D01*
X142648061Y-89785000D01*
X142851939Y-89785000D01*
X143051898Y-89745226D01*
X143240256Y-89667205D01*
X143250569Y-89660314D01*
X135441317Y-97469567D01*
X135418574Y-97460147D01*
X135141335Y-97405000D01*
X134858665Y-97405000D01*
X134581426Y-97460147D01*
X134320273Y-97568320D01*
X134085241Y-97725363D01*
X133885363Y-97925241D01*
X133728320Y-98160273D01*
X133620147Y-98421426D01*
X133565000Y-98698665D01*
X106397000Y-98698665D01*
X106397000Y-98612408D01*
X106366372Y-98458429D01*
X110011004Y-94813798D01*
X110040001Y-94790001D01*
X110082084Y-94738723D01*
X110134974Y-94674277D01*
X110205546Y-94542247D01*
X110231267Y-94457454D01*
X110249003Y-94398986D01*
X110260000Y-94287333D01*
X110260000Y-94287324D01*
X110263676Y-94250001D01*
X110260000Y-94212678D01*
X110260000Y-86203711D01*
X110303937Y-86159774D01*
X110417205Y-85990256D01*
X110495226Y-85801898D01*
X110535000Y-85601939D01*
X110535000Y-85398061D01*
X110495226Y-85198102D01*
X110417205Y-85009744D01*
X110303937Y-84840226D01*
X110159774Y-84696063D01*
X109990256Y-84582795D01*
X109801898Y-84504774D01*
X109601939Y-84465000D01*
X109398061Y-84465000D01*
X109198102Y-84504774D01*
X109009744Y-84582795D01*
X108840226Y-84696063D01*
X108696063Y-84840226D01*
X108582795Y-85009744D01*
X108504774Y-85198102D01*
X108465000Y-85398061D01*
X108465000Y-85601939D01*
X108504774Y-85801898D01*
X108582795Y-85990256D01*
X108696063Y-86159774D01*
X108740001Y-86203712D01*
X108740001Y-86492462D01*
X108601939Y-86465000D01*
X108535000Y-86465000D01*
X108535000Y-86398061D01*
X108495226Y-86198102D01*
X108417205Y-86009744D01*
X108303937Y-85840226D01*
X108159774Y-85696063D01*
X107990256Y-85582795D01*
X107801898Y-85504774D01*
X107601939Y-85465000D01*
X107398061Y-85465000D01*
X107198102Y-85504774D01*
X107009744Y-85582795D01*
X106840226Y-85696063D01*
X106696063Y-85840226D01*
X106582795Y-86009744D01*
X106504774Y-86198102D01*
X106465000Y-86398061D01*
X106465000Y-86601939D01*
X106504774Y-86801898D01*
X106582795Y-86990256D01*
X106696063Y-87159774D01*
X106740001Y-87203712D01*
X106740000Y-92543960D01*
X106221055Y-93062905D01*
X106085120Y-92859465D01*
X105890535Y-92664880D01*
X105661727Y-92511995D01*
X105632769Y-92500000D01*
X105661727Y-92488005D01*
X105890535Y-92335120D01*
X106085120Y-92140535D01*
X106238005Y-91911727D01*
X106343314Y-91657490D01*
X106397000Y-91387592D01*
X106397000Y-91112408D01*
X106343314Y-90842510D01*
X106238005Y-90588273D01*
X106085120Y-90359465D01*
X105890535Y-90164880D01*
X105661727Y-90011995D01*
X105632769Y-90000000D01*
X105661727Y-89988005D01*
X105890535Y-89835120D01*
X106085120Y-89640535D01*
X106238005Y-89411727D01*
X106343314Y-89157490D01*
X106397000Y-88887592D01*
X106397000Y-88612408D01*
X106343314Y-88342510D01*
X106238005Y-88088273D01*
X106085120Y-87859465D01*
X105890535Y-87664880D01*
X105661727Y-87511995D01*
X105632769Y-87500000D01*
X105661727Y-87488005D01*
X105890535Y-87335120D01*
X106085120Y-87140535D01*
X106238005Y-86911727D01*
X106343314Y-86657490D01*
X106397000Y-86387592D01*
X106397000Y-86112408D01*
X106343314Y-85842510D01*
X106238005Y-85588273D01*
X106085120Y-85359465D01*
X105890535Y-85164880D01*
X105661727Y-85011995D01*
X105407490Y-84906686D01*
X105137592Y-84853000D01*
X104862408Y-84853000D01*
X104592510Y-84906686D01*
X104397000Y-84987669D01*
X104397000Y-84862408D01*
X104343314Y-84592510D01*
X104238005Y-84338273D01*
X104085120Y-84109465D01*
X103890535Y-83914880D01*
X103661727Y-83761995D01*
X103407490Y-83656686D01*
X103137592Y-83603000D01*
X102862408Y-83603000D01*
X102592510Y-83656686D01*
X102338273Y-83761995D01*
X102109465Y-83914880D01*
X101914880Y-84109465D01*
X101761995Y-84338273D01*
X101656686Y-84592510D01*
X101603000Y-84862408D01*
X101603000Y-85137592D01*
X101656686Y-85407490D01*
X101761995Y-85661727D01*
X101914880Y-85890535D01*
X102109465Y-86085120D01*
X102338273Y-86238005D01*
X102365401Y-86249242D01*
X102281020Y-86294344D01*
X102214040Y-86534435D01*
X103000000Y-87320395D01*
X103014143Y-87306253D01*
X103193748Y-87485858D01*
X103179605Y-87500000D01*
X103193748Y-87514143D01*
X103014143Y-87693748D01*
X103000000Y-87679605D01*
X102214040Y-88465565D01*
X102281020Y-88705656D01*
X102371533Y-88748218D01*
X102338273Y-88761995D01*
X102109465Y-88914880D01*
X101914880Y-89109465D01*
X101761995Y-89338273D01*
X101656686Y-89592510D01*
X101603000Y-89862408D01*
X101603000Y-90137592D01*
X101656686Y-90407490D01*
X101761995Y-90661727D01*
X101914880Y-90890535D01*
X102109465Y-91085120D01*
X102338273Y-91238005D01*
X102367231Y-91250000D01*
X102338273Y-91261995D01*
X102109465Y-91414880D01*
X101914880Y-91609465D01*
X101761995Y-91838273D01*
X101656686Y-92092510D01*
X101603000Y-92362408D01*
X101603000Y-92637592D01*
X101656686Y-92907490D01*
X101761995Y-93161727D01*
X101914880Y-93390535D01*
X102109465Y-93585120D01*
X102338273Y-93738005D01*
X102367231Y-93750000D01*
X102338273Y-93761995D01*
X102109465Y-93914880D01*
X101914880Y-94109465D01*
X101761995Y-94338273D01*
X101656686Y-94592510D01*
X101603000Y-94862408D01*
X101603000Y-95137592D01*
X101656686Y-95407490D01*
X101761995Y-95661727D01*
X101914880Y-95890535D01*
X102109465Y-96085120D01*
X102338273Y-96238005D01*
X102367231Y-96250000D01*
X102338273Y-96261995D01*
X102109465Y-96414880D01*
X101914880Y-96609465D01*
X101761995Y-96838273D01*
X101656686Y-97092510D01*
X101603000Y-97362408D01*
X101603000Y-97637592D01*
X101656686Y-97907490D01*
X101761995Y-98161727D01*
X101914880Y-98390535D01*
X102109465Y-98585120D01*
X102145292Y-98609059D01*
X102113518Y-98612188D01*
X101993820Y-98648498D01*
X101883506Y-98707463D01*
X101786815Y-98786815D01*
X101707463Y-98883506D01*
X101648498Y-98993820D01*
X101612188Y-99113518D01*
X101599928Y-99238000D01*
X101599928Y-100762000D01*
X101612188Y-100886482D01*
X101648498Y-101006180D01*
X101707463Y-101116494D01*
X101786815Y-101213185D01*
X101883506Y-101292537D01*
X101993820Y-101351502D01*
X102113518Y-101387812D01*
X102238000Y-101400072D01*
X103762000Y-101400072D01*
X103886482Y-101387812D01*
X104006180Y-101351502D01*
X104116494Y-101292537D01*
X104213185Y-101213185D01*
X104292537Y-101116494D01*
X104351502Y-101006180D01*
X104387812Y-100886482D01*
X104400072Y-100762000D01*
X104400072Y-100760000D01*
X106605199Y-100760000D01*
X115360198Y-109515000D01*
X115233740Y-109515000D01*
X114946842Y-109572068D01*
X114676589Y-109684010D01*
X114433368Y-109846525D01*
X114226525Y-110053368D01*
X114110000Y-110227760D01*
X113993475Y-110053368D01*
X113786632Y-109846525D01*
X113543411Y-109684010D01*
X113273158Y-109572068D01*
X112986260Y-109515000D01*
X112693740Y-109515000D01*
X112406842Y-109572068D01*
X112136589Y-109684010D01*
X111893368Y-109846525D01*
X111686525Y-110053368D01*
X111570000Y-110227760D01*
X111453475Y-110053368D01*
X111246632Y-109846525D01*
X111003411Y-109684010D01*
X110733158Y-109572068D01*
X110446260Y-109515000D01*
X110153740Y-109515000D01*
X109866842Y-109572068D01*
X109596589Y-109684010D01*
X109353368Y-109846525D01*
X109146525Y-110053368D01*
X109030000Y-110227760D01*
X108913475Y-110053368D01*
X108706632Y-109846525D01*
X108463411Y-109684010D01*
X108193158Y-109572068D01*
X107906260Y-109515000D01*
X107613740Y-109515000D01*
X107326842Y-109572068D01*
X107056589Y-109684010D01*
X106813368Y-109846525D01*
X106606525Y-110053368D01*
X106490000Y-110227760D01*
X106373475Y-110053368D01*
X106166632Y-109846525D01*
X105923411Y-109684010D01*
X105653158Y-109572068D01*
X105366260Y-109515000D01*
X105073740Y-109515000D01*
X104786842Y-109572068D01*
X104516589Y-109684010D01*
X104273368Y-109846525D01*
X104066525Y-110053368D01*
X103950000Y-110227760D01*
X103833475Y-110053368D01*
X103626632Y-109846525D01*
X103383411Y-109684010D01*
X103113158Y-109572068D01*
X102826260Y-109515000D01*
X102533740Y-109515000D01*
X102246842Y-109572068D01*
X101976589Y-109684010D01*
X101733368Y-109846525D01*
X101526525Y-110053368D01*
X101410000Y-110227760D01*
X101293475Y-110053368D01*
X101086632Y-109846525D01*
X100843411Y-109684010D01*
X100573158Y-109572068D01*
X100286260Y-109515000D01*
X99993740Y-109515000D01*
X99706842Y-109572068D01*
X99436589Y-109684010D01*
X99193368Y-109846525D01*
X98986525Y-110053368D01*
X98824010Y-110296589D01*
X98712068Y-110566842D01*
X98655000Y-110853740D01*
X89561100Y-110853740D01*
X89561100Y-87572017D01*
X101598090Y-87572017D01*
X101639078Y-87844133D01*
X101732364Y-88103023D01*
X101794344Y-88218980D01*
X102034435Y-88285960D01*
X102820395Y-87500000D01*
X102034435Y-86714040D01*
X101794344Y-86781020D01*
X101677244Y-87030048D01*
X101610977Y-87297135D01*
X101598090Y-87572017D01*
X89561100Y-87572017D01*
X89561100Y-79505869D01*
X106741104Y-79505869D01*
X106741128Y-79512850D01*
X106744042Y-79541547D01*
X106743840Y-79570401D01*
X106744740Y-79579572D01*
X106765141Y-79773669D01*
X106777168Y-79832258D01*
X106788377Y-79891023D01*
X106791041Y-79899845D01*
X106848753Y-80086283D01*
X106871938Y-80141438D01*
X106894342Y-80196891D01*
X106898668Y-80205027D01*
X106991493Y-80376704D01*
X107024946Y-80426299D01*
X107057700Y-80476353D01*
X107063524Y-80483494D01*
X107187928Y-80633872D01*
X107230363Y-80676011D01*
X107272226Y-80718761D01*
X107279327Y-80724634D01*
X107430569Y-80847984D01*
X107480377Y-80881077D01*
X107529751Y-80914884D01*
X107537857Y-80919267D01*
X107710180Y-81010892D01*
X107765492Y-81033690D01*
X107820466Y-81057252D01*
X107829269Y-81059977D01*
X108016106Y-81116386D01*
X108074786Y-81128005D01*
X108133296Y-81140442D01*
X108142461Y-81141405D01*
X108336694Y-81160450D01*
X108336698Y-81160450D01*
X108368681Y-81163600D01*
X110933519Y-81163600D01*
X110961774Y-81160817D01*
X110967901Y-81160860D01*
X110977072Y-81159960D01*
X111171169Y-81139559D01*
X111229758Y-81127532D01*
X111288523Y-81116323D01*
X111297345Y-81113659D01*
X111483783Y-81055947D01*
X111538938Y-81032762D01*
X111594391Y-81010358D01*
X111602527Y-81006032D01*
X111774204Y-80913207D01*
X111823799Y-80879754D01*
X111873853Y-80847000D01*
X111880994Y-80841176D01*
X112031372Y-80716772D01*
X112073511Y-80674337D01*
X112116261Y-80632474D01*
X112122134Y-80625373D01*
X112245484Y-80474131D01*
X112278577Y-80424323D01*
X112312384Y-80374949D01*
X112316767Y-80366843D01*
X112408392Y-80194520D01*
X112431190Y-80139208D01*
X112454752Y-80084234D01*
X112457477Y-80075431D01*
X112513886Y-79888594D01*
X112525505Y-79829914D01*
X112527715Y-79819517D01*
X129190200Y-79819517D01*
X129190200Y-80161283D01*
X129256875Y-80496481D01*
X129387663Y-80812231D01*
X129577537Y-81096398D01*
X129819202Y-81338063D01*
X130103369Y-81527937D01*
X130419119Y-81658725D01*
X130754317Y-81725400D01*
X131096083Y-81725400D01*
X131431281Y-81658725D01*
X131747031Y-81527937D01*
X132031198Y-81338063D01*
X132272863Y-81096398D01*
X132320474Y-81025143D01*
X132322068Y-81033158D01*
X132434010Y-81303411D01*
X132596525Y-81546632D01*
X132803368Y-81753475D01*
X133046589Y-81915990D01*
X133316842Y-82027932D01*
X133603740Y-82085000D01*
X133896260Y-82085000D01*
X134183158Y-82027932D01*
X134453411Y-81915990D01*
X134696632Y-81753475D01*
X134903475Y-81546632D01*
X135020000Y-81372240D01*
X135136525Y-81546632D01*
X135343368Y-81753475D01*
X135586589Y-81915990D01*
X135856842Y-82027932D01*
X136143740Y-82085000D01*
X136436260Y-82085000D01*
X136723158Y-82027932D01*
X136993411Y-81915990D01*
X137236632Y-81753475D01*
X137361710Y-81628397D01*
X137981208Y-81628397D01*
X138058843Y-81877472D01*
X138322883Y-82003371D01*
X138606411Y-82075339D01*
X138898531Y-82090611D01*
X139188019Y-82048599D01*
X139463747Y-81950919D01*
X139601157Y-81877472D01*
X139678792Y-81628397D01*
X138830000Y-80779605D01*
X137981208Y-81628397D01*
X137361710Y-81628397D01*
X137443475Y-81546632D01*
X137559311Y-81373271D01*
X137801603Y-81448792D01*
X138650395Y-80600000D01*
X139009605Y-80600000D01*
X139858397Y-81448792D01*
X140100000Y-81373486D01*
X140341603Y-81448792D01*
X141190395Y-80600000D01*
X140341603Y-79751208D01*
X140100000Y-79826514D01*
X139858397Y-79751208D01*
X139009605Y-80600000D01*
X138650395Y-80600000D01*
X137801603Y-79751208D01*
X137559311Y-79826729D01*
X137443475Y-79653368D01*
X137236632Y-79446525D01*
X136993411Y-79284010D01*
X136723158Y-79172068D01*
X136436260Y-79115000D01*
X136143740Y-79115000D01*
X135856842Y-79172068D01*
X135586589Y-79284010D01*
X135343368Y-79446525D01*
X135136525Y-79653368D01*
X135020000Y-79827760D01*
X134903475Y-79653368D01*
X134696632Y-79446525D01*
X134453411Y-79284010D01*
X134183158Y-79172068D01*
X133896260Y-79115000D01*
X133603740Y-79115000D01*
X133316842Y-79172068D01*
X133046589Y-79284010D01*
X132803368Y-79446525D01*
X132622070Y-79627823D01*
X132593525Y-79484319D01*
X132462737Y-79168569D01*
X132272863Y-78884402D01*
X132031198Y-78642737D01*
X131747031Y-78452863D01*
X131431281Y-78322075D01*
X131096083Y-78255400D01*
X130754317Y-78255400D01*
X130419119Y-78322075D01*
X130103369Y-78452863D01*
X129819202Y-78642737D01*
X129577537Y-78884402D01*
X129387663Y-79168569D01*
X129256875Y-79484319D01*
X129190200Y-79819517D01*
X112527715Y-79819517D01*
X112537942Y-79771404D01*
X112538905Y-79762239D01*
X112557950Y-79568006D01*
X112557950Y-79539195D01*
X112561064Y-79510546D01*
X112561096Y-79501331D01*
X112561072Y-79494350D01*
X112558158Y-79465653D01*
X112558360Y-79436799D01*
X112557460Y-79427628D01*
X112537059Y-79233531D01*
X112525034Y-79174948D01*
X112513823Y-79116177D01*
X112511159Y-79107355D01*
X112453447Y-78920917D01*
X112430262Y-78865762D01*
X112407858Y-78810309D01*
X112403532Y-78802173D01*
X112310707Y-78630496D01*
X112277239Y-78580878D01*
X112244500Y-78530847D01*
X112238676Y-78523706D01*
X112114272Y-78373328D01*
X112071837Y-78331189D01*
X112029974Y-78288439D01*
X112022873Y-78282566D01*
X111871631Y-78159216D01*
X111821838Y-78126134D01*
X111772449Y-78092316D01*
X111764343Y-78087933D01*
X111592021Y-77996308D01*
X111536706Y-77973509D01*
X111481734Y-77949948D01*
X111472931Y-77947223D01*
X111286095Y-77890814D01*
X111227407Y-77879194D01*
X111168904Y-77866758D01*
X111159739Y-77865795D01*
X110965505Y-77846750D01*
X110965502Y-77846750D01*
X110933519Y-77843600D01*
X108368681Y-77843600D01*
X108340426Y-77846383D01*
X108334299Y-77846340D01*
X108325128Y-77847240D01*
X108131031Y-77867641D01*
X108072448Y-77879666D01*
X108013677Y-77890877D01*
X108004855Y-77893541D01*
X107818417Y-77951253D01*
X107763262Y-77974438D01*
X107707809Y-77996842D01*
X107699673Y-78001168D01*
X107527996Y-78093993D01*
X107478378Y-78127461D01*
X107428347Y-78160200D01*
X107421206Y-78166024D01*
X107270828Y-78290428D01*
X107228689Y-78332863D01*
X107185939Y-78374726D01*
X107180066Y-78381827D01*
X107056716Y-78533069D01*
X107023634Y-78582862D01*
X106989816Y-78632251D01*
X106985433Y-78640357D01*
X106893808Y-78812679D01*
X106871009Y-78867994D01*
X106847448Y-78922966D01*
X106844723Y-78931769D01*
X106788314Y-79118605D01*
X106776694Y-79177293D01*
X106764258Y-79235796D01*
X106763295Y-79244961D01*
X106744250Y-79439195D01*
X106744250Y-79468005D01*
X106741136Y-79496654D01*
X106741104Y-79505869D01*
X89561100Y-79505869D01*
X89561100Y-76398061D01*
X94965000Y-76398061D01*
X94965000Y-76601939D01*
X95004774Y-76801898D01*
X95082795Y-76990256D01*
X95196063Y-77159774D01*
X95340226Y-77303937D01*
X95509744Y-77417205D01*
X95698102Y-77495226D01*
X95898061Y-77535000D01*
X96101939Y-77535000D01*
X96301898Y-77495226D01*
X96490256Y-77417205D01*
X96659774Y-77303937D01*
X96703711Y-77260000D01*
X97992462Y-77260000D01*
X97965000Y-77398061D01*
X97965000Y-77601939D01*
X98004774Y-77801898D01*
X98082795Y-77990256D01*
X98196063Y-78159774D01*
X98340226Y-78303937D01*
X98509744Y-78417205D01*
X98698102Y-78495226D01*
X98898061Y-78535000D01*
X99101939Y-78535000D01*
X99301898Y-78495226D01*
X99490256Y-78417205D01*
X99659774Y-78303937D01*
X99703711Y-78260000D01*
X105296289Y-78260000D01*
X105340226Y-78303937D01*
X105509744Y-78417205D01*
X105698102Y-78495226D01*
X105898061Y-78535000D01*
X106101939Y-78535000D01*
X106301898Y-78495226D01*
X106490256Y-78417205D01*
X106659774Y-78303937D01*
X106803937Y-78159774D01*
X106917205Y-77990256D01*
X106995226Y-77801898D01*
X107035000Y-77601939D01*
X107035000Y-77398061D01*
X107033112Y-77388570D01*
X107159774Y-77303937D01*
X107303937Y-77159774D01*
X107417205Y-76990256D01*
X107495226Y-76801898D01*
X107535000Y-76601939D01*
X107535000Y-76398061D01*
X107533112Y-76388570D01*
X107659774Y-76303937D01*
X107803937Y-76159774D01*
X107917205Y-75990256D01*
X107995226Y-75801898D01*
X108035000Y-75601939D01*
X108035000Y-75398061D01*
X107995226Y-75198102D01*
X107917205Y-75009744D01*
X107803937Y-74840226D01*
X107659774Y-74696063D01*
X107490256Y-74582795D01*
X107301898Y-74504774D01*
X107101939Y-74465000D01*
X106898061Y-74465000D01*
X106698102Y-74504774D01*
X106509744Y-74582795D01*
X106340226Y-74696063D01*
X106296289Y-74740000D01*
X106007538Y-74740000D01*
X106035000Y-74601939D01*
X106035000Y-74398061D01*
X105995226Y-74198102D01*
X105917205Y-74009744D01*
X105803937Y-73840226D01*
X105659774Y-73696063D01*
X105490256Y-73582795D01*
X105301898Y-73504774D01*
X105101939Y-73465000D01*
X104898061Y-73465000D01*
X104698102Y-73504774D01*
X104509744Y-73582795D01*
X104340226Y-73696063D01*
X104296289Y-73740000D01*
X97703711Y-73740000D01*
X97659774Y-73696063D01*
X97490256Y-73582795D01*
X97301898Y-73504774D01*
X97101939Y-73465000D01*
X96898061Y-73465000D01*
X96698102Y-73504774D01*
X96509744Y-73582795D01*
X96340226Y-73696063D01*
X96196063Y-73840226D01*
X96082795Y-74009744D01*
X96004774Y-74198102D01*
X95965000Y-74398061D01*
X95965000Y-74601939D01*
X96004774Y-74801898D01*
X96082795Y-74990256D01*
X96196063Y-75159774D01*
X96340226Y-75303937D01*
X96509744Y-75417205D01*
X96698102Y-75495226D01*
X96898061Y-75535000D01*
X97101939Y-75535000D01*
X97301898Y-75495226D01*
X97490256Y-75417205D01*
X97659774Y-75303937D01*
X97703711Y-75260000D01*
X100888155Y-75260000D01*
X100877999Y-75311056D01*
X100877999Y-75514934D01*
X100917773Y-75714893D01*
X100928173Y-75740000D01*
X96703711Y-75740000D01*
X96659774Y-75696063D01*
X96490256Y-75582795D01*
X96301898Y-75504774D01*
X96101939Y-75465000D01*
X95898061Y-75465000D01*
X95698102Y-75504774D01*
X95509744Y-75582795D01*
X95340226Y-75696063D01*
X95196063Y-75840226D01*
X95082795Y-76009744D01*
X95004774Y-76198102D01*
X94965000Y-76398061D01*
X89561100Y-76398061D01*
X89561100Y-72833740D01*
X137345000Y-72833740D01*
X137345000Y-73126260D01*
X137402068Y-73413158D01*
X137514010Y-73683411D01*
X137676525Y-73926632D01*
X137883368Y-74133475D01*
X138057760Y-74250000D01*
X137883368Y-74366525D01*
X137676525Y-74573368D01*
X137514010Y-74816589D01*
X137402068Y-75086842D01*
X137345000Y-75373740D01*
X137345000Y-75666260D01*
X137402068Y-75953158D01*
X137514010Y-76223411D01*
X137676525Y-76466632D01*
X137883368Y-76673475D01*
X138057760Y-76790000D01*
X137883368Y-76906525D01*
X137676525Y-77113368D01*
X137514010Y-77356589D01*
X137402068Y-77626842D01*
X137345000Y-77913740D01*
X137345000Y-78206260D01*
X137402068Y-78493158D01*
X137514010Y-78763411D01*
X137676525Y-79006632D01*
X137883368Y-79213475D01*
X138056729Y-79329311D01*
X137981208Y-79571603D01*
X138830000Y-80420395D01*
X139678792Y-79571603D01*
X139603271Y-79329311D01*
X139776632Y-79213475D01*
X139983475Y-79006632D01*
X140145990Y-78763411D01*
X140257932Y-78493158D01*
X140315000Y-78206260D01*
X140315000Y-77913740D01*
X140257932Y-77626842D01*
X140145990Y-77356589D01*
X139983475Y-77113368D01*
X139776632Y-76906525D01*
X139602240Y-76790000D01*
X139776632Y-76673475D01*
X139983475Y-76466632D01*
X140145990Y-76223411D01*
X140257932Y-75953158D01*
X140315000Y-75666260D01*
X140315000Y-75373740D01*
X140257932Y-75086842D01*
X140145990Y-74816589D01*
X139983475Y-74573368D01*
X139776632Y-74366525D01*
X139602240Y-74250000D01*
X139776632Y-74133475D01*
X139983475Y-73926632D01*
X140145990Y-73683411D01*
X140257932Y-73413158D01*
X140315000Y-73126260D01*
X140315000Y-72833740D01*
X140257932Y-72546842D01*
X140145990Y-72276589D01*
X139983475Y-72033368D01*
X139776632Y-71826525D01*
X139533411Y-71664010D01*
X139263158Y-71552068D01*
X138976260Y-71495000D01*
X138683740Y-71495000D01*
X138396842Y-71552068D01*
X138126589Y-71664010D01*
X137883368Y-71826525D01*
X137676525Y-72033368D01*
X137514010Y-72276589D01*
X137402068Y-72546842D01*
X137345000Y-72833740D01*
X89561100Y-72833740D01*
X89561100Y-70398061D01*
X98965000Y-70398061D01*
X98965000Y-70601939D01*
X99004774Y-70801898D01*
X99082795Y-70990256D01*
X99196063Y-71159774D01*
X99340226Y-71303937D01*
X99509744Y-71417205D01*
X99698102Y-71495226D01*
X99898061Y-71535000D01*
X100101939Y-71535000D01*
X100301898Y-71495226D01*
X100490256Y-71417205D01*
X100659774Y-71303937D01*
X100703711Y-71260000D01*
X102296289Y-71260000D01*
X102340226Y-71303937D01*
X102509744Y-71417205D01*
X102698102Y-71495226D01*
X102898061Y-71535000D01*
X103101939Y-71535000D01*
X103301898Y-71495226D01*
X103490256Y-71417205D01*
X103659774Y-71303937D01*
X103803937Y-71159774D01*
X103917205Y-70990256D01*
X103995226Y-70801898D01*
X104035000Y-70601939D01*
X104035000Y-70398061D01*
X103995226Y-70198102D01*
X103917205Y-70009744D01*
X103803937Y-69840226D01*
X103659774Y-69696063D01*
X103490256Y-69582795D01*
X103301898Y-69504774D01*
X103277896Y-69500000D01*
X103301896Y-69495226D01*
X103490254Y-69417205D01*
X103659772Y-69303937D01*
X103803935Y-69159774D01*
X103917203Y-68990256D01*
X103995224Y-68801898D01*
X104034998Y-68601939D01*
X104034998Y-68398061D01*
X103995224Y-68198102D01*
X103917203Y-68009744D01*
X103803935Y-67840226D01*
X103659772Y-67696063D01*
X103490254Y-67582795D01*
X103301896Y-67504774D01*
X103101937Y-67465000D01*
X102898059Y-67465000D01*
X102698100Y-67504774D01*
X102509742Y-67582795D01*
X102340224Y-67696063D01*
X102296287Y-67740000D01*
X101703711Y-67740000D01*
X101659774Y-67696063D01*
X101490256Y-67582795D01*
X101301898Y-67504774D01*
X101101939Y-67465000D01*
X100898061Y-67465000D01*
X100698102Y-67504774D01*
X100509744Y-67582795D01*
X100340226Y-67696063D01*
X100196063Y-67840226D01*
X100082795Y-68009744D01*
X100004774Y-68198102D01*
X99965000Y-68398061D01*
X99965000Y-68601939D01*
X100004774Y-68801898D01*
X100082795Y-68990256D01*
X100196063Y-69159774D01*
X100340226Y-69303937D01*
X100509744Y-69417205D01*
X100698102Y-69495226D01*
X100898061Y-69535000D01*
X101101939Y-69535000D01*
X101301898Y-69495226D01*
X101490256Y-69417205D01*
X101659774Y-69303937D01*
X101703711Y-69260000D01*
X102296287Y-69260000D01*
X102340224Y-69303937D01*
X102509742Y-69417205D01*
X102698100Y-69495226D01*
X102722102Y-69500000D01*
X102698102Y-69504774D01*
X102509744Y-69582795D01*
X102340226Y-69696063D01*
X102296289Y-69740000D01*
X100703711Y-69740000D01*
X100659774Y-69696063D01*
X100490256Y-69582795D01*
X100301898Y-69504774D01*
X100101939Y-69465000D01*
X99898061Y-69465000D01*
X99698102Y-69504774D01*
X99509744Y-69582795D01*
X99340226Y-69696063D01*
X99196063Y-69840226D01*
X99082795Y-70009744D01*
X99004774Y-70198102D01*
X98965000Y-70398061D01*
X89561100Y-70398061D01*
X89561100Y-65824117D01*
X129190200Y-65824117D01*
X129190200Y-66165883D01*
X129256875Y-66501081D01*
X129387663Y-66816831D01*
X129577537Y-67100998D01*
X129819202Y-67342663D01*
X130103369Y-67532537D01*
X130419119Y-67663325D01*
X130754317Y-67730000D01*
X131096083Y-67730000D01*
X131431281Y-67663325D01*
X131747031Y-67532537D01*
X132031198Y-67342663D01*
X132272863Y-67100998D01*
X132462737Y-66816831D01*
X132593525Y-66501081D01*
X132622136Y-66357243D01*
X132803368Y-66538475D01*
X133046589Y-66700990D01*
X133316842Y-66812932D01*
X133603740Y-66870000D01*
X133896260Y-66870000D01*
X134183158Y-66812932D01*
X134453411Y-66700990D01*
X134696632Y-66538475D01*
X134821710Y-66413397D01*
X135441208Y-66413397D01*
X135518843Y-66662472D01*
X135782883Y-66788371D01*
X136066411Y-66860339D01*
X136358531Y-66875611D01*
X136648019Y-66833599D01*
X136923747Y-66735919D01*
X137061157Y-66662472D01*
X137138792Y-66413397D01*
X136290000Y-65564605D01*
X135441208Y-66413397D01*
X134821710Y-66413397D01*
X134903475Y-66331632D01*
X135019311Y-66158271D01*
X135261603Y-66233792D01*
X136110395Y-65385000D01*
X135261603Y-64536208D01*
X135019311Y-64611729D01*
X134903475Y-64438368D01*
X134821710Y-64356603D01*
X135441208Y-64356603D01*
X136290000Y-65205395D01*
X137138792Y-64356603D01*
X137061157Y-64107528D01*
X136797117Y-63981629D01*
X136513589Y-63909661D01*
X136221469Y-63894389D01*
X135931981Y-63936401D01*
X135656253Y-64034081D01*
X135518843Y-64107528D01*
X135441208Y-64356603D01*
X134821710Y-64356603D01*
X134696632Y-64231525D01*
X134453411Y-64069010D01*
X134183158Y-63957068D01*
X133896260Y-63900000D01*
X133603740Y-63900000D01*
X133316842Y-63957068D01*
X133046589Y-64069010D01*
X132803368Y-64231525D01*
X132596525Y-64438368D01*
X132434010Y-64681589D01*
X132322068Y-64951842D01*
X132320412Y-64960165D01*
X132272863Y-64889002D01*
X132031198Y-64647337D01*
X131747031Y-64457463D01*
X131431281Y-64326675D01*
X131096083Y-64260000D01*
X130754317Y-64260000D01*
X130419119Y-64326675D01*
X130103369Y-64457463D01*
X129819202Y-64647337D01*
X129577537Y-64889002D01*
X129387663Y-65173169D01*
X129256875Y-65488919D01*
X129190200Y-65824117D01*
X89561100Y-65824117D01*
X89561100Y-61378363D01*
X195265000Y-61378363D01*
X195265000Y-61621637D01*
X195312460Y-61860236D01*
X195405557Y-62084992D01*
X195540713Y-62287267D01*
X195712733Y-62459287D01*
X195915008Y-62594443D01*
X196139764Y-62687540D01*
X196378363Y-62735000D01*
X196621637Y-62735000D01*
X196860236Y-62687540D01*
X197084992Y-62594443D01*
X197287267Y-62459287D01*
X197361554Y-62385000D01*
X203638446Y-62385000D01*
X203712733Y-62459287D01*
X203915008Y-62594443D01*
X204139764Y-62687540D01*
X204378363Y-62735000D01*
X204621637Y-62735000D01*
X204860236Y-62687540D01*
X205084992Y-62594443D01*
X205287267Y-62459287D01*
X205459287Y-62287267D01*
X205594443Y-62084992D01*
X205687540Y-61860236D01*
X205735000Y-61621637D01*
X205735000Y-61378363D01*
X205687540Y-61139764D01*
X205594443Y-60915008D01*
X205459287Y-60712733D01*
X205287267Y-60540713D01*
X205084992Y-60405557D01*
X204860236Y-60312460D01*
X204621637Y-60265000D01*
X204378363Y-60265000D01*
X204139764Y-60312460D01*
X203915008Y-60405557D01*
X203712733Y-60540713D01*
X203638446Y-60615000D01*
X197361554Y-60615000D01*
X197287267Y-60540713D01*
X197084992Y-60405557D01*
X196860236Y-60312460D01*
X196621637Y-60265000D01*
X196378363Y-60265000D01*
X196139764Y-60312460D01*
X195915008Y-60405557D01*
X195712733Y-60540713D01*
X195540713Y-60712733D01*
X195405557Y-60915008D01*
X195312460Y-61139764D01*
X195265000Y-61378363D01*
X89561100Y-61378363D01*
X89561100Y-55470288D01*
X145700128Y-55470288D01*
X145700128Y-56289712D01*
X145859989Y-57093390D01*
X146173569Y-57850438D01*
X146628816Y-58531764D01*
X147208236Y-59111184D01*
X147889562Y-59566431D01*
X148646610Y-59880011D01*
X149450288Y-60039872D01*
X150269712Y-60039872D01*
X151073390Y-59880011D01*
X151830438Y-59566431D01*
X152511764Y-59111184D01*
X153091184Y-58531764D01*
X153546431Y-57850438D01*
X153860011Y-57093390D01*
X154019872Y-56289712D01*
X154019872Y-55470288D01*
X153860011Y-54666610D01*
X153546431Y-53909562D01*
X153091184Y-53228236D01*
X152511764Y-52648816D01*
X151830438Y-52193569D01*
X151073390Y-51879989D01*
X150269712Y-51720128D01*
X149450288Y-51720128D01*
X148646610Y-51879989D01*
X147889562Y-52193569D01*
X147208236Y-52648816D01*
X146628816Y-53228236D01*
X146173569Y-53909562D01*
X145859989Y-54666610D01*
X145700128Y-55470288D01*
X89561100Y-55470288D01*
X89561100Y-39087001D01*
X104149323Y-39087001D01*
X104153000Y-39124333D01*
X104152999Y-44375676D01*
X104149323Y-44412999D01*
X104152999Y-44450321D01*
X104152999Y-44450331D01*
X104163996Y-44561984D01*
X104192967Y-44657490D01*
X104207453Y-44705245D01*
X104278025Y-44837275D01*
X104300800Y-44865026D01*
X104372998Y-44953000D01*
X104402001Y-44976803D01*
X104633628Y-45208429D01*
X104603000Y-45362408D01*
X104603000Y-45637592D01*
X104656686Y-45907490D01*
X104761995Y-46161727D01*
X104914880Y-46390535D01*
X105109465Y-46585120D01*
X105338273Y-46738005D01*
X105367231Y-46750000D01*
X105338273Y-46761995D01*
X105109465Y-46914880D01*
X104914880Y-47109465D01*
X104761995Y-47338273D01*
X104656686Y-47592510D01*
X104603000Y-47862408D01*
X104603000Y-48137592D01*
X104656686Y-48407490D01*
X104761995Y-48661727D01*
X104914880Y-48890535D01*
X105109465Y-49085120D01*
X105338273Y-49238005D01*
X105367231Y-49250000D01*
X105338273Y-49261995D01*
X105109465Y-49414880D01*
X104914880Y-49609465D01*
X104761995Y-49838273D01*
X104656686Y-50092510D01*
X104603000Y-50362408D01*
X104603000Y-50637592D01*
X104656686Y-50907490D01*
X104761995Y-51161727D01*
X104914880Y-51390535D01*
X105109465Y-51585120D01*
X105145292Y-51609059D01*
X105113518Y-51612188D01*
X104993820Y-51648498D01*
X104883506Y-51707463D01*
X104786815Y-51786815D01*
X104707463Y-51883506D01*
X104648498Y-51993820D01*
X104612188Y-52113518D01*
X104599928Y-52238000D01*
X104599928Y-53762000D01*
X104612188Y-53886482D01*
X104648498Y-54006180D01*
X104707463Y-54116494D01*
X104786815Y-54213185D01*
X104883506Y-54292537D01*
X104993820Y-54351502D01*
X105113518Y-54387812D01*
X105238000Y-54400072D01*
X106762000Y-54400072D01*
X106886482Y-54387812D01*
X107006180Y-54351502D01*
X107116494Y-54292537D01*
X107213185Y-54213185D01*
X107292537Y-54116494D01*
X107351502Y-54006180D01*
X107387812Y-53886482D01*
X107400072Y-53762000D01*
X107400072Y-53013603D01*
X107592510Y-53093314D01*
X107862408Y-53147000D01*
X108137592Y-53147000D01*
X108407490Y-53093314D01*
X108661727Y-52988005D01*
X108890535Y-52835120D01*
X109085120Y-52640535D01*
X109238005Y-52411727D01*
X109343314Y-52157490D01*
X109397000Y-51887592D01*
X109397000Y-51612408D01*
X109343314Y-51342510D01*
X109238005Y-51088273D01*
X109085120Y-50859465D01*
X109079609Y-50853954D01*
X109598010Y-50335555D01*
X109627002Y-50311762D01*
X109650796Y-50282769D01*
X109650800Y-50282765D01*
X109721974Y-50196038D01*
X109721975Y-50196037D01*
X109792547Y-50064008D01*
X109836004Y-49920747D01*
X109847001Y-49809094D01*
X109847001Y-49809085D01*
X109850677Y-49771762D01*
X109847001Y-49734439D01*
X109847001Y-47874334D01*
X109850678Y-47837001D01*
X109836004Y-47688015D01*
X109792547Y-47544754D01*
X109721975Y-47412725D01*
X109650800Y-47325998D01*
X109627002Y-47297000D01*
X109598004Y-47273202D01*
X109366372Y-47041570D01*
X109397000Y-46887592D01*
X109397000Y-46612408D01*
X109366372Y-46458430D01*
X109598004Y-46226798D01*
X109627002Y-46203000D01*
X109721975Y-46087275D01*
X109792547Y-45955246D01*
X109836004Y-45811985D01*
X109847001Y-45700332D01*
X109850678Y-45662999D01*
X109847001Y-45625666D01*
X109847001Y-41228239D01*
X190149323Y-41228239D01*
X190152999Y-41265562D01*
X190153000Y-43125667D01*
X190149323Y-43162999D01*
X190153000Y-43200332D01*
X190158976Y-43261001D01*
X190163997Y-43311984D01*
X190207453Y-43455245D01*
X190278025Y-43587275D01*
X190340178Y-43663008D01*
X190372999Y-43703000D01*
X190401997Y-43726798D01*
X190633628Y-43958429D01*
X190603000Y-44112408D01*
X190603000Y-44387592D01*
X190633628Y-44541571D01*
X190402001Y-44773197D01*
X190372998Y-44797000D01*
X190317870Y-44864175D01*
X190278025Y-44912725D01*
X190215208Y-45030247D01*
X190207453Y-45044755D01*
X190163996Y-45188016D01*
X190152999Y-45299669D01*
X190152999Y-45299679D01*
X190149323Y-45337001D01*
X190152999Y-45374324D01*
X190153000Y-48125667D01*
X190149323Y-48162999D01*
X190163997Y-48311984D01*
X190207453Y-48455245D01*
X190278025Y-48587275D01*
X190339127Y-48661727D01*
X190372999Y-48703000D01*
X190401997Y-48726798D01*
X190633628Y-48958429D01*
X190603000Y-49112408D01*
X190603000Y-49387592D01*
X190656686Y-49657490D01*
X190761995Y-49911727D01*
X190914880Y-50140535D01*
X191109465Y-50335120D01*
X191338273Y-50488005D01*
X191367231Y-50500000D01*
X191338273Y-50511995D01*
X191109465Y-50664880D01*
X190914880Y-50859465D01*
X190761995Y-51088273D01*
X190656686Y-51342510D01*
X190603000Y-51612408D01*
X190603000Y-51887592D01*
X190656686Y-52157490D01*
X190761995Y-52411727D01*
X190914880Y-52640535D01*
X191109465Y-52835120D01*
X191338273Y-52988005D01*
X191592510Y-53093314D01*
X191862408Y-53147000D01*
X192137592Y-53147000D01*
X192407490Y-53093314D01*
X192603000Y-53012331D01*
X192603000Y-53137592D01*
X192656686Y-53407490D01*
X192761995Y-53661727D01*
X192914880Y-53890535D01*
X193109465Y-54085120D01*
X193338273Y-54238005D01*
X193592510Y-54343314D01*
X193862408Y-54397000D01*
X194137592Y-54397000D01*
X194407490Y-54343314D01*
X194661727Y-54238005D01*
X194890535Y-54085120D01*
X195085120Y-53890535D01*
X195238005Y-53661727D01*
X195343314Y-53407490D01*
X195397000Y-53137592D01*
X195397000Y-52862408D01*
X195343314Y-52592510D01*
X195238005Y-52338273D01*
X195085120Y-52109465D01*
X194890535Y-51914880D01*
X194661727Y-51761995D01*
X194632769Y-51750000D01*
X194661727Y-51738005D01*
X194890535Y-51585120D01*
X195085120Y-51390535D01*
X195238005Y-51161727D01*
X195343314Y-50907490D01*
X195397000Y-50637592D01*
X195397000Y-50362408D01*
X195366372Y-50208430D01*
X195598004Y-49976798D01*
X195627002Y-49953000D01*
X195721975Y-49837275D01*
X195792547Y-49705246D01*
X195836004Y-49561985D01*
X195847001Y-49450332D01*
X195850678Y-49412999D01*
X195847001Y-49375666D01*
X195847001Y-46624334D01*
X195850678Y-46587001D01*
X195836004Y-46438015D01*
X195792547Y-46294754D01*
X195721975Y-46162725D01*
X195650800Y-46075998D01*
X195627002Y-46047000D01*
X195598005Y-46023203D01*
X195366372Y-45791570D01*
X195397000Y-45637592D01*
X195397000Y-45362408D01*
X195343314Y-45092510D01*
X195238005Y-44838273D01*
X195085120Y-44609465D01*
X194890535Y-44414880D01*
X194661727Y-44261995D01*
X194632769Y-44250000D01*
X194661727Y-44238005D01*
X194890535Y-44085120D01*
X195085120Y-43890535D01*
X195238005Y-43661727D01*
X195343314Y-43407490D01*
X195397000Y-43137592D01*
X195397000Y-42862408D01*
X195343314Y-42592510D01*
X195238005Y-42338273D01*
X195085120Y-42109465D01*
X194890535Y-41914880D01*
X194661727Y-41761995D01*
X194632769Y-41750000D01*
X194661727Y-41738005D01*
X194890535Y-41585120D01*
X195085120Y-41390535D01*
X195238005Y-41161727D01*
X195343314Y-40907490D01*
X195397000Y-40637592D01*
X195397000Y-40362408D01*
X195343314Y-40092510D01*
X195238005Y-39838273D01*
X195085120Y-39609465D01*
X194890535Y-39414880D01*
X194854708Y-39390941D01*
X194886482Y-39387812D01*
X195006180Y-39351502D01*
X195116494Y-39292537D01*
X195213185Y-39213185D01*
X195292537Y-39116494D01*
X195351502Y-39006180D01*
X195387812Y-38886482D01*
X195400072Y-38762000D01*
X195400072Y-37238000D01*
X195387812Y-37113518D01*
X195351502Y-36993820D01*
X195292537Y-36883506D01*
X195213185Y-36786815D01*
X195116494Y-36707463D01*
X195006180Y-36648498D01*
X194886482Y-36612188D01*
X194762000Y-36599928D01*
X193238000Y-36599928D01*
X193113518Y-36612188D01*
X192993820Y-36648498D01*
X192883506Y-36707463D01*
X192786815Y-36786815D01*
X192707463Y-36883506D01*
X192648498Y-36993820D01*
X192612188Y-37113518D01*
X192599928Y-37238000D01*
X192599928Y-37986397D01*
X192407490Y-37906686D01*
X192137592Y-37853000D01*
X191862408Y-37853000D01*
X191592510Y-37906686D01*
X191338273Y-38011995D01*
X191109465Y-38164880D01*
X190914880Y-38359465D01*
X190761995Y-38588273D01*
X190656686Y-38842510D01*
X190603000Y-39112408D01*
X190603000Y-39387592D01*
X190656686Y-39657490D01*
X190761995Y-39911727D01*
X190914880Y-40140535D01*
X190920390Y-40146045D01*
X190402001Y-40664436D01*
X190372998Y-40688238D01*
X190317870Y-40755413D01*
X190278025Y-40803963D01*
X190222688Y-40907490D01*
X190207453Y-40935993D01*
X190163996Y-41079254D01*
X190152999Y-41190907D01*
X190152999Y-41190917D01*
X190149323Y-41228239D01*
X109847001Y-41228239D01*
X109847001Y-40124334D01*
X109850678Y-40087001D01*
X109836004Y-39938015D01*
X109792547Y-39794754D01*
X109721975Y-39662725D01*
X109650800Y-39575998D01*
X109627002Y-39547000D01*
X109598005Y-39523203D01*
X109397000Y-39322198D01*
X109397000Y-39112408D01*
X109343314Y-38842510D01*
X109238005Y-38588273D01*
X109085120Y-38359465D01*
X108890535Y-38164880D01*
X108661727Y-38011995D01*
X108407490Y-37906686D01*
X108137592Y-37853000D01*
X107862408Y-37853000D01*
X107592510Y-37906686D01*
X107397000Y-37987669D01*
X107397000Y-37862408D01*
X107343314Y-37592510D01*
X107238005Y-37338273D01*
X107085120Y-37109465D01*
X106890535Y-36914880D01*
X106661727Y-36761995D01*
X106407490Y-36656686D01*
X106137592Y-36603000D01*
X105862408Y-36603000D01*
X105592510Y-36656686D01*
X105338273Y-36761995D01*
X105109465Y-36914880D01*
X104914880Y-37109465D01*
X104761995Y-37338273D01*
X104656686Y-37592510D01*
X104603000Y-37862408D01*
X104603000Y-38137592D01*
X104633628Y-38291571D01*
X104401997Y-38523202D01*
X104372999Y-38547000D01*
X104349201Y-38575998D01*
X104349200Y-38575999D01*
X104278025Y-38662725D01*
X104207453Y-38794755D01*
X104163997Y-38938016D01*
X104149323Y-39087001D01*
X89561100Y-39087001D01*
X89561100Y-32663600D01*
X210241101Y-32663600D01*
X210241100Y-117343600D01*
G37*
X210241100Y-117343600D02*
X165501848Y-117343600D01*
X165727095Y-117250299D01*
X165978505Y-117082312D01*
X166192312Y-116868505D01*
X166360299Y-116617095D01*
X166476011Y-116337743D01*
X166535000Y-116041184D01*
X166535000Y-115738816D01*
X166476011Y-115442257D01*
X166360299Y-115162905D01*
X166192312Y-114911495D01*
X166125873Y-114845056D01*
X166144180Y-114839502D01*
X166254494Y-114780537D01*
X166351185Y-114701185D01*
X166430537Y-114604494D01*
X166489502Y-114494180D01*
X166525812Y-114374482D01*
X166538072Y-114250000D01*
X166538072Y-112450000D01*
X166525812Y-112325518D01*
X166489502Y-112205820D01*
X166430537Y-112095506D01*
X166351185Y-111998815D01*
X166254494Y-111919463D01*
X166144180Y-111860498D01*
X166024482Y-111824188D01*
X165900000Y-111811928D01*
X165760000Y-111811928D01*
X165760000Y-110218043D01*
X165861834Y-110150000D01*
X175511928Y-110150000D01*
X175511928Y-111850000D01*
X175524188Y-111974482D01*
X175560498Y-112094180D01*
X175619463Y-112204494D01*
X175698815Y-112301185D01*
X175795506Y-112380537D01*
X175905820Y-112439502D01*
X176025518Y-112475812D01*
X176150000Y-112488072D01*
X177850000Y-112488072D01*
X177974482Y-112475812D01*
X178094180Y-112439502D01*
X178204494Y-112380537D01*
X178301185Y-112301185D01*
X178380537Y-112204494D01*
X178439502Y-112094180D01*
X178461513Y-112021620D01*
X178593368Y-112153475D01*
X178836589Y-112315990D01*
X179106842Y-112427932D01*
X179393740Y-112485000D01*
X179686260Y-112485000D01*
X179973158Y-112427932D01*
X180243411Y-112315990D01*
X180486632Y-112153475D01*
X180693475Y-111946632D01*
X180810000Y-111772240D01*
X180926525Y-111946632D01*
X181133368Y-112153475D01*
X181376589Y-112315990D01*
X181646842Y-112427932D01*
X181933740Y-112485000D01*
X182226260Y-112485000D01*
X182513158Y-112427932D01*
X182783411Y-112315990D01*
X183026632Y-112153475D01*
X183233475Y-111946632D01*
X183350000Y-111772240D01*
X183466525Y-111946632D01*
X183673368Y-112153475D01*
X183916589Y-112315990D01*
X184186842Y-112427932D01*
X184473740Y-112485000D01*
X184766260Y-112485000D01*
X185053158Y-112427932D01*
X185323411Y-112315990D01*
X185566632Y-112153475D01*
X185773475Y-111946632D01*
X185890000Y-111772240D01*
X186006525Y-111946632D01*
X186213368Y-112153475D01*
X186456589Y-112315990D01*
X186726842Y-112427932D01*
X187013740Y-112485000D01*
X187306260Y-112485000D01*
X187593158Y-112427932D01*
X187863411Y-112315990D01*
X188106632Y-112153475D01*
X188313475Y-111946632D01*
X188430000Y-111772240D01*
X188546525Y-111946632D01*
X188753368Y-112153475D01*
X188996589Y-112315990D01*
X189266842Y-112427932D01*
X189553740Y-112485000D01*
X189846260Y-112485000D01*
X190133158Y-112427932D01*
X190403411Y-112315990D01*
X190646632Y-112153475D01*
X190853475Y-111946632D01*
X190975195Y-111764466D01*
X191044822Y-111881355D01*
X191239731Y-112097588D01*
X191473080Y-112271641D01*
X191735901Y-112396825D01*
X191883110Y-112441476D01*
X192113000Y-112320155D01*
X192113000Y-111127000D01*
X192093000Y-111127000D01*
X192093000Y-110873000D01*
X192113000Y-110873000D01*
X192113000Y-110853000D01*
X192367000Y-110853000D01*
X192367000Y-110873000D01*
X192387000Y-110873000D01*
X192387000Y-111127000D01*
X192367000Y-111127000D01*
X192367000Y-112320155D01*
X192596890Y-112441476D01*
X192744099Y-112396825D01*
X193006920Y-112271641D01*
X193240269Y-112097588D01*
X193435178Y-111881355D01*
X193504805Y-111764466D01*
X193626525Y-111946632D01*
X193833368Y-112153475D01*
X194076589Y-112315990D01*
X194346842Y-112427932D01*
X194633740Y-112485000D01*
X194926260Y-112485000D01*
X195213158Y-112427932D01*
X195483411Y-112315990D01*
X195726632Y-112153475D01*
X195933475Y-111946632D01*
X196050000Y-111772240D01*
X196166525Y-111946632D01*
X196373368Y-112153475D01*
X196616589Y-112315990D01*
X196886842Y-112427932D01*
X197173740Y-112485000D01*
X197466260Y-112485000D01*
X197753158Y-112427932D01*
X198023411Y-112315990D01*
X198266632Y-112153475D01*
X198473475Y-111946632D01*
X198590000Y-111772240D01*
X198706525Y-111946632D01*
X198913368Y-112153475D01*
X199156589Y-112315990D01*
X199426842Y-112427932D01*
X199713740Y-112485000D01*
X200006260Y-112485000D01*
X200293158Y-112427932D01*
X200563411Y-112315990D01*
X200806632Y-112153475D01*
X201013475Y-111946632D01*
X201175990Y-111703411D01*
X201287932Y-111433158D01*
X201345000Y-111146260D01*
X201345000Y-110853740D01*
X201287932Y-110566842D01*
X201175990Y-110296589D01*
X201013475Y-110053368D01*
X200806632Y-109846525D01*
X200563411Y-109684010D01*
X200293158Y-109572068D01*
X200006260Y-109515000D01*
X199713740Y-109515000D01*
X199426842Y-109572068D01*
X199156589Y-109684010D01*
X198913368Y-109846525D01*
X198706525Y-110053368D01*
X198590000Y-110227760D01*
X198473475Y-110053368D01*
X198266632Y-109846525D01*
X198023411Y-109684010D01*
X197753158Y-109572068D01*
X197466260Y-109515000D01*
X197173740Y-109515000D01*
X196886842Y-109572068D01*
X196616589Y-109684010D01*
X196373368Y-109846525D01*
X196166525Y-110053368D01*
X196050000Y-110227760D01*
X195933475Y-110053368D01*
X195726632Y-109846525D01*
X195483411Y-109684010D01*
X195213158Y-109572068D01*
X194926260Y-109515000D01*
X194633740Y-109515000D01*
X194413592Y-109558790D01*
X193260000Y-108405199D01*
X193260000Y-96322017D01*
X193598090Y-96322017D01*
X193639078Y-96594133D01*
X193732364Y-96853023D01*
X193794344Y-96968980D01*
X194034435Y-97035960D01*
X194820395Y-96250000D01*
X194034435Y-95464040D01*
X193794344Y-95531020D01*
X193677244Y-95780048D01*
X193610977Y-96047135D01*
X193598090Y-96322017D01*
X193260000Y-96322017D01*
X193260000Y-91564801D01*
X193603000Y-91221801D01*
X193603000Y-91387592D01*
X193656686Y-91657490D01*
X193761995Y-91911727D01*
X193914880Y-92140535D01*
X194109465Y-92335120D01*
X194338273Y-92488005D01*
X194367231Y-92500000D01*
X194338273Y-92511995D01*
X194109465Y-92664880D01*
X193914880Y-92859465D01*
X193761995Y-93088273D01*
X193656686Y-93342510D01*
X193603000Y-93612408D01*
X193603000Y-93887592D01*
X193656686Y-94157490D01*
X193761995Y-94411727D01*
X193914880Y-94640535D01*
X194109465Y-94835120D01*
X194338273Y-94988005D01*
X194365401Y-94999242D01*
X194281020Y-95044344D01*
X194214040Y-95284435D01*
X195000000Y-96070395D01*
X195014143Y-96056253D01*
X195193748Y-96235858D01*
X195179605Y-96250000D01*
X195193748Y-96264143D01*
X195014143Y-96443748D01*
X195000000Y-96429605D01*
X194214040Y-97215565D01*
X194281020Y-97455656D01*
X194371533Y-97498218D01*
X194338273Y-97511995D01*
X194109465Y-97664880D01*
X193914880Y-97859465D01*
X193761995Y-98088273D01*
X193656686Y-98342510D01*
X193603000Y-98612408D01*
X193603000Y-98887592D01*
X193656686Y-99157490D01*
X193761995Y-99411727D01*
X193914880Y-99640535D01*
X194109465Y-99835120D01*
X194338273Y-99988005D01*
X194592510Y-100093314D01*
X194862408Y-100147000D01*
X195137592Y-100147000D01*
X195407490Y-100093314D01*
X195603000Y-100012331D01*
X195603000Y-100137592D01*
X195656686Y-100407490D01*
X195761995Y-100661727D01*
X195914880Y-100890535D01*
X196109465Y-101085120D01*
X196338273Y-101238005D01*
X196592510Y-101343314D01*
X196862408Y-101397000D01*
X197137592Y-101397000D01*
X197407490Y-101343314D01*
X197661727Y-101238005D01*
X197890535Y-101085120D01*
X198085120Y-100890535D01*
X198238005Y-100661727D01*
X198343314Y-100407490D01*
X198397000Y-100137592D01*
X198397000Y-99862408D01*
X198343314Y-99592510D01*
X198238005Y-99338273D01*
X198085120Y-99109465D01*
X197890535Y-98914880D01*
X197661727Y-98761995D01*
X197632769Y-98750000D01*
X197661727Y-98738005D01*
X197890535Y-98585120D01*
X198085120Y-98390535D01*
X198238005Y-98161727D01*
X198343314Y-97907490D01*
X198397000Y-97637592D01*
X198397000Y-97362408D01*
X198343314Y-97092510D01*
X198238005Y-96838273D01*
X198085120Y-96609465D01*
X197890535Y-96414880D01*
X197661727Y-96261995D01*
X197632769Y-96250000D01*
X197661727Y-96238005D01*
X197890535Y-96085120D01*
X198085120Y-95890535D01*
X198238005Y-95661727D01*
X198343314Y-95407490D01*
X198397000Y-95137592D01*
X198397000Y-94862408D01*
X198343314Y-94592510D01*
X198238005Y-94338273D01*
X198085120Y-94109465D01*
X197890535Y-93914880D01*
X197661727Y-93761995D01*
X197632769Y-93750000D01*
X197661727Y-93738005D01*
X197890535Y-93585120D01*
X198085120Y-93390535D01*
X198238005Y-93161727D01*
X198343314Y-92907490D01*
X198397000Y-92637592D01*
X198397000Y-92362408D01*
X198343314Y-92092510D01*
X198238005Y-91838273D01*
X198085120Y-91609465D01*
X197890535Y-91414880D01*
X197661727Y-91261995D01*
X197632769Y-91250000D01*
X197661727Y-91238005D01*
X197890535Y-91085120D01*
X198085120Y-90890535D01*
X198238005Y-90661727D01*
X198343314Y-90407490D01*
X198397000Y-90137592D01*
X198397000Y-89862408D01*
X198343314Y-89592510D01*
X198238005Y-89338273D01*
X198085120Y-89109465D01*
X197890535Y-88914880D01*
X197661727Y-88761995D01*
X197632769Y-88750000D01*
X197661727Y-88738005D01*
X197890535Y-88585120D01*
X198085120Y-88390535D01*
X198238005Y-88161727D01*
X198343314Y-87907490D01*
X198397000Y-87637592D01*
X198397000Y-87362408D01*
X198343314Y-87092510D01*
X198238005Y-86838273D01*
X198085120Y-86609465D01*
X197890535Y-86414880D01*
X197854708Y-86390941D01*
X197886482Y-86387812D01*
X198006180Y-86351502D01*
X198116494Y-86292537D01*
X198213185Y-86213185D01*
X198292537Y-86116494D01*
X198351502Y-86006180D01*
X198387812Y-85886482D01*
X198400072Y-85762000D01*
X198400072Y-84238000D01*
X198387812Y-84113518D01*
X198351502Y-83993820D01*
X198292537Y-83883506D01*
X198213185Y-83786815D01*
X198116494Y-83707463D01*
X198006180Y-83648498D01*
X197886482Y-83612188D01*
X197762000Y-83599928D01*
X196238000Y-83599928D01*
X196113518Y-83612188D01*
X195993820Y-83648498D01*
X195883506Y-83707463D01*
X195786815Y-83786815D01*
X195707463Y-83883506D01*
X195648498Y-83993820D01*
X195612188Y-84113518D01*
X195599928Y-84238000D01*
X195599928Y-84986397D01*
X195407490Y-84906686D01*
X195137592Y-84853000D01*
X194862408Y-84853000D01*
X194592510Y-84906686D01*
X194338273Y-85011995D01*
X194109465Y-85164880D01*
X193914880Y-85359465D01*
X193761995Y-85588273D01*
X193656686Y-85842510D01*
X193603000Y-86112408D01*
X193603000Y-86387592D01*
X193656686Y-86657490D01*
X193761995Y-86911727D01*
X193914880Y-87140535D01*
X194109465Y-87335120D01*
X194338273Y-87488005D01*
X194367231Y-87500000D01*
X194338273Y-87511995D01*
X194109465Y-87664880D01*
X193914880Y-87859465D01*
X193761995Y-88088273D01*
X193656686Y-88342510D01*
X193603000Y-88612408D01*
X193603000Y-88887592D01*
X193633628Y-89041570D01*
X191989003Y-90686196D01*
X191959999Y-90709999D01*
X191915455Y-90764277D01*
X191865026Y-90825724D01*
X191810980Y-90926836D01*
X191794454Y-90957754D01*
X191750997Y-91101015D01*
X191740000Y-91212668D01*
X191740000Y-91212678D01*
X191736324Y-91250000D01*
X191740000Y-91287322D01*
X191740001Y-108682667D01*
X191736324Y-108720000D01*
X191740001Y-108757333D01*
X191749982Y-108858665D01*
X191750998Y-108868985D01*
X191794454Y-109012246D01*
X191865026Y-109144276D01*
X191936201Y-109231002D01*
X191960000Y-109260001D01*
X191988998Y-109283799D01*
X192220199Y-109515000D01*
X192112998Y-109515000D01*
X192112998Y-109679844D01*
X191883110Y-109558524D01*
X191735901Y-109603175D01*
X191473080Y-109728359D01*
X191239731Y-109902412D01*
X191044822Y-110118645D01*
X190975195Y-110235534D01*
X190853475Y-110053368D01*
X190646632Y-109846525D01*
X190403411Y-109684010D01*
X190133158Y-109572068D01*
X189846260Y-109515000D01*
X189553740Y-109515000D01*
X189266842Y-109572068D01*
X188996589Y-109684010D01*
X188753368Y-109846525D01*
X188546525Y-110053368D01*
X188430000Y-110227760D01*
X188313475Y-110053368D01*
X188106632Y-109846525D01*
X187863411Y-109684010D01*
X187593158Y-109572068D01*
X187306260Y-109515000D01*
X187013740Y-109515000D01*
X186726842Y-109572068D01*
X186456589Y-109684010D01*
X186213368Y-109846525D01*
X186006525Y-110053368D01*
X185890000Y-110227760D01*
X185773475Y-110053368D01*
X185566632Y-109846525D01*
X185323411Y-109684010D01*
X185053158Y-109572068D01*
X184766260Y-109515000D01*
X184473740Y-109515000D01*
X184186842Y-109572068D01*
X183916589Y-109684010D01*
X183673368Y-109846525D01*
X183466525Y-110053368D01*
X183350000Y-110227760D01*
X183233475Y-110053368D01*
X183026632Y-109846525D01*
X182840000Y-109721822D01*
X182840000Y-87203707D01*
X182883937Y-87159770D01*
X182997205Y-86990252D01*
X183075226Y-86801894D01*
X183115000Y-86601935D01*
X183115000Y-86398057D01*
X183075226Y-86198098D01*
X182997205Y-86009740D01*
X182883937Y-85840222D01*
X182739774Y-85696059D01*
X182570256Y-85582791D01*
X182381898Y-85504770D01*
X182181939Y-85464996D01*
X181978061Y-85464996D01*
X181778102Y-85504770D01*
X181589744Y-85582791D01*
X181420226Y-85696059D01*
X181276063Y-85840222D01*
X181162795Y-86009740D01*
X181084774Y-86198098D01*
X181045000Y-86398057D01*
X181045000Y-86601935D01*
X181084774Y-86801894D01*
X181162795Y-86990252D01*
X181276063Y-87159770D01*
X181320001Y-87203708D01*
X181320000Y-109721822D01*
X181133368Y-109846525D01*
X180926525Y-110053368D01*
X180810000Y-110227760D01*
X180693475Y-110053368D01*
X180486632Y-109846525D01*
X180300000Y-109721822D01*
X180300000Y-88087842D01*
X180365205Y-87990256D01*
X180443226Y-87801898D01*
X180483000Y-87601939D01*
X180483000Y-87398061D01*
X180443226Y-87198102D01*
X180365205Y-87009744D01*
X180251937Y-86840226D01*
X180107774Y-86696063D01*
X179938256Y-86582795D01*
X179749898Y-86504774D01*
X179549939Y-86465000D01*
X179346061Y-86465000D01*
X179146102Y-86504774D01*
X178957744Y-86582795D01*
X178788226Y-86696063D01*
X178644063Y-86840226D01*
X178530795Y-87009744D01*
X178452774Y-87198102D01*
X178413000Y-87398061D01*
X178413000Y-87601939D01*
X178452774Y-87801898D01*
X178530795Y-87990256D01*
X178644063Y-88159774D01*
X178780001Y-88295712D01*
X178780000Y-109721822D01*
X178593368Y-109846525D01*
X178461513Y-109978380D01*
X178439502Y-109905820D01*
X178380537Y-109795506D01*
X178301185Y-109698815D01*
X178204494Y-109619463D01*
X178094180Y-109560498D01*
X177974482Y-109524188D01*
X177850000Y-109511928D01*
X176150000Y-109511928D01*
X176025518Y-109524188D01*
X175905820Y-109560498D01*
X175795506Y-109619463D01*
X175698815Y-109698815D01*
X175619463Y-109795506D01*
X175560498Y-109905820D01*
X175524188Y-110025518D01*
X175511928Y-110150000D01*
X165861834Y-110150000D01*
X165914759Y-110114637D01*
X166114637Y-109914759D01*
X166271680Y-109679727D01*
X166379853Y-109418574D01*
X166435000Y-109141335D01*
X166435000Y-108858665D01*
X166379853Y-108581426D01*
X166271680Y-108320273D01*
X166114637Y-108085241D01*
X165914759Y-107885363D01*
X165679727Y-107728320D01*
X165418574Y-107620147D01*
X165141335Y-107565000D01*
X164858665Y-107565000D01*
X164581426Y-107620147D01*
X164320273Y-107728320D01*
X164085241Y-107885363D01*
X163885363Y-108085241D01*
X163728320Y-108320273D01*
X163620147Y-108581426D01*
X163565000Y-108858665D01*
X163565000Y-109141335D01*
X163620147Y-109418574D01*
X163728320Y-109679727D01*
X163885363Y-109914759D01*
X164085241Y-110114637D01*
X164240001Y-110218044D01*
X164240000Y-111811928D01*
X164100000Y-111811928D01*
X163975518Y-111824188D01*
X163855820Y-111860498D01*
X163745506Y-111919463D01*
X163648815Y-111998815D01*
X163569463Y-112095506D01*
X163510498Y-112205820D01*
X163474188Y-112325518D01*
X163461928Y-112450000D01*
X163461928Y-114250000D01*
X163474188Y-114374482D01*
X163510498Y-114494180D01*
X163569463Y-114604494D01*
X163648815Y-114701185D01*
X163745506Y-114780537D01*
X163855820Y-114839502D01*
X163874127Y-114845056D01*
X163807688Y-114911495D01*
X163639701Y-115162905D01*
X163523989Y-115442257D01*
X163465000Y-115738816D01*
X163465000Y-116041184D01*
X163523989Y-116337743D01*
X163639701Y-116617095D01*
X163807688Y-116868505D01*
X164021495Y-117082312D01*
X164272905Y-117250299D01*
X164498152Y-117343600D01*
X155501848Y-117343600D01*
X155727095Y-117250299D01*
X155978505Y-117082312D01*
X156192312Y-116868505D01*
X156360299Y-116617095D01*
X156476011Y-116337743D01*
X156535000Y-116041184D01*
X156535000Y-115738816D01*
X156476011Y-115442257D01*
X156360299Y-115162905D01*
X156192312Y-114911495D01*
X156125873Y-114845056D01*
X156144180Y-114839502D01*
X156254494Y-114780537D01*
X156351185Y-114701185D01*
X156430537Y-114604494D01*
X156489502Y-114494180D01*
X156525812Y-114374482D01*
X156538072Y-114250000D01*
X156538072Y-112450000D01*
X156525812Y-112325518D01*
X156489502Y-112205820D01*
X156430537Y-112095506D01*
X156351185Y-111998815D01*
X156254494Y-111919463D01*
X156144180Y-111860498D01*
X156024482Y-111824188D01*
X155900000Y-111811928D01*
X155760000Y-111811928D01*
X155760000Y-110218043D01*
X155914759Y-110114637D01*
X156114637Y-109914759D01*
X156271680Y-109679727D01*
X156379853Y-109418574D01*
X156435000Y-109141335D01*
X156435000Y-108858665D01*
X156379853Y-108581426D01*
X156271680Y-108320273D01*
X156114637Y-108085241D01*
X155914759Y-107885363D01*
X155679727Y-107728320D01*
X155418574Y-107620147D01*
X155141335Y-107565000D01*
X154858665Y-107565000D01*
X154581426Y-107620147D01*
X154320273Y-107728320D01*
X154085241Y-107885363D01*
X153885363Y-108085241D01*
X153728320Y-108320273D01*
X153620147Y-108581426D01*
X153565000Y-108858665D01*
X153565000Y-109141335D01*
X153620147Y-109418574D01*
X153728320Y-109679727D01*
X153885363Y-109914759D01*
X154085241Y-110114637D01*
X154240000Y-110218044D01*
X154240001Y-111811928D01*
X154100000Y-111811928D01*
X153975518Y-111824188D01*
X153855820Y-111860498D01*
X153745506Y-111919463D01*
X153648815Y-111998815D01*
X153569463Y-112095506D01*
X153510498Y-112205820D01*
X153474188Y-112325518D01*
X153461928Y-112450000D01*
X153461928Y-114250000D01*
X153474188Y-114374482D01*
X153510498Y-114494180D01*
X153569463Y-114604494D01*
X153648815Y-114701185D01*
X153745506Y-114780537D01*
X153855820Y-114839502D01*
X153874127Y-114845056D01*
X153807688Y-114911495D01*
X153639701Y-115162905D01*
X153523989Y-115442257D01*
X153465000Y-115738816D01*
X153465000Y-116041184D01*
X153523989Y-116337743D01*
X153639701Y-116617095D01*
X153807688Y-116868505D01*
X154021495Y-117082312D01*
X154272905Y-117250299D01*
X154498152Y-117343600D01*
X145501848Y-117343600D01*
X145727095Y-117250299D01*
X145978505Y-117082312D01*
X146192312Y-116868505D01*
X146360299Y-116617095D01*
X146476011Y-116337743D01*
X146535000Y-116041184D01*
X146535000Y-115738816D01*
X146476011Y-115442257D01*
X146360299Y-115162905D01*
X146192312Y-114911495D01*
X146125873Y-114845056D01*
X146144180Y-114839502D01*
X146254494Y-114780537D01*
X146351185Y-114701185D01*
X146430537Y-114604494D01*
X146489502Y-114494180D01*
X146525812Y-114374482D01*
X146538072Y-114250000D01*
X146538072Y-112450000D01*
X146525812Y-112325518D01*
X146489502Y-112205820D01*
X146430537Y-112095506D01*
X146351185Y-111998815D01*
X146254494Y-111919463D01*
X146144180Y-111860498D01*
X146024482Y-111824188D01*
X145900000Y-111811928D01*
X145760000Y-111811928D01*
X145760000Y-110218043D01*
X145914759Y-110114637D01*
X146114637Y-109914759D01*
X146271680Y-109679727D01*
X146379853Y-109418574D01*
X146435000Y-109141335D01*
X146435000Y-108858665D01*
X146379853Y-108581426D01*
X146271680Y-108320273D01*
X146114637Y-108085241D01*
X145914759Y-107885363D01*
X145679727Y-107728320D01*
X145418574Y-107620147D01*
X145141335Y-107565000D01*
X144858665Y-107565000D01*
X144581426Y-107620147D01*
X144320273Y-107728320D01*
X144085241Y-107885363D01*
X143885363Y-108085241D01*
X143728320Y-108320273D01*
X143620147Y-108581426D01*
X143565000Y-108858665D01*
X143565000Y-109141335D01*
X143620147Y-109418574D01*
X143728320Y-109679727D01*
X143885363Y-109914759D01*
X144085241Y-110114637D01*
X144240000Y-110218044D01*
X144240001Y-111811928D01*
X144100000Y-111811928D01*
X143975518Y-111824188D01*
X143855820Y-111860498D01*
X143745506Y-111919463D01*
X143648815Y-111998815D01*
X143569463Y-112095506D01*
X143510498Y-112205820D01*
X143474188Y-112325518D01*
X143461928Y-112450000D01*
X143461928Y-114250000D01*
X143474188Y-114374482D01*
X143510498Y-114494180D01*
X143569463Y-114604494D01*
X143648815Y-114701185D01*
X143745506Y-114780537D01*
X143855820Y-114839502D01*
X143874127Y-114845056D01*
X143807688Y-114911495D01*
X143639701Y-115162905D01*
X143523989Y-115442257D01*
X143465000Y-115738816D01*
X143465000Y-116041184D01*
X143523989Y-116337743D01*
X143639701Y-116617095D01*
X143807688Y-116868505D01*
X144021495Y-117082312D01*
X144272905Y-117250299D01*
X144498152Y-117343600D01*
X135501848Y-117343600D01*
X135727095Y-117250299D01*
X135978505Y-117082312D01*
X136192312Y-116868505D01*
X136360299Y-116617095D01*
X136476011Y-116337743D01*
X136535000Y-116041184D01*
X136535000Y-115738816D01*
X136476011Y-115442257D01*
X136360299Y-115162905D01*
X136192312Y-114911495D01*
X136125873Y-114845056D01*
X136144180Y-114839502D01*
X136254494Y-114780537D01*
X136351185Y-114701185D01*
X136430537Y-114604494D01*
X136489502Y-114494180D01*
X136525812Y-114374482D01*
X136538072Y-114250000D01*
X136538072Y-112450000D01*
X136525812Y-112325518D01*
X136489502Y-112205820D01*
X136430537Y-112095506D01*
X136351185Y-111998815D01*
X136254494Y-111919463D01*
X136144180Y-111860498D01*
X136024482Y-111824188D01*
X135900000Y-111811928D01*
X135760000Y-111811928D01*
X135760000Y-110218043D01*
X135914759Y-110114637D01*
X136114637Y-109914759D01*
X136271680Y-109679727D01*
X136379853Y-109418574D01*
X136435000Y-109141335D01*
X136435000Y-108858665D01*
X136379853Y-108581426D01*
X136271680Y-108320273D01*
X136114637Y-108085241D01*
X135914759Y-107885363D01*
X135679727Y-107728320D01*
X135418574Y-107620147D01*
X135141335Y-107565000D01*
X134858665Y-107565000D01*
X134581426Y-107620147D01*
X134320273Y-107728320D01*
X134085241Y-107885363D01*
X133885363Y-108085241D01*
X133728320Y-108320273D01*
X133620147Y-108581426D01*
X133565000Y-108858665D01*
X133565000Y-109141335D01*
X133620147Y-109418574D01*
X133728320Y-109679727D01*
X133885363Y-109914759D01*
X134085241Y-110114637D01*
X134240000Y-110218044D01*
X134240001Y-111811928D01*
X134100000Y-111811928D01*
X133975518Y-111824188D01*
X133855820Y-111860498D01*
X133745506Y-111919463D01*
X133648815Y-111998815D01*
X133569463Y-112095506D01*
X133510498Y-112205820D01*
X133474188Y-112325518D01*
X133461928Y-112450000D01*
X133461928Y-114250000D01*
X133474188Y-114374482D01*
X133510498Y-114494180D01*
X133569463Y-114604494D01*
X133648815Y-114701185D01*
X133745506Y-114780537D01*
X133855820Y-114839502D01*
X133874127Y-114845056D01*
X133807688Y-114911495D01*
X133639701Y-115162905D01*
X133523989Y-115442257D01*
X133465000Y-115738816D01*
X133465000Y-116041184D01*
X133523989Y-116337743D01*
X133639701Y-116617095D01*
X133807688Y-116868505D01*
X134021495Y-117082312D01*
X134272905Y-117250299D01*
X134498152Y-117343600D01*
X89561100Y-117343600D01*
X89561100Y-110853740D01*
X98655000Y-110853740D01*
X98655000Y-111146260D01*
X98712068Y-111433158D01*
X98824010Y-111703411D01*
X98986525Y-111946632D01*
X99193368Y-112153475D01*
X99436589Y-112315990D01*
X99706842Y-112427932D01*
X99993740Y-112485000D01*
X100286260Y-112485000D01*
X100573158Y-112427932D01*
X100843411Y-112315990D01*
X101086632Y-112153475D01*
X101293475Y-111946632D01*
X101410000Y-111772240D01*
X101526525Y-111946632D01*
X101733368Y-112153475D01*
X101976589Y-112315990D01*
X102246842Y-112427932D01*
X102533740Y-112485000D01*
X102826260Y-112485000D01*
X103113158Y-112427932D01*
X103383411Y-112315990D01*
X103626632Y-112153475D01*
X103833475Y-111946632D01*
X103950000Y-111772240D01*
X104066525Y-111946632D01*
X104273368Y-112153475D01*
X104516589Y-112315990D01*
X104786842Y-112427932D01*
X105073740Y-112485000D01*
X105366260Y-112485000D01*
X105653158Y-112427932D01*
X105923411Y-112315990D01*
X106166632Y-112153475D01*
X106373475Y-111946632D01*
X106490000Y-111772240D01*
X106606525Y-111946632D01*
X106813368Y-112153475D01*
X107056589Y-112315990D01*
X107326842Y-112427932D01*
X107613740Y-112485000D01*
X107906260Y-112485000D01*
X108193158Y-112427932D01*
X108463411Y-112315990D01*
X108706632Y-112153475D01*
X108913475Y-111946632D01*
X109030000Y-111772240D01*
X109146525Y-111946632D01*
X109353368Y-112153475D01*
X109596589Y-112315990D01*
X109866842Y-112427932D01*
X110153740Y-112485000D01*
X110446260Y-112485000D01*
X110733158Y-112427932D01*
X111003411Y-112315990D01*
X111246632Y-112153475D01*
X111453475Y-111946632D01*
X111570000Y-111772240D01*
X111686525Y-111946632D01*
X111893368Y-112153475D01*
X112136589Y-112315990D01*
X112406842Y-112427932D01*
X112693740Y-112485000D01*
X112986260Y-112485000D01*
X113273158Y-112427932D01*
X113543411Y-112315990D01*
X113786632Y-112153475D01*
X113993475Y-111946632D01*
X114110000Y-111772240D01*
X114226525Y-111946632D01*
X114433368Y-112153475D01*
X114676589Y-112315990D01*
X114946842Y-112427932D01*
X115233740Y-112485000D01*
X115526260Y-112485000D01*
X115813158Y-112427932D01*
X116083411Y-112315990D01*
X116326632Y-112153475D01*
X116533475Y-111946632D01*
X116650000Y-111772240D01*
X116766525Y-111946632D01*
X116973368Y-112153475D01*
X117216589Y-112315990D01*
X117486842Y-112427932D01*
X117773740Y-112485000D01*
X118066260Y-112485000D01*
X118353158Y-112427932D01*
X118623411Y-112315990D01*
X118866632Y-112153475D01*
X119073475Y-111946632D01*
X119195195Y-111764466D01*
X119264822Y-111881355D01*
X119459731Y-112097588D01*
X119693080Y-112271641D01*
X119955901Y-112396825D01*
X120103110Y-112441476D01*
X120333000Y-112320155D01*
X120333000Y-111127000D01*
X120313000Y-111127000D01*
X120313000Y-110873000D01*
X120333000Y-110873000D01*
X120333000Y-109679845D01*
X120587000Y-109679845D01*
X120587000Y-110873000D01*
X120607000Y-110873000D01*
X120607000Y-111127000D01*
X120587000Y-111127000D01*
X120587000Y-112320155D01*
X120816890Y-112441476D01*
X120964099Y-112396825D01*
X121226920Y-112271641D01*
X121460269Y-112097588D01*
X121536034Y-112013534D01*
X121560498Y-112094180D01*
X121619463Y-112204494D01*
X121698815Y-112301185D01*
X121795506Y-112380537D01*
X121905820Y-112439502D01*
X122025518Y-112475812D01*
X122150000Y-112488072D01*
X123850000Y-112488072D01*
X123974482Y-112475812D01*
X124094180Y-112439502D01*
X124204494Y-112380537D01*
X124301185Y-112301185D01*
X124380537Y-112204494D01*
X124439502Y-112094180D01*
X124475812Y-111974482D01*
X124488072Y-111850000D01*
X124488072Y-110150000D01*
X124475812Y-110025518D01*
X124439502Y-109905820D01*
X124380537Y-109795506D01*
X124301185Y-109698815D01*
X124204494Y-109619463D01*
X124094180Y-109560498D01*
X123974482Y-109524188D01*
X123850000Y-109511928D01*
X122150000Y-109511928D01*
X122025518Y-109524188D01*
X121905820Y-109560498D01*
X121795506Y-109619463D01*
X121698815Y-109698815D01*
X121619463Y-109795506D01*
X121560498Y-109905820D01*
X121536034Y-109986466D01*
X121460269Y-109902412D01*
X121226920Y-109728359D01*
X120964099Y-109603175D01*
X120816890Y-109558524D01*
X120587000Y-109679845D01*
X120333000Y-109679845D01*
X120103110Y-109558524D01*
X119955901Y-109603175D01*
X119693080Y-109728359D01*
X119459731Y-109902412D01*
X119264822Y-110118645D01*
X119195195Y-110235534D01*
X119073475Y-110053368D01*
X118866632Y-109846525D01*
X118623411Y-109684010D01*
X118353158Y-109572068D01*
X118066260Y-109515000D01*
X117773740Y-109515000D01*
X117553592Y-109558790D01*
X107483804Y-99489003D01*
X107460001Y-99459999D01*
X107344276Y-99365026D01*
X107212247Y-99294454D01*
X107068986Y-99250997D01*
X106957333Y-99240000D01*
X106957322Y-99240000D01*
X106920000Y-99236324D01*
X106882678Y-99240000D01*
X106309137Y-99240000D01*
X106343314Y-99157490D01*
X106397000Y-98887592D01*
X106397000Y-98698665D01*
X133565000Y-98698665D01*
X133565000Y-98981335D01*
X133620147Y-99258574D01*
X133728320Y-99519727D01*
X133885363Y-99754759D01*
X134085241Y-99954637D01*
X134320273Y-100111680D01*
X134581426Y-100219853D01*
X134858665Y-100275000D01*
X135141335Y-100275000D01*
X135418574Y-100219853D01*
X135679727Y-100111680D01*
X135914759Y-99954637D01*
X136114637Y-99754759D01*
X136271680Y-99519727D01*
X136379853Y-99258574D01*
X136435000Y-98981335D01*
X136435000Y-98698665D01*
X136422859Y-98637627D01*
X145736006Y-89324481D01*
X145765004Y-89300683D01*
X145859977Y-89184958D01*
X145930549Y-89052929D01*
X145974006Y-88909668D01*
X145985003Y-88798015D01*
X145985003Y-88798006D01*
X145988679Y-88760683D01*
X145985003Y-88723360D01*
X145985003Y-87975695D01*
X146146520Y-87975695D01*
X146215822Y-88727938D01*
X146430548Y-89452208D01*
X146782445Y-90120670D01*
X146809452Y-90161088D01*
X147299119Y-90521276D01*
X149820395Y-88000000D01*
X147299119Y-85478724D01*
X146809452Y-85838912D01*
X146449151Y-86502882D01*
X146225306Y-87224385D01*
X146146520Y-87975695D01*
X145985003Y-87975695D01*
X145985003Y-85299119D01*
X147478724Y-85299119D01*
X150000000Y-87820395D01*
X152521276Y-85299119D01*
X152161088Y-84809452D01*
X151497118Y-84449151D01*
X150775615Y-84225306D01*
X150024305Y-84146520D01*
X149272062Y-84215822D01*
X148547792Y-84430548D01*
X147879330Y-84782445D01*
X147838912Y-84809452D01*
X147478724Y-85299119D01*
X145985003Y-85299119D01*
X145985003Y-82014744D01*
X146016842Y-82027932D01*
X146303740Y-82085000D01*
X146596260Y-82085000D01*
X146883158Y-82027932D01*
X147153411Y-81915990D01*
X147396632Y-81753475D01*
X147603475Y-81546632D01*
X147720000Y-81372240D01*
X147836525Y-81546632D01*
X148043368Y-81753475D01*
X148286589Y-81915990D01*
X148556842Y-82027932D01*
X148843740Y-82085000D01*
X149136260Y-82085000D01*
X149423158Y-82027932D01*
X149693411Y-81915990D01*
X149936632Y-81753475D01*
X150143475Y-81546632D01*
X150260000Y-81372240D01*
X150376525Y-81546632D01*
X150583368Y-81753475D01*
X150826589Y-81915990D01*
X151096842Y-82027932D01*
X151383740Y-82085000D01*
X151676260Y-82085000D01*
X151963158Y-82027932D01*
X152233411Y-81915990D01*
X152476632Y-81753475D01*
X152683475Y-81546632D01*
X152800000Y-81372240D01*
X152916525Y-81546632D01*
X153123368Y-81753475D01*
X153366589Y-81915990D01*
X153636842Y-82027932D01*
X153923740Y-82085000D01*
X154216260Y-82085000D01*
X154485001Y-82031544D01*
X154485001Y-88280197D01*
X153678038Y-89087161D01*
X153774694Y-88775615D01*
X153853480Y-88024305D01*
X153784178Y-87272062D01*
X153569452Y-86547792D01*
X153217555Y-85879330D01*
X153190548Y-85838912D01*
X152700881Y-85478724D01*
X150179605Y-88000000D01*
X150193748Y-88014143D01*
X150014143Y-88193748D01*
X150000000Y-88179605D01*
X147478724Y-90700881D01*
X147838912Y-91190548D01*
X148502882Y-91550849D01*
X149224385Y-91774694D01*
X149975695Y-91853480D01*
X150727938Y-91784178D01*
X151087671Y-91677527D01*
X145323887Y-97441312D01*
X145141335Y-97405000D01*
X144858665Y-97405000D01*
X144581426Y-97460147D01*
X144320273Y-97568320D01*
X144085241Y-97725363D01*
X143885363Y-97925241D01*
X143728320Y-98160273D01*
X143620147Y-98421426D01*
X143565000Y-98698665D01*
X143565000Y-98981335D01*
X143620147Y-99258574D01*
X143728320Y-99519727D01*
X143885363Y-99754759D01*
X144085241Y-99954637D01*
X144320273Y-100111680D01*
X144581426Y-100219853D01*
X144858665Y-100275000D01*
X145141335Y-100275000D01*
X145418574Y-100219853D01*
X145679727Y-100111680D01*
X145914759Y-99954637D01*
X146114637Y-99754759D01*
X146271680Y-99519727D01*
X146379853Y-99258574D01*
X146435000Y-98981335D01*
X146435000Y-98698665D01*
X146398688Y-98516113D01*
X155756005Y-89158797D01*
X155785002Y-89135000D01*
X155879975Y-89019275D01*
X155950547Y-88887246D01*
X155994004Y-88743985D01*
X156005001Y-88632332D01*
X156005001Y-88632323D01*
X156008677Y-88595000D01*
X156005001Y-88557677D01*
X156005001Y-87414036D01*
X156009744Y-87417205D01*
X156198102Y-87495226D01*
X156398061Y-87535000D01*
X156601939Y-87535000D01*
X156801898Y-87495226D01*
X156990256Y-87417205D01*
X157159774Y-87303937D01*
X157303937Y-87159774D01*
X157417205Y-86990256D01*
X157495226Y-86801898D01*
X157535000Y-86601939D01*
X157535000Y-86398061D01*
X157495226Y-86198102D01*
X157417205Y-86009744D01*
X157303937Y-85840226D01*
X157260000Y-85796289D01*
X157260000Y-81938113D01*
X157313411Y-81915990D01*
X157556632Y-81753475D01*
X157763475Y-81546632D01*
X157880000Y-81372240D01*
X157996525Y-81546632D01*
X158203368Y-81753475D01*
X158240001Y-81777952D01*
X158240000Y-86796289D01*
X158196063Y-86840226D01*
X158082795Y-87009744D01*
X158004774Y-87198102D01*
X157965000Y-87398061D01*
X157965000Y-87601939D01*
X158004774Y-87801898D01*
X158082795Y-87990256D01*
X158196063Y-88159774D01*
X158340226Y-88303937D01*
X158509744Y-88417205D01*
X158698102Y-88495226D01*
X158898061Y-88535000D01*
X159101939Y-88535000D01*
X159301898Y-88495226D01*
X159490256Y-88417205D01*
X159659774Y-88303937D01*
X159803937Y-88159774D01*
X159917205Y-87990256D01*
X159995226Y-87801898D01*
X160035000Y-87601939D01*
X160035000Y-87398061D01*
X159995226Y-87198102D01*
X159917205Y-87009744D01*
X159803937Y-86840226D01*
X159760000Y-86796289D01*
X159760000Y-81954682D01*
X159853411Y-81915990D01*
X160096632Y-81753475D01*
X160303475Y-81546632D01*
X160420000Y-81372240D01*
X160536525Y-81546632D01*
X160743368Y-81753475D01*
X160986589Y-81915990D01*
X160990001Y-81917403D01*
X160990000Y-88046289D01*
X160946063Y-88090226D01*
X160832795Y-88259744D01*
X160754774Y-88448102D01*
X160715000Y-88648061D01*
X160715000Y-88851939D01*
X160754774Y-89051898D01*
X160832795Y-89240256D01*
X160946063Y-89409774D01*
X161090226Y-89553937D01*
X161259744Y-89667205D01*
X161448102Y-89745226D01*
X161648061Y-89785000D01*
X161851939Y-89785000D01*
X162051898Y-89745226D01*
X162240256Y-89667205D01*
X162409774Y-89553937D01*
X162553937Y-89409774D01*
X162667205Y-89240256D01*
X162740000Y-89064514D01*
X162740000Y-90025198D01*
X155323887Y-97441312D01*
X155141335Y-97405000D01*
X154858665Y-97405000D01*
X154581426Y-97460147D01*
X154320273Y-97568320D01*
X154085241Y-97725363D01*
X153885363Y-97925241D01*
X153728320Y-98160273D01*
X153620147Y-98421426D01*
X153565000Y-98698665D01*
X153565000Y-98981335D01*
X153620147Y-99258574D01*
X153728320Y-99519727D01*
X153885363Y-99754759D01*
X154085241Y-99954637D01*
X154320273Y-100111680D01*
X154581426Y-100219853D01*
X154858665Y-100275000D01*
X155141335Y-100275000D01*
X155418574Y-100219853D01*
X155679727Y-100111680D01*
X155914759Y-99954637D01*
X156114637Y-99754759D01*
X156271680Y-99519727D01*
X156379853Y-99258574D01*
X156435000Y-98981335D01*
X156435000Y-98698665D01*
X156398688Y-98516113D01*
X164011004Y-90903798D01*
X164040001Y-90880001D01*
X164134974Y-90764276D01*
X164205546Y-90632247D01*
X164240000Y-90518664D01*
X164240000Y-97621957D01*
X164085241Y-97725363D01*
X163885363Y-97925241D01*
X163728320Y-98160273D01*
X163620147Y-98421426D01*
X163565000Y-98698665D01*
X163565000Y-98981335D01*
X163620147Y-99258574D01*
X163728320Y-99519727D01*
X163885363Y-99754759D01*
X164085241Y-99954637D01*
X164320273Y-100111680D01*
X164581426Y-100219853D01*
X164858665Y-100275000D01*
X165141335Y-100275000D01*
X165418574Y-100219853D01*
X165679727Y-100111680D01*
X165914759Y-99954637D01*
X166114637Y-99754759D01*
X166271680Y-99519727D01*
X166379853Y-99258574D01*
X166435000Y-98981335D01*
X166435000Y-98698665D01*
X166379853Y-98421426D01*
X166271680Y-98160273D01*
X166114637Y-97925241D01*
X165914759Y-97725363D01*
X165760000Y-97621957D01*
X165760000Y-81690107D01*
X165823368Y-81753475D01*
X166066589Y-81915990D01*
X166336842Y-82027932D01*
X166623740Y-82085000D01*
X166916260Y-82085000D01*
X167203158Y-82027932D01*
X167473411Y-81915990D01*
X167716632Y-81753475D01*
X167923475Y-81546632D01*
X168040000Y-81372240D01*
X168156525Y-81546632D01*
X168363368Y-81753475D01*
X168606589Y-81915990D01*
X168876842Y-82027932D01*
X169163740Y-82085000D01*
X169456260Y-82085000D01*
X169743158Y-82027932D01*
X170013411Y-81915990D01*
X170256632Y-81753475D01*
X170463475Y-81546632D01*
X170580000Y-81372240D01*
X170696525Y-81546632D01*
X170903368Y-81753475D01*
X171146589Y-81915990D01*
X171416842Y-82027932D01*
X171490001Y-82042484D01*
X171490000Y-98046289D01*
X171446063Y-98090226D01*
X171332795Y-98259744D01*
X171254774Y-98448102D01*
X171215000Y-98648061D01*
X171215000Y-98851939D01*
X171254774Y-99051898D01*
X171332795Y-99240256D01*
X171446063Y-99409774D01*
X171590226Y-99553937D01*
X171759744Y-99667205D01*
X171948102Y-99745226D01*
X172148061Y-99785000D01*
X172351939Y-99785000D01*
X172551898Y-99745226D01*
X172740256Y-99667205D01*
X172909774Y-99553937D01*
X173053937Y-99409774D01*
X173167205Y-99240256D01*
X173245226Y-99051898D01*
X173285000Y-98851939D01*
X173285000Y-98648061D01*
X173245226Y-98448102D01*
X173167205Y-98259744D01*
X173053937Y-98090226D01*
X173010000Y-98046289D01*
X173010000Y-81536867D01*
X173120000Y-81372240D01*
X173236525Y-81546632D01*
X173443368Y-81753475D01*
X173686589Y-81915990D01*
X173740001Y-81938114D01*
X173740000Y-99296289D01*
X173696063Y-99340226D01*
X173582795Y-99509744D01*
X173504774Y-99698102D01*
X173465000Y-99898061D01*
X173465000Y-100101939D01*
X173504774Y-100301898D01*
X173582795Y-100490256D01*
X173696063Y-100659774D01*
X173840226Y-100803937D01*
X174009744Y-100917205D01*
X174198102Y-100995226D01*
X174398061Y-101035000D01*
X174601939Y-101035000D01*
X174801898Y-100995226D01*
X174990256Y-100917205D01*
X175159774Y-100803937D01*
X175303937Y-100659774D01*
X175417205Y-100490256D01*
X175495226Y-100301898D01*
X175535000Y-100101939D01*
X175535000Y-99898061D01*
X175495226Y-99698102D01*
X175417205Y-99509744D01*
X175303937Y-99340226D01*
X175260000Y-99296289D01*
X175260000Y-81804679D01*
X175336632Y-81753475D01*
X175543475Y-81546632D01*
X175660000Y-81372240D01*
X175776525Y-81546632D01*
X175983368Y-81753475D01*
X176226589Y-81915990D01*
X176496842Y-82027932D01*
X176783740Y-82085000D01*
X177076260Y-82085000D01*
X177363158Y-82027932D01*
X177633411Y-81915990D01*
X177876632Y-81753475D01*
X178083475Y-81546632D01*
X178200000Y-81372240D01*
X178316525Y-81546632D01*
X178523368Y-81753475D01*
X178766589Y-81915990D01*
X179036842Y-82027932D01*
X179323740Y-82085000D01*
X179616260Y-82085000D01*
X179903158Y-82027932D01*
X180173411Y-81915990D01*
X180416632Y-81753475D01*
X180623475Y-81546632D01*
X180785990Y-81303411D01*
X180897932Y-81033158D01*
X180955000Y-80746260D01*
X180955000Y-80453740D01*
X180897932Y-80166842D01*
X180785990Y-79896589D01*
X180623475Y-79653368D01*
X180475976Y-79505869D01*
X187241104Y-79505869D01*
X187241128Y-79512850D01*
X187244042Y-79541547D01*
X187243840Y-79570401D01*
X187244740Y-79579572D01*
X187265141Y-79773669D01*
X187277168Y-79832258D01*
X187288377Y-79891023D01*
X187291041Y-79899845D01*
X187348753Y-80086283D01*
X187371938Y-80141438D01*
X187394342Y-80196891D01*
X187398668Y-80205027D01*
X187491493Y-80376704D01*
X187524946Y-80426299D01*
X187557700Y-80476353D01*
X187563524Y-80483494D01*
X187687928Y-80633872D01*
X187730363Y-80676011D01*
X187772226Y-80718761D01*
X187779327Y-80724634D01*
X187930569Y-80847984D01*
X187980377Y-80881077D01*
X188029751Y-80914884D01*
X188037857Y-80919267D01*
X188210180Y-81010892D01*
X188265492Y-81033690D01*
X188320466Y-81057252D01*
X188329269Y-81059977D01*
X188516106Y-81116386D01*
X188574786Y-81128005D01*
X188633296Y-81140442D01*
X188642461Y-81141405D01*
X188836694Y-81160450D01*
X188836698Y-81160450D01*
X188868681Y-81163600D01*
X191433519Y-81163600D01*
X191461774Y-81160817D01*
X191467901Y-81160860D01*
X191477072Y-81159960D01*
X191671169Y-81139559D01*
X191729758Y-81127532D01*
X191788523Y-81116323D01*
X191797345Y-81113659D01*
X191983783Y-81055947D01*
X192038938Y-81032762D01*
X192094391Y-81010358D01*
X192102527Y-81006032D01*
X192274204Y-80913207D01*
X192323799Y-80879754D01*
X192373853Y-80847000D01*
X192380994Y-80841176D01*
X192531372Y-80716772D01*
X192573511Y-80674337D01*
X192616261Y-80632474D01*
X192622134Y-80625373D01*
X192745484Y-80474131D01*
X192778577Y-80424323D01*
X192812384Y-80374949D01*
X192816767Y-80366843D01*
X192908392Y-80194520D01*
X192931190Y-80139208D01*
X192954752Y-80084234D01*
X192957477Y-80075431D01*
X193013886Y-79888594D01*
X193025505Y-79829914D01*
X193037942Y-79771404D01*
X193038905Y-79762239D01*
X193057950Y-79568006D01*
X193057950Y-79539195D01*
X193061064Y-79510546D01*
X193061096Y-79501331D01*
X193061072Y-79494350D01*
X193058158Y-79465653D01*
X193058360Y-79436799D01*
X193057460Y-79427628D01*
X193037059Y-79233531D01*
X193025034Y-79174948D01*
X193013823Y-79116177D01*
X193011159Y-79107355D01*
X192953447Y-78920917D01*
X192930262Y-78865762D01*
X192907858Y-78810309D01*
X192903532Y-78802173D01*
X192810707Y-78630496D01*
X192777239Y-78580878D01*
X192744500Y-78530847D01*
X192738676Y-78523706D01*
X192614272Y-78373328D01*
X192571837Y-78331189D01*
X192529974Y-78288439D01*
X192522873Y-78282566D01*
X192371631Y-78159216D01*
X192321838Y-78126134D01*
X192272449Y-78092316D01*
X192264343Y-78087933D01*
X192092021Y-77996308D01*
X192036706Y-77973509D01*
X191981734Y-77949948D01*
X191972931Y-77947223D01*
X191786095Y-77890814D01*
X191727407Y-77879194D01*
X191668904Y-77866758D01*
X191659739Y-77865795D01*
X191465505Y-77846750D01*
X191465502Y-77846750D01*
X191433519Y-77843600D01*
X188868681Y-77843600D01*
X188840426Y-77846383D01*
X188834299Y-77846340D01*
X188825128Y-77847240D01*
X188631031Y-77867641D01*
X188572448Y-77879666D01*
X188513677Y-77890877D01*
X188504855Y-77893541D01*
X188318417Y-77951253D01*
X188263262Y-77974438D01*
X188207809Y-77996842D01*
X188199673Y-78001168D01*
X188027996Y-78093993D01*
X187978378Y-78127461D01*
X187928347Y-78160200D01*
X187921206Y-78166024D01*
X187770828Y-78290428D01*
X187728689Y-78332863D01*
X187685939Y-78374726D01*
X187680066Y-78381827D01*
X187556716Y-78533069D01*
X187523634Y-78582862D01*
X187489816Y-78632251D01*
X187485433Y-78640357D01*
X187393808Y-78812679D01*
X187371009Y-78867994D01*
X187347448Y-78922966D01*
X187344723Y-78931769D01*
X187288314Y-79118605D01*
X187276694Y-79177293D01*
X187264258Y-79235796D01*
X187263295Y-79244961D01*
X187244250Y-79439195D01*
X187244250Y-79468005D01*
X187241136Y-79496654D01*
X187241104Y-79505869D01*
X180475976Y-79505869D01*
X180416632Y-79446525D01*
X180173411Y-79284010D01*
X179903158Y-79172068D01*
X179616260Y-79115000D01*
X179323740Y-79115000D01*
X179036842Y-79172068D01*
X178766589Y-79284010D01*
X178523368Y-79446525D01*
X178316525Y-79653368D01*
X178200000Y-79827760D01*
X178083475Y-79653368D01*
X177876632Y-79446525D01*
X177633411Y-79284010D01*
X177363158Y-79172068D01*
X177076260Y-79115000D01*
X176783740Y-79115000D01*
X176496842Y-79172068D01*
X176226589Y-79284010D01*
X175983368Y-79446525D01*
X175776525Y-79653368D01*
X175660000Y-79827760D01*
X175543475Y-79653368D01*
X175336632Y-79446525D01*
X175093411Y-79284010D01*
X174823158Y-79172068D01*
X174536260Y-79115000D01*
X174243740Y-79115000D01*
X173956842Y-79172068D01*
X173686589Y-79284010D01*
X173443368Y-79446525D01*
X173236525Y-79653368D01*
X173120000Y-79827760D01*
X173003475Y-79653368D01*
X172796632Y-79446525D01*
X172553411Y-79284010D01*
X172283158Y-79172068D01*
X171996260Y-79115000D01*
X171703740Y-79115000D01*
X171416842Y-79172068D01*
X171146589Y-79284010D01*
X170903368Y-79446525D01*
X170696525Y-79653368D01*
X170580000Y-79827760D01*
X170463475Y-79653368D01*
X170256632Y-79446525D01*
X170013411Y-79284010D01*
X169743158Y-79172068D01*
X169456260Y-79115000D01*
X169163740Y-79115000D01*
X168876842Y-79172068D01*
X168606589Y-79284010D01*
X168363368Y-79446525D01*
X168156525Y-79653368D01*
X168040000Y-79827760D01*
X167923475Y-79653368D01*
X167716632Y-79446525D01*
X167473411Y-79284010D01*
X167203158Y-79172068D01*
X166916260Y-79115000D01*
X166623740Y-79115000D01*
X166336842Y-79172068D01*
X166066589Y-79284010D01*
X165823368Y-79446525D01*
X165760000Y-79509893D01*
X165760000Y-76398061D01*
X196465000Y-76398061D01*
X196465000Y-76601939D01*
X196504774Y-76801898D01*
X196582795Y-76990256D01*
X196696063Y-77159774D01*
X196840226Y-77303937D01*
X197009744Y-77417205D01*
X197198102Y-77495226D01*
X197398061Y-77535000D01*
X197601939Y-77535000D01*
X197801898Y-77495226D01*
X197990256Y-77417205D01*
X198159774Y-77303937D01*
X198203711Y-77260000D01*
X201796289Y-77260000D01*
X201840226Y-77303937D01*
X202009744Y-77417205D01*
X202198102Y-77495226D01*
X202398061Y-77535000D01*
X202601939Y-77535000D01*
X202801898Y-77495226D01*
X202990256Y-77417205D01*
X203159774Y-77303937D01*
X203303937Y-77159774D01*
X203417205Y-76990256D01*
X203495226Y-76801898D01*
X203535000Y-76601939D01*
X203535000Y-76398061D01*
X203495226Y-76198102D01*
X203417205Y-76009744D01*
X203303937Y-75840226D01*
X203159774Y-75696063D01*
X202990256Y-75582795D01*
X202801898Y-75504774D01*
X202601939Y-75465000D01*
X202398061Y-75465000D01*
X202198102Y-75504774D01*
X202009744Y-75582795D01*
X201840226Y-75696063D01*
X201796289Y-75740000D01*
X198203711Y-75740000D01*
X198159774Y-75696063D01*
X197990256Y-75582795D01*
X197801898Y-75504774D01*
X197601939Y-75465000D01*
X197398061Y-75465000D01*
X197198102Y-75504774D01*
X197009744Y-75582795D01*
X196840226Y-75696063D01*
X196696063Y-75840226D01*
X196582795Y-76009744D01*
X196504774Y-76198102D01*
X196465000Y-76398061D01*
X165760000Y-76398061D01*
X165760000Y-72549801D01*
X169411740Y-68898061D01*
X194465000Y-68898061D01*
X194465000Y-69101939D01*
X194504774Y-69301898D01*
X194582795Y-69490256D01*
X194696063Y-69659774D01*
X194840226Y-69803937D01*
X195009744Y-69917205D01*
X195198102Y-69995226D01*
X195398061Y-70035000D01*
X195601939Y-70035000D01*
X195801898Y-69995226D01*
X195990256Y-69917205D01*
X196159774Y-69803937D01*
X196203711Y-69760000D01*
X200796289Y-69760000D01*
X200840226Y-69803937D01*
X201009744Y-69917205D01*
X201198102Y-69995226D01*
X201398061Y-70035000D01*
X201601939Y-70035000D01*
X201801898Y-69995226D01*
X201990256Y-69917205D01*
X202159774Y-69803937D01*
X202303937Y-69659774D01*
X202417205Y-69490256D01*
X202495226Y-69301898D01*
X202535000Y-69101939D01*
X202535000Y-68898061D01*
X202495226Y-68698102D01*
X202417205Y-68509744D01*
X202303937Y-68340226D01*
X202159774Y-68196063D01*
X201990256Y-68082795D01*
X201801898Y-68004774D01*
X201601939Y-67965000D01*
X201398061Y-67965000D01*
X201198102Y-68004774D01*
X201009744Y-68082795D01*
X200840226Y-68196063D01*
X200796289Y-68240000D01*
X200507538Y-68240000D01*
X200535000Y-68101939D01*
X200535000Y-68035000D01*
X200601939Y-68035000D01*
X200801898Y-67995226D01*
X200990256Y-67917205D01*
X201159774Y-67803937D01*
X201303937Y-67659774D01*
X201417205Y-67490256D01*
X201495226Y-67301898D01*
X201535000Y-67101939D01*
X201535000Y-66898061D01*
X201495226Y-66698102D01*
X201417205Y-66509744D01*
X201303937Y-66340226D01*
X201159774Y-66196063D01*
X200990256Y-66082795D01*
X200801898Y-66004774D01*
X200601939Y-65965000D01*
X200398061Y-65965000D01*
X200198102Y-66004774D01*
X200009744Y-66082795D01*
X199840226Y-66196063D01*
X199796287Y-66240002D01*
X198203711Y-66240002D01*
X198159774Y-66196065D01*
X197990256Y-66082797D01*
X197801898Y-66004776D01*
X197601939Y-65965002D01*
X197398061Y-65965002D01*
X197198102Y-66004776D01*
X197009744Y-66082797D01*
X196840226Y-66196065D01*
X196696063Y-66340228D01*
X196582795Y-66509746D01*
X196504774Y-66698104D01*
X196465000Y-66898063D01*
X196465000Y-66965000D01*
X196398061Y-66965000D01*
X196198102Y-67004774D01*
X196009744Y-67082795D01*
X195840226Y-67196063D01*
X195696063Y-67340226D01*
X195582795Y-67509744D01*
X195504774Y-67698102D01*
X195465000Y-67898061D01*
X195465000Y-67965000D01*
X195398061Y-67965000D01*
X195198102Y-68004774D01*
X195009744Y-68082795D01*
X194840226Y-68196063D01*
X194696063Y-68340226D01*
X194582795Y-68509744D01*
X194504774Y-68698102D01*
X194465000Y-68898061D01*
X169411740Y-68898061D01*
X171483592Y-66826210D01*
X171703740Y-66870000D01*
X171996260Y-66870000D01*
X172283158Y-66812932D01*
X172553411Y-66700990D01*
X172796632Y-66538475D01*
X173003475Y-66331632D01*
X173120000Y-66157240D01*
X173236525Y-66331632D01*
X173443368Y-66538475D01*
X173686589Y-66700990D01*
X173956842Y-66812932D01*
X174243740Y-66870000D01*
X174536260Y-66870000D01*
X174823158Y-66812932D01*
X175093411Y-66700990D01*
X175336632Y-66538475D01*
X175543475Y-66331632D01*
X175660000Y-66157240D01*
X175776525Y-66331632D01*
X175983368Y-66538475D01*
X176226589Y-66700990D01*
X176496842Y-66812932D01*
X176783740Y-66870000D01*
X177076260Y-66870000D01*
X177363158Y-66812932D01*
X177633411Y-66700990D01*
X177876632Y-66538475D01*
X178083475Y-66331632D01*
X178200000Y-66157240D01*
X178316525Y-66331632D01*
X178523368Y-66538475D01*
X178766589Y-66700990D01*
X179036842Y-66812932D01*
X179323740Y-66870000D01*
X179616260Y-66870000D01*
X179903158Y-66812932D01*
X180173411Y-66700990D01*
X180416632Y-66538475D01*
X180623475Y-66331632D01*
X180785990Y-66088411D01*
X180897932Y-65818158D01*
X180955000Y-65531260D01*
X180955000Y-65238740D01*
X180897932Y-64951842D01*
X180785990Y-64681589D01*
X180623475Y-64438368D01*
X180416632Y-64231525D01*
X180173411Y-64069010D01*
X179903158Y-63957068D01*
X179616260Y-63900000D01*
X179323740Y-63900000D01*
X179036842Y-63957068D01*
X178766589Y-64069010D01*
X178523368Y-64231525D01*
X178316525Y-64438368D01*
X178200000Y-64612760D01*
X178083475Y-64438368D01*
X177876632Y-64231525D01*
X177633411Y-64069010D01*
X177363158Y-63957068D01*
X177076260Y-63900000D01*
X176783740Y-63900000D01*
X176496842Y-63957068D01*
X176226589Y-64069010D01*
X175983368Y-64231525D01*
X175776525Y-64438368D01*
X175660000Y-64612760D01*
X175543475Y-64438368D01*
X175336632Y-64231525D01*
X175093411Y-64069010D01*
X174823158Y-63957068D01*
X174536260Y-63900000D01*
X174243740Y-63900000D01*
X173956842Y-63957068D01*
X173686589Y-64069010D01*
X173443368Y-64231525D01*
X173236525Y-64438368D01*
X173120000Y-64612760D01*
X173003475Y-64438368D01*
X172796632Y-64231525D01*
X172553411Y-64069010D01*
X172283158Y-63957068D01*
X171996260Y-63900000D01*
X171703740Y-63900000D01*
X171416842Y-63957068D01*
X171146589Y-64069010D01*
X170903368Y-64231525D01*
X170696525Y-64438368D01*
X170580000Y-64612760D01*
X170463475Y-64438368D01*
X170256632Y-64231525D01*
X170013411Y-64069010D01*
X169743158Y-63957068D01*
X169456260Y-63900000D01*
X169163740Y-63900000D01*
X168876842Y-63957068D01*
X168606589Y-64069010D01*
X168363368Y-64231525D01*
X168156525Y-64438368D01*
X168040000Y-64612760D01*
X167923475Y-64438368D01*
X167716632Y-64231525D01*
X167473411Y-64069010D01*
X167203158Y-63957068D01*
X166916260Y-63900000D01*
X166623740Y-63900000D01*
X166336842Y-63957068D01*
X166066589Y-64069010D01*
X165823368Y-64231525D01*
X165616525Y-64438368D01*
X165454010Y-64681589D01*
X165342068Y-64951842D01*
X165285000Y-65238740D01*
X165285000Y-65531260D01*
X165342068Y-65818158D01*
X165454010Y-66088411D01*
X165616525Y-66331632D01*
X165823368Y-66538475D01*
X166066589Y-66700990D01*
X166336842Y-66812932D01*
X166623740Y-66870000D01*
X166916260Y-66870000D01*
X167203158Y-66812932D01*
X167473411Y-66700990D01*
X167716632Y-66538475D01*
X167923475Y-66331632D01*
X168040000Y-66157240D01*
X168156525Y-66331632D01*
X168363368Y-66538475D01*
X168606589Y-66700990D01*
X168876842Y-66812932D01*
X169163740Y-66870000D01*
X169290198Y-66870000D01*
X164488998Y-71671201D01*
X164460000Y-71694999D01*
X164436202Y-71723997D01*
X164436201Y-71723998D01*
X164365026Y-71810724D01*
X164294454Y-71942754D01*
X164260000Y-72056338D01*
X164260000Y-65493331D01*
X164263677Y-65455998D01*
X164249003Y-65307012D01*
X164205546Y-65163751D01*
X164134974Y-65031722D01*
X164063799Y-64944995D01*
X164040001Y-64915997D01*
X164011003Y-64892199D01*
X162367796Y-63248993D01*
X162343993Y-63219989D01*
X162228268Y-63125016D01*
X162096239Y-63054444D01*
X161952978Y-63010987D01*
X161841325Y-62999990D01*
X161841314Y-62999990D01*
X161803992Y-62996314D01*
X161766670Y-62999990D01*
X155732332Y-62999990D01*
X155695009Y-62996314D01*
X155657686Y-62999990D01*
X155657677Y-62999990D01*
X155546024Y-63010987D01*
X155402763Y-63054444D01*
X155270734Y-63125016D01*
X155155009Y-63219989D01*
X155131211Y-63248987D01*
X154436408Y-63943790D01*
X154216260Y-63900000D01*
X153923740Y-63900000D01*
X153636842Y-63957068D01*
X153366589Y-64069010D01*
X153123368Y-64231525D01*
X152916525Y-64438368D01*
X152800000Y-64612760D01*
X152683475Y-64438368D01*
X152476632Y-64231525D01*
X152233411Y-64069010D01*
X151963158Y-63957068D01*
X151676260Y-63900000D01*
X151383740Y-63900000D01*
X151096842Y-63957068D01*
X150826589Y-64069010D01*
X150583368Y-64231525D01*
X150376525Y-64438368D01*
X150260000Y-64612760D01*
X150143475Y-64438368D01*
X149936632Y-64231525D01*
X149693411Y-64069010D01*
X149423158Y-63957068D01*
X149136260Y-63900000D01*
X148843740Y-63900000D01*
X148556842Y-63957068D01*
X148286589Y-64069010D01*
X148043368Y-64231525D01*
X147836525Y-64438368D01*
X147720000Y-64612760D01*
X147603475Y-64438368D01*
X147396632Y-64231525D01*
X147153411Y-64069010D01*
X146883158Y-63957068D01*
X146596260Y-63900000D01*
X146303740Y-63900000D01*
X146016842Y-63957068D01*
X145746589Y-64069010D01*
X145503368Y-64231525D01*
X145296525Y-64438368D01*
X145180000Y-64612760D01*
X145063475Y-64438368D01*
X144856632Y-64231525D01*
X144613411Y-64069010D01*
X144343158Y-63957068D01*
X144056260Y-63900000D01*
X143763740Y-63900000D01*
X143476842Y-63957068D01*
X143206589Y-64069010D01*
X142963368Y-64231525D01*
X142756525Y-64438368D01*
X142640000Y-64612760D01*
X142523475Y-64438368D01*
X142316632Y-64231525D01*
X142073411Y-64069010D01*
X141803158Y-63957068D01*
X141516260Y-63900000D01*
X141223740Y-63900000D01*
X140936842Y-63957068D01*
X140666589Y-64069010D01*
X140423368Y-64231525D01*
X140216525Y-64438368D01*
X140100000Y-64612760D01*
X139983475Y-64438368D01*
X139776632Y-64231525D01*
X139533411Y-64069010D01*
X139263158Y-63957068D01*
X138976260Y-63900000D01*
X138683740Y-63900000D01*
X138396842Y-63957068D01*
X138126589Y-64069010D01*
X137883368Y-64231525D01*
X137676525Y-64438368D01*
X137560689Y-64611729D01*
X137318397Y-64536208D01*
X136469605Y-65385000D01*
X137318397Y-66233792D01*
X137560689Y-66158271D01*
X137676525Y-66331632D01*
X137883368Y-66538475D01*
X138057760Y-66655000D01*
X137883368Y-66771525D01*
X137676525Y-66978368D01*
X137514010Y-67221589D01*
X137402068Y-67491842D01*
X137345000Y-67778740D01*
X137345000Y-68071260D01*
X137402068Y-68358158D01*
X137514010Y-68628411D01*
X137676525Y-68871632D01*
X137883368Y-69078475D01*
X138126589Y-69240990D01*
X138396842Y-69352932D01*
X138683740Y-69410000D01*
X138976260Y-69410000D01*
X139263158Y-69352932D01*
X139533411Y-69240990D01*
X139776632Y-69078475D01*
X139983475Y-68871632D01*
X140145990Y-68628411D01*
X140257932Y-68358158D01*
X140315000Y-68071260D01*
X140315000Y-67778740D01*
X140257932Y-67491842D01*
X140145990Y-67221589D01*
X139983475Y-66978368D01*
X139776632Y-66771525D01*
X139602240Y-66655000D01*
X139776632Y-66538475D01*
X139983475Y-66331632D01*
X140100000Y-66157240D01*
X140216525Y-66331632D01*
X140423368Y-66538475D01*
X140666589Y-66700990D01*
X140936842Y-66812932D01*
X141223740Y-66870000D01*
X141516260Y-66870000D01*
X141803158Y-66812932D01*
X142073411Y-66700990D01*
X142316632Y-66538475D01*
X142523475Y-66331632D01*
X142640000Y-66157240D01*
X142756525Y-66331632D01*
X142963368Y-66538475D01*
X143206589Y-66700990D01*
X143476842Y-66812932D01*
X143763740Y-66870000D01*
X144056260Y-66870000D01*
X144343158Y-66812932D01*
X144613411Y-66700990D01*
X144856632Y-66538475D01*
X145063475Y-66331632D01*
X145180000Y-66157240D01*
X145296525Y-66331632D01*
X145503368Y-66538475D01*
X145746589Y-66700990D01*
X146016842Y-66812932D01*
X146303740Y-66870000D01*
X146430198Y-66870000D01*
X142224002Y-71076197D01*
X142194998Y-71100000D01*
X142166296Y-71134974D01*
X142100025Y-71215725D01*
X142043622Y-71321247D01*
X142029453Y-71347755D01*
X141985996Y-71491016D01*
X141974999Y-71602669D01*
X141974999Y-71602679D01*
X141971323Y-71640001D01*
X141974999Y-71677323D01*
X141974999Y-79243301D01*
X141877117Y-79196629D01*
X141593589Y-79124661D01*
X141301469Y-79109389D01*
X141011981Y-79151401D01*
X140736253Y-79249081D01*
X140598843Y-79322528D01*
X140521208Y-79571603D01*
X141370000Y-80420395D01*
X141384143Y-80406253D01*
X141563748Y-80585858D01*
X141549605Y-80600000D01*
X141563748Y-80614143D01*
X141384143Y-80793748D01*
X141370000Y-80779605D01*
X140521208Y-81628397D01*
X140598843Y-81877472D01*
X140862883Y-82003371D01*
X141146411Y-82075339D01*
X141438531Y-82090611D01*
X141728019Y-82048599D01*
X141975000Y-81961103D01*
X141975000Y-88061289D01*
X141946063Y-88090226D01*
X141832795Y-88259744D01*
X141754774Y-88448102D01*
X141715000Y-88648061D01*
X141715000Y-88851939D01*
X141754774Y-89051898D01*
X141832795Y-89240256D01*
X141946063Y-89409774D01*
X142090226Y-89553937D01*
X142259744Y-89667205D01*
X142448102Y-89745226D01*
X142648061Y-89785000D01*
X142851939Y-89785000D01*
X143051898Y-89745226D01*
X143240256Y-89667205D01*
X143250569Y-89660314D01*
X135441317Y-97469567D01*
X135418574Y-97460147D01*
X135141335Y-97405000D01*
X134858665Y-97405000D01*
X134581426Y-97460147D01*
X134320273Y-97568320D01*
X134085241Y-97725363D01*
X133885363Y-97925241D01*
X133728320Y-98160273D01*
X133620147Y-98421426D01*
X133565000Y-98698665D01*
X106397000Y-98698665D01*
X106397000Y-98612408D01*
X106366372Y-98458429D01*
X110011004Y-94813798D01*
X110040001Y-94790001D01*
X110082084Y-94738723D01*
X110134974Y-94674277D01*
X110205546Y-94542247D01*
X110231267Y-94457454D01*
X110249003Y-94398986D01*
X110260000Y-94287333D01*
X110260000Y-94287324D01*
X110263676Y-94250001D01*
X110260000Y-94212678D01*
X110260000Y-86203711D01*
X110303937Y-86159774D01*
X110417205Y-85990256D01*
X110495226Y-85801898D01*
X110535000Y-85601939D01*
X110535000Y-85398061D01*
X110495226Y-85198102D01*
X110417205Y-85009744D01*
X110303937Y-84840226D01*
X110159774Y-84696063D01*
X109990256Y-84582795D01*
X109801898Y-84504774D01*
X109601939Y-84465000D01*
X109398061Y-84465000D01*
X109198102Y-84504774D01*
X109009744Y-84582795D01*
X108840226Y-84696063D01*
X108696063Y-84840226D01*
X108582795Y-85009744D01*
X108504774Y-85198102D01*
X108465000Y-85398061D01*
X108465000Y-85601939D01*
X108504774Y-85801898D01*
X108582795Y-85990256D01*
X108696063Y-86159774D01*
X108740001Y-86203712D01*
X108740001Y-86492462D01*
X108601939Y-86465000D01*
X108535000Y-86465000D01*
X108535000Y-86398061D01*
X108495226Y-86198102D01*
X108417205Y-86009744D01*
X108303937Y-85840226D01*
X108159774Y-85696063D01*
X107990256Y-85582795D01*
X107801898Y-85504774D01*
X107601939Y-85465000D01*
X107398061Y-85465000D01*
X107198102Y-85504774D01*
X107009744Y-85582795D01*
X106840226Y-85696063D01*
X106696063Y-85840226D01*
X106582795Y-86009744D01*
X106504774Y-86198102D01*
X106465000Y-86398061D01*
X106465000Y-86601939D01*
X106504774Y-86801898D01*
X106582795Y-86990256D01*
X106696063Y-87159774D01*
X106740001Y-87203712D01*
X106740000Y-92543960D01*
X106221055Y-93062905D01*
X106085120Y-92859465D01*
X105890535Y-92664880D01*
X105661727Y-92511995D01*
X105632769Y-92500000D01*
X105661727Y-92488005D01*
X105890535Y-92335120D01*
X106085120Y-92140535D01*
X106238005Y-91911727D01*
X106343314Y-91657490D01*
X106397000Y-91387592D01*
X106397000Y-91112408D01*
X106343314Y-90842510D01*
X106238005Y-90588273D01*
X106085120Y-90359465D01*
X105890535Y-90164880D01*
X105661727Y-90011995D01*
X105632769Y-90000000D01*
X105661727Y-89988005D01*
X105890535Y-89835120D01*
X106085120Y-89640535D01*
X106238005Y-89411727D01*
X106343314Y-89157490D01*
X106397000Y-88887592D01*
X106397000Y-88612408D01*
X106343314Y-88342510D01*
X106238005Y-88088273D01*
X106085120Y-87859465D01*
X105890535Y-87664880D01*
X105661727Y-87511995D01*
X105632769Y-87500000D01*
X105661727Y-87488005D01*
X105890535Y-87335120D01*
X106085120Y-87140535D01*
X106238005Y-86911727D01*
X106343314Y-86657490D01*
X106397000Y-86387592D01*
X106397000Y-86112408D01*
X106343314Y-85842510D01*
X106238005Y-85588273D01*
X106085120Y-85359465D01*
X105890535Y-85164880D01*
X105661727Y-85011995D01*
X105407490Y-84906686D01*
X105137592Y-84853000D01*
X104862408Y-84853000D01*
X104592510Y-84906686D01*
X104397000Y-84987669D01*
X104397000Y-84862408D01*
X104343314Y-84592510D01*
X104238005Y-84338273D01*
X104085120Y-84109465D01*
X103890535Y-83914880D01*
X103661727Y-83761995D01*
X103407490Y-83656686D01*
X103137592Y-83603000D01*
X102862408Y-83603000D01*
X102592510Y-83656686D01*
X102338273Y-83761995D01*
X102109465Y-83914880D01*
X101914880Y-84109465D01*
X101761995Y-84338273D01*
X101656686Y-84592510D01*
X101603000Y-84862408D01*
X101603000Y-85137592D01*
X101656686Y-85407490D01*
X101761995Y-85661727D01*
X101914880Y-85890535D01*
X102109465Y-86085120D01*
X102338273Y-86238005D01*
X102365401Y-86249242D01*
X102281020Y-86294344D01*
X102214040Y-86534435D01*
X103000000Y-87320395D01*
X103014143Y-87306253D01*
X103193748Y-87485858D01*
X103179605Y-87500000D01*
X103193748Y-87514143D01*
X103014143Y-87693748D01*
X103000000Y-87679605D01*
X102214040Y-88465565D01*
X102281020Y-88705656D01*
X102371533Y-88748218D01*
X102338273Y-88761995D01*
X102109465Y-88914880D01*
X101914880Y-89109465D01*
X101761995Y-89338273D01*
X101656686Y-89592510D01*
X101603000Y-89862408D01*
X101603000Y-90137592D01*
X101656686Y-90407490D01*
X101761995Y-90661727D01*
X101914880Y-90890535D01*
X102109465Y-91085120D01*
X102338273Y-91238005D01*
X102367231Y-91250000D01*
X102338273Y-91261995D01*
X102109465Y-91414880D01*
X101914880Y-91609465D01*
X101761995Y-91838273D01*
X101656686Y-92092510D01*
X101603000Y-92362408D01*
X101603000Y-92637592D01*
X101656686Y-92907490D01*
X101761995Y-93161727D01*
X101914880Y-93390535D01*
X102109465Y-93585120D01*
X102338273Y-93738005D01*
X102367231Y-93750000D01*
X102338273Y-93761995D01*
X102109465Y-93914880D01*
X101914880Y-94109465D01*
X101761995Y-94338273D01*
X101656686Y-94592510D01*
X101603000Y-94862408D01*
X101603000Y-95137592D01*
X101656686Y-95407490D01*
X101761995Y-95661727D01*
X101914880Y-95890535D01*
X102109465Y-96085120D01*
X102338273Y-96238005D01*
X102367231Y-96250000D01*
X102338273Y-96261995D01*
X102109465Y-96414880D01*
X101914880Y-96609465D01*
X101761995Y-96838273D01*
X101656686Y-97092510D01*
X101603000Y-97362408D01*
X101603000Y-97637592D01*
X101656686Y-97907490D01*
X101761995Y-98161727D01*
X101914880Y-98390535D01*
X102109465Y-98585120D01*
X102145292Y-98609059D01*
X102113518Y-98612188D01*
X101993820Y-98648498D01*
X101883506Y-98707463D01*
X101786815Y-98786815D01*
X101707463Y-98883506D01*
X101648498Y-98993820D01*
X101612188Y-99113518D01*
X101599928Y-99238000D01*
X101599928Y-100762000D01*
X101612188Y-100886482D01*
X101648498Y-101006180D01*
X101707463Y-101116494D01*
X101786815Y-101213185D01*
X101883506Y-101292537D01*
X101993820Y-101351502D01*
X102113518Y-101387812D01*
X102238000Y-101400072D01*
X103762000Y-101400072D01*
X103886482Y-101387812D01*
X104006180Y-101351502D01*
X104116494Y-101292537D01*
X104213185Y-101213185D01*
X104292537Y-101116494D01*
X104351502Y-101006180D01*
X104387812Y-100886482D01*
X104400072Y-100762000D01*
X104400072Y-100760000D01*
X106605199Y-100760000D01*
X115360198Y-109515000D01*
X115233740Y-109515000D01*
X114946842Y-109572068D01*
X114676589Y-109684010D01*
X114433368Y-109846525D01*
X114226525Y-110053368D01*
X114110000Y-110227760D01*
X113993475Y-110053368D01*
X113786632Y-109846525D01*
X113543411Y-109684010D01*
X113273158Y-109572068D01*
X112986260Y-109515000D01*
X112693740Y-109515000D01*
X112406842Y-109572068D01*
X112136589Y-109684010D01*
X111893368Y-109846525D01*
X111686525Y-110053368D01*
X111570000Y-110227760D01*
X111453475Y-110053368D01*
X111246632Y-109846525D01*
X111003411Y-109684010D01*
X110733158Y-109572068D01*
X110446260Y-109515000D01*
X110153740Y-109515000D01*
X109866842Y-109572068D01*
X109596589Y-109684010D01*
X109353368Y-109846525D01*
X109146525Y-110053368D01*
X109030000Y-110227760D01*
X108913475Y-110053368D01*
X108706632Y-109846525D01*
X108463411Y-109684010D01*
X108193158Y-109572068D01*
X107906260Y-109515000D01*
X107613740Y-109515000D01*
X107326842Y-109572068D01*
X107056589Y-109684010D01*
X106813368Y-109846525D01*
X106606525Y-110053368D01*
X106490000Y-110227760D01*
X106373475Y-110053368D01*
X106166632Y-109846525D01*
X105923411Y-109684010D01*
X105653158Y-109572068D01*
X105366260Y-109515000D01*
X105073740Y-109515000D01*
X104786842Y-109572068D01*
X104516589Y-109684010D01*
X104273368Y-109846525D01*
X104066525Y-110053368D01*
X103950000Y-110227760D01*
X103833475Y-110053368D01*
X103626632Y-109846525D01*
X103383411Y-109684010D01*
X103113158Y-109572068D01*
X102826260Y-109515000D01*
X102533740Y-109515000D01*
X102246842Y-109572068D01*
X101976589Y-109684010D01*
X101733368Y-109846525D01*
X101526525Y-110053368D01*
X101410000Y-110227760D01*
X101293475Y-110053368D01*
X101086632Y-109846525D01*
X100843411Y-109684010D01*
X100573158Y-109572068D01*
X100286260Y-109515000D01*
X99993740Y-109515000D01*
X99706842Y-109572068D01*
X99436589Y-109684010D01*
X99193368Y-109846525D01*
X98986525Y-110053368D01*
X98824010Y-110296589D01*
X98712068Y-110566842D01*
X98655000Y-110853740D01*
X89561100Y-110853740D01*
X89561100Y-87572017D01*
X101598090Y-87572017D01*
X101639078Y-87844133D01*
X101732364Y-88103023D01*
X101794344Y-88218980D01*
X102034435Y-88285960D01*
X102820395Y-87500000D01*
X102034435Y-86714040D01*
X101794344Y-86781020D01*
X101677244Y-87030048D01*
X101610977Y-87297135D01*
X101598090Y-87572017D01*
X89561100Y-87572017D01*
X89561100Y-79505869D01*
X106741104Y-79505869D01*
X106741128Y-79512850D01*
X106744042Y-79541547D01*
X106743840Y-79570401D01*
X106744740Y-79579572D01*
X106765141Y-79773669D01*
X106777168Y-79832258D01*
X106788377Y-79891023D01*
X106791041Y-79899845D01*
X106848753Y-80086283D01*
X106871938Y-80141438D01*
X106894342Y-80196891D01*
X106898668Y-80205027D01*
X106991493Y-80376704D01*
X107024946Y-80426299D01*
X107057700Y-80476353D01*
X107063524Y-80483494D01*
X107187928Y-80633872D01*
X107230363Y-80676011D01*
X107272226Y-80718761D01*
X107279327Y-80724634D01*
X107430569Y-80847984D01*
X107480377Y-80881077D01*
X107529751Y-80914884D01*
X107537857Y-80919267D01*
X107710180Y-81010892D01*
X107765492Y-81033690D01*
X107820466Y-81057252D01*
X107829269Y-81059977D01*
X108016106Y-81116386D01*
X108074786Y-81128005D01*
X108133296Y-81140442D01*
X108142461Y-81141405D01*
X108336694Y-81160450D01*
X108336698Y-81160450D01*
X108368681Y-81163600D01*
X110933519Y-81163600D01*
X110961774Y-81160817D01*
X110967901Y-81160860D01*
X110977072Y-81159960D01*
X111171169Y-81139559D01*
X111229758Y-81127532D01*
X111288523Y-81116323D01*
X111297345Y-81113659D01*
X111483783Y-81055947D01*
X111538938Y-81032762D01*
X111594391Y-81010358D01*
X111602527Y-81006032D01*
X111774204Y-80913207D01*
X111823799Y-80879754D01*
X111873853Y-80847000D01*
X111880994Y-80841176D01*
X112031372Y-80716772D01*
X112073511Y-80674337D01*
X112116261Y-80632474D01*
X112122134Y-80625373D01*
X112245484Y-80474131D01*
X112278577Y-80424323D01*
X112312384Y-80374949D01*
X112316767Y-80366843D01*
X112408392Y-80194520D01*
X112431190Y-80139208D01*
X112454752Y-80084234D01*
X112457477Y-80075431D01*
X112513886Y-79888594D01*
X112525505Y-79829914D01*
X112527715Y-79819517D01*
X129190200Y-79819517D01*
X129190200Y-80161283D01*
X129256875Y-80496481D01*
X129387663Y-80812231D01*
X129577537Y-81096398D01*
X129819202Y-81338063D01*
X130103369Y-81527937D01*
X130419119Y-81658725D01*
X130754317Y-81725400D01*
X131096083Y-81725400D01*
X131431281Y-81658725D01*
X131747031Y-81527937D01*
X132031198Y-81338063D01*
X132272863Y-81096398D01*
X132320474Y-81025143D01*
X132322068Y-81033158D01*
X132434010Y-81303411D01*
X132596525Y-81546632D01*
X132803368Y-81753475D01*
X133046589Y-81915990D01*
X133316842Y-82027932D01*
X133603740Y-82085000D01*
X133896260Y-82085000D01*
X134183158Y-82027932D01*
X134453411Y-81915990D01*
X134696632Y-81753475D01*
X134903475Y-81546632D01*
X135020000Y-81372240D01*
X135136525Y-81546632D01*
X135343368Y-81753475D01*
X135586589Y-81915990D01*
X135856842Y-82027932D01*
X136143740Y-82085000D01*
X136436260Y-82085000D01*
X136723158Y-82027932D01*
X136993411Y-81915990D01*
X137236632Y-81753475D01*
X137361710Y-81628397D01*
X137981208Y-81628397D01*
X138058843Y-81877472D01*
X138322883Y-82003371D01*
X138606411Y-82075339D01*
X138898531Y-82090611D01*
X139188019Y-82048599D01*
X139463747Y-81950919D01*
X139601157Y-81877472D01*
X139678792Y-81628397D01*
X138830000Y-80779605D01*
X137981208Y-81628397D01*
X137361710Y-81628397D01*
X137443475Y-81546632D01*
X137559311Y-81373271D01*
X137801603Y-81448792D01*
X138650395Y-80600000D01*
X139009605Y-80600000D01*
X139858397Y-81448792D01*
X140100000Y-81373486D01*
X140341603Y-81448792D01*
X141190395Y-80600000D01*
X140341603Y-79751208D01*
X140100000Y-79826514D01*
X139858397Y-79751208D01*
X139009605Y-80600000D01*
X138650395Y-80600000D01*
X137801603Y-79751208D01*
X137559311Y-79826729D01*
X137443475Y-79653368D01*
X137236632Y-79446525D01*
X136993411Y-79284010D01*
X136723158Y-79172068D01*
X136436260Y-79115000D01*
X136143740Y-79115000D01*
X135856842Y-79172068D01*
X135586589Y-79284010D01*
X135343368Y-79446525D01*
X135136525Y-79653368D01*
X135020000Y-79827760D01*
X134903475Y-79653368D01*
X134696632Y-79446525D01*
X134453411Y-79284010D01*
X134183158Y-79172068D01*
X133896260Y-79115000D01*
X133603740Y-79115000D01*
X133316842Y-79172068D01*
X133046589Y-79284010D01*
X132803368Y-79446525D01*
X132622070Y-79627823D01*
X132593525Y-79484319D01*
X132462737Y-79168569D01*
X132272863Y-78884402D01*
X132031198Y-78642737D01*
X131747031Y-78452863D01*
X131431281Y-78322075D01*
X131096083Y-78255400D01*
X130754317Y-78255400D01*
X130419119Y-78322075D01*
X130103369Y-78452863D01*
X129819202Y-78642737D01*
X129577537Y-78884402D01*
X129387663Y-79168569D01*
X129256875Y-79484319D01*
X129190200Y-79819517D01*
X112527715Y-79819517D01*
X112537942Y-79771404D01*
X112538905Y-79762239D01*
X112557950Y-79568006D01*
X112557950Y-79539195D01*
X112561064Y-79510546D01*
X112561096Y-79501331D01*
X112561072Y-79494350D01*
X112558158Y-79465653D01*
X112558360Y-79436799D01*
X112557460Y-79427628D01*
X112537059Y-79233531D01*
X112525034Y-79174948D01*
X112513823Y-79116177D01*
X112511159Y-79107355D01*
X112453447Y-78920917D01*
X112430262Y-78865762D01*
X112407858Y-78810309D01*
X112403532Y-78802173D01*
X112310707Y-78630496D01*
X112277239Y-78580878D01*
X112244500Y-78530847D01*
X112238676Y-78523706D01*
X112114272Y-78373328D01*
X112071837Y-78331189D01*
X112029974Y-78288439D01*
X112022873Y-78282566D01*
X111871631Y-78159216D01*
X111821838Y-78126134D01*
X111772449Y-78092316D01*
X111764343Y-78087933D01*
X111592021Y-77996308D01*
X111536706Y-77973509D01*
X111481734Y-77949948D01*
X111472931Y-77947223D01*
X111286095Y-77890814D01*
X111227407Y-77879194D01*
X111168904Y-77866758D01*
X111159739Y-77865795D01*
X110965505Y-77846750D01*
X110965502Y-77846750D01*
X110933519Y-77843600D01*
X108368681Y-77843600D01*
X108340426Y-77846383D01*
X108334299Y-77846340D01*
X108325128Y-77847240D01*
X108131031Y-77867641D01*
X108072448Y-77879666D01*
X108013677Y-77890877D01*
X108004855Y-77893541D01*
X107818417Y-77951253D01*
X107763262Y-77974438D01*
X107707809Y-77996842D01*
X107699673Y-78001168D01*
X107527996Y-78093993D01*
X107478378Y-78127461D01*
X107428347Y-78160200D01*
X107421206Y-78166024D01*
X107270828Y-78290428D01*
X107228689Y-78332863D01*
X107185939Y-78374726D01*
X107180066Y-78381827D01*
X107056716Y-78533069D01*
X107023634Y-78582862D01*
X106989816Y-78632251D01*
X106985433Y-78640357D01*
X106893808Y-78812679D01*
X106871009Y-78867994D01*
X106847448Y-78922966D01*
X106844723Y-78931769D01*
X106788314Y-79118605D01*
X106776694Y-79177293D01*
X106764258Y-79235796D01*
X106763295Y-79244961D01*
X106744250Y-79439195D01*
X106744250Y-79468005D01*
X106741136Y-79496654D01*
X106741104Y-79505869D01*
X89561100Y-79505869D01*
X89561100Y-76398061D01*
X94965000Y-76398061D01*
X94965000Y-76601939D01*
X95004774Y-76801898D01*
X95082795Y-76990256D01*
X95196063Y-77159774D01*
X95340226Y-77303937D01*
X95509744Y-77417205D01*
X95698102Y-77495226D01*
X95898061Y-77535000D01*
X96101939Y-77535000D01*
X96301898Y-77495226D01*
X96490256Y-77417205D01*
X96659774Y-77303937D01*
X96703711Y-77260000D01*
X97992462Y-77260000D01*
X97965000Y-77398061D01*
X97965000Y-77601939D01*
X98004774Y-77801898D01*
X98082795Y-77990256D01*
X98196063Y-78159774D01*
X98340226Y-78303937D01*
X98509744Y-78417205D01*
X98698102Y-78495226D01*
X98898061Y-78535000D01*
X99101939Y-78535000D01*
X99301898Y-78495226D01*
X99490256Y-78417205D01*
X99659774Y-78303937D01*
X99703711Y-78260000D01*
X105296289Y-78260000D01*
X105340226Y-78303937D01*
X105509744Y-78417205D01*
X105698102Y-78495226D01*
X105898061Y-78535000D01*
X106101939Y-78535000D01*
X106301898Y-78495226D01*
X106490256Y-78417205D01*
X106659774Y-78303937D01*
X106803937Y-78159774D01*
X106917205Y-77990256D01*
X106995226Y-77801898D01*
X107035000Y-77601939D01*
X107035000Y-77398061D01*
X107033112Y-77388570D01*
X107159774Y-77303937D01*
X107303937Y-77159774D01*
X107417205Y-76990256D01*
X107495226Y-76801898D01*
X107535000Y-76601939D01*
X107535000Y-76398061D01*
X107533112Y-76388570D01*
X107659774Y-76303937D01*
X107803937Y-76159774D01*
X107917205Y-75990256D01*
X107995226Y-75801898D01*
X108035000Y-75601939D01*
X108035000Y-75398061D01*
X107995226Y-75198102D01*
X107917205Y-75009744D01*
X107803937Y-74840226D01*
X107659774Y-74696063D01*
X107490256Y-74582795D01*
X107301898Y-74504774D01*
X107101939Y-74465000D01*
X106898061Y-74465000D01*
X106698102Y-74504774D01*
X106509744Y-74582795D01*
X106340226Y-74696063D01*
X106296289Y-74740000D01*
X106007538Y-74740000D01*
X106035000Y-74601939D01*
X106035000Y-74398061D01*
X105995226Y-74198102D01*
X105917205Y-74009744D01*
X105803937Y-73840226D01*
X105659774Y-73696063D01*
X105490256Y-73582795D01*
X105301898Y-73504774D01*
X105101939Y-73465000D01*
X104898061Y-73465000D01*
X104698102Y-73504774D01*
X104509744Y-73582795D01*
X104340226Y-73696063D01*
X104296289Y-73740000D01*
X97703711Y-73740000D01*
X97659774Y-73696063D01*
X97490256Y-73582795D01*
X97301898Y-73504774D01*
X97101939Y-73465000D01*
X96898061Y-73465000D01*
X96698102Y-73504774D01*
X96509744Y-73582795D01*
X96340226Y-73696063D01*
X96196063Y-73840226D01*
X96082795Y-74009744D01*
X96004774Y-74198102D01*
X95965000Y-74398061D01*
X95965000Y-74601939D01*
X96004774Y-74801898D01*
X96082795Y-74990256D01*
X96196063Y-75159774D01*
X96340226Y-75303937D01*
X96509744Y-75417205D01*
X96698102Y-75495226D01*
X96898061Y-75535000D01*
X97101939Y-75535000D01*
X97301898Y-75495226D01*
X97490256Y-75417205D01*
X97659774Y-75303937D01*
X97703711Y-75260000D01*
X100888155Y-75260000D01*
X100877999Y-75311056D01*
X100877999Y-75514934D01*
X100917773Y-75714893D01*
X100928173Y-75740000D01*
X96703711Y-75740000D01*
X96659774Y-75696063D01*
X96490256Y-75582795D01*
X96301898Y-75504774D01*
X96101939Y-75465000D01*
X95898061Y-75465000D01*
X95698102Y-75504774D01*
X95509744Y-75582795D01*
X95340226Y-75696063D01*
X95196063Y-75840226D01*
X95082795Y-76009744D01*
X95004774Y-76198102D01*
X94965000Y-76398061D01*
X89561100Y-76398061D01*
X89561100Y-72833740D01*
X137345000Y-72833740D01*
X137345000Y-73126260D01*
X137402068Y-73413158D01*
X137514010Y-73683411D01*
X137676525Y-73926632D01*
X137883368Y-74133475D01*
X138057760Y-74250000D01*
X137883368Y-74366525D01*
X137676525Y-74573368D01*
X137514010Y-74816589D01*
X137402068Y-75086842D01*
X137345000Y-75373740D01*
X137345000Y-75666260D01*
X137402068Y-75953158D01*
X137514010Y-76223411D01*
X137676525Y-76466632D01*
X137883368Y-76673475D01*
X138057760Y-76790000D01*
X137883368Y-76906525D01*
X137676525Y-77113368D01*
X137514010Y-77356589D01*
X137402068Y-77626842D01*
X137345000Y-77913740D01*
X137345000Y-78206260D01*
X137402068Y-78493158D01*
X137514010Y-78763411D01*
X137676525Y-79006632D01*
X137883368Y-79213475D01*
X138056729Y-79329311D01*
X137981208Y-79571603D01*
X138830000Y-80420395D01*
X139678792Y-79571603D01*
X139603271Y-79329311D01*
X139776632Y-79213475D01*
X139983475Y-79006632D01*
X140145990Y-78763411D01*
X140257932Y-78493158D01*
X140315000Y-78206260D01*
X140315000Y-77913740D01*
X140257932Y-77626842D01*
X140145990Y-77356589D01*
X139983475Y-77113368D01*
X139776632Y-76906525D01*
X139602240Y-76790000D01*
X139776632Y-76673475D01*
X139983475Y-76466632D01*
X140145990Y-76223411D01*
X140257932Y-75953158D01*
X140315000Y-75666260D01*
X140315000Y-75373740D01*
X140257932Y-75086842D01*
X140145990Y-74816589D01*
X139983475Y-74573368D01*
X139776632Y-74366525D01*
X139602240Y-74250000D01*
X139776632Y-74133475D01*
X139983475Y-73926632D01*
X140145990Y-73683411D01*
X140257932Y-73413158D01*
X140315000Y-73126260D01*
X140315000Y-72833740D01*
X140257932Y-72546842D01*
X140145990Y-72276589D01*
X139983475Y-72033368D01*
X139776632Y-71826525D01*
X139533411Y-71664010D01*
X139263158Y-71552068D01*
X138976260Y-71495000D01*
X138683740Y-71495000D01*
X138396842Y-71552068D01*
X138126589Y-71664010D01*
X137883368Y-71826525D01*
X137676525Y-72033368D01*
X137514010Y-72276589D01*
X137402068Y-72546842D01*
X137345000Y-72833740D01*
X89561100Y-72833740D01*
X89561100Y-70398061D01*
X98965000Y-70398061D01*
X98965000Y-70601939D01*
X99004774Y-70801898D01*
X99082795Y-70990256D01*
X99196063Y-71159774D01*
X99340226Y-71303937D01*
X99509744Y-71417205D01*
X99698102Y-71495226D01*
X99898061Y-71535000D01*
X100101939Y-71535000D01*
X100301898Y-71495226D01*
X100490256Y-71417205D01*
X100659774Y-71303937D01*
X100703711Y-71260000D01*
X102296289Y-71260000D01*
X102340226Y-71303937D01*
X102509744Y-71417205D01*
X102698102Y-71495226D01*
X102898061Y-71535000D01*
X103101939Y-71535000D01*
X103301898Y-71495226D01*
X103490256Y-71417205D01*
X103659774Y-71303937D01*
X103803937Y-71159774D01*
X103917205Y-70990256D01*
X103995226Y-70801898D01*
X104035000Y-70601939D01*
X104035000Y-70398061D01*
X103995226Y-70198102D01*
X103917205Y-70009744D01*
X103803937Y-69840226D01*
X103659774Y-69696063D01*
X103490256Y-69582795D01*
X103301898Y-69504774D01*
X103277896Y-69500000D01*
X103301896Y-69495226D01*
X103490254Y-69417205D01*
X103659772Y-69303937D01*
X103803935Y-69159774D01*
X103917203Y-68990256D01*
X103995224Y-68801898D01*
X104034998Y-68601939D01*
X104034998Y-68398061D01*
X103995224Y-68198102D01*
X103917203Y-68009744D01*
X103803935Y-67840226D01*
X103659772Y-67696063D01*
X103490254Y-67582795D01*
X103301896Y-67504774D01*
X103101937Y-67465000D01*
X102898059Y-67465000D01*
X102698100Y-67504774D01*
X102509742Y-67582795D01*
X102340224Y-67696063D01*
X102296287Y-67740000D01*
X101703711Y-67740000D01*
X101659774Y-67696063D01*
X101490256Y-67582795D01*
X101301898Y-67504774D01*
X101101939Y-67465000D01*
X100898061Y-67465000D01*
X100698102Y-67504774D01*
X100509744Y-67582795D01*
X100340226Y-67696063D01*
X100196063Y-67840226D01*
X100082795Y-68009744D01*
X100004774Y-68198102D01*
X99965000Y-68398061D01*
X99965000Y-68601939D01*
X100004774Y-68801898D01*
X100082795Y-68990256D01*
X100196063Y-69159774D01*
X100340226Y-69303937D01*
X100509744Y-69417205D01*
X100698102Y-69495226D01*
X100898061Y-69535000D01*
X101101939Y-69535000D01*
X101301898Y-69495226D01*
X101490256Y-69417205D01*
X101659774Y-69303937D01*
X101703711Y-69260000D01*
X102296287Y-69260000D01*
X102340224Y-69303937D01*
X102509742Y-69417205D01*
X102698100Y-69495226D01*
X102722102Y-69500000D01*
X102698102Y-69504774D01*
X102509744Y-69582795D01*
X102340226Y-69696063D01*
X102296289Y-69740000D01*
X100703711Y-69740000D01*
X100659774Y-69696063D01*
X100490256Y-69582795D01*
X100301898Y-69504774D01*
X100101939Y-69465000D01*
X99898061Y-69465000D01*
X99698102Y-69504774D01*
X99509744Y-69582795D01*
X99340226Y-69696063D01*
X99196063Y-69840226D01*
X99082795Y-70009744D01*
X99004774Y-70198102D01*
X98965000Y-70398061D01*
X89561100Y-70398061D01*
X89561100Y-65824117D01*
X129190200Y-65824117D01*
X129190200Y-66165883D01*
X129256875Y-66501081D01*
X129387663Y-66816831D01*
X129577537Y-67100998D01*
X129819202Y-67342663D01*
X130103369Y-67532537D01*
X130419119Y-67663325D01*
X130754317Y-67730000D01*
X131096083Y-67730000D01*
X131431281Y-67663325D01*
X131747031Y-67532537D01*
X132031198Y-67342663D01*
X132272863Y-67100998D01*
X132462737Y-66816831D01*
X132593525Y-66501081D01*
X132622136Y-66357243D01*
X132803368Y-66538475D01*
X133046589Y-66700990D01*
X133316842Y-66812932D01*
X133603740Y-66870000D01*
X133896260Y-66870000D01*
X134183158Y-66812932D01*
X134453411Y-66700990D01*
X134696632Y-66538475D01*
X134821710Y-66413397D01*
X135441208Y-66413397D01*
X135518843Y-66662472D01*
X135782883Y-66788371D01*
X136066411Y-66860339D01*
X136358531Y-66875611D01*
X136648019Y-66833599D01*
X136923747Y-66735919D01*
X137061157Y-66662472D01*
X137138792Y-66413397D01*
X136290000Y-65564605D01*
X135441208Y-66413397D01*
X134821710Y-66413397D01*
X134903475Y-66331632D01*
X135019311Y-66158271D01*
X135261603Y-66233792D01*
X136110395Y-65385000D01*
X135261603Y-64536208D01*
X135019311Y-64611729D01*
X134903475Y-64438368D01*
X134821710Y-64356603D01*
X135441208Y-64356603D01*
X136290000Y-65205395D01*
X137138792Y-64356603D01*
X137061157Y-64107528D01*
X136797117Y-63981629D01*
X136513589Y-63909661D01*
X136221469Y-63894389D01*
X135931981Y-63936401D01*
X135656253Y-64034081D01*
X135518843Y-64107528D01*
X135441208Y-64356603D01*
X134821710Y-64356603D01*
X134696632Y-64231525D01*
X134453411Y-64069010D01*
X134183158Y-63957068D01*
X133896260Y-63900000D01*
X133603740Y-63900000D01*
X133316842Y-63957068D01*
X133046589Y-64069010D01*
X132803368Y-64231525D01*
X132596525Y-64438368D01*
X132434010Y-64681589D01*
X132322068Y-64951842D01*
X132320412Y-64960165D01*
X132272863Y-64889002D01*
X132031198Y-64647337D01*
X131747031Y-64457463D01*
X131431281Y-64326675D01*
X131096083Y-64260000D01*
X130754317Y-64260000D01*
X130419119Y-64326675D01*
X130103369Y-64457463D01*
X129819202Y-64647337D01*
X129577537Y-64889002D01*
X129387663Y-65173169D01*
X129256875Y-65488919D01*
X129190200Y-65824117D01*
X89561100Y-65824117D01*
X89561100Y-61378363D01*
X195265000Y-61378363D01*
X195265000Y-61621637D01*
X195312460Y-61860236D01*
X195405557Y-62084992D01*
X195540713Y-62287267D01*
X195712733Y-62459287D01*
X195915008Y-62594443D01*
X196139764Y-62687540D01*
X196378363Y-62735000D01*
X196621637Y-62735000D01*
X196860236Y-62687540D01*
X197084992Y-62594443D01*
X197287267Y-62459287D01*
X197361554Y-62385000D01*
X203638446Y-62385000D01*
X203712733Y-62459287D01*
X203915008Y-62594443D01*
X204139764Y-62687540D01*
X204378363Y-62735000D01*
X204621637Y-62735000D01*
X204860236Y-62687540D01*
X205084992Y-62594443D01*
X205287267Y-62459287D01*
X205459287Y-62287267D01*
X205594443Y-62084992D01*
X205687540Y-61860236D01*
X205735000Y-61621637D01*
X205735000Y-61378363D01*
X205687540Y-61139764D01*
X205594443Y-60915008D01*
X205459287Y-60712733D01*
X205287267Y-60540713D01*
X205084992Y-60405557D01*
X204860236Y-60312460D01*
X204621637Y-60265000D01*
X204378363Y-60265000D01*
X204139764Y-60312460D01*
X203915008Y-60405557D01*
X203712733Y-60540713D01*
X203638446Y-60615000D01*
X197361554Y-60615000D01*
X197287267Y-60540713D01*
X197084992Y-60405557D01*
X196860236Y-60312460D01*
X196621637Y-60265000D01*
X196378363Y-60265000D01*
X196139764Y-60312460D01*
X195915008Y-60405557D01*
X195712733Y-60540713D01*
X195540713Y-60712733D01*
X195405557Y-60915008D01*
X195312460Y-61139764D01*
X195265000Y-61378363D01*
X89561100Y-61378363D01*
X89561100Y-55470288D01*
X145700128Y-55470288D01*
X145700128Y-56289712D01*
X145859989Y-57093390D01*
X146173569Y-57850438D01*
X146628816Y-58531764D01*
X147208236Y-59111184D01*
X147889562Y-59566431D01*
X148646610Y-59880011D01*
X149450288Y-60039872D01*
X150269712Y-60039872D01*
X151073390Y-59880011D01*
X151830438Y-59566431D01*
X152511764Y-59111184D01*
X153091184Y-58531764D01*
X153546431Y-57850438D01*
X153860011Y-57093390D01*
X154019872Y-56289712D01*
X154019872Y-55470288D01*
X153860011Y-54666610D01*
X153546431Y-53909562D01*
X153091184Y-53228236D01*
X152511764Y-52648816D01*
X151830438Y-52193569D01*
X151073390Y-51879989D01*
X150269712Y-51720128D01*
X149450288Y-51720128D01*
X148646610Y-51879989D01*
X147889562Y-52193569D01*
X147208236Y-52648816D01*
X146628816Y-53228236D01*
X146173569Y-53909562D01*
X145859989Y-54666610D01*
X145700128Y-55470288D01*
X89561100Y-55470288D01*
X89561100Y-39087001D01*
X104149323Y-39087001D01*
X104153000Y-39124333D01*
X104152999Y-44375676D01*
X104149323Y-44412999D01*
X104152999Y-44450321D01*
X104152999Y-44450331D01*
X104163996Y-44561984D01*
X104192967Y-44657490D01*
X104207453Y-44705245D01*
X104278025Y-44837275D01*
X104300800Y-44865026D01*
X104372998Y-44953000D01*
X104402001Y-44976803D01*
X104633628Y-45208429D01*
X104603000Y-45362408D01*
X104603000Y-45637592D01*
X104656686Y-45907490D01*
X104761995Y-46161727D01*
X104914880Y-46390535D01*
X105109465Y-46585120D01*
X105338273Y-46738005D01*
X105367231Y-46750000D01*
X105338273Y-46761995D01*
X105109465Y-46914880D01*
X104914880Y-47109465D01*
X104761995Y-47338273D01*
X104656686Y-47592510D01*
X104603000Y-47862408D01*
X104603000Y-48137592D01*
X104656686Y-48407490D01*
X104761995Y-48661727D01*
X104914880Y-48890535D01*
X105109465Y-49085120D01*
X105338273Y-49238005D01*
X105367231Y-49250000D01*
X105338273Y-49261995D01*
X105109465Y-49414880D01*
X104914880Y-49609465D01*
X104761995Y-49838273D01*
X104656686Y-50092510D01*
X104603000Y-50362408D01*
X104603000Y-50637592D01*
X104656686Y-50907490D01*
X104761995Y-51161727D01*
X104914880Y-51390535D01*
X105109465Y-51585120D01*
X105145292Y-51609059D01*
X105113518Y-51612188D01*
X104993820Y-51648498D01*
X104883506Y-51707463D01*
X104786815Y-51786815D01*
X104707463Y-51883506D01*
X104648498Y-51993820D01*
X104612188Y-52113518D01*
X104599928Y-52238000D01*
X104599928Y-53762000D01*
X104612188Y-53886482D01*
X104648498Y-54006180D01*
X104707463Y-54116494D01*
X104786815Y-54213185D01*
X104883506Y-54292537D01*
X104993820Y-54351502D01*
X105113518Y-54387812D01*
X105238000Y-54400072D01*
X106762000Y-54400072D01*
X106886482Y-54387812D01*
X107006180Y-54351502D01*
X107116494Y-54292537D01*
X107213185Y-54213185D01*
X107292537Y-54116494D01*
X107351502Y-54006180D01*
X107387812Y-53886482D01*
X107400072Y-53762000D01*
X107400072Y-53013603D01*
X107592510Y-53093314D01*
X107862408Y-53147000D01*
X108137592Y-53147000D01*
X108407490Y-53093314D01*
X108661727Y-52988005D01*
X108890535Y-52835120D01*
X109085120Y-52640535D01*
X109238005Y-52411727D01*
X109343314Y-52157490D01*
X109397000Y-51887592D01*
X109397000Y-51612408D01*
X109343314Y-51342510D01*
X109238005Y-51088273D01*
X109085120Y-50859465D01*
X109079609Y-50853954D01*
X109598010Y-50335555D01*
X109627002Y-50311762D01*
X109650796Y-50282769D01*
X109650800Y-50282765D01*
X109721974Y-50196038D01*
X109721975Y-50196037D01*
X109792547Y-50064008D01*
X109836004Y-49920747D01*
X109847001Y-49809094D01*
X109847001Y-49809085D01*
X109850677Y-49771762D01*
X109847001Y-49734439D01*
X109847001Y-47874334D01*
X109850678Y-47837001D01*
X109836004Y-47688015D01*
X109792547Y-47544754D01*
X109721975Y-47412725D01*
X109650800Y-47325998D01*
X109627002Y-47297000D01*
X109598004Y-47273202D01*
X109366372Y-47041570D01*
X109397000Y-46887592D01*
X109397000Y-46612408D01*
X109366372Y-46458430D01*
X109598004Y-46226798D01*
X109627002Y-46203000D01*
X109721975Y-46087275D01*
X109792547Y-45955246D01*
X109836004Y-45811985D01*
X109847001Y-45700332D01*
X109850678Y-45662999D01*
X109847001Y-45625666D01*
X109847001Y-41228239D01*
X190149323Y-41228239D01*
X190152999Y-41265562D01*
X190153000Y-43125667D01*
X190149323Y-43162999D01*
X190153000Y-43200332D01*
X190158976Y-43261001D01*
X190163997Y-43311984D01*
X190207453Y-43455245D01*
X190278025Y-43587275D01*
X190340178Y-43663008D01*
X190372999Y-43703000D01*
X190401997Y-43726798D01*
X190633628Y-43958429D01*
X190603000Y-44112408D01*
X190603000Y-44387592D01*
X190633628Y-44541571D01*
X190402001Y-44773197D01*
X190372998Y-44797000D01*
X190317870Y-44864175D01*
X190278025Y-44912725D01*
X190215208Y-45030247D01*
X190207453Y-45044755D01*
X190163996Y-45188016D01*
X190152999Y-45299669D01*
X190152999Y-45299679D01*
X190149323Y-45337001D01*
X190152999Y-45374324D01*
X190153000Y-48125667D01*
X190149323Y-48162999D01*
X190163997Y-48311984D01*
X190207453Y-48455245D01*
X190278025Y-48587275D01*
X190339127Y-48661727D01*
X190372999Y-48703000D01*
X190401997Y-48726798D01*
X190633628Y-48958429D01*
X190603000Y-49112408D01*
X190603000Y-49387592D01*
X190656686Y-49657490D01*
X190761995Y-49911727D01*
X190914880Y-50140535D01*
X191109465Y-50335120D01*
X191338273Y-50488005D01*
X191367231Y-50500000D01*
X191338273Y-50511995D01*
X191109465Y-50664880D01*
X190914880Y-50859465D01*
X190761995Y-51088273D01*
X190656686Y-51342510D01*
X190603000Y-51612408D01*
X190603000Y-51887592D01*
X190656686Y-52157490D01*
X190761995Y-52411727D01*
X190914880Y-52640535D01*
X191109465Y-52835120D01*
X191338273Y-52988005D01*
X191592510Y-53093314D01*
X191862408Y-53147000D01*
X192137592Y-53147000D01*
X192407490Y-53093314D01*
X192603000Y-53012331D01*
X192603000Y-53137592D01*
X192656686Y-53407490D01*
X192761995Y-53661727D01*
X192914880Y-53890535D01*
X193109465Y-54085120D01*
X193338273Y-54238005D01*
X193592510Y-54343314D01*
X193862408Y-54397000D01*
X194137592Y-54397000D01*
X194407490Y-54343314D01*
X194661727Y-54238005D01*
X194890535Y-54085120D01*
X195085120Y-53890535D01*
X195238005Y-53661727D01*
X195343314Y-53407490D01*
X195397000Y-53137592D01*
X195397000Y-52862408D01*
X195343314Y-52592510D01*
X195238005Y-52338273D01*
X195085120Y-52109465D01*
X194890535Y-51914880D01*
X194661727Y-51761995D01*
X194632769Y-51750000D01*
X194661727Y-51738005D01*
X194890535Y-51585120D01*
X195085120Y-51390535D01*
X195238005Y-51161727D01*
X195343314Y-50907490D01*
X195397000Y-50637592D01*
X195397000Y-50362408D01*
X195366372Y-50208430D01*
X195598004Y-49976798D01*
X195627002Y-49953000D01*
X195721975Y-49837275D01*
X195792547Y-49705246D01*
X195836004Y-49561985D01*
X195847001Y-49450332D01*
X195850678Y-49412999D01*
X195847001Y-49375666D01*
X195847001Y-46624334D01*
X195850678Y-46587001D01*
X195836004Y-46438015D01*
X195792547Y-46294754D01*
X195721975Y-46162725D01*
X195650800Y-46075998D01*
X195627002Y-46047000D01*
X195598005Y-46023203D01*
X195366372Y-45791570D01*
X195397000Y-45637592D01*
X195397000Y-45362408D01*
X195343314Y-45092510D01*
X195238005Y-44838273D01*
X195085120Y-44609465D01*
X194890535Y-44414880D01*
X194661727Y-44261995D01*
X194632769Y-44250000D01*
X194661727Y-44238005D01*
X194890535Y-44085120D01*
X195085120Y-43890535D01*
X195238005Y-43661727D01*
X195343314Y-43407490D01*
X195397000Y-43137592D01*
X195397000Y-42862408D01*
X195343314Y-42592510D01*
X195238005Y-42338273D01*
X195085120Y-42109465D01*
X194890535Y-41914880D01*
X194661727Y-41761995D01*
X194632769Y-41750000D01*
X194661727Y-41738005D01*
X194890535Y-41585120D01*
X195085120Y-41390535D01*
X195238005Y-41161727D01*
X195343314Y-40907490D01*
X195397000Y-40637592D01*
X195397000Y-40362408D01*
X195343314Y-40092510D01*
X195238005Y-39838273D01*
X195085120Y-39609465D01*
X194890535Y-39414880D01*
X194854708Y-39390941D01*
X194886482Y-39387812D01*
X195006180Y-39351502D01*
X195116494Y-39292537D01*
X195213185Y-39213185D01*
X195292537Y-39116494D01*
X195351502Y-39006180D01*
X195387812Y-38886482D01*
X195400072Y-38762000D01*
X195400072Y-37238000D01*
X195387812Y-37113518D01*
X195351502Y-36993820D01*
X195292537Y-36883506D01*
X195213185Y-36786815D01*
X195116494Y-36707463D01*
X195006180Y-36648498D01*
X194886482Y-36612188D01*
X194762000Y-36599928D01*
X193238000Y-36599928D01*
X193113518Y-36612188D01*
X192993820Y-36648498D01*
X192883506Y-36707463D01*
X192786815Y-36786815D01*
X192707463Y-36883506D01*
X192648498Y-36993820D01*
X192612188Y-37113518D01*
X192599928Y-37238000D01*
X192599928Y-37986397D01*
X192407490Y-37906686D01*
X192137592Y-37853000D01*
X191862408Y-37853000D01*
X191592510Y-37906686D01*
X191338273Y-38011995D01*
X191109465Y-38164880D01*
X190914880Y-38359465D01*
X190761995Y-38588273D01*
X190656686Y-38842510D01*
X190603000Y-39112408D01*
X190603000Y-39387592D01*
X190656686Y-39657490D01*
X190761995Y-39911727D01*
X190914880Y-40140535D01*
X190920390Y-40146045D01*
X190402001Y-40664436D01*
X190372998Y-40688238D01*
X190317870Y-40755413D01*
X190278025Y-40803963D01*
X190222688Y-40907490D01*
X190207453Y-40935993D01*
X190163996Y-41079254D01*
X190152999Y-41190907D01*
X190152999Y-41190917D01*
X190149323Y-41228239D01*
X109847001Y-41228239D01*
X109847001Y-40124334D01*
X109850678Y-40087001D01*
X109836004Y-39938015D01*
X109792547Y-39794754D01*
X109721975Y-39662725D01*
X109650800Y-39575998D01*
X109627002Y-39547000D01*
X109598005Y-39523203D01*
X109397000Y-39322198D01*
X109397000Y-39112408D01*
X109343314Y-38842510D01*
X109238005Y-38588273D01*
X109085120Y-38359465D01*
X108890535Y-38164880D01*
X108661727Y-38011995D01*
X108407490Y-37906686D01*
X108137592Y-37853000D01*
X107862408Y-37853000D01*
X107592510Y-37906686D01*
X107397000Y-37987669D01*
X107397000Y-37862408D01*
X107343314Y-37592510D01*
X107238005Y-37338273D01*
X107085120Y-37109465D01*
X106890535Y-36914880D01*
X106661727Y-36761995D01*
X106407490Y-36656686D01*
X106137592Y-36603000D01*
X105862408Y-36603000D01*
X105592510Y-36656686D01*
X105338273Y-36761995D01*
X105109465Y-36914880D01*
X104914880Y-37109465D01*
X104761995Y-37338273D01*
X104656686Y-37592510D01*
X104603000Y-37862408D01*
X104603000Y-38137592D01*
X104633628Y-38291571D01*
X104401997Y-38523202D01*
X104372999Y-38547000D01*
X104349201Y-38575998D01*
X104349200Y-38575999D01*
X104278025Y-38662725D01*
X104207453Y-38794755D01*
X104163997Y-38938016D01*
X104149323Y-39087001D01*
X89561100Y-39087001D01*
X89561100Y-32663600D01*
X210241101Y-32663600D01*
X210241100Y-117343600D01*
M02*
